<?xml version="1.0" encoding="UTF-8" standalone="no"?>
<!-- Created with Inkscape (http://www.inkscape.org/) -->

<svg
   width="106.02615mm"
   height="83.558281mm"
   viewBox="0 0 106.02615 83.558292"
   version="1.1"
   id="svg43170"
   inkscape:version="1.2.1 (9c6d41e4, 2022-07-14)"
   sodipodi:docname="tree.svg"
   xmlns:inkscape="http://www.inkscape.org/namespaces/inkscape"
   xmlns:sodipodi="http://sodipodi.sourceforge.net/DTD/sodipodi-0.dtd"
   xmlns="http://www.w3.org/2000/svg"
   xmlns:svg="http://www.w3.org/2000/svg">
  <sodipodi:namedview
     id="namedview43172"
     pagecolor="#ffffff"
     bordercolor="#000000"
     borderopacity="0.25"
     inkscape:showpageshadow="2"
     inkscape:pageopacity="0.0"
     inkscape:pagecheckerboard="true"
     inkscape:deskcolor="#d1d1d1"
     inkscape:document-units="mm"
     showgrid="false"
     inkscape:zoom="1.5281068"
     inkscape:cx="325.89345"
     inkscape:cy="195.99415"
     inkscape:window-width="2560"
     inkscape:window-height="1395"
     inkscape:window-x="0"
     inkscape:window-y="23"
     inkscape:window-maximized="1"
     inkscape:current-layer="g17113"
     inkscape:lockguides="true" />
  <defs
     id="defs43167">
    <inkscape:path-effect
       effect="simplify"
       id="path-effect38485"
       is_visible="true"
       lpeversion="1"
       steps="1"
       threshold="0.00522388"
       smooth_angles="360"
       helper_size="0"
       simplify_individual_paths="false"
       simplify_just_coalesce="false" />
    <inkscape:path-effect
       effect="simplify"
       id="path-effect38481"
       is_visible="true"
       lpeversion="1"
       steps="1"
       threshold="0.00522388"
       smooth_angles="360"
       helper_size="0"
       simplify_individual_paths="false"
       simplify_just_coalesce="false" />
    <inkscape:path-effect
       effect="simplify"
       id="path-effect38477"
       is_visible="true"
       lpeversion="1"
       steps="1"
       threshold="0.00522388"
       smooth_angles="360"
       helper_size="0"
       simplify_individual_paths="false"
       simplify_just_coalesce="false" />
    <inkscape:path-effect
       effect="simplify"
       id="path-effect38473"
       is_visible="true"
       lpeversion="1"
       steps="1"
       threshold="0.00522388"
       smooth_angles="360"
       helper_size="0"
       simplify_individual_paths="false"
       simplify_just_coalesce="false" />
    <inkscape:path-effect
       effect="simplify"
       id="path-effect38469"
       is_visible="true"
       lpeversion="1"
       steps="1"
       threshold="0.00522388"
       smooth_angles="360"
       helper_size="0"
       simplify_individual_paths="false"
       simplify_just_coalesce="false" />
    <inkscape:path-effect
       effect="simplify"
       id="path-effect38465"
       is_visible="true"
       lpeversion="1"
       steps="1"
       threshold="0.00522388"
       smooth_angles="360"
       helper_size="0"
       simplify_individual_paths="false"
       simplify_just_coalesce="false" />
    <inkscape:path-effect
       effect="simplify"
       id="path-effect38329"
       is_visible="true"
       lpeversion="1"
       steps="1"
       threshold="0.00522388"
       smooth_angles="360"
       helper_size="0"
       simplify_individual_paths="false"
       simplify_just_coalesce="false" />
    <inkscape:path-effect
       effect="simplify"
       id="path-effect38325"
       is_visible="true"
       lpeversion="1"
       steps="1"
       threshold="0.00522388"
       smooth_angles="360"
       helper_size="0"
       simplify_individual_paths="false"
       simplify_just_coalesce="false" />
    <inkscape:path-effect
       effect="simplify"
       id="path-effect38321"
       is_visible="true"
       lpeversion="1"
       steps="1"
       threshold="0.00522388"
       smooth_angles="360"
       helper_size="0"
       simplify_individual_paths="false"
       simplify_just_coalesce="false" />
    <inkscape:path-effect
       effect="simplify"
       id="path-effect38254"
       is_visible="true"
       lpeversion="1"
       steps="1"
       threshold="0.00522388"
       smooth_angles="360"
       helper_size="0"
       simplify_individual_paths="false"
       simplify_just_coalesce="false" />
    <inkscape:path-effect
       effect="simplify"
       id="path-effect17180"
       is_visible="true"
       lpeversion="1"
       steps="1"
       threshold="0.00522388"
       smooth_angles="360"
       helper_size="0"
       simplify_individual_paths="false"
       simplify_just_coalesce="false" />
    <inkscape:path-effect
       effect="simplify"
       id="path-effect13620"
       is_visible="true"
       lpeversion="1"
       steps="1"
       threshold="0.00522388"
       smooth_angles="360"
       helper_size="0"
       simplify_individual_paths="false"
       simplify_just_coalesce="false" />
    <inkscape:path-effect
       effect="simplify"
       id="path-effect13616"
       is_visible="true"
       lpeversion="1"
       steps="1"
       threshold="0.00522388"
       smooth_angles="360"
       helper_size="0"
       simplify_individual_paths="false"
       simplify_just_coalesce="false" />
    <inkscape:path-effect
       effect="simplify"
       id="path-effect13612"
       is_visible="true"
       lpeversion="1"
       steps="1"
       threshold="0.00522388"
       smooth_angles="360"
       helper_size="0"
       simplify_individual_paths="false"
       simplify_just_coalesce="false" />
    <inkscape:path-effect
       effect="simplify"
       id="path-effect13608"
       is_visible="true"
       lpeversion="1"
       steps="1"
       threshold="0.00522388"
       smooth_angles="360"
       helper_size="0"
       simplify_individual_paths="false"
       simplify_just_coalesce="false" />
    <inkscape:path-effect
       effect="simplify"
       id="path-effect13604"
       is_visible="true"
       lpeversion="1"
       steps="1"
       threshold="0.00522388"
       smooth_angles="360"
       helper_size="0"
       simplify_individual_paths="false"
       simplify_just_coalesce="false" />
    <inkscape:path-effect
       effect="simplify"
       id="path-effect13600"
       is_visible="true"
       lpeversion="1"
       steps="1"
       threshold="0.00522388"
       smooth_angles="360"
       helper_size="0"
       simplify_individual_paths="false"
       simplify_just_coalesce="false" />
    <inkscape:path-effect
       effect="simplify"
       id="path-effect13596"
       is_visible="true"
       lpeversion="1"
       steps="1"
       threshold="0.00522388"
       smooth_angles="360"
       helper_size="0"
       simplify_individual_paths="false"
       simplify_just_coalesce="false" />
    <inkscape:path-effect
       effect="simplify"
       id="path-effect13592"
       is_visible="true"
       lpeversion="1"
       steps="1"
       threshold="0.00522388"
       smooth_angles="360"
       helper_size="0"
       simplify_individual_paths="false"
       simplify_just_coalesce="false" />
    <inkscape:path-effect
       effect="simplify"
       id="path-effect13588"
       is_visible="true"
       lpeversion="1"
       steps="1"
       threshold="0.00522388"
       smooth_angles="360"
       helper_size="0"
       simplify_individual_paths="false"
       simplify_just_coalesce="false" />
    <inkscape:path-effect
       effect="simplify"
       id="path-effect13564"
       is_visible="true"
       lpeversion="1"
       steps="1"
       threshold="0.00522388"
       smooth_angles="360"
       helper_size="0"
       simplify_individual_paths="false"
       simplify_just_coalesce="false" />
    <inkscape:path-effect
       effect="simplify"
       id="path-effect13560"
       is_visible="true"
       lpeversion="1"
       steps="1"
       threshold="0.00522388"
       smooth_angles="360"
       helper_size="0"
       simplify_individual_paths="false"
       simplify_just_coalesce="false" />
    <inkscape:path-effect
       effect="simplify"
       id="path-effect13556"
       is_visible="true"
       lpeversion="1"
       steps="1"
       threshold="0.00522388"
       smooth_angles="360"
       helper_size="0"
       simplify_individual_paths="false"
       simplify_just_coalesce="false" />
    <inkscape:path-effect
       effect="simplify"
       id="path-effect13552"
       is_visible="true"
       lpeversion="1"
       steps="1"
       threshold="0.00522388"
       smooth_angles="360"
       helper_size="0"
       simplify_individual_paths="false"
       simplify_just_coalesce="false" />
    <inkscape:path-effect
       effect="simplify"
       id="path-effect13548"
       is_visible="true"
       lpeversion="1"
       steps="1"
       threshold="0.00522388"
       smooth_angles="360"
       helper_size="0"
       simplify_individual_paths="false"
       simplify_just_coalesce="false" />
    <inkscape:path-effect
       effect="simplify"
       id="path-effect13544"
       is_visible="true"
       lpeversion="1"
       steps="1"
       threshold="0.00522388"
       smooth_angles="360"
       helper_size="0"
       simplify_individual_paths="false"
       simplify_just_coalesce="false" />
    <inkscape:path-effect
       effect="simplify"
       id="path-effect13540"
       is_visible="true"
       lpeversion="1"
       steps="1"
       threshold="0.00522388"
       smooth_angles="360"
       helper_size="0"
       simplify_individual_paths="false"
       simplify_just_coalesce="false" />
    <inkscape:path-effect
       effect="simplify"
       id="path-effect13536"
       is_visible="true"
       lpeversion="1"
       steps="1"
       threshold="0.00522388"
       smooth_angles="360"
       helper_size="0"
       simplify_individual_paths="false"
       simplify_just_coalesce="false" />
    <inkscape:path-effect
       effect="simplify"
       id="path-effect13532"
       is_visible="true"
       lpeversion="1"
       steps="1"
       threshold="0.00522388"
       smooth_angles="360"
       helper_size="0"
       simplify_individual_paths="false"
       simplify_just_coalesce="false" />
    <inkscape:path-effect
       effect="simplify"
       id="path-effect38815"
       is_visible="true"
       lpeversion="1"
       steps="1"
       threshold="0.00522388"
       smooth_angles="360"
       helper_size="0"
       simplify_individual_paths="false"
       simplify_just_coalesce="false" />
    <inkscape:path-effect
       effect="simplify"
       id="path-effect38823"
       is_visible="true"
       lpeversion="1"
       steps="1"
       threshold="0.00522388"
       smooth_angles="360"
       helper_size="0"
       simplify_individual_paths="false"
       simplify_just_coalesce="false" />
    <inkscape:path-effect
       effect="simplify"
       id="path-effect38827"
       is_visible="true"
       lpeversion="1"
       steps="1"
       threshold="0.00522388"
       smooth_angles="360"
       helper_size="0"
       simplify_individual_paths="false"
       simplify_just_coalesce="false" />
    <inkscape:path-effect
       effect="simplify"
       id="path-effect38835"
       is_visible="true"
       lpeversion="1"
       steps="1"
       threshold="0.00522388"
       smooth_angles="360"
       helper_size="0"
       simplify_individual_paths="false"
       simplify_just_coalesce="false" />
    <inkscape:path-effect
       effect="simplify"
       id="path-effect38831"
       is_visible="true"
       lpeversion="1"
       steps="1"
       threshold="0.00522388"
       smooth_angles="360"
       helper_size="0"
       simplify_individual_paths="false"
       simplify_just_coalesce="false" />
    <inkscape:path-effect
       effect="simplify"
       id="path-effect38855"
       is_visible="true"
       lpeversion="1"
       steps="1"
       threshold="0.00522388"
       smooth_angles="360"
       helper_size="0"
       simplify_individual_paths="false"
       simplify_just_coalesce="false" />
    <inkscape:path-effect
       effect="simplify"
       id="path-effect38851"
       is_visible="true"
       lpeversion="1"
       steps="1"
       threshold="0.00522388"
       smooth_angles="360"
       helper_size="0"
       simplify_individual_paths="false"
       simplify_just_coalesce="false" />
    <inkscape:path-effect
       effect="simplify"
       id="path-effect38843"
       is_visible="true"
       lpeversion="1"
       steps="1"
       threshold="0.00522388"
       smooth_angles="360"
       helper_size="0"
       simplify_individual_paths="false"
       simplify_just_coalesce="false" />
    <inkscape:path-effect
       effect="simplify"
       id="path-effect38847"
       is_visible="true"
       lpeversion="1"
       steps="1"
       threshold="0.00522388"
       smooth_angles="360"
       helper_size="0"
       simplify_individual_paths="false"
       simplify_just_coalesce="false" />
  </defs>
  <g
     inkscape:label="Ebene 1"
     inkscape:groupmode="layer"
     id="layer1"
     transform="translate(-71.866601,-114.57473)">
    <g
       id="g39188"
       transform="translate(53.520402,-12.857647)">
      <g
         id="g38495">
        <path
           id="path17178"
           style="opacity:0.2;fill:#333333;fill-opacity:1;stroke-width:3.48786"
           d="m 107.1777,178.66215 c -3.9222,-1.063 -9.80865,-2.0081 -11.01468,2.37736 -0.903344,3.71844 2.486281,7.80595 -0.07852,11.23372 -2.44738,1.93026 -2.054119,5.65931 -4.925529,6.76082 -9.370932,2.81008 -22.847214,0.63309 -32.549275,1.61075 -4.725564,0.68158 -9.495359,1.82685 -13.613925,4.33156 3.052208,1.92786 5.172895,6.0695 9.279926,5.68853 10.016775,-0.15646 19.764878,-2.70114 29.553042,-4.5641 5.483598,-0.24203 11.923295,0.52202 16.179681,-3.71089 1.59229,-2.51987 5.02594,-4.33462 7.83881,-2.64366 2.40531,1.48106 2.62405,4.64109 5.35939,5.79545 2.20809,1.642 4.97126,3.2588 7.82271,2.48641 3.77332,-3.02304 3.86043,-6.37007 2.65478,-10.57257 -7.02033,-6.67862 -8.04849,-16.08831 -16.50641,-18.79338 z m -5.56094,6.62394 c 2.63714,1.66428 -3.258998,5.06568 -1.46763,1.52262 0.0882,-0.89187 -0.0949,-2.27395 1.46763,-1.52262 z m 4.0657,4.61304 c 3.63811,2.77021 -5.15306,3.51587 -3.11643,0.45911 0.98341,-0.39799 2.06205,-0.52792 3.11643,-0.45911 z m 3.68248,4.13422 c 0.22546,3.37116 -5.8149,-0.86089 -1.70456,0.007 0.32769,0.0233 1.37688,-0.0304 1.70456,-0.007 z m 2.42861,2.97779 c -0.53271,2.00546 -5.03664,-0.51879 -2.00498,-0.40625 0.12765,-0.031 1.87747,0.43746 2.00498,0.40625 z m 2.12501,3.14447 c 2.17951,2.7022 -4.50986,2.41023 -1.3784,0.21697 0.37024,-0.42226 0.90637,-0.32705 1.3784,-0.21697 z m 2.97637,4.20541 c 2.16586,2.38658 -5.64274,-0.70745 -2.00332,-0.86997 z"
           sodipodi:nodetypes="cccccccccccccccccccccccccccccccc" />
        <g
           id="g17113">
          <path
             style="fill:#3c3c3c;fill-opacity:1;stroke-width:1;stroke-linecap:round;stroke-linejoin:round"
             d="m 52.263896,187.42985 c 2.240464,-4.99729 5.731781,-9.82379 5.674292,-15.50734 -0.03684,-3.64173 -2.399429,-6.80677 -5.447664,-8.68449 -4.580423,-2.82155 -10.385777,-2.79882 -15.05966,-5.30847 -4.386699,-2.35545 -9.081207,-4.29176 -12.767799,-7.88914 -1.28182,-1.2508 -1.505059,-3.26436 0.597125,-4.20089 1.584231,-0.70578 2.856572,-0.01 2.795251,2.27635 -0.09048,3.37273 5.929212,5.64383 7.125781,2.33402 0.713873,-1.97463 1.796412,-5.50417 3.925511,-4.9452 2.861116,0.75115 -1.019473,3.54849 -0.0021,5.3527 1.157786,2.05313 4.04165,0.27399 5.234683,-1.0976 1.635212,-1.87995 2.152901,-7.62304 4.153223,-6.16208 1.787541,1.30555 1.646443,3.92037 1.221972,5.77719 -0.498473,2.18054 1.454834,3.80865 3.412155,2.0342 1.946528,-1.76467 4.158573,-7.45947 6.093715,-5.12581 1.484065,1.78969 -0.580759,3.68214 -2.093859,4.30944 -1.903821,0.78929 -2.584502,3.8899 0.284606,3.62233 3.356766,-0.31305 5.920366,-2.74167 8.373209,-4.7874 1.423495,-1.18723 4.109435,-3.66098 5.33706,-2.0077 1.474582,1.98586 -1.233958,3.41218 -2.869255,3.91546 -1.6949,0.52162 -5.425882,2.52941 -3.680511,3.63758 2.357409,1.49677 5.095522,-0.1357 7.197267,-1.2752 1.624638,-0.88083 3.428965,-1.05798 4.814918,-2.65899 1.094586,-1.26443 0.804734,-5.26449 1.553835,-4.73232 2.782032,1.97637 2.284967,6.31349 -0.685403,8.35627 -2.789467,1.91837 -7.425265,0.92593 -9.130981,4.11836 -1.968423,3.68411 -1.023649,7.96915 -0.953598,11.93959 0.06497,3.68254 -2.179904,6.76551 -4.105174,9.6882 -1.943152,2.94984 -3.012158,6.32005 -3.506016,9.8758 -0.572267,4.1203 -1.106913,9.28645 2.355199,12.18812 2.525324,2.11653 6.856498,1.8231 8.537341,4.73281 1.131526,1.95879 -2.522459,0.92486 -3.693746,0.85284 -3.146188,-0.19344 -7.391637,1.93798 -9.461414,-0.47759 -1.15773,-1.35115 -3.718497,-1.41873 -2.781888,0.87045 0.622171,1.52066 0.37486,3.31642 -1.86818,2.18186 -3.694752,-1.86885 -7.932366,-2.13082 -12.050132,-2.79553 -2.04883,-0.33073 -5.278595,3.62805 -4.969121,1.77415 0.337208,-2.02004 2.389274,-3.33155 4.00879,-4.37752 2.115059,-1.36602 4.501942,-2.38349 7.016824,-2.6801"
             id="path38813"
             inkscape:path-effect="#path-effect38815"
             inkscape:original-d="m 52.263896,187.42985 c 2.966352,-6.42597 7.893298,-13.39619 4.571796,-19.75707 -2.501518,-5.50991 -13.162574,-8.43744 -19.187444,-9.62716 -4.594007,-2.47741 -12.016741,-4.86523 -13.951832,-9.71269 -1.386938,-3.18956 6.344737,-3.68959 4.392168,-0.5719 -0.57696,3.83642 6.128692,6.0769 7.38979,1.99675 0.427976,-1.86618 4.435617,-6.70383 4.852015,-2.79008 -1.536785,1.98485 -2.385579,5.8449 1.468483,4.61458 2.717132,-0.38509 5.621256,-6.99139 6.693712,-7.98457 2.593797,1.35954 -0.250615,8.22685 2.709426,8.80373 3.459416,-0.64816 4.058081,-5.9623 8.018416,-6.11815 2.411485,3.41051 -4.692471,4.09156 -3.757999,7.39951 3.374135,2.08115 7.325677,-2.47983 10.321955,-4.25514 1.408248,-1.47817 6.545494,-4.20208 5.635898,-0.0642 -1.716987,2.54705 -6.705309,1.70593 -6.848604,5.60954 2.733738,1.87154 6.305,-1.30041 9.154588,-2.02212 3.587109,-0.40193 4.032022,-5.21424 4.135823,-6.83785 3.032126,1.96829 3.117667,7.05536 -0.409794,8.54973 -3.063512,2.1161 -8.614312,1.17778 -9.750509,5.51321 -1.557965,5.16648 1.197289,10.96495 -1.78108,15.8269 -2.311441,4.34385 -5.955186,8.29213 -6.06155,13.48622 -0.546637,4.1999 -1.183864,9.14111 1.883296,12.5655 1.612948,2.31488 9.212279,3.20919 9.248133,6.17193 -9.453472,-0.58426 -13.330058,0.53887 -14.883883,-1.66921 -3.48531,-1.16483 0.869945,6.21332 -2.726099,4.42891 -2.326724,-1.78042 -13.598621,-5.39495 -16.11166,-1.39693 -4.533104,1.60993 2.051477,-6.17225 9.581256,-7.03509"
             sodipodi:nodetypes="ccccccccccccccccccccccccccc" />
          <path
             style="fill:#999999;fill-opacity:1;stroke:none;stroke-width:0;stroke-linecap:round;stroke-linejoin:round;stroke-dasharray:none;paint-order:stroke fill markers"
             d="m 26.201977,133.68506 c -2.518492,-0.96861 -5.019406,1.01336 -6.337233,3.04147 -2.272291,3.49701 -2.078716,8.6288 1.1527,11.61138 1.557768,1.43781 3.726517,0.8113 5.523914,-0.36844 2.801333,-1.83869 5.977764,-0.40605 9.171532,-1.16717 2.935864,-0.69966 5.737168,3.28133 8.294093,1.49249 1.805743,-1.26331 4.104606,-0.5624 6.009379,0.0143 1.743925,0.52799 3.519847,0.20109 5.274281,0.0364 2.25835,-0.21202 4.754719,-1.17168 6.897574,0.0994 1.537031,0.91171 3.482942,1.16496 5.152598,1.89977 1.663275,0.732 3.557678,0.264 5.204845,0.84642 1.803145,0.63757 3.971547,2.97943 5.612477,1.55802 1.460674,-1.26527 3.15042,-2.24091 4.986453,-2.83728 1.775261,-0.57663 2.138871,-2.49069 0.966806,-4.08001 -1.800261,-2.44116 -3.850717,-5.03112 -6.864831,-5.92134 -2.554554,-0.75449 -5.265087,-0.53822 -7.893536,-0.46764 -2.735632,0.0735 -5.462882,-0.38291 -8.194685,-0.32168 -6.86815,0.15395 -14.012509,1.20595 -20.620713,-1.35755 -2.271231,-0.88107 -4.566614,-1.71596 -6.84623,-2.58882 -2.164904,-0.82894 -4.61521,-0.46643 -6.805643,-1.2463 -0.227899,-0.0811 -0.456008,-0.16214 -0.683781,-0.24337 z"
             id="path38319"
             inkscape:path-effect="#path-effect38321"
             inkscape:original-d="m 26.201977,133.68506 c -4.068638,-1.65795 -9.571849,4.78961 -7.427015,11.47953 1.601175,3.97114 5.226641,5.56974 7.766396,2.80488 2.957342,-1.8673 6.138135,0.45062 9.171532,-1.16717 3.167783,-0.79144 5.990152,3.31343 9.18287,1.00235 2.863452,-0.77905 5.733432,1.42125 8.672877,0.58666 2.89668,0.29117 6.846309,-1.82961 9.053094,0.427 3.001119,0.70992 5.853001,2.416 8.971877,2.12645 2.516877,0.31512 5.223906,3.75636 7.767434,0.88448 1.763659,-1.50043 8.301341,-2.35742 4.416193,-6.36398 -2.446022,-3.63621 -5.616674,-5.96622 -9.048093,-5.98873 -4.409778,-0.21425 -8.825878,0.28067 -13.226906,-0.36108 -7.334051,0.1 -14.819135,1.54239 -21.972712,-1.78962 -4.223373,-1.23947 -8.192712,-3.74818 -12.553265,-3.3652 l -0.774282,-0.27549 z" />
          <path
             style="fill:#cccccc;fill-opacity:1;stroke:none;stroke-width:0;stroke-linecap:round;stroke-linejoin:round;stroke-dasharray:none;paint-order:stroke fill markers"
             d="m 29.672146,133.14441 c -2.217023,-0.84157 -5.252048,-0.2678 -6.507335,1.90707 -1.158181,2.00663 1.153358,3.16339 2.839924,3.53905 1.883042,0.41942 3.698323,1.00038 5.643222,1.32998 3.856827,0.65362 7.783207,0.43129 11.665479,0.91677 4.112881,0.51432 8.239495,0.81167 12.370438,1.29108 4.495914,0.52177 8.958987,1.28509 13.51694,1.33386 4.262012,0.0456 8.624073,1.17363 12.804459,0.001 1.81597,-0.50933 1.276973,-2.2922 -0.148462,-3.21976 -1.5314,-0.99651 -3.375572,-1.15401 -5.081373,-1.65938 -4.27862,-1.26761 -8.564971,-2.83408 -13.153626,-2.63571 -7.321586,0.31652 -14.631465,1.56393 -21.959439,1.13905 -0.929095,-0.0539 -3.728607,-0.61946 -3.241943,-0.66873 0.480892,-0.0487 -1.348109,-0.37672 -1.816715,-0.48116 -2.07113,-0.46161 -3.932953,-1.47584 -5.864396,-2.43816 -0.339758,-0.16928 -0.746387,-0.13968 -1.067173,-0.35511 z"
             id="path38323"
             inkscape:path-effect="#path-effect38325"
             inkscape:original-d="m 29.672146,133.14441 c -2.693276,-1.14844 -7.554929,0.39177 -6.667271,3.94044 2.235844,2.27629 5.922222,1.34948 8.643082,2.83566 3.335559,0.61349 6.792722,0.31086 10.1697,0.75282 4.566011,0.44171 9.056779,1.47379 13.668952,1.43358 4.209166,0.4491 8.363495,1.44785 12.628827,1.36546 4.624949,-0.14503 9.332749,1.11015 13.889837,-0.009 4.017124,-2.03992 -2.260759,-4.55853 -4.388384,-4.64348 -4.493903,-1.20273 -8.878748,-3.34521 -13.654369,-2.88691 -7.268009,0.33892 -14.564176,0.19395 -21.799585,1.10464 -0.951281,0.27358 -5.380784,-0.66776 -3.453175,-0.62106 -2.822632,-0.67833 -5.622822,-1.04625 -7.970441,-2.91704 -0.34338,-0.17008 -0.743678,-0.13933 -1.067173,-0.35462 z" />
          <path
             style="fill:#f2f2f2;fill-opacity:1;stroke:none;stroke-width:0;stroke-linecap:round;stroke-linejoin:round;stroke-dasharray:none;paint-order:stroke fill markers;opacity:0.99"
             d="m 35.298876,129.33884 c -1.271703,0.93022 -3.227538,1.57502 -3.506458,3.25526 -0.218127,1.31402 0.648881,2.62762 1.714835,3.30831 2.060247,1.31561 4.586086,1.3252 6.927694,1.64523 6.915503,0.94516 13.903094,-0.74615 20.806501,0.13378 4.053717,0.5167 8.023749,1.24634 12.252971,1.07069 1.130668,-0.047 2.303821,-1.50495 1.207387,-2.44138 -1.658377,-1.41637 -3.922208,-1.63202 -5.985973,-1.93924 -3.848101,-0.57285 -7.683404,-1.14971 -11.438511,-2.37608 -4.127592,-1.34802 -7.768146,-4.22126 -12.1928,-4.52511 -1.790374,-0.12295 -3.59069,0.0689 -5.354957,0.34789 -1.545426,0.24438 -3.123494,0.62057 -4.430689,1.52065 z"
             id="path38327"
             inkscape:path-effect="#path-effect38329"
             inkscape:original-d="m 35.298876,129.33884 c -1.593352,1.12649 -4.555037,2.45538 -3.22545,4.8853 1.275979,2.75708 4.798513,2.78994 7.446385,3.18573 6.505391,1.08502 13.059712,-0.13534 19.59203,0.1119 5.05305,0.0645 10.067806,2.68144 15.088591,1.02485 2.868575,-1.88423 -1.318653,-3.53205 -3.152306,-3.7324 -4.477572,-1.04725 -9.270265,-0.79759 -13.514941,-2.7335 -5.483778,-1.79354 -9.326714,-5.30296 -14.978688,-4.54475 -1.87055,0.12632 -5.220732,0.36422 -7.255621,1.80287 z"
             sodipodi:nodetypes="accccccca" />
        </g>
      </g>
    </g>
  </g>
</svg>
