<?xml version="1.0" encoding="UTF-8" standalone="no"?>
<!-- Created with Inkscape (http://www.inkscape.org/) -->

<svg
   width="46.034283mm"
   height="92.324295mm"
   viewBox="0 0 46.034281 92.324298"
   version="1.1"
   id="svg43170"
   inkscape:version="1.2.1 (9c6d41e4, 2022-07-14)"
   sodipodi:docname="tree-leaf2.svg"
   xmlns:inkscape="http://www.inkscape.org/namespaces/inkscape"
   xmlns:sodipodi="http://sodipodi.sourceforge.net/DTD/sodipodi-0.dtd"
   xmlns="http://www.w3.org/2000/svg"
   xmlns:svg="http://www.w3.org/2000/svg">
  <sodipodi:namedview
     id="namedview43172"
     pagecolor="#ffffff"
     bordercolor="#000000"
     borderopacity="0.25"
     inkscape:showpageshadow="2"
     inkscape:pageopacity="0.0"
     inkscape:pagecheckerboard="true"
     inkscape:deskcolor="#d1d1d1"
     inkscape:document-units="mm"
     showgrid="false"
     inkscape:zoom="0.2102413"
     inkscape:cx="-99.885226"
     inkscape:cy="4.7564393"
     inkscape:window-width="1344"
     inkscape:window-height="456"
     inkscape:window-x="0"
     inkscape:window-y="23"
     inkscape:window-maximized="0"
     inkscape:current-layer="layer1" />
  <defs
     id="defs43167">
    <inkscape:path-effect
       effect="simplify"
       id="path-effect38815"
       is_visible="true"
       lpeversion="1"
       steps="1"
       threshold="0.00522388"
       smooth_angles="360"
       helper_size="0"
       simplify_individual_paths="false"
       simplify_just_coalesce="false" />
    <inkscape:path-effect
       effect="simplify"
       id="path-effect38823"
       is_visible="true"
       lpeversion="1"
       steps="1"
       threshold="0.00522388"
       smooth_angles="360"
       helper_size="0"
       simplify_individual_paths="false"
       simplify_just_coalesce="false" />
    <inkscape:path-effect
       effect="simplify"
       id="path-effect38827"
       is_visible="true"
       lpeversion="1"
       steps="1"
       threshold="0.00522388"
       smooth_angles="360"
       helper_size="0"
       simplify_individual_paths="false"
       simplify_just_coalesce="false" />
    <inkscape:path-effect
       effect="simplify"
       id="path-effect38835"
       is_visible="true"
       lpeversion="1"
       steps="1"
       threshold="0.00522388"
       smooth_angles="360"
       helper_size="0"
       simplify_individual_paths="false"
       simplify_just_coalesce="false" />
    <inkscape:path-effect
       effect="simplify"
       id="path-effect38831"
       is_visible="true"
       lpeversion="1"
       steps="1"
       threshold="0.00522388"
       smooth_angles="360"
       helper_size="0"
       simplify_individual_paths="false"
       simplify_just_coalesce="false" />
    <inkscape:path-effect
       effect="simplify"
       id="path-effect38855"
       is_visible="true"
       lpeversion="1"
       steps="1"
       threshold="0.00522388"
       smooth_angles="360"
       helper_size="0"
       simplify_individual_paths="false"
       simplify_just_coalesce="false" />
    <inkscape:path-effect
       effect="simplify"
       id="path-effect38851"
       is_visible="true"
       lpeversion="1"
       steps="1"
       threshold="0.00522388"
       smooth_angles="360"
       helper_size="0"
       simplify_individual_paths="false"
       simplify_just_coalesce="false" />
    <inkscape:path-effect
       effect="simplify"
       id="path-effect38843"
       is_visible="true"
       lpeversion="1"
       steps="1"
       threshold="0.00522388"
       smooth_angles="360"
       helper_size="0"
       simplify_individual_paths="false"
       simplify_just_coalesce="false" />
    <inkscape:path-effect
       effect="simplify"
       id="path-effect38847"
       is_visible="true"
       lpeversion="1"
       steps="1"
       threshold="0.00522388"
       smooth_angles="360"
       helper_size="0"
       simplify_individual_paths="false"
       simplify_just_coalesce="false" />
    <inkscape:path-effect
       effect="simplify"
       id="path-effect26733"
       is_visible="true"
       lpeversion="1"
       steps="1"
       threshold="0.00522388"
       smooth_angles="360"
       helper_size="0"
       simplify_individual_paths="false"
       simplify_just_coalesce="false" />
    <inkscape:path-effect
       effect="simplify"
       id="path-effect30963"
       is_visible="true"
       lpeversion="1"
       steps="1"
       threshold="0.00522388"
       smooth_angles="360"
       helper_size="0"
       simplify_individual_paths="false"
       simplify_just_coalesce="false" />
    <inkscape:path-effect
       effect="simplify"
       id="path-effect30233"
       is_visible="true"
       lpeversion="1"
       steps="1"
       threshold="0.00522388"
       smooth_angles="360"
       helper_size="0"
       simplify_individual_paths="false"
       simplify_just_coalesce="false" />
    <inkscape:path-effect
       effect="simplify"
       id="path-effect21479"
       is_visible="true"
       lpeversion="1"
       steps="1"
       threshold="0.00980583"
       smooth_angles="360"
       helper_size="0"
       simplify_individual_paths="false"
       simplify_just_coalesce="false" />
    <inkscape:path-effect
       effect="simplify"
       id="path-effect21483"
       is_visible="true"
       lpeversion="1"
       steps="1"
       threshold="0.00980583"
       smooth_angles="360"
       helper_size="0"
       simplify_individual_paths="false"
       simplify_just_coalesce="false" />
    <inkscape:path-effect
       effect="simplify"
       id="path-effect21487"
       is_visible="true"
       lpeversion="1"
       steps="1"
       threshold="0.00980583"
       smooth_angles="360"
       helper_size="0"
       simplify_individual_paths="false"
       simplify_just_coalesce="false" />
    <inkscape:path-effect
       effect="simplify"
       id="path-effect21491"
       is_visible="true"
       lpeversion="1"
       steps="1"
       threshold="0.00980583"
       smooth_angles="360"
       helper_size="0"
       simplify_individual_paths="false"
       simplify_just_coalesce="false" />
    <inkscape:path-effect
       effect="simplify"
       id="path-effect21495"
       is_visible="true"
       lpeversion="1"
       steps="1"
       threshold="0.00980583"
       smooth_angles="360"
       helper_size="0"
       simplify_individual_paths="false"
       simplify_just_coalesce="false" />
    <inkscape:path-effect
       effect="simplify"
       id="path-effect21499"
       is_visible="true"
       lpeversion="1"
       steps="1"
       threshold="0.00980583"
       smooth_angles="360"
       helper_size="0"
       simplify_individual_paths="false"
       simplify_just_coalesce="false" />
    <inkscape:path-effect
       effect="simplify"
       id="path-effect21503"
       is_visible="true"
       lpeversion="1"
       steps="1"
       threshold="0.00980583"
       smooth_angles="360"
       helper_size="0"
       simplify_individual_paths="false"
       simplify_just_coalesce="false" />
    <inkscape:path-effect
       effect="simplify"
       id="path-effect21507"
       is_visible="true"
       lpeversion="1"
       steps="1"
       threshold="0.00980583"
       smooth_angles="360"
       helper_size="0"
       simplify_individual_paths="false"
       simplify_just_coalesce="false" />
    <inkscape:path-effect
       effect="simplify"
       id="path-effect21511"
       is_visible="true"
       lpeversion="1"
       steps="1"
       threshold="0.00980583"
       smooth_angles="360"
       helper_size="0"
       simplify_individual_paths="false"
       simplify_just_coalesce="false" />
    <inkscape:path-effect
       effect="simplify"
       id="path-effect21515"
       is_visible="true"
       lpeversion="1"
       steps="1"
       threshold="0.00980583"
       smooth_angles="360"
       helper_size="0"
       simplify_individual_paths="false"
       simplify_just_coalesce="false" />
    <inkscape:path-effect
       effect="simplify"
       id="path-effect21519"
       is_visible="true"
       lpeversion="1"
       steps="1"
       threshold="0.00980583"
       smooth_angles="360"
       helper_size="0"
       simplify_individual_paths="false"
       simplify_just_coalesce="false" />
    <inkscape:path-effect
       effect="simplify"
       id="path-effect21523"
       is_visible="true"
       lpeversion="1"
       steps="1"
       threshold="0.00980583"
       smooth_angles="360"
       helper_size="0"
       simplify_individual_paths="false"
       simplify_just_coalesce="false" />
    <inkscape:path-effect
       effect="simplify"
       id="path-effect21527"
       is_visible="true"
       lpeversion="1"
       steps="1"
       threshold="0.00980583"
       smooth_angles="360"
       helper_size="0"
       simplify_individual_paths="false"
       simplify_just_coalesce="false" />
    <inkscape:path-effect
       effect="simplify"
       id="path-effect21531"
       is_visible="true"
       lpeversion="1"
       steps="1"
       threshold="0.00980583"
       smooth_angles="360"
       helper_size="0"
       simplify_individual_paths="false"
       simplify_just_coalesce="false" />
    <inkscape:path-effect
       effect="simplify"
       id="path-effect21535"
       is_visible="true"
       lpeversion="1"
       steps="1"
       threshold="0.00980583"
       smooth_angles="360"
       helper_size="0"
       simplify_individual_paths="false"
       simplify_just_coalesce="false" />
    <inkscape:path-effect
       effect="simplify"
       id="path-effect21539"
       is_visible="true"
       lpeversion="1"
       steps="1"
       threshold="0.00980583"
       smooth_angles="360"
       helper_size="0"
       simplify_individual_paths="false"
       simplify_just_coalesce="false" />
    <inkscape:path-effect
       effect="simplify"
       id="path-effect22467"
       is_visible="true"
       lpeversion="1"
       steps="1"
       threshold="0.00980583"
       smooth_angles="360"
       helper_size="0"
       simplify_individual_paths="false"
       simplify_just_coalesce="false" />
    <inkscape:path-effect
       effect="simplify"
       id="path-effect22471"
       is_visible="true"
       lpeversion="1"
       steps="1"
       threshold="0.00980583"
       smooth_angles="360"
       helper_size="0"
       simplify_individual_paths="false"
       simplify_just_coalesce="false" />
    <inkscape:path-effect
       effect="simplify"
       id="path-effect22475"
       is_visible="true"
       lpeversion="1"
       steps="1"
       threshold="0.00980583"
       smooth_angles="360"
       helper_size="0"
       simplify_individual_paths="false"
       simplify_just_coalesce="false" />
    <inkscape:path-effect
       effect="simplify"
       id="path-effect22479"
       is_visible="true"
       lpeversion="1"
       steps="1"
       threshold="0.00980583"
       smooth_angles="360"
       helper_size="0"
       simplify_individual_paths="false"
       simplify_just_coalesce="false" />
    <inkscape:path-effect
       effect="simplify"
       id="path-effect22483"
       is_visible="true"
       lpeversion="1"
       steps="1"
       threshold="0.00980583"
       smooth_angles="360"
       helper_size="0"
       simplify_individual_paths="false"
       simplify_just_coalesce="false" />
    <inkscape:path-effect
       effect="simplify"
       id="path-effect22487"
       is_visible="true"
       lpeversion="1"
       steps="1"
       threshold="0.00980583"
       smooth_angles="360"
       helper_size="0"
       simplify_individual_paths="false"
       simplify_just_coalesce="false" />
    <inkscape:path-effect
       effect="simplify"
       id="path-effect22491"
       is_visible="true"
       lpeversion="1"
       steps="1"
       threshold="0.00980583"
       smooth_angles="360"
       helper_size="0"
       simplify_individual_paths="false"
       simplify_just_coalesce="false" />
    <inkscape:path-effect
       effect="simplify"
       id="path-effect22495"
       is_visible="true"
       lpeversion="1"
       steps="1"
       threshold="0.00980583"
       smooth_angles="360"
       helper_size="0"
       simplify_individual_paths="false"
       simplify_just_coalesce="false" />
    <inkscape:path-effect
       effect="simplify"
       id="path-effect22499"
       is_visible="true"
       lpeversion="1"
       steps="1"
       threshold="0.00980583"
       smooth_angles="360"
       helper_size="0"
       simplify_individual_paths="false"
       simplify_just_coalesce="false" />
    <inkscape:path-effect
       effect="simplify"
       id="path-effect22503"
       is_visible="true"
       lpeversion="1"
       steps="1"
       threshold="0.00980583"
       smooth_angles="360"
       helper_size="0"
       simplify_individual_paths="false"
       simplify_just_coalesce="false" />
    <inkscape:path-effect
       effect="simplify"
       id="path-effect22507"
       is_visible="true"
       lpeversion="1"
       steps="1"
       threshold="0.00980583"
       smooth_angles="360"
       helper_size="0"
       simplify_individual_paths="false"
       simplify_just_coalesce="false" />
    <inkscape:path-effect
       effect="simplify"
       id="path-effect22511"
       is_visible="true"
       lpeversion="1"
       steps="1"
       threshold="0.00980583"
       smooth_angles="360"
       helper_size="0"
       simplify_individual_paths="false"
       simplify_just_coalesce="false" />
    <inkscape:path-effect
       effect="simplify"
       id="path-effect22515"
       is_visible="true"
       lpeversion="1"
       steps="1"
       threshold="0.00980583"
       smooth_angles="360"
       helper_size="0"
       simplify_individual_paths="false"
       simplify_just_coalesce="false" />
    <inkscape:path-effect
       effect="simplify"
       id="path-effect22519"
       is_visible="true"
       lpeversion="1"
       steps="1"
       threshold="0.00980583"
       smooth_angles="360"
       helper_size="0"
       simplify_individual_paths="false"
       simplify_just_coalesce="false" />
    <inkscape:path-effect
       effect="simplify"
       id="path-effect22523"
       is_visible="true"
       lpeversion="1"
       steps="1"
       threshold="0.00980583"
       smooth_angles="360"
       helper_size="0"
       simplify_individual_paths="false"
       simplify_just_coalesce="false" />
    <inkscape:path-effect
       effect="simplify"
       id="path-effect22527"
       is_visible="true"
       lpeversion="1"
       steps="1"
       threshold="0.00980583"
       smooth_angles="360"
       helper_size="0"
       simplify_individual_paths="false"
       simplify_just_coalesce="false" />
    <inkscape:path-effect
       effect="simplify"
       id="path-effect22535"
       is_visible="true"
       lpeversion="1"
       steps="1"
       threshold="0.00980583"
       smooth_angles="360"
       helper_size="0"
       simplify_individual_paths="false"
       simplify_just_coalesce="false" />
    <inkscape:path-effect
       effect="simplify"
       id="path-effect22539"
       is_visible="true"
       lpeversion="1"
       steps="1"
       threshold="0.00980583"
       smooth_angles="360"
       helper_size="0"
       simplify_individual_paths="false"
       simplify_just_coalesce="false" />
  </defs>
  <g
     inkscape:label="Ebene 1"
     inkscape:groupmode="layer"
     id="layer1"
     transform="translate(-89.958207,-147.17718)">
    <g
       id="g22581"
       transform="translate(-4.86833,100.79716)">
      <path
         id="path21388"
         style="fill:#cccccc;fill-opacity:1;stroke-width:1;stroke-linecap:round;stroke-linejoin:round"
         d="m 110.18811,46.380632 c -0.88095,-0.01538 -1.77844,0.258824 -2.66186,0.943094 -4.03629,3.1264 -5.57293,8.038499 -5.17074,12.80232 0.56865,6.735434 -0.83002,13.409055 -3.234428,19.65358 -1.990875,5.17054 -4.886121,10.432545 -4.188375,16.160771 1.190287,9.771803 9.502643,17.125083 18.152383,20.854023 2.97444,1.2823 6.46911,2.07372 9.68313,1.62574 0.63066,2.04265 1.61976,4.02112 1.28932,6.20634 -0.4025,2.66176 -1.36429,5.19678 -1.89497,7.83208 -0.3542,1.7589 -0.27603,3.97912 -1.67122,5.09426 -0.55261,0.44169 -0.8766,1.43533 0.30128,1.07384 1.04395,-0.32039 2.14808,-0.59297 3.24166,-0.56431 0.92915,0.0243 1.64976,-0.28556 1.65571,-1.49293 0.0126,-2.56417 0.48331,-5.096 0.6134,-7.65534 0.17191,-3.38202 0.44695,-6.89074 -0.58549,-10.15442 -0.0962,-0.30398 -0.20729,-0.66448 -0.3421,-1.0232 1.19196,-0.4771 2.30498,-1.1806 3.28662,-2.16421 6.06073,-6.07287 11.044,-13.92879 12.00185,-22.680782 0.39729,-3.63012 0.28338,-7.497576 -1.19992,-10.939901 -3.06037,-7.102217 -8.3177,-12.712153 -13.79193,-17.925521 -2.81311,-2.679067 -6.01791,-5.142834 -7.12514,-9.049577 -0.2356,-1.409528 -0.87219,-2.730128 -1.72031,-3.871598 -1.50371,-2.023822 -3.99604,-4.678134 -6.63887,-4.724259 z" />
      <g
         id="g22559">
        <path
           style="fill:#808080;fill-opacity:1;stroke-width:1;stroke-linecap:round;stroke-linejoin:round"
           d="m 110.45872,50.426807 c -0.94255,5.157184 1.23913,10.626469 4.68679,14.234928 3.22355,3.373892 5.4068,7.558939 7.19321,11.799966 2.11843,5.029256 1.70798,10.623091 2.30396,15.941566 0.7724,6.892866 -3.48042,14.133083 -0.84295,20.588923 1.22786,3.00548 0.51145,-2.44221 0.54045,-3.30238 0.1127,-3.34315 -0.0546,-6.68753 0.24746,-10.025487 0.50632,-5.595762 2.76222,-11.412834 0.41003,-16.927828 -1.44545,-3.389028 -2.20715,-6.984095 -3.84208,-10.325003 -1.3932,-2.846946 -2.51372,-5.522142 -4.58899,-8.238018 -2.26627,-2.965835 -3.00333,-6.760194 -4.40519,-10.175574 -0.50091,-1.220381 -1.04793,-2.424656 -1.70269,-3.571093 z"
           id="path22465"
           inkscape:path-effect="#path-effect22467"
           inkscape:original-d="m 110.45872,50.426807 c -1.08904,4.427133 1.87229,10.330566 4.42341,13.902129 0.32942,0.461198 0.7583,0.842553 1.13744,1.26383 0.42128,0.589785 0.86179,1.166297 1.26383,1.769361 1.36887,2.053305 2.37625,4.279096 3.53873,6.445531 0.48177,0.897842 1.09662,1.725686 1.51659,2.654043 1.57366,3.478617 1.5781,7.515773 1.89575,11.248086 0.30289,3.558958 0.77609,7.170076 0.37915,10.742551 -0.27729,2.495542 -2.20537,13.718892 -0.25277,15.671492 0.25144,0.25144 0,-1.3561 0,-2.40128 0,-1.81706 -0.10367,-3.59404 0.12638,-5.43447 0.326,-2.60793 -0.16993,-5.55232 0.25277,-8.088506 0.53285,-3.197111 1.19831,-6.342817 1.39021,-9.605108 0.19201,-3.264175 -1.35833,-6.246101 -2.40128,-9.225957 -0.21727,-0.869111 -0.45607,-1.924138 -0.75829,-2.780424 -0.73401,-2.079673 -1.81617,-4.031536 -2.65405,-6.066383 -0.5467,-1.327721 -0.72087,-2.688116 -1.51659,-3.917873 -0.81646,-1.261798 -2.11502,-2.054283 -2.90681,-3.285958 -0.88995,-1.384372 -1.30279,-3.034467 -1.89575,-4.549786 -1.08575,-2.774701 -2.06008,-5.75365 -3.53872,-8.341278 z" />
        <path
           style="fill:#808080;fill-opacity:1;stroke-width:1;stroke-linecap:round;stroke-linejoin:round"
           d="m 128.27872,110.07957 c -0.2574,-1.22638 0.5403,-2.34107 1.33582,-3.17793 0.83983,-0.88347 1.6464,-1.80136 2.28311,-2.84846 0.62266,-1.02399 1.20772,-2.08559 1.50226,-3.2617 0.24674,-0.985226 1.59254,-2.502512 0.69243,-2.971057 -0.70485,-0.366902 -1.18187,0.547569 -1.42459,1.068492 -0.46415,0.996136 -0.67795,2.197565 -1.62704,2.891695 -0.7067,0.51686 -1.36807,1.14258 -1.62373,2.0295 -0.28559,0.99075 -0.3165,2.03958 -0.82387,2.97968 -0.40714,0.75438 -1.08611,1.51824 -0.917,2.42176 0.0675,0.36037 0.31528,0.65531 0.60261,0.86802 z"
           id="path22469"
           inkscape:path-effect="#path-effect22471"
           inkscape:original-d="m 128.27872,110.07957 c -0.39389,-1.93274 1.73139,-3.40384 2.78043,-4.80255 0.7692,-1.02561 1.49366,-2.24972 2.02212,-3.41234 0.14966,-0.32924 1.09954,-3.991176 1.01107,-4.044257 -0.99877,-0.59926 -1.7087,1.788586 -1.89575,2.274897 -0.64053,1.66538 -1.05233,1.43148 -2.14851,2.52766 -0.77266,0.77266 -0.78692,2.1883 -1.01106,3.15957 -0.31674,1.37252 -2.40623,3.06107 -0.7583,4.29702 z" />
        <path
           style="fill:#808080;fill-opacity:1;stroke-width:1;stroke-linecap:round;stroke-linejoin:round"
           d="m 129.97405,98.523968 c 0.55507,-1.146406 1.38875,-2.129064 2.38823,-2.938468 0.43291,-0.350581 0.95379,-0.646062 1.1569,-1.210714 0.48222,-1.340584 1.15378,-2.68557 1.17028,-4.109292 0.004,-0.376291 0.38017,-1.462393 -0.10977,-1.325171 -1.0275,0.287781 -1.54423,1.328541 -1.88614,2.25265 -0.34859,0.942155 -0.69145,1.892069 -1.32152,2.706085 -0.74149,0.957958 -1.66077,1.815236 -2.11353,2.965872 -0.23551,0.598525 0.0608,1.28454 0.60979,1.592265 0,0 0.0518,0.03357 0.0518,0.03357 0,0 0.0539,0.0332 0.0539,0.0332 z"
           id="path22473"
           inkscape:path-effect="#path-effect22475"
           inkscape:original-d="m 129.97405,98.523968 c 1.26569,-2.531385 2.28829,-2.711302 3.29493,-3.665106 0.31249,-0.296092 1.00871,-2.940293 1.13745,-3.412341 0.28789,-1.05558 0.62289,-2.62019 0.25277,-2.52766 -1.71913,0.429784 -1.96701,2.670188 -2.65404,4.044256 -0.85257,1.705134 -4.37844,4.152453 -2.03111,5.560851 z"
           sodipodi:nodetypes="cssssc" />
        <path
           style="fill:#808080;fill-opacity:1;stroke-width:1;stroke-linecap:round;stroke-linejoin:round"
           d="m 128.70387,85.687658 c 0.73778,-1.605293 1.53242,-3.185391 2.22637,-4.80986 0.42047,-0.984285 0.87788,-2.106486 0.55604,-3.125661 -0.12268,-0.388497 0.3954,-1.213965 -0.002,-1.164052 -0.50512,0.06345 -0.79183,0.607698 -1.04532,0.997989 -0.6732,1.036511 -1.34373,2.096461 -1.76867,3.256717 -0.40205,1.097756 -0.58768,2.257866 -0.71059,3.413502 -0.0489,0.45969 -0.24683,1.182617 0.25023,1.416848 0.15454,0.07282 0.33313,0.05404 0.49392,0.01452 z"
           id="path22477"
           inkscape:path-effect="#path-effect22479"
           inkscape:original-d="m 128.70387,85.687658 c 0.50554,-1.095319 1.01107,-2.190639 1.5166,-3.285958 0.56378,-1.221526 0.86121,-1.66375 1.13744,-2.906808 0.1592,-0.716362 0.12639,-1.424463 0.12639,-2.148509 0,-0.252767 0.23979,-0.678368 0,-0.758298 -0.63826,-0.212755 -2.55374,3.620113 -2.78043,4.170637 -0.36699,0.891273 -0.44264,1.960459 -0.63191,2.906808 -0.15525,0.776256 -0.50533,2.306439 0.63191,2.022128 z" />
        <path
           style="fill:#808080;fill-opacity:1;stroke-width:1;stroke-linecap:round;stroke-linejoin:round"
           d="m 125.4983,76.461701 c -0.13495,-0.644768 -0.44309,-1.302441 -0.25861,-1.968393 0.27374,-0.98818 0.57624,-1.96854 0.83368,-2.961522 0.17668,-0.681479 0.44912,-1.342098 0.53677,-2.045938 0.0647,-0.519541 -0.56362,-0.353719 -0.79785,-0.08257 -0.55552,0.643064 -0.83594,1.473939 -1.0484,2.280764 -0.27287,1.036255 -0.50008,2.105941 -0.45605,3.183176 0.025,0.610398 0.43822,1.117277 0.94111,1.440674 0.0822,0.05283 0.16562,0.103556 0.24935,0.153813 z"
           id="path22481"
           inkscape:path-effect="#path-effect22483"
           inkscape:original-d="m 125.4983,76.461701 c -0.52539,-2.101543 -0.43075,-1.101275 0.50553,-4.676169 0.35367,-1.350383 1.01908,-2.781763 0.25276,-2.654043 -1.21691,0.202819 -2.22392,4.917762 -1.89574,6.066382 0.18938,0.662832 0.57882,0.928653 1.13745,1.26383 z" />
        <path
           style="fill:#808080;fill-opacity:1;stroke-width:1;stroke-linecap:round;stroke-linejoin:round"
           d="m 122.59149,69.384256 c -0.1459,-1.519039 -0.12831,-3.065547 -0.46427,-4.554855 -0.0555,-0.245854 -0.10044,-0.660886 -0.36696,-0.669633 -0.27598,-0.0091 -0.56345,0.254652 -0.58177,0.512303 -0.0459,0.645243 0.0388,1.29311 0.13287,1.93008 0.13417,0.908927 0.43772,1.787737 0.55404,2.701996 0.0348,0.273278 0.25444,0.390699 0.51135,0.217907 0.0705,-0.04744 0.13853,-0.09946 0.21474,-0.137798 z"
           id="path22485"
           inkscape:path-effect="#path-effect22487"
           inkscape:original-d="m 122.59149,69.384256 c -0.12639,-1.30596 -0.2123,-2.616467 -0.37915,-3.917873 -0.0559,-0.436256 -0.0682,-0.952826 -0.37915,-1.26383 -0.1737,-0.173697 -0.53215,0.154675 -0.63191,0.379148 -0.20209,0.454697 0.46805,5.055319 0.88468,5.055319 0.1884,0 0.33702,-0.16851 0.50553,-0.252764 z" />
        <path
           style="fill:#808080;fill-opacity:1;stroke-width:1;stroke-linecap:round;stroke-linejoin:round"
           d="m 118.29447,61.801276 c -0.16601,-1.064915 -0.31211,-2.163706 -0.789,-3.137327 -0.14227,-0.290461 -0.2953,-0.610587 -0.58709,-0.778734 -0.15695,-0.09044 -0.33867,0.02241 -0.40305,0.176218 -0.17338,0.414227 -0.10695,0.884822 0.0124,1.303037 0.28146,0.986461 0.95378,1.828609 1.76676,2.436806 z"
           id="path22489"
           inkscape:path-effect="#path-effect22491"
           inkscape:original-d="m 118.29447,61.801276 c -1.07147,-7.321647 -3.63403,-2.725518 0,0 z" />
        <path
           style="fill:#808080;fill-opacity:1;stroke-width:1;stroke-linecap:round;stroke-linejoin:round"
           d="m 110.58511,61.422126 c -0.80012,-0.928579 -1.57425,-1.882976 -2.50649,-2.691027 -0.66086,-0.57282 -1.31911,-1.158585 -2.09264,-1.590184 -0.40523,-0.226102 -0.3523,0.26351 -0.22369,0.520102 0.42055,0.839054 0.97347,1.616807 1.67765,2.247721 0.58098,0.52053 1.26537,0.918799 1.82596,1.459475 0.20551,0.19821 0.36756,0.596652 0.65523,0.558661 0.29263,-0.03865 0.44589,-0.338826 0.66398,-0.504748 z"
           id="path22493"
           inkscape:path-effect="#path-effect22495"
           inkscape:original-d="m 110.58511,61.422126 c -0.54767,-0.631915 -1.06388,-1.292514 -1.64298,-1.895742 -0.43372,-0.451787 -0.93238,-0.836515 -1.39022,-1.26383 -0.79131,-0.738564 -3.11621,-2.462626 -1.13744,0.505531 0.71813,1.077203 1.80457,1.729232 2.78042,2.52766 0.0363,0.02973 0.61304,0.668229 0.7583,0.631915 0.26169,-0.06542 0.42128,-0.337024 0.63192,-0.505534 z" />
        <path
           style="fill:#808080;fill-opacity:1;stroke-width:1;stroke-linecap:round;stroke-linejoin:round"
           d="m 113.6183,66.351062 c -1.10363,1.397752 -2.7592,2.265735 -4.46572,2.630923 -1.54808,0.331282 -3.16439,0.325249 -4.68812,0.755171 -0.52818,0.149027 -0.39446,0.654358 0.13021,0.780825 1.06777,0.257375 2.16189,0.07883 3.24348,0.05909 1.59753,-0.02916 3.32912,-0.06094 4.68275,-1.008527 0.67672,-0.473727 1.46275,-1.085202 1.48855,-1.979643 0.0128,-0.442717 -0.16801,-0.864961 -0.39115,-1.237841 z"
           id="path22497"
           inkscape:path-effect="#path-effect22499"
           inkscape:original-d="m 113.6183,66.351062 c -1.21021,1.483037 -2.75238,2.163842 -4.54979,2.654043 -0.57723,0.157427 -4.51871,0.640205 -4.67617,0.758299 -1.16775,0.87581 1.418,0.901985 1.64298,0.884679 2.6773,-0.205944 5.28124,0.279612 7.33021,-1.769361 0.80368,-0.803675 0.81784,-1.585868 0.25277,-2.52766 z" />
        <path
           style="fill:#808080;fill-opacity:1;stroke-width:1;stroke-linecap:round;stroke-linejoin:round"
           d="m 115.38766,72.291063 c -1.03473,1.557436 -2.96058,2.105147 -4.71684,2.393906 -1.19179,0.19595 -2.40234,0.103969 -3.60078,0.193917 -1.1361,0.08527 -2.09699,0.771693 -3.10321,1.268293 -0.64154,0.316619 -0.18758,0.704717 0.36756,0.720864 1.2207,0.03551 2.39439,-0.349321 3.60351,-0.478272 2.04315,-0.217899 4.24339,0.190899 6.12921,-0.780188 0.81605,-0.420218 1.75347,-0.817458 2.24034,-1.625265 0.44207,-0.733473 -0.35607,-1.363992 -0.91979,-1.693255 z"
           id="path22501"
           inkscape:path-effect="#path-effect22503"
           inkscape:original-d="m 115.38766,72.291063 c -1.29308,1.94595 -3.92694,2.385029 -6.06638,2.52766 -1.27134,0.08475 -2.0929,-0.08811 -3.28596,0.252765 -0.78969,0.225623 -4.4314,2.0531 -0.88468,1.769361 1.70547,-0.300964 2.00093,-0.415073 3.53872,-0.505531 2.21536,-0.130316 3.91239,0.129471 5.94,-1.011063 1.66026,-0.933895 2.6873,-1.875793 0.7583,-3.033192 z" />
        <path
           style="fill:#808080;fill-opacity:1;stroke-width:1;stroke-linecap:round;stroke-linejoin:round"
           d="m 119.68468,76.714468 c -2.75684,1.428163 -5.33949,3.303533 -8.4486,3.957358 -2.02842,0.426563 -4.19873,0.0089 -6.16277,0.638156 -1.25465,0.401968 -2.92999,0.51036 -3.60134,1.674441 -0.62353,1.08117 1.25477,0.956134 1.90864,0.855051 1.62106,-0.250604 3.20534,-0.670543 4.85021,-0.801305 2.68727,-0.213629 5.23826,-1.122768 7.77749,-1.987865 1.1227,-0.382496 2.59161,-0.59518 3.10236,-1.80561 0.33914,-0.803731 0.38252,-1.688283 0.57401,-2.530226 z"
           id="path22505"
           inkscape:path-effect="#path-effect22507"
           inkscape:original-d="m 119.68468,76.714468 c -2.65834,1.361326 -4.76654,3.055784 -7.70936,3.791487 -2.26285,0.565714 -4.42736,0.55185 -6.6983,0.758299 -0.3262,0.02965 -5.24553,1.539896 -3.66511,2.527659 0.81899,0.511869 4.28134,-0.546351 5.30809,-0.631915 3.75049,-0.312541 5.28439,-0.68622 8.84681,-2.022128 1.33515,-0.500682 1.89034,-0.43217 2.90681,-1.263827 0.73053,-0.597712 0.80396,-2.33117 1.01106,-3.159575 z" />
        <path
           style="fill:#808080;fill-opacity:1;stroke-width:1;stroke-linecap:round;stroke-linejoin:round"
           d="m 119.43191,84.92936 c -3.94393,0.839806 -7.82269,1.939727 -11.82863,2.533261 -1.85795,0.27528 -3.74612,0.01498 -5.6091,0.219239 -0.81712,0.08959 -2.857099,-0.236842 -2.499768,0.687671 0.335208,0.867275 1.466948,0.775851 2.231398,0.763718 3.0814,-0.04891 6.17399,-0.125249 9.22334,-0.624251 2.68959,-0.440131 5.24044,-1.525124 7.92728,-1.975269 0.80596,-0.135028 0.69721,-1.00952 0.55548,-1.604369 z"
           id="path22509"
           inkscape:path-effect="#path-effect22511"
           inkscape:original-d="m 119.43191,84.92936 c -2.83949,0.60031 -5.62447,1.441262 -8.46766,2.022128 -1.11984,0.228785 -4.35717,0.694994 -6.06638,0.758299 -2.31395,0.0857 -6.094303,-0.425686 -5.308083,0.884679 0.448323,0.747207 2.392353,0.505534 3.033193,0.505534 5.33384,0 9.4096,-0.51494 14.53404,-2.022128 0.095,-0.02795 2.16884,-0.566523 2.27489,-0.884682 0.15341,-0.460203 0.1098,-0.714849 0,-1.26383 z" />
        <path
           style="fill:#808080;fill-opacity:1;stroke-width:1;stroke-linecap:round;stroke-linejoin:round"
           d="m 120.06383,88.341702 c -3.23742,1.71082 -6.38848,3.885656 -10.14804,4.284929 -2.83075,0.300631 -5.69881,-0.210869 -8.51273,0.167762 -0.91204,0.122721 -2.324075,-0.04618 -2.656716,0.887775 -0.441026,1.238264 1.210141,1.254562 2.017826,1.195205 5.05581,-0.37155 10.26604,-0.202272 15.11655,-1.78996 1.45099,-0.474944 3.20726,-0.992866 3.87198,-2.489812 0.31416,-0.707488 0.31337,-1.496912 0.31113,-2.255899 z"
           id="path22513"
           inkscape:path-effect="#path-effect22515"
           inkscape:original-d="m 120.06383,88.341702 c -2.86086,1.500962 -5.89964,3.666648 -9.22596,4.170637 -1.93242,0.292791 -4.1113,0.252767 -6.06638,0.252767 -0.53659,0 -7.26368,-0.436769 -5.940001,1.769362 0.340963,0.568274 2.980431,0.275396 3.285951,0.252764 3.71447,-0.275146 15.82086,-0.551487 17.56724,-4.044254 0.38689,-0.773777 0.37915,-1.572511 0.37915,-2.401276 z" />
        <path
           style="fill:#808080;fill-opacity:1;stroke-width:1;stroke-linecap:round;stroke-linejoin:round"
           d="m 119.68468,94.660851 c -3.91899,1.577989 -7.717,3.536809 -11.80763,4.617124 -1.5437,0.407683 -3.13333,0.929785 -4.72451,0.813905 -1.23873,-0.0902 -3.12702,-1.606096 -3.689136,-0.502093 -0.636505,1.250093 1.135166,1.663933 2.041256,1.749823 2.06971,0.19618 4.1422,-0.15553 6.17685,-0.49908 2.19405,-0.37046 4.30277,-1.190615 6.14453,-2.445631 1.23571,-0.84204 2.64633,-1.352307 3.96088,-2.05352 0.7301,-0.389454 1.66038,-0.809948 1.89776,-1.680528 z"
           id="path22517"
           inkscape:path-effect="#path-effect22519"
           inkscape:original-d="m 119.68468,94.660851 c -2.78043,1.137446 -5.5367,2.335832 -8.34128,3.412339 -3.29865,1.266148 -4.4592,1.577846 -7.83574,2.02213 -0.64205,0.0845 -3.971319,-0.651411 -4.044256,-0.505533 -0.978609,1.957223 3.327046,1.871463 4.297016,1.769363 2.61329,-0.27509 5.27317,-0.56023 7.70937,-1.642982 1.52282,-0.676807 2.9222,-1.777055 4.4234,-2.52766 1.03753,-0.518763 3.54604,-1.300406 3.79149,-2.527657 z" />
        <path
           style="fill:#808080;fill-opacity:1;stroke-width:1;stroke-linecap:round;stroke-linejoin:round"
           d="m 119.05276,101.86468 c -0.52134,0.1171 -0.94987,0.34028 -1.42607,0.6256 -1.42296,0.85258 -2.93733,1.54816 -4.47212,2.17012 -1.59375,0.64585 -4.98251,-0.46081 -4.97074,1.24853 0.003,0.50381 0.83543,0.75257 1.28389,0.92512 1.05359,0.40537 2.20961,0.22265 3.25076,-0.14898 0.85853,-0.30645 1.72366,-0.67446 2.65784,-0.63853 0.77992,0.03 1.58301,-0.13684 2.20205,-0.64881 0.89401,-0.73938 1.68922,-1.84365 1.58807,-3.04194 -0.0142,-0.16798 -0.0509,-0.33447 -0.11368,-0.49111 z"
           id="path22521"
           inkscape:path-effect="#path-effect22523"
           inkscape:original-d="m 119.05276,101.86468 c -2.47638,0.6191 1.20195,-0.33933 -5.56085,2.65404 -1.80666,0.79967 -3.48747,0.87004 -5.30808,1.39021 -0.20254,0.0579 0.1972,0.3994 0.37915,0.50554 0.83647,0.48794 1.80672,0.76174 2.78042,0.63191 1.00075,-0.13343 1.93754,-0.62033 2.90681,-0.88468 0.79753,-0.21751 1.60559,-0.008 2.40128,-0.25277 1.4195,-0.43677 2.97069,-2.62071 2.40127,-4.04425 z" />
        <path
           style="fill:#808080;fill-opacity:1;stroke-width:1;stroke-linecap:round;stroke-linejoin:round"
           d="m 119.17915,109.32128 c -0.80468,0.15993 -1.61416,0.28939 -2.436,0.34048 -0.75719,0.0471 -1.59261,-0.0405 -2.25385,0.35307 -0.41206,0.24523 -0.79421,0.74824 -0.65413,1.23699 0.11916,0.41577 0.64134,0.36161 0.9763,0.29418 0.3608,-0.0726 0.697,-0.22137 1.07613,-0.22471 1.03804,-0.009 2.07843,0.15422 3.06533,0.51104 0.22157,0.0801 0.22833,0.32612 0.54206,0.18488 0.4245,-0.1911 0.87195,-0.58157 0.7892,-1.09282 -0.1084,-0.66971 -0.66345,-1.13624 -1.10504,-1.60311 z"
           id="path22525"
           inkscape:path-effect="#path-effect22527"
           inkscape:original-d="m 119.17915,109.32128 c -0.46341,0.0842 -0.92369,0.18797 -1.39022,0.25276 -1.05066,0.14593 -2.15326,0.0437 -3.15957,0.37915 -0.50077,0.16692 -0.99436,0.91808 -0.7583,1.39021 0.28083,0.56165 1.50104,0.0149 1.64298,0 0.58,-0.0611 1.67096,-0.003 2.27489,0.12639 1.79328,0.38427 1.31519,0.71446 1.5166,0.63191 2.14843,-0.88061 0.15623,-2.44129 -0.12638,-2.78042 z"
           sodipodi:nodetypes="csssccsc" />
        <path
           style="fill:#808080;fill-opacity:1;stroke-width:1;stroke-linecap:round;stroke-linejoin:round"
           d="m 130.18343,90.666539 c 0.77952,-1.492064 1.35753,-3.107788 2.3348,-4.479151 0.37364,-0.524312 0.6635,-1.095094 0.97944,-1.659337 0.31613,-0.564575 0.50863,-1.207134 0.45907,-1.838471 -0.0207,-0.263572 0.31852,-1.006136 0.14457,-0.86985 -1.08024,0.846336 -1.544,2.197878 -2.02419,3.429404 -0.34656,0.888812 -0.76992,1.755945 -1.41251,2.479185 -0.47552,0.5352 -1.01011,1.228527 -0.85595,1.956867 0.0728,0.344037 0.26309,0.649752 0.37477,0.981353 z"
           id="path22533"
           inkscape:path-effect="#path-effect22535"
           inkscape:original-d="m 130.18343,90.666539 c 0.71618,-1.390213 1.39967,-2.797752 2.14852,-4.170637 0.26302,-0.482209 0.63903,-0.898925 0.88468,-1.390214 0.73112,-1.462246 0.55285,-1.295008 0.75829,-2.52766 0.0421,-0.252764 0.33139,-0.912048 0.12639,-0.758298 -1.4505,1.087874 -1.86978,3.537582 -2.78043,5.055319 -0.43646,0.727443 -1.11023,1.18218 -1.39021,2.022129 -0.28379,0.851376 -0.0784,0.88632 0.25276,1.769361 z" />
        <path
           style="fill:#808080;fill-opacity:1;stroke-width:1;stroke-linecap:round;stroke-linejoin:round"
           d="m 127.4477,78.463461 c 0.21496,-0.822572 0.50948,-1.618943 0.8327,-2.40613 0.5653,-1.376753 1.2448,-2.688966 1.7642,-4.104728 0.14203,-0.387141 -0.13239,-0.829244 -0.60186,-0.658002 -0.49114,0.179146 -0.97229,0.478739 -1.22533,0.957229 -0.57251,1.082616 -0.88112,2.284417 -1.11091,3.479205 -0.14924,0.775966 -0.27959,1.561379 -0.29071,2.353275"
           id="path22537"
           inkscape:path-effect="#path-effect22539"
           inkscape:original-d="m 127.4477,78.463461 c 0.32532,-1.138608 0.31227,-1.19204 0.88468,-2.52766 0.5274,-1.230587 1.29366,-2.372643 1.64298,-3.665106 0.5104,-1.888474 -1.31994,-0.61795 -1.5166,-0.37915 -0.86903,1.05525 -1.64297,4.663397 -1.64297,6.192765" />
      </g>
    </g>
  </g>
</svg>
