<?xml version="1.0" encoding="UTF-8" standalone="no"?>
<!-- Created with Inkscape (http://www.inkscape.org/) -->

<svg
   width="180"
   height="180"
   viewBox="0 0 47.625001 47.625"
   version="1.1"
   id="svg28766"
   inkscape:version="1.2.1 (9c6d41e4, 2022-07-14)"
   sodipodi:docname="3gpp.svg"
   xmlns:inkscape="http://www.inkscape.org/namespaces/inkscape"
   xmlns:sodipodi="http://sodipodi.sourceforge.net/DTD/sodipodi-0.dtd"
   xmlns="http://www.w3.org/2000/svg"
   xmlns:svg="http://www.w3.org/2000/svg">
  <sodipodi:namedview
     id="namedview28768"
     pagecolor="#009400"
     bordercolor="#000000"
     borderopacity="0.25"
     inkscape:showpageshadow="false"
     inkscape:pageopacity="0"
     inkscape:pagecheckerboard="0"
     inkscape:deskcolor="#d1d1d1"
     inkscape:document-units="mm"
     showgrid="false"
     inkscape:zoom="4.7602969"
     inkscape:cx="83.398159"
     inkscape:cy="73.41979"
     inkscape:window-width="2560"
     inkscape:window-height="1395"
     inkscape:window-x="0"
     inkscape:window-y="23"
     inkscape:window-maximized="1"
     inkscape:current-layer="layer1" />
  <defs
     id="defs28763">
    <inkscape:path-effect
       effect="simplify"
       id="path-effect1524"
       is_visible="true"
       lpeversion="1"
       steps="1"
       threshold="0.00522388"
       smooth_angles="360"
       helper_size="0"
       simplify_individual_paths="false"
       simplify_just_coalesce="false" />
    <inkscape:path-effect
       effect="simplify"
       id="path-effect1528"
       is_visible="true"
       lpeversion="1"
       steps="1"
       threshold="0.00522388"
       smooth_angles="360"
       helper_size="0"
       simplify_individual_paths="false"
       simplify_just_coalesce="false" />
    <inkscape:path-effect
       effect="simplify"
       id="path-effect1532"
       is_visible="true"
       lpeversion="1"
       steps="1"
       threshold="0.00522388"
       smooth_angles="360"
       helper_size="0"
       simplify_individual_paths="false"
       simplify_just_coalesce="false" />
    <inkscape:path-effect
       effect="simplify"
       id="path-effect1536"
       is_visible="true"
       lpeversion="1"
       steps="1"
       threshold="0.00522388"
       smooth_angles="360"
       helper_size="0"
       simplify_individual_paths="false"
       simplify_just_coalesce="false" />
    <inkscape:path-effect
       effect="simplify"
       id="path-effect1540"
       is_visible="true"
       lpeversion="1"
       steps="1"
       threshold="0.00522388"
       smooth_angles="360"
       helper_size="0"
       simplify_individual_paths="false"
       simplify_just_coalesce="false" />
    <inkscape:path-effect
       effect="simplify"
       id="path-effect1544"
       is_visible="true"
       lpeversion="1"
       steps="1"
       threshold="0.00522388"
       smooth_angles="360"
       helper_size="0"
       simplify_individual_paths="false"
       simplify_just_coalesce="false" />
    <inkscape:path-effect
       effect="simplify"
       id="path-effect1548"
       is_visible="true"
       lpeversion="1"
       steps="1"
       threshold="0.00522388"
       smooth_angles="360"
       helper_size="0"
       simplify_individual_paths="false"
       simplify_just_coalesce="false" />
    <inkscape:path-effect
       effect="simplify"
       id="path-effect1552"
       is_visible="true"
       lpeversion="1"
       steps="1"
       threshold="0.00522388"
       smooth_angles="360"
       helper_size="0"
       simplify_individual_paths="false"
       simplify_just_coalesce="false" />
    <inkscape:path-effect
       effect="simplify"
       id="path-effect1556"
       is_visible="true"
       lpeversion="1"
       steps="1"
       threshold="0.00522388"
       smooth_angles="360"
       helper_size="0"
       simplify_individual_paths="false"
       simplify_just_coalesce="false" />
    <inkscape:path-effect
       effect="simplify"
       id="path-effect1560"
       is_visible="true"
       lpeversion="1"
       steps="1"
       threshold="0.00522388"
       smooth_angles="360"
       helper_size="0"
       simplify_individual_paths="false"
       simplify_just_coalesce="false" />
  </defs>
  <g
     inkscape:label="Ebene 1"
     inkscape:groupmode="layer"
     id="layer1"
     transform="translate(-91.327681,-140.83378)">
    <g
       id="g1680"
       transform="matrix(1.8069597,0,0,1.8069597,54.018427,137.725)">
      <path
         style="opacity:0.99;fill:none;stroke:#ffffff;stroke-width:1.4;stroke-linecap:round;stroke-dasharray:none;stroke-opacity:1;paint-order:fill markers stroke"
         d="m 25.188564,9.677883 c 0.737411,-0.1302159 1.517177,-0.2522927 2.246047,-0.019663 0.439258,0.1401958 0.862994,0.4247247 1.044954,0.8657237 0.236338,0.572789 0.08351,1.239986 -0.247391,1.740451 -0.201239,0.304364 -0.463727,0.607849 -0.837772,0.689521 -0.595212,0.129964 -1.19261,-0.04082 -1.786556,-0.09124 -0.169733,-0.01441 -0.320342,0.0519 -0.486791,0.112353 -0.169258,0.06147 -0.272108,0.335942 -0.0078,0.336454 0.68192,0.0013 1.403087,0.0074 2.017181,0.348907 0.300854,0.167313 0.532031,0.438725 0.66519,0.757171 0.267275,0.639178 0.291627,1.409438 -0.02415,2.019696 -0.494288,0.955257 -1.527341,1.567291 -2.584837,1.648479 -0.977284,0.07503 -2.004341,-0.209309 -2.745686,-0.854591 -0.446743,-0.388854 -0.809576,-0.888542 -1.000235,-1.451149 -0.130263,-0.384387 -0.151823,-0.838698 0.09825,-1.181714"
         id="path1522"
         inkscape:path-effect="#path-effect1524"
         inkscape:original-d="m 25.188564,9.677883 c 0.988616,-0.1782153 2.170639,-0.3300666 2.985195,0.397115 0.733718,0.72169 0.408094,1.913954 -0.246056,2.570141 -0.615044,0.662746 -1.666784,0.183425 -2.524036,0.216755 -0.265998,0.01025 -0.788979,0.470784 -0.191091,0.451346 0.827891,-0.0053 1.810332,0.04207 2.37809,0.736378 0.475515,0.671127 0.488501,1.61628 0.192382,2.365258 -0.489054,0.958165 -1.466753,1.522644 -2.440703,1.653739 -1.098637,0.147878 -2.389014,-0.263527 -3.148429,-1.071091 C 21.626,16.3936 21.027991,15.31759 21.538988,14.598286"
         sodipodi:nodetypes="cccccccaac" />
      <path
         style="opacity:0.99;fill:none;stroke:#ffffff;stroke-width:1.4;stroke-linecap:round;stroke-dasharray:none;stroke-opacity:1;paint-order:fill markers stroke"
         d="m 34.247322,10.525105 c -0.727995,-0.248831 -1.493323,-0.431228 -2.265913,-0.412038 -0.44492,0.01105 -0.911146,0.119163 -1.250929,0.433772 -0.833183,0.771452 -1.325467,1.85084 -1.536973,2.953899 -0.114579,0.597558 -0.181316,1.212539 -0.115559,1.816975 0.08624,0.792757 0.463316,1.548177 1.026408,2.111427 0.394153,0.394264 0.940651,0.647269 1.504098,0.629379 0.717188,-0.02277 1.42558,-0.286713 1.989224,-0.728092 0.328274,-0.257065 0.57765,-0.610115 0.701962,-1.014406 0.13861,-0.45079 0.171073,-0.92447 0.208364,-1.39188"
         id="path1526"
         inkscape:path-effect="#path-effect1528"
         inkscape:original-d="m 34.247322,10.525105 c -0.872093,-0.309933 -2.710753,-0.7349896 -3.459962,-0.03 -1.224287,1.093375 -1.753122,2.848844 -1.720344,4.508774 -0.03586,1.194736 0.859295,2.695489 1.976917,2.982949 1.025769,0.317126 2.924942,-0.448791 3.234493,-1.604577 0.156504,-0.469647 0.190525,-0.968153 0.229578,-1.45811"
         sodipodi:nodetypes="cccccc" />
      <path
         style="opacity:0.99;fill:none;stroke:#ffffff;stroke-width:1.4;stroke-linecap:square;stroke-linejoin:miter;stroke-dasharray:none;stroke-opacity:1;paint-order:fill markers stroke"
         d="m 32.324781,14.533117 c 0.567628,0.06181 1.138991,0.03296 1.708421,0.02558 0.426041,-0.0055 1.266635,-0.342312 1.274253,0.08408 0.0094,0.524319 0.174869,1.02631 0.264107,1.539247 0.06929,0.398306 0.106445,0.801692 0.122499,1.205497"
         id="path1530"
         inkscape:path-effect="#path-effect1532"
         inkscape:original-d="m 32.324781,14.533117 c 1.116643,0.113489 1.83559,-0.07217 2.982674,0.10966 0.01874,0.795898 0.325679,1.22713 0.386606,2.744744"
         sodipodi:nodetypes="ccc" />
      <path
         style="opacity:0.99;fill:none;stroke:#ffffff;stroke-width:0.899999;stroke-linecap:square;stroke-dasharray:none;stroke-opacity:1;paint-order:fill markers stroke"
         d="m 37.929481,10.720618 c 0.721065,2.008159 1.458754,4.012163 2.076361,6.055115 0.104472,0.345578 0.205033,0.692412 0.29581,1.041864"
         id="path1534"
         inkscape:original-d="m 37.929481,10.720618 c 0.666485,1.851981 1.877318,5.18826 2.372171,7.096979"
         inkscape:path-effect="#path-effect1536"
         sodipodi:nodetypes="cc" />
      <path
         style="opacity:0.99;fill:none;stroke:#ffffff;stroke-width:0.899999;stroke-linecap:square;stroke-dasharray:none;stroke-opacity:1;paint-order:fill markers stroke"
         d="m 37.701381,10.622861 c 0.459652,-0.204381 0.907478,-0.456266 1.40166,-0.562082 0.463366,-0.099218 0.943295,-0.1169353 1.413575,-0.070006 0.410271,0.040941 0.829183,0.122602 1.187903,0.337764 0.192804,0.115645 0.327247,0.305913 0.403979,0.515336 0.179054,0.48869 0.105431,1.034214 -0.09055,1.507899 -0.279384,0.675277 -0.828731,1.212533 -1.467213,1.554842 -0.661694,0.354754 -1.416099,0.52726 -2.165059,0.528747"
         id="path1538"
         inkscape:original-d="m 37.701381,10.622861 c 0.3942,-0.177389 0.950193,-0.446921 1.368592,-0.553952 0.688287,-0.176074 2.488419,-0.1865015 2.932691,0.553952 0.243946,0.406578 0.257668,0.95553 0.130342,1.401175 -0.460187,1.610648 -2.165053,2.411325 -3.747328,2.411325"
         inkscape:path-effect="#path-effect1540" />
      <path
         style="opacity:0.99;fill:none;stroke:#ffffff;stroke-width:0.899999;stroke-linecap:square;stroke-dasharray:none;stroke-opacity:1;paint-order:fill markers stroke"
         d="m 39.949778,8.7329043 c 0.336372,0.7738849 0.774487,1.4981777 1.097182,2.2793567 0.517554,1.252892 0.943573,2.542112 1.510875,3.775367 0.506184,1.10039 1.02181,2.197551 1.59547,3.26472"
         id="path1542"
         inkscape:path-effect="#path-effect1544"
         inkscape:original-d="m 39.949778,8.7329043 c 0.281779,0.6567303 0.657929,1.2687027 0.944981,1.9225427 0.55449,1.263005 0.95663,2.59079 1.531517,3.845085 0.297508,0.64911 1.042734,2.286764 1.727029,3.551816"
         sodipodi:nodetypes="cssc" />
      <path
         style="opacity:0.99;fill:none;stroke:#ffffff;stroke-width:0.899999;stroke-linecap:square;stroke-dasharray:none;stroke-opacity:1;paint-order:fill markers stroke"
         d="M 39.786853,8.4722206 C 41.126931,8.1351969 42.522649,7.909495 43.904088,8.07715 c 0.498751,0.06053 1.011838,0.1262891 1.465826,0.3428253 0.44463,0.2120729 0.842148,0.5711189 1.017481,1.0403656 0.103345,0.2765842 0.05665,0.5797781 -0.04614,0.8557471 -0.334664,0.898546 -1.060637,1.598145 -1.881666,2.067903 -0.322614,0.184586 -0.666338,0.326295 -1.004429,0.479153 -0.517321,0.233892 -1.045583,0.443665 -1.582838,0.627237"
         id="path1546"
         inkscape:path-effect="#path-effect1548"
         inkscape:original-d="m 39.786853,8.4722206 c 1.800393,-0.4545453 3.763129,-0.6991324 5.550705,-0.066881 0.690311,0.3046951 1.383169,1.0939785 1.01362,1.8840004 -0.418721,1.143909 -1.421448,1.948222 -2.521276,2.399257 -0.636167,0.30507 -1.289914,0.573653 -1.957577,0.801784"
         sodipodi:nodetypes="cssscsc" />
      <path
         style="opacity:0.99;fill:none;stroke:#ffffff;stroke-width:0.649296;stroke-linecap:round;stroke-dasharray:none;stroke-opacity:0.976471;paint-order:fill markers stroke"
         d="m 35.097557,19.786329 c 0.306673,0.08907 0.630708,0.139724 0.949527,0.09772 0.200711,-0.02644 0.397866,-0.09379 0.564362,-0.210555"
         id="path1550"
         inkscape:path-effect="#path-effect1552"
         inkscape:original-d="m 35.097557,19.786329 c 0.606216,0.17727 1.138165,0.149437 1.513889,-0.112831"
         sodipodi:nodetypes="cc" />
      <path
         style="opacity:0.99;fill:none;stroke:#ffffff;stroke-width:0.649296;stroke-linecap:round;stroke-dasharray:none;stroke-opacity:0.976471;paint-order:fill markers stroke"
         d="m 33.851608,20.562109 c 0.368136,0.351192 0.83795,0.599069 1.342495,0.68077 0.589412,0.09544 1.195875,-0.03393 1.733442,-0.280578 0.212424,-0.09746 0.416192,-0.213445 0.610145,-0.343752"
         id="path1554"
         inkscape:path-effect="#path-effect1556"
         inkscape:original-d="m 33.851608,20.562109 c 1.118496,1.054313 2.546436,0.822264 3.686082,0.05644"
         sodipodi:nodetypes="cc" />
      <path
         style="opacity:0.99;fill:none;stroke:#ffffff;stroke-width:0.649296;stroke-linecap:round;stroke-dasharray:none;stroke-opacity:0.976471;paint-order:fill markers stroke"
         d="m 33.404947,21.808057 c 0.624357,0.454526 1.3778,0.731109 2.150188,0.774773 1.009084,0.05704 2.021869,-0.252092 2.871201,-0.788843"
         id="path1558"
         inkscape:path-effect="#path-effect1560"
         inkscape:original-d="m 33.404947,21.808057 c 1.805841,1.299901 3.818097,0.752627 5.021389,-0.01407"
         sodipodi:nodetypes="cc" />
    </g>
  </g>
</svg>
