<?xml version="1.0" encoding="UTF-8" standalone="no"?>
<!-- Created with Inkscape (http://www.inkscape.org/) -->

<svg
   version="1.1"
   id="svg8941"
   width="208.42267"
   height="95.157509"
   viewBox="0 0 208.42267 95.157506"
   sodipodi:docname="3GPP-ohneschriftzug.svg"
   inkscape:version="1.2.1 (9c6d41e4, 2022-07-14)"
   xmlns:inkscape="http://www.inkscape.org/namespaces/inkscape"
   xmlns:sodipodi="http://sodipodi.sourceforge.net/DTD/sodipodi-0.dtd"
   xmlns="http://www.w3.org/2000/svg"
   xmlns:svg="http://www.w3.org/2000/svg">
  <defs
     id="defs8945" />
  <sodipodi:namedview
     id="namedview8943"
     pagecolor="#ffffff"
     bordercolor="#000000"
     borderopacity="0.25"
     inkscape:showpageshadow="2"
     inkscape:pageopacity="0.0"
     inkscape:pagecheckerboard="true"
     inkscape:deskcolor="#d1d1d1"
     showgrid="false"
     inkscape:zoom="1.941854"
     inkscape:cx="88.575143"
     inkscape:cy="62.054097"
     inkscape:window-width="1928"
     inkscape:window-height="993"
     inkscape:window-x="0"
     inkscape:window-y="23"
     inkscape:window-maximized="0"
     inkscape:current-layer="g8951" />
  <g
     id="g8949"
     inkscape:groupmode="layer"
     inkscape:label="Page 1"
     transform="matrix(1.3333333,0,0,-1.3333333,-0.0945403,121.53198)">
    <g
       id="g8951"
       transform="scale(0.1)">
      <path
         d="m 484.785,855.105 c 16.879,-17.82 27.906,-46.835 26.453,-69.855 -2.09,-33.254 -24.429,-61.371 -47.406,-79.191 -29.699,-22.52 -61.562,-38.493 -104.547,-55.043 -11.847,-4.391 -14.972,-13.18 -2.41,-17.825 60.414,-24.347 125.051,-64.367 120.535,-135.984 -1.93,-30.695 -22.515,-70.48 -60.625,-101.426 -61.258,-49.957 -179.43,-88.636 -257.144,-97.836 -15.532,-1.59 -33.536,-1.734 -54.028,-0.445 -42.2536,2.66 -107.62863,46.492 -104.816125,91.16 1.929685,30.633 45.632825,50.945 73.800825,49.172 33.2973,-2.102 63.5473,-11.695 87.7893,-35 8.48,-8.223 12.242,-9.742 21.207,-10.305 19.211,-1.211 94.844,15.809 129.664,37.981 26.898,18.847 42.113,35.863 43.32,55.047 1.61,25.578 -18.629,51.246 -49.758,67.332 -32.324,17.445 -67.773,26.097 -98.898,29.34 -31.938,3.296 -54.977,25.289 -53.688,45.75 0.723,11.511 24.985,49.785 55.723,47.847 20.481,-1.289 79.723,20.66 123.906,48.692 36.11,22.125 51.481,41.699 52.528,58.328 1.531,24.293 -31.672,48.226 -72.653,50.804 -16.648,1.047 -30.093,-8.39 -41.629,-28.21 -8.89,-18.696 -35.629,-34.985 -55.015,-33.766 -21.778,1.371 -49.949,23.687 -48.5,46.711 2.82,44.855 43.437,77.105 87.554,83.351 9.047,0.723 23.293,2.403 32.426,4.403 18.258,4.008 42.836,6.328 64.614,4.957 58.925,-3.711 109.746,-33.985 131.597,-55.989"
         style="fill:#ffffff;fill-opacity:1;fill-rule:nonzero;stroke:none"
         id="path8953" />
      <path
         d="m 826.621,371.086 c -15.348,-36.125 -45,-5 -45,-5 l -12.308,47.129 c 0,0 -12.309,1.941 -18.793,0 -9.075,-3.246 -18.149,-16.203 -18.149,-16.203 0,0 -15.551,-31.754 -30.453,-48.598 -23.328,-25.926 -40.824,-38.883 -73.223,-51.191 -119.23,-46.012 -255.453,117.285 -255.453,206.707 0,166.539 148.531,325.343 303.403,325.343 58.968,0 114.699,-20.75 215.789,-81.031 l -34.993,-58.336 c -71.929,8.422 -125.07,12.961 -145.156,12.961 -121.82,0 -234.574,-106.922 -234.574,-224.211 0,-65.441 103.031,-147.738 167.184,-105.621 45.359,30.457 38.23,134.781 38.23,134.781 l -76.465,26.571 c 0,0 2.594,31.101 12.965,47.301 6.48,9.074 19.438,20.089 19.438,20.089 h 241.699 c 12.922,-22.5 -26.485,-165.625 -54.141,-230.691"
         style="fill:#ffffff;fill-opacity:1;fill-rule:nonzero;stroke:none"
         id="path8955" />
      <path
         d="m 1336.95,572.445 c -5.34,38.512 -22.51,85.196 -56.68,127.567 -85.86,101.922 -336.95,56.316 -336.95,56.316 l -25.129,-3.48 17.825,-270.332 -35.625,-4.938 46.379,-19.59 34.878,-205.476 28.422,0.242 -12.367,189.25 c 99.677,-24.445 156.637,-31.262 201.937,-24.984 90.61,12.566 148.26,76.476 137.31,155.425 z m -35.29,8.848 c 9.75,-70.285 -44.73,-123.957 -139.2,-137.055 -53.02,-7.351 -95.23,-0.449 -188.991,30.711 l -6.946,234.547 29.883,4.145 c 169.654,23.523 290.834,-28.368 305.254,-132.348"
         style="fill:#ffffff;fill-opacity:1;fill-rule:nonzero;stroke:none"
         id="path8957" />
      <path
         d="m 1549.96,774.172 c -17.3,34.812 -48.44,73.609 -94.31,102.906 -113.8,69.336 -337.37,-53.758 -337.37,-53.758 l -22.7,-11.293 102.87,-250.632 -32.21,-16.008 50.2,-3.824 146.27,-284.083 26.86,9.262 -119.76,275.863 c 102.28,8.528 158.44,20.176 199.4,40.54 81.91,40.734 116.24,119.656 80.75,191.027 z m -36.27,-2.844 c 31.59,-63.535 -2.99,-131.742 -88.38,-174.203 -47.94,-23.832 -90.15,-30.719 -188.96,-30.988 l -81.17,220.164 27.01,13.429 c 153.38,76.254 284.76,65.602 331.5,-28.402"
         style="fill:#ffffff;fill-opacity:1;fill-rule:nonzero;stroke:none"
         id="path8959" />
      <path
         d="m 773.734,218.016 c -48.066,-0.84 -95.043,30.711 -95.043,30.711 0,0 40.497,-50.399 95.043,-50.914 49.141,-0.469 95.582,35.75 95.582,35.75 0,0 -50.761,-14.754 -95.582,-15.547"
         style="fill:#ffffff;fill-opacity:1;fill-rule:nonzero;stroke:none"
         id="path8961" />
      <path
         d="m 778.473,275.254 c -38.45,-0.676 -76.032,21.883 -76.032,21.883 0,0 32.399,-38.399 76.032,-38.813 39.316,-0.379 76.468,25.914 76.468,25.914 0,0 -40.609,-8.355 -76.468,-8.984"
         style="fill:#ffffff;fill-opacity:1;fill-rule:nonzero;stroke:none"
         id="path8963" />
      <path
         d="m 788.598,321.777 c -30.762,-0.543 -60.825,14.828 -60.825,14.828 0,0 25.918,-28.804 60.825,-29.14 31.453,-0.301 61.175,18.058 61.175,18.058 0,0 -32.488,-3.242 -61.175,-3.746"
         style="fill:#ffffff;fill-opacity:1;fill-rule:nonzero;stroke:none"
         id="path8965" />
      <g
         id="g9001"
         transform="scale(10)"
         style="fill:#ffffff">
        <text
           xml:space="preserve"
           transform="matrix(1,0,0,-1,139.588,27.293)"
           style="font-variant:normal;font-weight:normal;font-size:9px;font-family:Arial;-inkscape-font-specification:Arial;writing-mode:lr-tb;fill:#ffffff;fill-opacity:1;fill-rule:nonzero;stroke:none"
           id="text9005"><tspan
             x="0 4.45508"
             y="0"
             sodipodi:role="line"
             id="tspan9003">TM</tspan></text>
      </g>
    </g>
  </g>
</svg>
