<?xml version="1.0" encoding="UTF-8" standalone="no"?>
<svg
   xmlns:dc="http://purl.org/dc/elements/1.1/"
   xmlns:cc="http://creativecommons.org/ns#"
   xmlns:rdf="http://www.w3.org/1999/02/22-rdf-syntax-ns#"
   xmlns:svg="http://www.w3.org/2000/svg"
   xmlns="http://www.w3.org/2000/svg"
   xmlns:sodipodi="http://sodipodi.sourceforge.net/DTD/sodipodi-0.dtd"
   xmlns:inkscape="http://www.inkscape.org/namespaces/inkscape"
   height="80"
   viewBox="0 0 155 80"
   width="155"
   version="1.1"
   id="svg889"
   sodipodi:docname="article19.svg"
   inkscape:version="0.92.4 (5da689c313, 2019-01-14)">
  <metadata
     id="metadata895">
    <rdf:RDF>
      <cc:Work
         rdf:about="">
        <dc:format>image/svg+xml</dc:format>
        <dc:type
           rdf:resource="http://purl.org/dc/dcmitype/StillImage" />
        <dc:title></dc:title>
      </cc:Work>
    </rdf:RDF>
  </metadata>
  <defs
     id="defs893" />
  <sodipodi:namedview
     pagecolor="#ffffff"
     bordercolor="#666666"
     borderopacity="1"
     objecttolerance="10"
     gridtolerance="10"
     guidetolerance="10"
     inkscape:pageopacity="0"
     inkscape:pageshadow="2"
     inkscape:window-width="1366"
     inkscape:window-height="704"
     id="namedview891"
     showgrid="false"
     inkscape:zoom="3.9354839"
     inkscape:cx="77.5"
     inkscape:cy="40"
     inkscape:window-x="0"
     inkscape:window-y="27"
     inkscape:window-maximized="1"
     inkscape:current-layer="svg889"
     inkscape:pagecheckerboard="true" />
  <g
     transform="translate(0,-0.201439)"
     id="g887"
     style="fill:#ffffff">
    <path
       d="m 52.15463,51.020188 3.253086,0.365109 -1.052469,-2.277126 H 52.15463 Z"
       id="path875"
       inkscape:connector-curvature="0"
       style="fill:#ffffff" />
    <path
       d="m 54.47963,43.256823 h -2.325 v 3.775993 h 1.91358 c 0.71553,0.07402 1.435362,-0.0915 2.047531,-0.470798 0.737842,-0.799531 0.737842,-2.034867 0,-2.834397 -0.470249,-0.351434 -1.051883,-0.518802 -1.636111,-0.470798 z"
       id="path877"
       inkscape:connector-curvature="0"
       style="fill:#ffffff" />
    <path
       d="M 66.506482,54.54637 H 63.96142 v -0.499623 l -4.755247,-0.470798 0.478395,0.970421 H 56.862037 L 56.278395,53.287706 52.15463,52.884164 v 1.662206 h -2.545062 v -1.912017 l -1.894444,-0.192163 0.593209,2.10418 H 45.77284 L 45.17963,52.201987 40.807099,51.769622 40.041667,54.54637 H 37.515741 L 38.376852,51.529419 15.174691,49.252293 37.477469,80.238497 118.43148,59.388865 66.506482,54.296559 Z"
       id="path879"
       inkscape:connector-curvature="0"
       style="fill:#ffffff" />
    <path
       d="m 42.959876,43.737229 -1.645679,6.053119 2.028396,0.230595 1.27253,0.115297 -1.616975,-6.399011 z"
       id="path881"
       inkscape:connector-curvature="0"
       style="fill:#ffffff" />
    <path
       d="m 125.07161,37.972354 c -0.22798,-0.25145 -0.50914,-0.448433 -0.82284,-0.576488 -0.30405,-0.122839 -0.62907,-0.184852 -0.95679,-0.182554 -0.58348,-0.02251 -1.14831,0.208577 -1.55,0.634136 -0.40837,0.460361 -0.61525,1.066285 -0.57408,1.681422 -0.0443,0.641778 0.16153,1.275727 0.57408,1.767895 0.44846,0.458515 1.07414,0.697203 1.71265,0.653353 1.0318,0.02544 1.97823,-0.572818 2.40154,-1.518084 0.0112,-0.495921 -0.0633,-0.990038 -0.22006,-1.460435 -0.11949,-0.367746 -0.31147,-0.707576 -0.5645,-0.999245 z"
       id="path883"
       inkscape:connector-curvature="0"
       style="fill:#ffffff" />
    <path
       d="m 0,45.101583 38.960494,4.419737 2.391975,-8.359069 h 3.166975 l 2.621605,9.291058 2.468519,0.278635 v -9.550476 h 5.310185 c 0.650923,-0.01162 1.298763,0.09247 1.91358,0.30746 0.982209,0.335892 1.750773,1.114801 2.076235,2.104179 0.169094,0.501199 0.253185,1.027352 0.248765,1.556516 0.02894,0.769161 -0.181776,1.528229 -0.602777,2.171437 -0.437373,0.635971 -1.090406,1.090234 -1.837037,1.27788 l 1.540432,3.122641 5.673765,0.643744 v -9.050854 h -3.46358 v -2.15222 h 9.520061 v 2.15222 h -3.482716 v 9.339098 l 5.271914,0.595704 V 41.181468 h 2.516358 v 12.356049 l 4.630864,0.528447 C 78.446029,53.778755 78.024166,53.404 77.68179,52.961029 c -1.857015,-3.131892 -1.857015,-7.033504 0,-10.165396 0.947441,-1.229336 2.43429,-1.91487 3.980247,-1.835152 1.08142,-0.05669 2.151154,0.247335 3.042593,0.864731 0.815087,0.683424 1.380587,1.619744 1.607407,2.661451 l -2.305864,0.557271 c -0.163293,-0.535445 -0.46739,-1.016743 -0.880247,-1.393178 -0.427369,-0.368302 -0.97771,-0.56053 -1.540432,-0.538055 -0.831074,-0.01045 -1.600102,0.440347 -1.999692,1.172191 -0.555445,1.094638 -0.806651,2.319438 -0.72716,3.545398 -0.03827,3.14506 0.896193,4.720793 2.803395,4.727198 0.26451,0.0013 0.528123,-0.03098 0.784568,-0.09608 0.238324,-0.06206 0.462484,-0.169714 0.660185,-0.317068 0.226415,-0.171251 0.42632,-0.375235 0.59321,-0.605312 0.22019,-0.300178 0.409336,-0.622112 0.564506,-0.960813 l 2.363272,0.634136 c -0.316971,1.054387 -0.96888,1.97562 -1.856173,2.623019 -0.468686,0.318133 -0.990439,0.54919 -1.540432,0.682177 L 143.04012,61.300882 154.5216,0.30850275 Z M 96.808025,54.54637 H 88.474383 V 41.181468 h 2.545061 v 11.22229 h 5.788581 z m 11.050925,0 H 98.83642 V 41.181468 h 8.81204 v 2.15222 h -6.27655 v 3.180289 h 4.55433 v 2.133004 h -4.55433 v 3.737561 h 6.47747 z m 9.12778,-5.764875 h -6.50617 v -1.863977 h 2.0858 v -9.2238 h -2.39198 v -1.5373 c 0.56656,-0.01774 1.12885,-0.104853 1.67438,-0.259419 0.4528,-0.11824 0.86994,-0.345832 1.21513,-0.662961 h 1.86574 v 11.68348 h 2.04753 z M 127.875,44.467446 c -0.22305,0.86886 -0.60244,1.689438 -1.11944,2.421248 -0.46718,0.650778 -1.08436,1.178248 -1.79877,1.5373 -0.75066,0.366483 -1.57654,0.550784 -2.41111,0.538055 -0.59373,0.0085 -1.18494,-0.07911 -1.75093,-0.259419 -0.54363,-0.185048 -1.06384,-0.433345 -1.55,-0.739826 l 1.05247,-1.921625 c 0.29095,0.253806 0.61238,0.470067 0.95679,0.643744 0.39663,0.19157 0.83249,0.287006 1.27253,0.278636 0.44678,0.0014 0.88705,-0.1075 1.2821,-0.317068 0.40488,-0.214731 0.76021,-0.512635 1.0429,-0.874339 0.3054,-0.390348 0.54462,-0.828591 0.70803,-1.297097 0.18149,-0.512418 0.27844,-1.051155 0.28703,-1.594949 -0.39483,0.361839 -0.85639,0.642551 -1.35864,0.826299 -0.52744,0.1753 -1.08061,0.259761 -1.63611,0.249811 -0.56103,0.0056 -1.11745,-0.102216 -1.63611,-0.317068 -0.48737,-0.205109 -0.92716,-0.509349 -1.29167,-0.893556 -0.37311,-0.397522 -0.66559,-0.864191 -0.86111,-1.373962 -0.21536,-0.560677 -0.32251,-1.157385 -0.31574,-1.758287 -0.0111,-0.643231 0.11278,-1.281603 0.36358,-1.873584 0.21639,-0.52478 0.54271,-0.996652 0.95679,-1.38357 0.43579,-0.384397 0.94308,-0.678297 1.49259,-0.864731 0.59793,-0.202232 1.22527,-0.302898 1.85618,-0.297852 0.65738,-0.0053 1.30879,0.125544 1.91358,0.384325 0.58492,0.254602 1.10257,0.642826 1.51173,1.133758 0.44706,0.567698 0.77277,1.221855 0.95679,1.921625 0.24894,0.867863 0.36825,1.768022 0.35401,2.671059 0.0472,1.061377 -0.0462,2.124345 -0.27747,3.161073 z"
       id="path885"
       inkscape:connector-curvature="0"
       style="fill:#ffffff" />
  </g>
</svg>
