<?xml version="1.0" encoding="UTF-8" standalone="no"?>
<!-- Created with Inkscape (http://www.inkscape.org/) -->

<svg
   width="40.961075mm"
   height="16.819328mm"
   viewBox="0 0 40.961075 16.819328"
   version="1.1"
   id="svg21323"
   inkscape:version="1.2.1 (9c6d41e4, 2022-07-14)"
   sodipodi:docname="atis.svg"
   xmlns:inkscape="http://www.inkscape.org/namespaces/inkscape"
   xmlns:sodipodi="http://sodipodi.sourceforge.net/DTD/sodipodi-0.dtd"
   xmlns="http://www.w3.org/2000/svg"
   xmlns:svg="http://www.w3.org/2000/svg">
  <sodipodi:namedview
     id="namedview21325"
     pagecolor="#ffffff"
     bordercolor="#000000"
     borderopacity="0.25"
     inkscape:showpageshadow="2"
     inkscape:pageopacity="0.0"
     inkscape:pagecheckerboard="0"
     inkscape:deskcolor="#d1d1d1"
     inkscape:document-units="mm"
     showgrid="false"
     inkscape:zoom="0.2102413"
     inkscape:cx="-299.65568"
     inkscape:cy="33.295075"
     inkscape:window-width="1344"
     inkscape:window-height="430"
     inkscape:window-x="0"
     inkscape:window-y="23"
     inkscape:window-maximized="0"
     inkscape:current-layer="layer1" />
  <defs
     id="defs21320" />
  <g
     inkscape:label="Ebene 1"
     inkscape:groupmode="layer"
     id="layer1"
     transform="translate(-83.972853,-140.09034)">
    <g
       id="g10989"
       transform="matrix(0.55690982,0,0,0.55690982,81.833299,113.9594)">
      <path
         style="opacity:0.99;fill:none;stroke:#ffffff;stroke-width:2.994;stroke-linecap:square;stroke-linejoin:round;stroke-dasharray:none;stroke-opacity:1;paint-order:fill markers stroke"
         d="m 12.097382,60.009376 c 0,0 13.023381,-1.674981 13.291201,1.432587 0.26782,3.107567 -2.785582,13.76873 -3.26311,13.76873 -0.477528,0 -9.470976,0.07959 -15.5992544,-0.159174 C 4.2181656,71.549646 5.3323982,66.774364 9.5505648,66.85395 13.76873,66.93354 24.27435,66.93354 24.27435,66.93354"
         id="path3810"
         sodipodi:nodetypes="czscsc" />
      <path
         style="opacity:0.99;fill:none;stroke:#ffffff;stroke-width:2.994;stroke-linecap:square;stroke-linejoin:bevel;stroke-dasharray:none;stroke-opacity:1;paint-order:fill markers stroke"
         d="m 32.312742,52.289339 c -0.309819,4.37727 -5.915529,21.610598 -2.626405,23.239706 3.123309,0.237506 3.139626,-0.0433 6.287454,2e-6"
         id="path3812"
         sodipodi:nodetypes="ccc" />
      <path
         style="opacity:0.99;fill:none;stroke:#ffffff;stroke-width:2.994;stroke-linecap:square;stroke-linejoin:bevel;stroke-dasharray:none;stroke-opacity:1;paint-order:fill markers stroke"
         d="m 31.458595,60.088966 h 6.266133"
         id="path3816"
         sodipodi:nodetypes="cc" />
      <path
         style="opacity:0.99;fill:none;stroke:#ffffff;stroke-width:2.994;stroke-linecap:square;stroke-linejoin:bevel;stroke-dasharray:none;stroke-opacity:1;paint-order:fill markers stroke"
         d="M 42.10207,60.486906 40.90825,75.051517"
         id="path3818"
         sodipodi:nodetypes="cc" />
      <path
         style="opacity:0.99;fill:none;stroke:#ffffff;stroke-width:2.994;stroke-linecap:square;stroke-linejoin:bevel;stroke-dasharray:none;stroke-opacity:1;paint-order:fill markers stroke"
         d="m 60.248142,60.24814 c -0.397939,-0.07959 -13.848318,-0.159173 -12.336145,3.581464 1.512173,3.740637 15.882113,2.382633 15.36049,6.207866 -0.955056,7.003745 -16.474723,4.934458 -16.474723,4.934458"
         id="path3820"
         sodipodi:nodetypes="cssc" />
      <path
         style="opacity:0.99;fill:none;stroke:#ffffff;stroke-width:2.994;stroke-linecap:square;stroke-linejoin:bevel;stroke-dasharray:none;stroke-opacity:1;paint-order:fill markers stroke"
         d="m 42.610662,51.961244 c -0.318352,2.228466 -0.269829,2.9545 -0.269829,2.9545"
         id="path3928"
         sodipodi:nodetypes="cc" />
      <path
         id="path3930"
         style="opacity:0.99;fill:#ffffff;fill-opacity:1;stroke:none;stroke-width:3.06829;stroke-linecap:square;stroke-linejoin:bevel;stroke-dasharray:none;stroke-opacity:1;paint-order:fill markers stroke"
         d="m 68.087317,46.925818 c -4.866407,-0.165432 -9.25884,4.257408 -9.241751,9.090856 -0.122028,2.133517 2.81571,0.197328 3.713619,-0.435517 l 2.88166,-2.51202 c 1.60009,-1.5434 3.299506,-3.715706 3.771229,-5.892797 -0.345734,-0.249235 -0.316165,-0.204106 -1.124757,-0.250517 z m 2.616894,0.379822 c -0.574417,1.41748 -1.617511,3.575898 -2.640728,4.770295 1.396119,-0.947663 3.440597,-2.67064 4.475242,-4.003934 -0.591699,-0.30802 -1.199372,-0.561854 -1.834514,-0.766361 z m 2.552299,1.205094 c -0.970049,1.550321 -4.692947,4.408778 -6.006547,5.671609 1.101286,-0.288277 4.104654,-2.96526 5.03895,-3.54449 0.402865,-0.540537 1.751676,-1.12023 1.580007,-1.66343 z m 1.60197,1.376143 c -1.004375,1.132556 -5.254139,3.860448 -6.281019,4.973461 1.314158,-0.723928 5.967757,-2.970165 7.332117,-3.5968 z m 1.503784,2.190048 c -1.856723,0.962013 -6.283981,2.590895 -7.990697,3.799195 1.910401,-0.778139 6.426365,-2.215398 8.422195,-2.770834 z m 0.714685,2.012797 c -2.96486,1.056982 -6.013409,1.876613 -8.951324,3.00514 -0.313886,0.200838 -1.963997,1.009732 -0.884744,0.621149 3.336414,-0.979308 6.734624,-1.758695 10.15159,-2.389838 -0.142142,-0.704245 -0.130327,-0.94591 -0.315522,-1.236451 z m 0.218075,2.490287 c -3.142412,0.470618 -6.265921,1.133095 -9.275403,2.164209 2.916781,-0.748475 5.955018,-0.622335 8.934708,-0.505636 0.31576,-0.662587 0.568986,-1.129386 0.340695,-1.658573 z m -0.703317,2.027266 c -1.946052,-0.06941 -4.265701,0.228904 -6.364986,0.619079 2.009278,-0.07216 3.968986,0.434902 5.910083,0.873221 0.435585,-0.453001 0.448172,-0.695669 0.454903,-1.4923 z m -17.107999,0.859379 0.63717,1.328602 c 0.256474,-0.294379 1.596652,-0.788079 0.517612,-0.652981 -0.502058,-0.01808 -0.609709,-0.771233 -1.154782,-0.675621 z M 72.072603,60.4113 c -3.400338,0.166964 -6.889252,0.964111 -9.690881,2.982247 3.73514,3.150965 9.954189,2.378121 12.916616,-1.467352 C 76.50188,60.503569 73.19954,60.38006 72.072606,60.4113 Z"
         sodipodi:nodetypes="scccccsccccccccccccccccccccccccccccccccccscccs" />
    </g>
  </g>
</svg>
