<?xml version="1.0" encoding="UTF-8" standalone="no"?>
<!-- Created with Inkscape (http://www.inkscape.org/) -->

<svg
   width="266.17999"
   height="180"
   viewBox="0 0 70.42679 47.625001"
   version="1.1"
   id="svg6167"
   inkscape:version="1.2.1 (9c6d41e4, 2022-07-14)"
   sodipodi:docname="ieee.svg"
   xmlns:inkscape="http://www.inkscape.org/namespaces/inkscape"
   xmlns:sodipodi="http://sodipodi.sourceforge.net/DTD/sodipodi-0.dtd"
   xmlns="http://www.w3.org/2000/svg"
   xmlns:svg="http://www.w3.org/2000/svg">
  <sodipodi:namedview
     id="namedview6169"
     pagecolor="#00946e"
     bordercolor="#000000"
     borderopacity="0.25"
     inkscape:showpageshadow="2"
     inkscape:pageopacity="0"
     inkscape:pagecheckerboard="0"
     inkscape:deskcolor="#d1d1d1"
     inkscape:document-units="mm"
     showgrid="false"
     inkscape:zoom="3.5510663"
     inkscape:cx="133.19943"
     inkscape:cy="42.944848"
     inkscape:window-width="2560"
     inkscape:window-height="1395"
     inkscape:window-x="0"
     inkscape:window-y="23"
     inkscape:window-maximized="1"
     inkscape:current-layer="layer1" />
  <defs
     id="defs6164" />
  <g
     inkscape:label="Ebene 1"
     inkscape:groupmode="layer"
     id="layer1"
     transform="translate(-69.248295,-137.18984)">
    <g
       id="g2455"
       transform="translate(-52.597495,60.866331)">
      <g
         id="g1272">
        <rect
           style="opacity:0.99;fill:#fdffff;stroke-width:3.6;stroke-linecap:square;stroke-linejoin:round;paint-order:fill markers stroke"
           id="rect1125"
           width="3.7341597"
           height="13.976426"
           x="147.0192"
           y="92.393776" />
        <path
           id="rect1125-7"
           style="opacity:0.99;fill:#fdffff;stroke-width:3.6;stroke-linecap:square;stroke-linejoin:round;paint-order:fill markers stroke"
           d="m 152.94054,92.447006 v 13.976404 c 3.88206,0 7.95843,0 11.30938,0 V 103.436 h -7.57525 v -2.50734 h 7.57525 v -2.986903 h -7.57525 V 95.38119 h 7.57525 v -2.987414 c -3.76063,-0.08011 -7.57834,0.07725 -11.30938,0.05323 z"
           sodipodi:nodetypes="ccccccccccccc" />
        <path
           id="rect1125-7-8"
           style="opacity:0.99;fill:#fdffff;stroke-width:3.6;stroke-linecap:square;stroke-linejoin:round;paint-order:fill markers stroke"
           d="m 167.07687,92.447006 v 13.976404 c 3.76587,0 7.39252,0 11.30938,0 V 103.436 H 170.811 v -2.50734 h 7.57525 V 97.941757 H 170.811 V 95.38119 h 7.57525 v -2.987414 c -3.76063,-0.08011 -7.42643,0.07725 -11.30938,0.05323 z"
           sodipodi:nodetypes="ccccccccccccc" />
        <path
           id="rect1125-7-0"
           style="opacity:0.99;fill:#fdffff;stroke-width:3.6;stroke-linecap:square;stroke-linejoin:round;paint-order:fill markers stroke"
           d="M 180.9466,92.447006 V 106.4234 c 3.88206,0 7.95843,0 11.30938,0 v -2.98741 h -7.57525 v -2.50734 h 7.57525 v -2.986889 h -7.57525 v -2.56057 h 7.57525 v -2.987415 c -3.76063,-0.08011 -7.19857,0.0013 -11.30938,0.05323 z"
           sodipodi:nodetypes="ccccccccccccc" />
      </g>
      <path
         id="rect1274"
         style="opacity:0.99;fill:#fdffff;stroke-width:3.6;stroke-linecap:square;stroke-linejoin:round;paint-order:fill markers stroke"
         d="m 132.76761,87.965173 c -2.41802,5.628706 -6.23046,9.339819 -10.92182,11.842688 6.71936,1.521459 9.1136,6.214789 11.68559,10.777639 2.995,-8.25208 7.14348,-8.8129 10.92182,-11.84269 -7.01447,-1.642942 -9.0473,-6.399579 -11.68559,-10.777637 z m 0.26251,3.502112 7.92768,7.915279 -7.68893,7.700826 -7.92768,-7.915283 z" />
      <path
         id="rect1831-3"
         style="opacity:0.99;fill:#ffffff;stroke-width:3.00971;stroke-linecap:square;stroke-linejoin:round;paint-order:fill markers stroke"
         d="m 28.374503,159.68466 -9.09792,2.6e-4 -3.09e-4,9.36576 9.09792,-2.6e-4 z m -1.074605,1.33948 -2.165635,4.07189 -0.692238,-0.74232 -1.220173,1.51477 c 0.886317,0.73498 2.180255,0.86181 2.883508,0.37349 0.107351,-0.0753 0.203321,-0.16626 0.285594,-0.27201 l -0.622872,-0.19086 0.68033,-0.86841 0.809813,1.32596 -0.659769,-0.20295 c -0.745741,1.33728 -2.606573,1.20737 -3.807103,0.36904 l -1.451332,1.8018 -1.034033,-1.03564 1.727696,-1.47893 c -1.444326,-1.67946 -1.84389,-4.02183 0.85642,-4.12296 l 0.437635,0.63067 c -0.0072,0.004 -0.01435,0.009 -0.02157,0.0135 -1.57586,-0.28675 -1.87601,1.28851 -0.685983,2.97645 l 1.412872,-1.20987 -0.817518,-0.81294 z"
         transform="rotate(-45.044363)" />
    </g>
  </g>
</svg>
