<?xml version="1.0" encoding="UTF-8" standalone="no"?>
<svg
   viewBox="0 0 300 159.08"
   version="1.1"
   id="svg102"
   sodipodi:docname="IETF.svg"
   inkscape:export-filename="Internet_Engineering_Task_Force_logo2.svg"
   inkscape:export-xdpi="96"
   inkscape:export-ydpi="96"
   inkscape:version="1.2.1 (9c6d41e4, 2022-07-14)"
   width="300"
   height="159.08"
   xmlns:inkscape="http://www.inkscape.org/namespaces/inkscape"
   xmlns:sodipodi="http://sodipodi.sourceforge.net/DTD/sodipodi-0.dtd"
   xmlns="http://www.w3.org/2000/svg"
   xmlns:svg="http://www.w3.org/2000/svg"
   xmlns:rdf="http://www.w3.org/1999/02/22-rdf-syntax-ns#"
   xmlns:cc="http://creativecommons.org/ns#"
   xmlns:dc="http://purl.org/dc/elements/1.1/">
  <sodipodi:namedview
     id="namedview104"
     pagecolor="#ffffff"
     bordercolor="#000000"
     borderopacity="0.25"
     inkscape:showpageshadow="false"
     inkscape:pageopacity="0"
     inkscape:pagecheckerboard="true"
     inkscape:deskcolor="#d1d1d1"
     showgrid="false"
     borderlayer="true"
     shape-rendering="auto"
     inkscape:zoom="1.668772"
     inkscape:cx="50.336415"
     inkscape:cy="69.212571"
     inkscape:window-width="1886"
     inkscape:window-height="979"
     inkscape:window-x="0"
     inkscape:window-y="23"
     inkscape:window-maximized="0"
     inkscape:current-layer="svg2" />
  <defs
     id="defs72">
    <style
       id="style70">.cls-1{fill:none;}.cls-2{fill:#bbbcc1;}.cls-3{fill:#221e1f;}.cls-4{fill:#fdd34f;}</style>
  </defs>
  <title
     id="title74">IETF-Logo</title>
  <g
     id="Layer_2"
     data-name="Layer 2"
     transform="translate(-25,-20.48)">
    <g
       id="svg2">
      <path
         id="path6"
         class="cls-2"
         d="m 122.57,20.48 h 0.07 c 6.78,6.78 13.59,13.52 20.36,20.36 -3,3.11 -6.15,6.16 -9.21,9.24 l -11.11,11.09 a 0.57,0.57 0 0 0 -0.34,-0.18 c -0.78,-0.68 -1.48,-1.46 -2.22,-2.18 L 102.3,41 c -0.17,-0.12 0,-0.28 0.08,-0.38 q 7.94,-7.9 15.84,-15.84 c 1.5,-1.39 2.9,-2.87 4.35,-4.3 z"
         style="fill:#ffffff" />
      <path
         id="path8"
         class="cls-2"
         d="m 170.54,20.48 h 0.06 c 4.84,4.72 9.59,9.52 14.4,14.33 1.91,1.93 3.88,3.8 5.74,5.78 L 170.35,61 a 10.44,10.44 0 0 1 -0.77,-0.71 C 163.19,53.95 156.86,47.56 150.48,41.22 150.39,41.1 150.15,40.95 150.3,40.78 157,34 163.81,27.25 170.54,20.48 Z"
         style="fill:#ffffff" />
      <path
         id="path10"
         class="cls-2"
         d="m 218.57,20.48 h 0.07 q 8.63,8.64 17.27,17.26 c 1,1 2,1.92 2.9,3 -6.69,6.69 -13.4,13.36 -20.06,20.08 -1.65,-1.54 -3.19,-3.18 -4.8,-4.75 l -15.39,-15.4 a 2.65,2.65 0 0 1 0.77,-0.93 z"
         style="fill:#ffffff" />
      <path
         id="path12"
         class="cls-2"
         d="m 50.25,44.45 c 0.14,-0.2 0.32,0 0.44,0.11 4.33,4.37 8.72,8.7 13.08,13.06 1.4,1.44 2.87,2.8 4.23,4.28 H 34.75 c 0,-0.52 0,-1 0,-1.55 h -0.29 a 7,7 0 0 1 0.82,-0.9 z"
         style="fill:#ffffff" />
      <path
         id="path14"
         class="cls-2"
         d="m 98.2,44.47 c 0.12,-0.17 0.34,-0.09 0.45,0.05 q 10,10 20.09,20.09 Q 108.66,74.69 98.57,84.77 88.4,74.55 78.19,64.37 L 78.47,64.2 Q 88.33,54.33 98.2,44.47 Z"
         style="fill:#ffffff" />
      <path
         id="path16"
         class="cls-2"
         d="m 145.75,45 c 0.22,-0.2 0.39,-0.49 0.68,-0.59 a 3.06,3.06 0 0 1 0.69,0.61 l 11.66,11.65 c 2.63,2.67 5.32,5.27 7.92,8 q -10.14,10.14 -20.28,20.27 c -3.58,-3.55 -7.13,-7.13 -10.7,-10.69 -3.16,-3.19 -6.38,-6.3 -9.53,-9.49 a 1,1 0 0 1 0.25,-0.45 C 132.89,57.82 139.3,51.37 145.75,45 Z"
         style="fill:#ffffff" />
      <path
         id="path18"
         class="cls-2"
         d="m 274.25,60.78 c 5.51,-5.49 11,-11 16.52,-16.48 l 13.83,13.82 c 0.72,0.76 1.52,1.45 2.2,2.25 -0.39,0 -0.78,0 -1.16,0 0,0.59 0,1.19 0,1.78 -10.88,0 -21.77,0 -32.66,0 0.37,-0.5 0.83,-0.92 1.27,-1.37 z"
         style="fill:#ffffff" />
      <path
         id="path20"
         class="cls-2"
         d="m 194.35,45 c 0.12,-0.21 0.29,0 0.39,0.1 L 214.56,65 c -6.66,6.74 -13.41,13.4 -20.09,20.13 a 23.82,23.82 0 0 1 -1.78,-1.7 L 177.21,67.89 c -0.94,-1 -2,-1.86 -2.83,-2.89 q 9.99,-10 19.97,-20 z"
         style="fill:#ffffff" />
      <path
         id="path22"
         class="cls-2"
         d="m 236.48,50.85 c 2,-2 4,-4 6,-5.93 0.62,0.5 1.14,1.13 1.72,1.68 L 262.55,65 q -9.65,9.69 -19.33,19.35 a 3.93,3.93 0 0 1 -0.87,0.76 c -1.1,-1.18 -2.27,-2.29 -3.4,-3.44 -5.54,-5.56 -11.11,-11.08 -16.64,-16.66 4.69,-4.73 9.43,-9.46 14.17,-14.16 z"
         style="fill:#ffffff" />
      <path
         id="path24"
         class="cls-2"
         d="M 34.75,67.4 H 68 a 3.58,3.58 0 0 1 -0.47,0.56 L 54.32,81.18 c -1.32,1.3 -2.6,2.66 -4,3.92 -4.8,-4.84 -9.64,-9.64 -14.45,-14.47 A 11.2,11.2 0 0 1 34.71,69.4 c 0.06,-0.67 0.04,-1.33 0.04,-2 z"
         style="fill:#ffffff" />
      <path
         id="path26"
         class="cls-2"
         d="m 273.51,67.78 h 32.12 v 1.61 h 0.73 a 8.79,8.79 0 0 1 -1.1,1.18 l -9.47,9.47 c -1.7,1.67 -3.34,3.41 -5.09,5 q -7.63,-7.65 -15.3,-15.3 a 21.1,21.1 0 0 1 -1.89,-1.96 z"
         style="fill:#ffffff" />
      <path
         id="path28"
         class="cls-2"
         d="m 218.48,68.84 0.27,-0.29 c 2.73,2.76 5.52,5.46 8.26,8.21 4,4 8,8 12,12 -0.88,1.07 -2,1.94 -2.94,2.94 l -12.37,12.38 c -1.72,1.68 -3.38,3.44 -5.13,5.08 Q 211,101.61 203.39,94 c -1.74,-1.72 -3.43,-3.49 -5.21,-5.17 0.92,-1.08 2,-2 3,-3 5.72,-5.7 11.41,-11.43 17.14,-17.12 z"
         style="fill:#ffffff" />
      <path
         id="path30"
         class="cls-2"
         d="m 150.39,89 q 10.19,-10.17 20.36,-20.36 c 1,0.82 1.83,1.8 2.76,2.68 L 191,88.79 Q 180.81,99 170.6,109.19 c -1.86,-1.79 -3.65,-3.65 -5.48,-5.45 -4.91,-4.92 -9.83,-9.82 -14.73,-14.74 z"
         style="fill:#ffffff" />
      <path
         id="path32"
         class="cls-2"
         d="M 102.42,89 122.57,68.85 142.75,89 q -8.43,8.46 -16.89,16.9 c -1.11,1.07 -2.15,2.22 -3.29,3.25 C 117.09,103.72 111.66,98.24 106.2,92.8 105,91.54 103.63,90.32 102.42,89 Z"
         style="fill:#ffffff" />
      <path
         id="path35"
         class="cls-3"
         d="m 194.58,36.7 c 1.36,1.28 2.65,2.64 4,3.94 L 214,56 c 1.61,1.57 3.15,3.21 4.8,4.75 6.66,-6.72 13.37,-13.39 20.06,-20.08 1.26,-1.24 2.49,-2.51 3.76,-3.74 8.4,8.39 16.79,16.81 25.22,25.17 1.72,0 3.44,0 5.16,0 10.89,0 21.78,0 32.66,0 0,-0.59 0,-1.19 0,-1.78 0.38,0 0.77,0 1.16,0 2.86,0 5.72,0 8.59,0 v 9 c -3,0 -6,0 -9,0 h -0.73 v -1.54 h -32.17 c -2.72,0 -5.44,0 -8.16,0 -0.93,-0.93 -1.86,-1.87 -2.8,-2.8 L 244.16,46.6 c -0.58,-0.55 -1.1,-1.18 -1.72,-1.68 -2,1.95 -4,4 -6,5.93 -4.74,4.7 -9.44,9.43 -14.17,14.14 l -3.56,3.56 -0.27,0.29 -0.18,-0.16 -3.7,-3.68 -19.82,-19.88 c -0.1,-0.1 -0.27,-0.31 -0.39,-0.1 q -10,10 -20,20 -1.83,1.8 -3.63,3.63 Q 160.57,78.82 150.39,89 c -1.29,1.27 -2.55,2.56 -3.84,3.82 L 142.75,89 122.57,68.85 102.42,89 c -1.25,1.22 -2.46,2.48 -3.72,3.69 Q 86.07,80 73.44,67.41 c -1.81,0 -3.62,0 -5.43,0 H 34.75 c 0,0.67 0,1.33 0,2 -3.25,0 -6.5,0 -9.75,0 v -9 h 8.34 a 5.76,5.76 0 0 0 1.1,0 h 0.29 c 0.05,0.52 0,1 0,1.55 h 41 c 0.82,0.83 1.65,1.64 2.47,2.47 q 10.2,10.18 20.38,20.4 10.09,-10.06 20.17,-20.16 c 1.2,-1.21 2.42,-2.39 3.6,-3.62 a 0.57,0.57 0 0 1 0.34,0.18 c 1.16,1.19 2.34,2.35 3.51,3.52 3.15,3.19 6.37,6.3 9.53,9.49 3.57,3.56 7.12,7.14 10.7,10.69 Q 156.57,74.76 166.7,64.6 l 3.65,-3.6 20.37,-20.37 c 1.29,-1.29 2.6,-2.57 3.86,-3.89 m 0,1.31 c -1.76,1.84 -3.59,3.6 -5.38,5.42 q -21.4,21.32 -42.79,42.71 -12,-12 -24,-24 Q 110.52,74.12 98.6,86.07 C 96.13,83.66 93.72,81.19 91.27,78.76 L 78.48,66 c -1.08,-1.06 -2.11,-2.16 -3.22,-3.17 -13.49,0 -27,0 -40.49,0 0,1.23 0,2.46 0,3.69 12.77,0 25.54,0 38.31,0 0.27,0 0.61,-0.1 0.83,0.1 L 98.72,91.4 q 11.86,-11.9 23.76,-23.76 h 0.15 l 14.07,14.03 c 3.26,3.28 6.57,6.52 9.79,9.83 a 4.33,4.33 0 0 0 0.75,-0.67 Q 170.87,67.21 194.5,43.58 c 8,8 16,16 24,24 2.17,-2.27 4.46,-4.43 6.67,-6.67 l 17.2,-17.2 c 0.33,-0.11 0.51,0.42 0.78,0.58 q 11.31,11.3 22.62,22.61 19.94,0 39.88,0 V 63 h -38.31 c -7.58,-7.65 -15.24,-15.22 -22.85,-22.83 -0.67,-0.63 -1.27,-1.35 -2,-1.93 a 9.69,9.69 0 0 1 -0.94,1 c -7.59,7.62 -15.22,15.2 -22.79,22.82 a 2,2 0 0 1 -0.61,-0.5 L 199.72,43.11 C 198,41.42 196.33,39.67 194.57,38 Z" />
      <path
         id="path37"
         class="cls-3"
         d="m 314.31,148.78 a 5.54,5.54 0 0 1 10.69,1.38 v 1.19 a 5.55,5.55 0 0 1 -10,2.65 5.52,5.52 0 0 1 -0.72,-5.21 m 4.26,-2.38 a 4.42,4.42 0 1 0 4.4,7 4.42,4.42 0 0 0 -4.4,-7 z"
         style="fill:#ffffff" />
      <path
         id="path39"
         class="cls-3"
         d="m 33.51,145.56 h 12 q 0,17 0,34 h -12 q 0.02,-17.02 0,-34 z"
         style="fill:#ffffff" />
      <path
         id="path41"
         class="cls-3"
         d="m 107.39,145.55 h 25.48 c 0,2.41 0,4.82 0,7.22 -4.51,0 -9,0 -13.53,0 0,2 0,4 0,5.94 4.14,0 8.27,0 12.41,0 v 7.17 h -12.4 c 0,2.15 0,4.3 0,6.45 4.59,0 9.18,0 13.76,0 0,2.39 0,4.78 0,7.17 h -25.72 q -0.01,-16.96 0,-33.95 z"
         style="fill:#ffffff" />
      <path
         id="path43"
         class="cls-3"
         d="m 191.5,145.56 h 33.19 c 0,2.86 0,5.71 0,8.56 h -10.64 q 0,12.7 0,25.41 h -11.91 c 0,-8.47 0,-16.94 0,-25.41 h -10.63 c -0.01,-2.86 0,-5.71 -0.01,-8.56 z"
         style="fill:#ffffff" />
      <path
         id="path45"
         class="cls-3"
         d="m 284.25,145.55 h 24.85 c 0,2.4 0,4.81 0,7.22 q -6.45,0 -12.89,0 0,3 0,6.1 h 12.13 v 7.21 c -4.05,0 -8.09,0 -12.13,0 0,4.47 0,9 0,13.42 h -11.96 z"
         style="fill:#ffffff" />
      <path
         id="path47"
         class="cls-3"
         d="m 317,147.78 h 3.08 a 1.63,1.63 0 0 1 1.63,2.2 1.54,1.54 0 0 1 -1.51,1.02 c 0.66,0.3 1,1 1.32,1.57 0.2,0.36 0.44,0.7 0.61,1.08 h -1.51 a 7.69,7.69 0 0 0 -1.39,-2.19 1.43,1.43 0 0 0 -1,-0.21 c 0,0.8 0,1.6 0,2.4 a 10.26,10.26 0 0 1 -1.24,0 c 0,-2 0,-3.92 0,-5.88 m 1.25,0.95 c 0,0.52 0,1 0,1.56 a 5.58,5.58 0 0 0 1.87,-0.14 0.72,0.72 0 0 0 0.07,-1.25 5.39,5.39 0 0 0 -1.95,-0.16 z"
         style="fill:#ffffff" />
      <path
         id="path50"
         class="cls-4"
         d="m 194.57,38 c 1.76,1.66 3.43,3.41 5.15,5.1 l 18.45,18.46 a 2,2 0 0 0 0.61,0.5 c 7.57,-7.62 15.2,-15.2 22.79,-22.82 a 9.69,9.69 0 0 0 0.94,-1 c 0.71,0.58 1.31,1.3 2,1.93 7.61,7.61 15.27,15.18 22.85,22.83 h 38.29 v 3.83 q -19.94,0 -39.88,0 -11.33,-11.3 -22.62,-22.61 c -0.27,-0.16 -0.45,-0.69 -0.78,-0.58 l -17.2,17.2 c -2.21,2.24 -4.5,4.4 -6.67,6.67 -8,-8 -16,-16 -24,-24 q -23.66,23.61 -47.26,47.25 a 4.33,4.33 0 0 1 -0.75,0.67 c -3.22,-3.31 -6.53,-6.55 -9.79,-9.83 l -14.07,-14 h -0.15 Q 110.6,79.51 98.72,91.4 L 73.89,66.58 c -0.22,-0.2 -0.56,-0.06 -0.83,-0.1 -12.77,0 -25.54,0 -38.31,0 0,-1.23 0,-2.46 0,-3.69 13.5,0 27,0 40.49,0 1.11,1 2.14,2.11 3.22,3.17 l 12.81,12.8 c 2.45,2.43 4.86,4.9 7.33,7.31 q 11.93,-11.94 23.86,-23.85 12,12 24,24 21.43,-21.34 42.78,-42.75 c 1.76,-1.86 3.57,-3.62 5.33,-5.47 z"
         style="fill:#ffffff" />
    </g>
  </g>
  <metadata
     id="metadata387">
    <rdf:RDF>
      <cc:Work
         rdf:about="">
        <dc:title>IETF-Logo</dc:title>
      </cc:Work>
    </rdf:RDF>
  </metadata>
</svg>
