<?xml version="1.0" encoding="UTF-8" standalone="no"?>
<!-- Created with Inkscape (http://www.inkscape.org/) -->

<svg
   width="100"
   height="91.928749"
   version="1.0"
   id="svg8004"
   sodipodi:docname="ISO.svg"
   xmlns:inkscape="http://www.inkscape.org/namespaces/inkscape"
   xmlns:sodipodi="http://sodipodi.sourceforge.net/DTD/sodipodi-0.dtd"
   xmlns="http://www.w3.org/2000/svg"
   xmlns:svg="http://www.w3.org/2000/svg">
  <defs
     id="defs8008" />
  <sodipodi:namedview
     id="namedview8006"
     pagecolor="#ffffff"
     bordercolor="#000000"
     borderopacity="0.25"
     inkscape:showpageshadow="2"
     inkscape:pageopacity="0.0"
     inkscape:pagecheckerboard="true"
     inkscape:deskcolor="#d1d1d1"
     showgrid="false" />
  <g
     transform="matrix(1.25,0,0,-1.25,-270.6625,458.06538)"
     id="g8002">
    <g
       transform="translate(8,-8.0007)"
       fill="#2a3e92"
       id="g7998"
       style="fill:#ffffff">
      <path
         d="m 273.46,342.85 c 0.5381,-0.82503 0.50238,-1.9012 0.60993,-2.87 -0.0361,-2.0447 0.14327,-4.4841 -0.21548,-6.5651 -0.17935,-0.86079 -0.7532,-1.7577 -1.65,-2.0806 -1.435,-0.64569 -3.3724,-0.46629 -4.6994,0.28693 -1.1123,0.7893 -1.2556,2.1167 -1.3992,3.3724 -0.10755,2.4755 -0.28692,5.0942 0.39448,7.3542 0.53812,1.3991 2.0092,1.7578 3.3366,1.8656 1.3989,0 2.762,-0.21528 3.6232,-1.3633 z"
         id="path7994"
         style="fill:#ffffff" />
      <path
         d="m 208.53,300.91 v 73.543 h 80 V 300.91 Z m 42.188,64.753 c -0.96834,0.10757 -2.1523,0.14347 -3.1926,0.0359 -0.39465,0.0359 -0.86115,0 -1.3274,-0.0359 -8.6098,-0.68158 -16.538,-5.1659 -21.489,-12.807 0.35875,0.0359 0.78915,-0.10755 1.1479,0.0359 0.86115,1.2197 1.8296,2.4037 2.9059,3.5515 0.93275,0.89685 1.7937,1.758 2.7983,2.4036 0.9326,-0.60992 1.9731,-1.1121 2.87,-1.6862 -1.1121,-1.3991 -2.2602,-2.7981 -3.0852,-4.3049 0.25098,-0.10755 0.71748,-0.0717 1.0762,0 0.89685,1.3274 1.8654,2.6548 3.0134,3.8386 1.5425,-0.574 3.0493,-1.1838 4.6278,-1.6144 l 0.14347,-0.14347 -0.89685,-2.0808 c 0.39463,-0.0717 0.64583,-0.0357 1.0405,0 0.32281,0.60993 0.57383,1.2915 0.93258,1.9014 2.0808,-0.46646 4.2692,-0.7175 6.4933,-0.7893 0.28707,-0.25101 0.0718,-0.78913 0.17937,-1.1121 h 0.96867 c 0.10755,0.35873 -0.0359,0.75338 0.10755,1.0762 2.0808,0.10771 4.269,0.32303 6.2782,0.82521 l 0.17938,-0.0359 0.9683,-1.8655 c 0.32302,0 0.75357,-0.0717 1.0048,0.0718 l -0.89685,2.0806 c 0,0 0.0715,0.0718 0.0715,0.0718 1.6504,0.43058 3.193,1.0762 4.7716,1.7219 1.112,-1.1838 2.1525,-2.5829 3.085,-3.9462 0.39448,0 0.78933,-0.0357 1.0762,0.0718 -0.43057,0.7893 -0.9687,1.5784 -1.5425,2.26 -0.4663,0.68175 -0.9687,1.2915 -1.5786,1.9374 v 0.17935 l 2.5112,1.4707 0.35875,0.14365 c 2.1886,-1.6862 4.1256,-3.7311 5.6681,-5.9911 0.43057,0 0.78932,-0.14349 1.1481,0.0359 -4.807,7.3184 -12.735,12.018 -21.309,12.7 0,0 -0.036,-0.0718 -0.036,-0.0718 l -0.0718,0.0718 z m 3.6954,-1.6144 v -0.0718 c -3.1212,-2.2959 -8.1795,-2.5112 -11.48,-0.3945 -0.17938,0.14347 -0.53815,0.21512 -0.57405,0.4663 3.8028,0.89685 8.2872,0.96867 12.054,0 z m 9.8654,-4.3768 -0.0718,-0.14345 -2.4755,-1.3991 h -0.17936 c -1.9013,1.9372 -4.1256,3.6234 -6.3856,4.9506 0.0718,0.2512 0.43058,0.43057 0.68175,0.60995 3.0132,-0.7893 5.8474,-2.1524 8.4305,-4.018 z m -22.601,3.408 c -2.2241,-1.399 -4.4125,-3.0493 -6.4215,-5.0581 -0.96868,0.35875 -1.8655,0.89685 -2.7265,1.5066 v 0.0718 c 2.2602,1.686 4.7714,2.9416 7.4261,3.8027 0.10755,0.10755 0.17937,0.2151 0.32285,0.2151 v -0.0716 c 0.28692,-0.0718 0.50218,0.25102 0.75337,0.0359 0.2153,-0.17938 0.4663,-0.32302 0.64568,-0.5024 z m 18.834,-5.4169 -0.0718,-0.10771 c -1.3992,-0.60977 -2.8342,-1.1838 -4.3768,-1.5066 -1.112,1.9013 -2.3318,3.8026 -3.695,5.6322 0.50206,0.28708 1.112,0.50218 1.6501,0.7893 2.3318,-1.184 4.5918,-2.87 6.4935,-4.8071 z m -16.144,4.0897 -0.10757,-0.28713 c -1.3633,-1.7219 -2.4396,-3.5874 -3.5158,-5.4169 0,0 -0.1435,-0.0359 -0.1435,-0.0359 -1.4708,0.39467 -2.9058,0.86097 -4.269,1.4709 l 0.0718,0.2151 c 1.9731,1.9015 4.0538,3.4799 6.3497,4.6996 0.53813,-0.2153 1.0762,-0.39467 1.6144,-0.64565 z m 3.4799,-0.6816 c 0.10755,-1.8656 0.0359,-4.018 0.0359,-5.9911 -1.0046,-0.14347 -1.9014,0.0359 -2.9058,0.10755 -0.96867,0.14365 -2.1884,0.2512 -3.1571,0.57401 1.0405,1.9731 2.2602,3.8746 3.7311,5.6324 l 2.296,-0.32285 z m 3.3721,0.28692 c 1.3992,-1.7937 2.7624,-3.6233 3.695,-5.5965 -1.937,-0.46628 -3.9101,-0.71748 -5.9193,-0.71748 -0.0716,1.9015 -0.0357,4.018 0,5.9911 0.71748,0.10755 1.5068,0.21527 2.2243,0.32282 z m -2.9058,-12.197 c -3.9462,1.6862 -9.4708,1.8656 -13.058,-0.75342 -2.3319,-1.7219 -3.0494,-4.8071 -2.4394,-7.5336 0.4663,-2.5829 2.9057,-4.4842 5.2375,-5.381 3.193,-1.148 6.5292,-1.9731 9.7579,-3.0854 0.32284,-0.1433 0.7534,-0.46628 0.68157,-0.8608 0,-0.32298 -0.32285,-0.50235 -0.57402,-0.64598 -3.3722,-0.93262 -7.0312,-0.21514 -9.4708,2.3679 -0.28692,0.35872 -0.4663,0.78928 -0.75338,1.148 l -4.843,-0.0361 c -0.0717,-2.9057 -0.10757,-6.242 0,-9.1119 l 5.3811,0.0357 0.0718,1.7219 c 0.60995,-0.28692 1.2197,-0.64567 1.8296,-0.9687 3.7309,-1.5782 8.538,-1.937 12.233,0 2.6906,1.5068 4.1256,4.4128 3.7307,7.5337 -0.39445,3.0493 -3.2644,5.8117 -6.1701,6.5651 l -8.6817,2.5471 -0.64587,0.32285 c -0.2869,0.25119 -0.46628,0.57402 -0.39463,0.96867 0.68175,1.1838 2.2602,0.82505 3.444,0.78912 2.5112,-0.35874 5.0942,-1.2197 6.5651,-3.5515 1.5783,0 3.408,-0.0359 5.13,0.0359 0.0718,2.9418 -0.0357,5.5246 -0.0718,8.5023 -1.6144,0.0358 -3.5874,0.0358 -5.2018,-0.0359 -0.0718,-0.43056 0.0718,-1.0403 -0.10755,-1.4709 0,0 -1.6502,0.89685 -1.6502,0.89685 z m 30.422,-1.148 c -4.6637,3.0136 -11.767,3.2287 -16.574,0.50236 -2.6188,-1.3633 -4.3406,-4.0539 -4.8788,-6.8161 -0.96868,-4.5561 -0.71748,-9.973 2.7263,-13.381 4.018,-3.5874 9.8655,-4.3768 15.067,-2.906 0.24663,0.0494 1.0314,0.2512 1.5695,0.54268 l 0.1524,0.0673 c 1.6143,0.68177 3.1569,1.7937 4.3049,3.3005 2.6548,3.9462 2.8342,9.8655 1.2199,14.314 -0.64565,1.7219 -1.9731,3.2646 -3.5874,4.3766 z m -60.951,2.1525 c 0,0 -2.2241,-0.0358 -2.2241,-0.0358 -0.0359,-1.9014 -0.0359,-4.1256 0,-6.0629 1.2197,-0.0357 2.3677,0 3.5515,-0.10755 v -12.197 l -0.0359,-0.5024 c 0,0 -3.5516,-0.0715 -3.5516,-0.0715 -0.0718,-2.0092 -0.0718,-3.9462 0,-5.9193 h 15.821 v 5.9193 c -1.184,0.0715 -2.5112,-0.0361 -3.6593,0.10755 l 0.0359,12.592 0.0718,0.10775 3.5515,0.0359 c 0.0359,2.0448 0.0716,4.2331 -0.0359,6.0986 l -13.525,0.0358 z m 22.745,-27.552 c -0.35875,0 -0.75343,0.0718 -1.0046,-0.0357 l 0.89685,-2.1167 -0.10753,-0.10755 c -1.6144,-0.46665 -3.1928,-1.0405 -4.7355,-1.6862 0,0 -0.14345,0.0718 -0.14345,0.0718 -1.0044,1.112 -1.9731,2.3318 -2.7624,3.5513 -0.17937,0.60995 -0.89687,0.2512 -1.2914,0.32303 0.86098,-1.5782 2.0089,-2.9775 3.1569,-4.4125 -0.96863,-0.57387 -1.9372,-1.2199 -2.9418,-1.6862 -2.1524,1.6504 -4.1613,3.8029 -5.6681,6.0629 -0.43055,0.0714 -0.71747,0.0357 -1.148,0 2.583,-4.0898 6.601,-7.6773 10.798,-9.7937 0,0 0,0.0357 0.0359,0.0357 0.0359,0 0.10755,-0.0718 0.0359,-0.10788 2.834,-1.3989 5.8474,-2.4033 9.0402,-2.8339 11.014,-1.471 21.525,3.3005 27.623,12.7 -0.32265,0.0357 -0.78932,0.0357 -1.1481,0 -1.5064,-2.1886 -3.4081,-4.3053 -5.4887,-5.9554 -0.0718,-0.10755 -0.28692,-0.0715 -0.35875,0.0357 -0.89685,0.5742 -1.8656,1.0405 -2.7263,1.6144 1.148,1.3992 2.26,2.7985 3.1211,4.341 h -1.1123 c -0.89685,-1.3274 -1.8294,-2.7267 -3.0132,-3.9101 -1.5786,0.64532 -3.0136,1.2195 -4.6279,1.6501 l -0.17938,0.14365 c 0.2512,0.71749 0.71748,1.3989 0.86113,2.1164 h -0.96868 l -0.96867,-1.937 c -2.1168,0.46593 -4.4486,0.71748 -6.6009,0.86075 -0.10775,0.32303 0.0359,0.78932 -0.10775,1.0762 h -0.9326 c -0.0718,-0.43057 0.10755,-0.75322 -0.1077,-1.1123 -2.2241,-0.10719 -4.3766,-0.35874 -6.4574,-0.78894 l -0.96847,1.9013 z m 7.5336,-8.2511 c -0.75337,-0.17935 -1.5786,-0.17935 -2.2961,-0.35873 -1.4707,1.7576 -2.6906,3.6592 -3.7309,5.6324 l 0.17938,0.14365 c 1.8656,0.35873 3.8027,0.64528 5.8118,0.64528 0,0 0.0359,-6.0626 0.0359,-6.0626 z m 7.0674,5.3451 0.0357,-0.10717 c -1.0044,-1.9374 -2.26,-3.8029 -3.6232,-5.5606 -0.60995,-0.0722 -1.1841,0.17937 -1.7937,0.2151 0,0 -0.60993,0.0715 -0.60993,0.0715 -0.0718,2.1167 -0.10773,3.9823 0,6.0986 2.0449,-0.0357 4.0895,-0.25083 5.9911,-0.71748 z m -14.171,-0.32265 c 1.0404,-1.9731 2.3319,-3.8386 3.6234,-5.7038 -0.50222,-0.28725 -1.1121,-0.46663 -1.6144,-0.75357 -2.3678,1.1838 -4.6278,2.8339 -6.5292,4.807 v 0.10793 c 1.3992,0.68173 2.87,1.1838 4.3767,1.5786 l 0.14345,-0.0361 z m 19.731,-1.5068 c -1.148,-1.3271 -2.6191,-2.4755 -3.9823,-3.4438 -0.82505,-0.50235 -1.6501,-1.0405 -2.5112,-1.4707 l -1.5425,0.68143 0.10755,0.25115 c 1.2917,1.758 2.4394,3.5517 3.4442,5.4526 l 0.10755,0.0722 c 1.5425,-0.35877 3.0132,-0.86115 4.3768,-1.5429 z m 3.8382,-2.0446 c -2.0088,-1.6144 -4.3406,-2.6906 -6.7082,-3.5874 l -1.6862,-0.53811 c -0.28693,0.14328 -0.5381,0.35873 -0.7893,0.57383 l 0.0718,0.10755 c 2.2957,1.3632 4.3768,3.0133 6.3498,4.9863 0.96833,-0.39445 1.9013,-0.93257 2.762,-1.5422 z m -22.744,-3.5517 c -0.17938,-0.2151 -0.4665,-0.43055 -0.7175,-0.57383 -3.0136,0.78898 -5.8117,2.1524 -8.3948,4.0177 v 0.10788 c 0.86113,0.5381 1.7221,1.112 2.6548,1.5064 2.0448,-2.0446 4.1613,-3.5874 6.4574,-5.0582 z m 12.843,-0.82535 c 0.10755,-0.21515 -0.17937,-0.14332 -0.25118,-0.21515 -3.8026,-0.82502 -8.0358,-0.8611 -11.839,0.0718 -0.0716,0.17937 0.17937,0.21547 0.2871,0.32267 3.3363,2.1886 8.5382,2.1886 11.803,-0.17935 z"
         id="path7996"
         style="fill:#ffffff" />
    </g>
    <rect
       transform="scale(1,-1)"
       x="220.85001"
       y="-365.35999"
       width="71.365997"
       height="71.365997"
       fill="none"
       id="rect8000" />
  </g>
</svg>
