<?xml version="1.0" encoding="UTF-8" standalone="no"?>
<svg
   id="Ebene_1"
   height="95.237999"
   width="199.987"
   version="1.1"
   sodipodi:docname="W3C.svg"
   inkscape:version="1.2.1 (9c6d41e4, 2022-07-14)"
   xmlns:inkscape="http://www.inkscape.org/namespaces/inkscape"
   xmlns:sodipodi="http://sodipodi.sourceforge.net/DTD/sodipodi-0.dtd"
   xmlns="http://www.w3.org/2000/svg"
   xmlns:svg="http://www.w3.org/2000/svg">
  <defs
     id="defs13" />
  <sodipodi:namedview
     id="namedview11"
     pagecolor="#ffffff"
     bordercolor="#000000"
     borderopacity="0.25"
     inkscape:showpageshadow="2"
     inkscape:pageopacity="0.0"
     inkscape:pagecheckerboard="true"
     inkscape:deskcolor="#d1d1d1"
     showgrid="false"
     inkscape:zoom="1.6503497"
     inkscape:cx="56.351693"
     inkscape:cy="23.631355"
     inkscape:window-width="1344"
     inkscape:window-height="456"
     inkscape:window-x="0"
     inkscape:window-y="23"
     inkscape:window-maximized="0"
     inkscape:current-layer="Ebene_1" />
  <path
     d="M 47.346,0.531 64.301,58.174 81.254,0.531 h 45.964 v 5.73 l -17.307,29.816 c 6.08,1.949 10.678,5.498 13.795,10.641 3.119,5.146 4.68,11.184 4.68,18.121 0,8.578 -2.283,15.787 -6.844,21.631 -4.561,5.844 -10.465,8.768 -17.713,8.768 -5.458,0 -10.211,-1.732 -14.262,-5.201 -4.054,-3.469 -7.054,-8.164 -9.002,-14.09 l 9.585,-3.975 c 1.404,3.586 3.256,6.412 5.556,8.475 2.299,2.066 5.008,3.1 8.125,3.1 3.271,0 6.041,-1.832 8.301,-5.494 2.262,-3.664 3.393,-8.066 3.393,-13.215 0,-5.691 -1.209,-10.096 -3.623,-13.213 -2.811,-3.662 -7.215,-5.496 -13.216,-5.496 H 94.012 V 40.518 L 110.379,12.221 H 90.624 L 89.5,14.135 65.469,95.223 H 64.3 L 46.76,36.532 29.224,95.223 H 28.056 L 0,0.527 H 12.276 L 29.229,58.17 40.689,19.355 35.078,0.529 H 47.351 V 0.525 Z"
     fill="#005A9C"
     id="path2"
     style="fill:#ffffff" />
  <path
     d="m 191.014,0.531 c -2.41,0 -4.574,0.869 -6.215,2.535 -1.74,1.768 -2.709,4.051 -2.709,6.412 0,2.361 0.922,4.549 2.611,6.266 1.717,1.74 3.928,2.686 6.314,2.686 2.334,0 4.6,-0.945 6.361,-2.658 1.689,-1.641 2.611,-3.828 2.611,-6.289 0,-2.387 -0.945,-4.623 -2.584,-6.289 -1.7,-1.745 -3.94,-2.663 -6.38,-2.663 z m 7.78,9.024 c 0,2.064 -0.799,3.979 -2.26,5.393 -1.543,1.494 -3.457,2.289 -5.57,2.289 -1.986,0 -3.949,-0.818 -5.418,-2.311 -1.465,-1.494 -2.287,-3.406 -2.287,-5.443 0,-2.039 0.846,-4.027 2.361,-5.566 1.416,-1.443 3.328,-2.211 5.416,-2.211 2.139,0 4.051,0.799 5.543,2.311 1.45,1.438 2.22,3.373 2.22,5.538 z m -7.53,-5.321 h -3.826 v 10.143 h 1.914 v -4.324 h 1.891 l 2.063,4.324 h 2.137 l -2.264,-4.621 c 1.465,-0.301 2.313,-1.293 2.313,-2.734 0.01,-1.84 -1.39,-2.788 -4.22,-2.788 z m -0.35,1.244 c 1.789,0 2.609,0.498 2.609,1.74 0,1.191 -0.82,1.617 -2.563,1.617 h -1.617 V 5.478 h 1.57 z"
     id="path4"
     style="fill:#ffffff" />
  <path
     d="m 175.964,0 1.988,12.09 -7.039,13.469 c 0,0 -2.701,-5.715 -7.191,-8.875 -3.781,-2.664 -6.246,-3.244 -10.1,-2.449 -4.949,1.021 -10.561,6.938 -13.01,14.234 -2.93,8.727 -2.959,12.953 -3.063,16.832 -0.164,6.223 0.816,9.896 0.816,9.896 0,0 -4.275,-7.906 -4.234,-19.486 0.027,-8.268 1.328,-15.764 5.152,-23.16 3.365,-6.504 8.367,-10.408 12.807,-10.867 4.59,-0.473 8.215,1.738 11.02,4.131 2.941,2.516 5.916,8.01 5.916,8.01 L 175.946,0 Z"
     id="path6"
     style="fill:#ffffff" />
  <path
     d="m 176.834,68.408 c 0,0 -3.111,5.563 -5.049,7.705 -1.939,2.145 -5.408,5.918 -9.691,7.807 -4.283,1.887 -6.529,2.24 -10.764,1.836 -4.229,-0.406 -8.16,-2.855 -9.537,-3.877 -1.377,-1.022 -4.898,-4.029 -6.889,-6.836 -1.992,-2.807 -5.102,-8.416 -5.102,-8.416 0,0 1.732,5.623 2.82,8.01 0.623,1.375 2.541,5.576 5.266,9.232 2.541,3.41 7.475,9.283 14.973,10.609 7.498,1.328 12.65,-2.041 13.926,-2.855 1.273,-0.814 3.961,-3.066 5.664,-4.889 1.775,-1.896 3.457,-4.32 4.385,-5.773 0.682,-1.063 1.789,-3.215 1.789,-3.215 l -1.79,-9.331 z"
     id="path8"
     style="fill:#ffffff" />
</svg>
