<?xml version="1.0" encoding="UTF-8" standalone="no"?>
<!-- Created with Inkscape (http://www.inkscape.org/) -->

<svg
   width="106.87338mm"
   height="92.869286mm"
   viewBox="0 0 106.87338 92.869288"
   version="1.1"
   id="svg5"
   inkscape:version="1.2.1 (9c6d41e4, 2022-07-14)"
   sodipodi:docname="3gpp.svg"
   xmlns:inkscape="http://www.inkscape.org/namespaces/inkscape"
   xmlns:sodipodi="http://sodipodi.sourceforge.net/DTD/sodipodi-0.dtd"
   xmlns="http://www.w3.org/2000/svg"
   xmlns:svg="http://www.w3.org/2000/svg">
  <sodipodi:namedview
     id="namedview7"
     pagecolor="#ffffff"
     bordercolor="#000000"
     borderopacity="0.25"
     inkscape:showpageshadow="2"
     inkscape:pageopacity="0"
     inkscape:pagecheckerboard="true"
     inkscape:deskcolor="#d1d1d1"
     inkscape:document-units="mm"
     showgrid="false"
     inkscape:zoom="2.5326114"
     inkscape:cx="249.5448"
     inkscape:cy="205.12424"
     inkscape:window-width="2560"
     inkscape:window-height="1395"
     inkscape:window-x="0"
     inkscape:window-y="23"
     inkscape:window-maximized="1"
     inkscape:current-layer="g2214"
     showguides="true"
     inkscape:lockguides="true">
    <sodipodi:guide
       position="-191.52228,-22.277303"
       orientation="1,0"
       id="guide2923"
       inkscape:locked="true" />
    <sodipodi:guide
       position="11.397482,-78.037054"
       orientation="0,-1"
       id="guide8011"
       inkscape:locked="true" />
    <sodipodi:guide
       position="271.4183,27.068118"
       orientation="0,-1"
       id="guide11504"
       inkscape:locked="true" />
    <sodipodi:guide
       position="247.8214,17.488968"
       orientation="-0.00080638876,-0.99999967"
       id="guide13038"
       inkscape:locked="true" />
    <sodipodi:guide
       position="237.53153,61.548339"
       orientation="0,-1"
       id="guide13636"
       inkscape:locked="true" />
    <sodipodi:guide
       position="369.9903,73.334929"
       orientation="0,-1"
       id="guide13711"
       inkscape:locked="true" />
  </sodipodi:namedview>
  <defs
     id="defs2">
    <inkscape:path-effect
       effect="simplify"
       id="path-effect4258"
       is_visible="true"
       lpeversion="1"
       steps="1"
       threshold="0.00522388"
       smooth_angles="360"
       helper_size="0"
       simplify_individual_paths="false"
       simplify_just_coalesce="false" />
    <inkscape:path-effect
       effect="simplify"
       id="path-effect4258-6"
       is_visible="true"
       lpeversion="1"
       steps="1"
       threshold="0.00522388"
       smooth_angles="360"
       helper_size="0"
       simplify_individual_paths="false"
       simplify_just_coalesce="false" />
  </defs>
  <g
     inkscape:label="Ebene 1"
     inkscape:groupmode="layer"
     id="layer1"
     transform="translate(-186.32492,16.313141)">
    <ellipse
       style="opacity:0.2;fill:#333333;stroke-width:4"
       id="path2382"
       cx="220.69574"
       cy="64.855446"
       rx="34.161873"
       ry="11.700703" />
    <ellipse
       style="opacity:0.2;fill:#333333;stroke-width:2.75013"
       id="path2382-3"
       cx="268.12537"
       cy="31.856804"
       rx="25.072935"
       ry="7.5359378" />
    <ellipse
       style="fill:#d62d26;fill-opacity:1;stroke:none;stroke-width:0.900493"
       id="path6969-1"
       cx="-86.638626"
       cy="219.4263"
       rx="12.21963"
       ry="20.729851"
       transform="matrix(-0.07993951,-0.99679972,0.98517233,-0.17156769,0,0)" />
    <g
       id="g7795">
      <ellipse
         style="fill:#ff778a;fill-opacity:1;stroke:none;stroke-width:0.7"
         id="path7786"
         cx="215.96844"
         cy="18.157248"
         rx="4.727293"
         ry="3.8131757" />
      <ellipse
         style="fill:#ff778a;fill-opacity:1;stroke:none;stroke-width:0.7"
         id="path7788"
         cx="215.78561"
         cy="29.544538"
         rx="4.3877635"
         ry="3.7087049" />
      <ellipse
         style="fill:#ff778a;fill-opacity:1;stroke:none;stroke-width:0.7"
         id="path7790"
         cx="232.57927"
         cy="31.242186"
         rx="3.8915286"
         ry="4.3094106" />
    </g>
    <path
       id="rect2635-8"
       style="fill:#ffaab6;fill-opacity:1;stroke:none;stroke-width:0.0265473;stroke-linecap:round;stroke-linejoin:round;stroke-dasharray:none;stroke-opacity:1"
       d="m 210.31334,10.949654 c -9.38405,0.0866 -15.58199,6.58594 -20.02255,15.702401 -3.02862,6.217776 -4.68754,12.523409 -3.66231,18.345133 l 0.0775,27.229346 2.04483,-0.0057 -0.061,-21.417815 c 1.33678,2.394392 3.28569,4.655659 5.96088,6.73499 h -0.002 l 0.0424,14.787211 2.04483,-0.0057 -0.0382,-13.319083 c 1.33243,0.87493 2.81014,1.712189 4.44366,2.507857 0.49424,0.240745 0.99752,0.472851 1.50533,0.699699 l 0.0284,9.936861 2.04535,-0.0057 -0.0258,-9.069731 c 1.94332,0.772551 3.96119,1.449005 6.02496,2.021582 l -0.0796,-0.0047 0.0196,6.921542 2.04484,-0.0057 -0.3359,-6.478157 c 0.18385,-1.342441 1.51645,-2.358684 3.10627,-2.367814 1.73773,-0.0052 3.1501,1.188398 3.15433,2.66547 0.0383,2.586288 -0.0978,4.394425 -0.0956,6.335014 l 2.15594,-0.0062 -0.0145,-5.134054 c 1.9977,0.224454 3.98663,0.350929 5.94072,0.375688 l 0.014,4.856034 2.04535,-0.0057 c -0.009,-3.242605 0.0766,-3.443585 0.0765,-5.348511 0.18258,-1.340077 1.34371,-2.355648 2.93057,-2.368848 1.28423,0.0013 2.43794,0.665374 2.91507,1.678451 l 0.0165,5.785693 2.04483,-0.0057 -0.0155,-5.467884 c 6.84896,-1.399502 12.36129,-4.496381 14.81925,-9.54257 0.98677,-2.025879 1.42318,-4.246221 1.3901,-6.582544 -0.13638,-9.631259 -8.25091,-21.240737 -18.66501,-29.401822 -0.0391,0.03192 -0.0812,0.0604 -0.12196,0.09043 v -7.386629 h -5.09426 v 3.63182 c -1.6297,-1.021893 -3.28804,-1.954988 -4.95991,-2.76934 -5.20566,-2.535628 -9.73571,-3.642031 -13.69787,-3.605465 z m 5.49631,4.069002 c 1.73753,-0.0049 3.14958,1.188052 3.15381,2.664954 0.005,1.476904 -1.40078,2.678525 -3.13831,2.683557 -1.73773,0.0052 -3.1501,-1.188398 -3.15433,-2.66547 -0.005,-1.477074 1.4011,-2.678248 3.13883,-2.683041 z m -0.12299,12.033891 c 1.73773,-0.0052 3.14957,1.188398 3.15381,2.66547 0.005,1.477075 -1.40109,2.678258 -3.13883,2.683041 -1.73753,0.0049 -3.14959,-1.188051 -3.15381,-2.664954 -0.005,-1.476903 1.4013,-2.678525 3.13883,-2.683557 z m 16.20676,1.369942 c 1.73753,-0.0049 3.14958,1.18805 3.15381,2.664954 0.005,1.476903 -1.40077,2.678525 -3.13831,2.683557 -1.73773,0.0052 -3.1501,-1.188399 -3.15433,-2.66547 -0.005,-1.477074 1.4011,-2.678259 3.13883,-2.683041 z m -16.48737,10.665499 c 1.73773,-0.0052 3.15011,1.188398 3.15433,2.665471 0.005,1.477072 -1.40109,2.678256 -3.13882,2.68304 -1.73753,0.0049 -3.14959,-1.188568 -3.15382,-2.66547 -0.005,-1.476904 1.40077,-2.678009 3.13831,-2.683041 z m 16.20728,1.368909 c 1.73753,-0.0049 3.14958,1.188579 3.15381,2.66547 0.005,1.476903 -1.40128,2.678009 -3.13882,2.683041 -1.73753,0.0049 -3.14906,-1.188051 -3.1533,-2.664954 -0.005,-1.476893 1.40078,-2.678525 3.13831,-2.683557 z m -16.32975,10.665499 c 1.73754,-0.0049 3.14957,1.188051 3.15381,2.664953 0.005,1.476903 -1.40129,2.678525 -3.13882,2.683557 -1.73754,0.0049 -3.14906,-1.188567 -3.1533,-2.66547 -0.005,-1.476904 1.40077,-2.678009 3.13831,-2.68304 z m 16.20625,1.369425 c 1.73772,-0.0052 3.15009,1.188399 3.15432,2.665471 0.005,1.477074 -1.40109,2.678248 -3.13882,2.68304 -1.73753,0.0049 -3.14958,-1.188568 -3.15381,-2.66547 -0.005,-1.476904 1.40078,-2.678009 3.13831,-2.683041 z"
       sodipodi:nodetypes="cccccccccccsccccccccccccccccccccccccscccccsccccccccccccccccccccccccccccccccccccc" />
    <g
       id="g18515"
       transform="matrix(0.01668588,0,0,-0.01668588,258.05567,75.833704)">
      <path
         d="m 484.785,855.105 c 16.879,-17.82 27.906,-46.835 26.453,-69.855 -2.09,-33.254 -24.429,-61.371 -47.406,-79.191 -29.699,-22.52 -61.562,-38.493 -104.547,-55.043 -11.847,-4.391 -14.972,-13.18 -2.41,-17.825 60.414,-24.347 125.051,-64.367 120.535,-135.984 -1.93,-30.695 -22.515,-70.48 -60.625,-101.426 -61.258,-49.957 -179.43,-88.636 -257.144,-97.836 -15.532,-1.59 -33.536,-1.734 -54.028,-0.445 -42.2536,2.66 -107.62863,46.492 -104.816125,91.16 1.929685,30.633 45.632825,50.945 73.800825,49.172 33.2973,-2.102 63.5473,-11.695 87.7893,-35 8.48,-8.223 12.242,-9.742 21.207,-10.305 19.211,-1.211 94.844,15.809 129.664,37.981 26.898,18.847 42.113,35.863 43.32,55.047 1.61,25.578 -18.629,51.246 -49.758,67.332 -32.324,17.445 -67.773,26.097 -98.898,29.34 -31.938,3.296 -54.977,25.289 -53.688,45.75 0.723,11.511 24.985,49.785 55.723,47.847 20.481,-1.289 79.723,20.66 123.906,48.692 36.11,22.125 51.481,41.699 52.528,58.328 1.531,24.293 -31.672,48.226 -72.653,50.804 -16.648,1.047 -30.093,-8.39 -41.629,-28.21 -8.89,-18.696 -35.629,-34.985 -55.015,-33.766 -21.778,1.371 -49.949,23.687 -48.5,46.711 2.82,44.855 43.437,77.105 87.554,83.351 9.047,0.723 23.293,2.403 32.426,4.403 18.258,4.008 42.836,6.328 64.614,4.957 58.925,-3.711 109.746,-33.985 131.597,-55.989"
         style="fill:#ffffff;fill-opacity:1;fill-rule:nonzero;stroke:none"
         id="path8953" />
      <path
         d="m 826.621,371.086 c -15.348,-36.125 -45,-5 -45,-5 l -12.308,47.129 c 0,0 -12.309,1.941 -18.793,0 -9.075,-3.246 -18.149,-16.203 -18.149,-16.203 0,0 -15.551,-31.754 -30.453,-48.598 -23.328,-25.926 -40.824,-38.883 -73.223,-51.191 -119.23,-46.012 -255.453,117.285 -255.453,206.707 0,166.539 148.531,325.343 303.403,325.343 58.968,0 114.699,-20.75 215.789,-81.031 l -34.993,-58.336 c -71.929,8.422 -125.07,12.961 -145.156,12.961 -121.82,0 -234.574,-106.922 -234.574,-224.211 0,-65.441 103.031,-147.738 167.184,-105.621 45.359,30.457 38.23,134.781 38.23,134.781 l -76.465,26.571 c 0,0 2.594,31.101 12.965,47.301 6.48,9.074 19.438,20.089 19.438,20.089 h 241.699 c 12.922,-22.5 -26.485,-165.625 -54.141,-230.691"
         style="fill:#ffffff;fill-opacity:1;fill-rule:nonzero;stroke:none"
         id="path8955" />
      <path
         d="m 1336.95,572.445 c -5.34,38.512 -22.51,85.196 -56.68,127.567 -85.86,101.922 -336.95,56.316 -336.95,56.316 l -25.129,-3.48 17.825,-270.332 -35.625,-4.938 46.379,-19.59 34.878,-205.476 28.422,0.242 -12.367,189.25 c 99.677,-24.445 156.637,-31.262 201.937,-24.984 90.61,12.566 148.26,76.476 137.31,155.425 z m -35.29,8.848 c 9.75,-70.285 -44.73,-123.957 -139.2,-137.055 -53.02,-7.351 -95.23,-0.449 -188.991,30.711 l -6.946,234.547 29.883,4.145 c 169.654,23.523 290.834,-28.368 305.254,-132.348"
         style="fill:#ffffff;fill-opacity:1;fill-rule:nonzero;stroke:none"
         id="path8957" />
      <path
         d="m 1549.96,774.172 c -17.3,34.812 -48.44,73.609 -94.31,102.906 -113.8,69.336 -337.37,-53.758 -337.37,-53.758 l -22.7,-11.293 102.87,-250.632 -32.21,-16.008 50.2,-3.824 146.27,-284.083 26.86,9.262 -119.76,275.863 c 102.28,8.528 158.44,20.176 199.4,40.54 81.91,40.734 116.24,119.656 80.75,191.027 z m -36.27,-2.844 c 31.59,-63.535 -2.99,-131.742 -88.38,-174.203 -47.94,-23.832 -90.15,-30.719 -188.96,-30.988 l -81.17,220.164 27.01,13.429 c 153.38,76.254 284.76,65.602 331.5,-28.402"
         style="fill:#ffffff;fill-opacity:1;fill-rule:nonzero;stroke:none"
         id="path8959" />
      <path
         d="m 773.734,218.016 c -48.066,-0.84 -95.043,30.711 -95.043,30.711 0,0 40.497,-50.399 95.043,-50.914 49.141,-0.469 95.582,35.75 95.582,35.75 0,0 -50.761,-14.754 -95.582,-15.547"
         style="fill:#ffffff;fill-opacity:1;fill-rule:nonzero;stroke:none"
         id="path8961" />
      <path
         d="m 778.473,275.254 c -38.45,-0.676 -76.032,21.883 -76.032,21.883 0,0 32.399,-38.399 76.032,-38.813 39.316,-0.379 76.468,25.914 76.468,25.914 0,0 -40.609,-8.355 -76.468,-8.984"
         style="fill:#ffffff;fill-opacity:1;fill-rule:nonzero;stroke:none"
         id="path8963" />
      <path
         d="m 788.598,321.777 c -30.762,-0.543 -60.825,14.828 -60.825,14.828 0,0 25.918,-28.804 60.825,-29.14 31.453,-0.301 61.175,18.058 61.175,18.058 0,0 -32.488,-3.242 -61.175,-3.746"
         style="fill:#ffffff;fill-opacity:1;fill-rule:nonzero;stroke:none"
         id="path8965" />
      <g
         id="g9001"
         transform="scale(10)"
         style="fill:#ffffff">
        <text
           xml:space="preserve"
           transform="matrix(1,0,0,-1,139.588,27.293)"
           style="font-variant:normal;font-weight:normal;font-size:9px;font-family:Arial;-inkscape-font-specification:Arial;writing-mode:lr-tb;fill:#ffffff;fill-opacity:1;fill-rule:nonzero;stroke:none"
           id="text9005"><tspan
             x="0 4.45508"
             y="0"
             sodipodi:role="line"
             id="tspan9003">TM</tspan></text>
      </g>
    </g>
    <g
       id="g2214"
       transform="matrix(0.78169862,0,0,0.78169862,34.892383,-24.381622)">
      <g
         id="g5231">
        <path
           id="path552"
           style="opacity:0.99;fill:#ffaab6;fill-opacity:1;stroke:#ffaab5;stroke-width:0;stroke-linecap:square;stroke-dasharray:none;paint-order:fill markers stroke"
           d="m 301.03401,10.322997 c -8.51244,0.05235 -17.39707,3.365165 -24.4376,7.415031 v -3.243213 h -5.02346 v 6.72052 c -4.76328,3.986167 -7.36465,9.273215 -7.83053,14.849739 -0.70036,8.383236 1.18423,18.291048 7.90442,23.96753 v 15.074532 h 2.51148 V 62.202497 c 3.33226,2.418756 15.07243,3.765457 22.20918,1.716216 10.60448,-3.044962 17.84155,-8.311874 26.6204,-19.669642 v 30.858065 h 2.51147 V 40.685464 c 2.67799,-4.223087 4.28449,-8.43496 4.28449,-12.15533 0,-14.850546 -16.17317,-18.284487 -28.74985,-18.207137 z"
           sodipodi:nodetypes="sccccaccccaccccss" />
        <g
           id="g5217">
          <ellipse
             style="opacity:0.99;fill:#d72c25;fill-opacity:0.992157;stroke:#ffaab5;stroke-width:0;stroke-linecap:square;stroke-dasharray:none;paint-order:fill markers stroke"
             id="path1898"
             cx="318.41772"
             cy="23.057631"
             rx="3.2264326"
             ry="2.6019619" />
          <ellipse
             style="opacity:0.99;fill:#d72c25;fill-opacity:0.992157;stroke:#ffaab5;stroke-width:0;stroke-linecap:square;stroke-dasharray:none;paint-order:fill markers stroke"
             id="path1898-7"
             cx="318.41772"
             cy="29.883265"
             rx="3.2264326"
             ry="2.6019619" />
          <ellipse
             style="opacity:0.99;fill:#d72c25;fill-opacity:0.992157;stroke:#ffaab5;stroke-width:0;stroke-linecap:square;stroke-dasharray:none;paint-order:fill markers stroke"
             id="path1898-2"
             cx="310.57718"
             cy="36.65271"
             rx="3.2264326"
             ry="2.6019619" />
          <ellipse
             style="opacity:0.99;fill:#d72c25;fill-opacity:0.992157;stroke:#ffaab5;stroke-width:0;stroke-linecap:square;stroke-dasharray:none;paint-order:fill markers stroke"
             id="path1898-7-2"
             cx="310.57718"
             cy="43.82563"
             rx="3.2264326"
             ry="2.6019619" />
          <ellipse
             style="opacity:0.99;fill:#d72c25;fill-opacity:0.992157;stroke:#ffaab5;stroke-width:0;stroke-linecap:square;stroke-dasharray:none;paint-order:fill markers stroke"
             id="path1898-2-6"
             cx="302.23373"
             cy="43.82563"
             rx="3.2264326"
             ry="2.6019619" />
          <ellipse
             style="opacity:0.99;fill:#d72c25;fill-opacity:0.992157;stroke:#ffaab5;stroke-width:0;stroke-linecap:square;stroke-dasharray:none;paint-order:fill markers stroke"
             id="path1898-7-2-6"
             cx="302.23373"
             cy="50.955002"
             rx="3.2264326"
             ry="2.6019619" />
          <ellipse
             style="opacity:0.99;fill:#ff778a;fill-opacity:1;stroke:#ffaab5;stroke-width:0;stroke-linecap:square;stroke-dasharray:none;paint-order:fill markers stroke"
             id="path1898-2-6-8"
             cx="273.70303"
             cy="36.65271"
             rx="3.2264326"
             ry="2.6019619" />
          <ellipse
             style="opacity:0.99;fill:#ff778a;fill-opacity:1;stroke:#ffaab5;stroke-width:0;stroke-linecap:square;stroke-dasharray:none;paint-order:fill markers stroke"
             id="path1898-7-2-6-5"
             cx="273.70303"
             cy="43.82563"
             rx="3.2264326"
             ry="2.6019619" />
          <ellipse
             style="opacity:0.99;fill:#ff778a;fill-opacity:1;stroke:#ffaab5;stroke-width:0;stroke-linecap:square;stroke-dasharray:none;paint-order:fill markers stroke"
             id="path1898-2-6-8-3"
             cx="283.95624"
             cy="24.255833"
             rx="3.2264326"
             ry="2.6019619" />
          <ellipse
             style="opacity:0.99;fill:#ff778a;fill-opacity:1;stroke:#ffaab5;stroke-width:0;stroke-linecap:square;stroke-dasharray:none;paint-order:fill markers stroke"
             id="path1898-7-2-6-5-1"
             cx="283.95624"
             cy="31.914097"
             rx="3.2264326"
             ry="2.6019619" />
        </g>
      </g>
    </g>
  </g>
</svg>
