<?xml version="1.0" encoding="UTF-8" standalone="no"?>
<!-- Created with Inkscape (http://www.inkscape.org/) -->

<svg
   width="106.87338mm"
   height="92.869286mm"
   viewBox="0 0 106.87338 92.869288"
   version="1.1"
   id="svg5"
   inkscape:version="1.2.1 (9c6d41e4, 2022-07-14)"
   sodipodi:docname="3gpp.svg"
   xmlns:inkscape="http://www.inkscape.org/namespaces/inkscape"
   xmlns:sodipodi="http://sodipodi.sourceforge.net/DTD/sodipodi-0.dtd"
   xmlns="http://www.w3.org/2000/svg"
   xmlns:svg="http://www.w3.org/2000/svg">
  <sodipodi:namedview
     id="namedview7"
     pagecolor="#ffffff"
     bordercolor="#000000"
     borderopacity="0.25"
     inkscape:showpageshadow="2"
     inkscape:pageopacity="0"
     inkscape:pagecheckerboard="true"
     inkscape:deskcolor="#d1d1d1"
     inkscape:document-units="mm"
     showgrid="false"
     inkscape:zoom="2.5326114"
     inkscape:cx="279.55335"
     inkscape:cy="185.5792"
     inkscape:window-width="1444"
     inkscape:window-height="1118"
     inkscape:window-x="0"
     inkscape:window-y="23"
     inkscape:window-maximized="0"
     inkscape:current-layer="layer1"
     showguides="true"
     inkscape:lockguides="true">
    <sodipodi:guide
       position="-191.52228,-22.277303"
       orientation="1,0"
       id="guide2923"
       inkscape:locked="true" />
    <sodipodi:guide
       position="11.397482,-78.037054"
       orientation="0,-1"
       id="guide8011"
       inkscape:locked="true" />
    <sodipodi:guide
       position="271.4183,27.068118"
       orientation="0,-1"
       id="guide11504"
       inkscape:locked="true" />
    <sodipodi:guide
       position="247.8214,17.488968"
       orientation="-0.00080638876,-0.99999967"
       id="guide13038"
       inkscape:locked="true" />
    <sodipodi:guide
       position="237.53153,61.548339"
       orientation="0,-1"
       id="guide13636"
       inkscape:locked="true" />
    <sodipodi:guide
       position="369.9903,73.334929"
       orientation="0,-1"
       id="guide13711"
       inkscape:locked="true" />
  </sodipodi:namedview>
  <defs
     id="defs2">
    <inkscape:path-effect
       effect="simplify"
       id="path-effect4258"
       is_visible="true"
       lpeversion="1"
       steps="1"
       threshold="0.00522388"
       smooth_angles="360"
       helper_size="0"
       simplify_individual_paths="false"
       simplify_just_coalesce="false" />
    <inkscape:path-effect
       effect="simplify"
       id="path-effect4258-6"
       is_visible="true"
       lpeversion="1"
       steps="1"
       threshold="0.00522388"
       smooth_angles="360"
       helper_size="0"
       simplify_individual_paths="false"
       simplify_just_coalesce="false" />
    <inkscape:path-effect
       effect="simplify"
       id="path-effect1524"
       is_visible="true"
       lpeversion="1"
       steps="1"
       threshold="0.00522388"
       smooth_angles="360"
       helper_size="0"
       simplify_individual_paths="false"
       simplify_just_coalesce="false" />
    <inkscape:path-effect
       effect="simplify"
       id="path-effect1528"
       is_visible="true"
       lpeversion="1"
       steps="1"
       threshold="0.00522388"
       smooth_angles="360"
       helper_size="0"
       simplify_individual_paths="false"
       simplify_just_coalesce="false" />
    <inkscape:path-effect
       effect="simplify"
       id="path-effect1532"
       is_visible="true"
       lpeversion="1"
       steps="1"
       threshold="0.00522388"
       smooth_angles="360"
       helper_size="0"
       simplify_individual_paths="false"
       simplify_just_coalesce="false" />
    <inkscape:path-effect
       effect="simplify"
       id="path-effect1536"
       is_visible="true"
       lpeversion="1"
       steps="1"
       threshold="0.00522388"
       smooth_angles="360"
       helper_size="0"
       simplify_individual_paths="false"
       simplify_just_coalesce="false" />
    <inkscape:path-effect
       effect="simplify"
       id="path-effect1540"
       is_visible="true"
       lpeversion="1"
       steps="1"
       threshold="0.00522388"
       smooth_angles="360"
       helper_size="0"
       simplify_individual_paths="false"
       simplify_just_coalesce="false" />
    <inkscape:path-effect
       effect="simplify"
       id="path-effect1544"
       is_visible="true"
       lpeversion="1"
       steps="1"
       threshold="0.00522388"
       smooth_angles="360"
       helper_size="0"
       simplify_individual_paths="false"
       simplify_just_coalesce="false" />
    <inkscape:path-effect
       effect="simplify"
       id="path-effect1548"
       is_visible="true"
       lpeversion="1"
       steps="1"
       threshold="0.00522388"
       smooth_angles="360"
       helper_size="0"
       simplify_individual_paths="false"
       simplify_just_coalesce="false" />
    <inkscape:path-effect
       effect="simplify"
       id="path-effect1552"
       is_visible="true"
       lpeversion="1"
       steps="1"
       threshold="0.00522388"
       smooth_angles="360"
       helper_size="0"
       simplify_individual_paths="false"
       simplify_just_coalesce="false" />
    <inkscape:path-effect
       effect="simplify"
       id="path-effect1556"
       is_visible="true"
       lpeversion="1"
       steps="1"
       threshold="0.00522388"
       smooth_angles="360"
       helper_size="0"
       simplify_individual_paths="false"
       simplify_just_coalesce="false" />
    <inkscape:path-effect
       effect="simplify"
       id="path-effect1560"
       is_visible="true"
       lpeversion="1"
       steps="1"
       threshold="0.00522388"
       smooth_angles="360"
       helper_size="0"
       simplify_individual_paths="false"
       simplify_just_coalesce="false" />
  </defs>
  <g
     inkscape:label="Ebene 1"
     inkscape:groupmode="layer"
     id="layer1"
     transform="translate(-186.32492,16.313141)">
    <ellipse
       style="opacity:0.2;fill:#333333;stroke-width:4"
       id="path2382"
       cx="220.69574"
       cy="64.855446"
       rx="34.161873"
       ry="11.700703" />
    <ellipse
       style="opacity:0.2;fill:#333333;stroke-width:2.58712"
       id="path2382-3"
       cx="269.77985"
       cy="29.327349"
       rx="23.418463"
       ry="7.1402178" />
    <ellipse
       style="fill:#d62d26;fill-opacity:1;stroke:none;stroke-width:0.900493"
       id="path6969-1"
       cx="-86.638626"
       cy="219.4263"
       rx="12.21963"
       ry="20.729851"
       transform="matrix(-0.07993951,-0.99679972,0.98517233,-0.17156769,0,0)" />
    <g
       id="g7795">
      <ellipse
         style="fill:#ff778a;fill-opacity:1;stroke:none;stroke-width:0.7"
         id="path7786"
         cx="215.96844"
         cy="18.157248"
         rx="4.727293"
         ry="3.8131757" />
      <ellipse
         style="fill:#ff778a;fill-opacity:1;stroke:none;stroke-width:0.7"
         id="path7788"
         cx="215.78561"
         cy="29.544538"
         rx="4.3877635"
         ry="3.7087049" />
      <ellipse
         style="fill:#ff778a;fill-opacity:1;stroke:none;stroke-width:0.7"
         id="path7790"
         cx="232.57927"
         cy="31.242186"
         rx="3.8915286"
         ry="4.3094106" />
    </g>
    <path
       id="rect2635-8"
       style="fill:#ffaab6;fill-opacity:1;stroke:none;stroke-width:0.0265473;stroke-linecap:round;stroke-linejoin:round;stroke-dasharray:none;stroke-opacity:1"
       d="m 210.31334,10.949654 c -9.38405,0.0866 -15.58199,6.58594 -20.02255,15.702401 -3.02862,6.217776 -4.68754,12.523409 -3.66231,18.345133 l 0.0775,27.229346 2.04483,-0.0057 -0.061,-21.417815 c 1.33678,2.394392 3.28569,4.655659 5.96088,6.73499 h -0.002 l 0.0424,14.787211 2.04483,-0.0057 -0.0382,-13.319083 c 1.33243,0.87493 2.81014,1.712189 4.44366,2.507857 0.49424,0.240745 0.99752,0.472851 1.50533,0.699699 l 0.0284,9.936861 2.04535,-0.0057 -0.0258,-9.069731 c 1.94332,0.772551 3.96119,1.449005 6.02496,2.021582 l -0.0796,-0.0047 0.0196,6.921542 2.04484,-0.0057 -0.3359,-6.478157 c 0.18385,-1.342441 1.51645,-2.358684 3.10627,-2.367814 1.73773,-0.0052 3.1501,1.188398 3.15433,2.66547 0.0383,2.586288 -0.0978,4.394425 -0.0956,6.335014 l 2.15594,-0.0062 -0.0145,-5.134054 c 1.9977,0.224454 3.98663,0.350929 5.94072,0.375688 l 0.014,4.856034 2.04535,-0.0057 c -0.009,-3.242605 0.0766,-3.443585 0.0765,-5.348511 0.18258,-1.340077 1.34371,-2.355648 2.93057,-2.368848 1.28423,0.0013 2.43794,0.665374 2.91507,1.678451 l 0.0165,5.785693 2.04483,-0.0057 -0.0155,-5.467884 c 6.84896,-1.399502 12.36129,-4.496381 14.81925,-9.54257 0.98677,-2.025879 1.42318,-4.246221 1.3901,-6.582544 -0.13638,-9.631259 -8.25091,-21.240737 -18.66501,-29.401822 -0.0391,0.03192 -0.0812,0.0604 -0.12196,0.09043 v -7.386629 h -5.09426 v 3.63182 c -1.6297,-1.021893 -3.28804,-1.954988 -4.95991,-2.76934 -5.20566,-2.535628 -9.73571,-3.642031 -13.69787,-3.605465 z m 5.49631,4.069002 c 1.73753,-0.0049 3.14958,1.188052 3.15381,2.664954 0.005,1.476904 -1.40078,2.678525 -3.13831,2.683557 -1.73773,0.0052 -3.1501,-1.188398 -3.15433,-2.66547 -0.005,-1.477074 1.4011,-2.678248 3.13883,-2.683041 z m -0.12299,12.033891 c 1.73773,-0.0052 3.14957,1.188398 3.15381,2.66547 0.005,1.477075 -1.40109,2.678258 -3.13883,2.683041 -1.73753,0.0049 -3.14959,-1.188051 -3.15381,-2.664954 -0.005,-1.476903 1.4013,-2.678525 3.13883,-2.683557 z m 16.20676,1.369942 c 1.73753,-0.0049 3.14958,1.18805 3.15381,2.664954 0.005,1.476903 -1.40077,2.678525 -3.13831,2.683557 -1.73773,0.0052 -3.1501,-1.188399 -3.15433,-2.66547 -0.005,-1.477074 1.4011,-2.678259 3.13883,-2.683041 z m -16.48737,10.665499 c 1.73773,-0.0052 3.15011,1.188398 3.15433,2.665471 0.005,1.477072 -1.40109,2.678256 -3.13882,2.68304 -1.73753,0.0049 -3.14959,-1.188568 -3.15382,-2.66547 -0.005,-1.476904 1.40077,-2.678009 3.13831,-2.683041 z m 16.20728,1.368909 c 1.73753,-0.0049 3.14958,1.188579 3.15381,2.66547 0.005,1.476903 -1.40128,2.678009 -3.13882,2.683041 -1.73753,0.0049 -3.14906,-1.188051 -3.1533,-2.664954 -0.005,-1.476893 1.40078,-2.678525 3.13831,-2.683557 z m -16.32975,10.665499 c 1.73754,-0.0049 3.14957,1.188051 3.15381,2.664953 0.005,1.476903 -1.40129,2.678525 -3.13882,2.683557 -1.73754,0.0049 -3.14906,-1.188567 -3.1533,-2.66547 -0.005,-1.476904 1.40077,-2.678009 3.13831,-2.68304 z m 16.20625,1.369425 c 1.73772,-0.0052 3.15009,1.188399 3.15432,2.665471 0.005,1.477074 -1.40109,2.678248 -3.13882,2.68304 -1.73753,0.0049 -3.14958,-1.188568 -3.15381,-2.66547 -0.005,-1.476904 1.40078,-2.678009 3.13831,-2.683041 z"
       sodipodi:nodetypes="cccccccccccsccccccccccccccccccccccccscccccsccccccccccccccccccccccccccccccccccccc" />
    <g
       id="g1680"
       transform="matrix(1.3778194,0,0,1.3778194,228.12063,44.511274)">
      <path
         style="opacity:0.99;fill:none;stroke:#ffffff;stroke-width:1.4;stroke-linecap:round;stroke-dasharray:none;stroke-opacity:1;paint-order:fill markers stroke"
         d="m 25.188564,9.677883 c 0.81833,-0.1440813 1.699653,-0.2601537 2.491948,0.075165 0.442542,0.1872948 0.805029,0.5787578 0.885742,1.0627878 0.120224,0.720971 -0.193604,1.499715 -0.758835,1.940588 -0.419145,0.326928 -0.984926,0.241106 -1.476404,0.185616 -0.333319,-0.03763 -0.683426,-0.162992 -1.007801,-0.06616 -0.155262,0.04635 -0.564561,0.368516 -0.314059,0.414863 0.26335,0.04872 0.53554,0.02107 0.803672,0.0351 0.645695,0.03378 1.39013,0.168076 1.777839,0.723774 0.476957,0.683617 0.560554,1.639008 0.192382,2.365258 -0.581588,1.14723 -1.921354,1.773226 -3.181644,1.672204 -1.056378,-0.08468 -2.105478,-0.590132 -2.722606,-1.47359 -0.33158,-0.474678 -0.641535,-1.063876 -0.502459,-1.655066 0.03036,-0.129047 0.08565,-0.252176 0.162649,-0.360138"
         id="path1522"
         inkscape:path-effect="#path-effect1524"
         inkscape:original-d="m 25.188564,9.677883 c 0.988616,-0.1782153 2.170639,-0.3300666 2.985195,0.397115 0.733718,0.72169 0.408094,1.913954 -0.246056,2.570141 -0.615044,0.662746 -1.666784,0.183425 -2.524036,0.216755 -0.265998,0.01025 -0.788979,0.470784 -0.191091,0.451346 0.827891,-0.0053 1.810332,0.04207 2.37809,0.736378 0.475515,0.671127 0.488501,1.61628 0.192382,2.365258 -0.489054,0.958165 -1.466753,1.522644 -2.440703,1.653739 -1.098637,0.147878 -2.389014,-0.263527 -3.148429,-1.071091 C 21.626,16.3936 21.027991,15.31759 21.538988,14.598286"
         sodipodi:nodetypes="cccccccaac" />
      <path
         style="opacity:0.99;fill:none;stroke:#ffffff;stroke-width:1.4;stroke-linecap:round;stroke-dasharray:none;stroke-opacity:1;paint-order:fill markers stroke"
         d="M 34.247322,10.525105 C 33.482198,10.265174 32.674641,10.075514 31.86267,10.1181 c -0.420247,0.02204 -0.844303,0.156105 -1.160248,0.454964 -0.97619,0.923397 -1.499488,2.251274 -1.601856,3.570293 -0.03552,0.457663 -0.07818,0.924896 0.0046,1.378481 0.149614,0.819933 0.58622,1.598857 1.244695,2.118074 0.435344,0.343275 1.011464,0.474733 1.558072,0.396598 0.750128,-0.107227 1.482575,-0.445947 2.005755,-1.004019 0.346859,-0.369992 0.458153,-0.885852 0.523586,-1.371679 0.03294,-0.244565 0.05115,-0.490774 0.07075,-0.736671"
         id="path1526"
         inkscape:path-effect="#path-effect1528"
         inkscape:original-d="m 34.247322,10.525105 c -0.872093,-0.309933 -2.710753,-0.7349896 -3.459962,-0.03 -1.224287,1.093375 -1.753122,2.848844 -1.720344,4.508774 -0.03586,1.194736 0.859295,2.695489 1.976917,2.982949 1.025769,0.317126 2.924942,-0.448791 3.234493,-1.604577 0.156504,-0.469647 0.190525,-0.968153 0.229578,-1.45811"
         sodipodi:nodetypes="cccccc" />
      <path
         style="opacity:0.99;fill:none;stroke:#ffffff;stroke-width:1.4;stroke-linecap:square;stroke-linejoin:miter;stroke-dasharray:none;stroke-opacity:1;paint-order:fill markers stroke"
         d="m 32.324781,14.533117 c 0.735588,0.08321 1.475546,0.0012 2.212851,0.03274 0.257789,0.01102 0.764804,-0.181071 0.769823,0.07692 0.01088,0.559298 0.193267,1.093773 0.281274,1.642396 0.05851,0.36475 0.09058,0.733354 0.105332,1.102348"
         id="path1530"
         inkscape:path-effect="#path-effect1532"
         inkscape:original-d="m 32.324781,14.533117 c 1.116643,0.113489 1.83559,-0.07217 2.982674,0.10966 0.01874,0.795898 0.325679,1.22713 0.386606,2.744744"
         sodipodi:nodetypes="ccc" />
      <path
         style="opacity:0.99;fill:none;stroke:#ffffff;stroke-width:0.899999;stroke-linecap:square;stroke-dasharray:none;stroke-opacity:1;paint-order:fill markers stroke"
         d="m 37.929481,10.720618 c 0.742317,2.069369 1.506294,4.133274 2.132275,6.241495 0.0843,0.283918 0.165479,0.568803 0.239896,0.855484"
         id="path1534"
         inkscape:original-d="m 37.929481,10.720618 c 0.666485,1.851981 1.877318,5.18826 2.372171,7.096979"
         inkscape:path-effect="#path-effect1536"
         sodipodi:nodetypes="cc" />
      <path
         style="opacity:0.99;fill:none;stroke:#ffffff;stroke-width:0.899999;stroke-linecap:square;stroke-dasharray:none;stroke-opacity:1;paint-order:fill markers stroke"
         d="m 37.701381,10.622861 c 0.481876,-0.21248 0.95096,-0.483072 1.472457,-0.57756 0.578229,-0.104767 1.179363,-0.1148848 1.754762,0.0024 0.368948,0.07523 0.785526,0.176484 1.015941,0.491747 0.263632,0.360711 0.316801,0.840211 0.237478,1.26902 -0.142811,0.772017 -0.640638,1.447804 -1.283526,1.886211 -0.733454,0.500167 -1.629902,0.738126 -2.512815,0.740639"
         id="path1538"
         inkscape:original-d="m 37.701381,10.622861 c 0.3942,-0.177389 0.950193,-0.446921 1.368592,-0.553952 0.688287,-0.176074 2.488419,-0.1865015 2.932691,0.553952 0.243946,0.406578 0.257668,0.95553 0.130342,1.401175 -0.460187,1.610648 -2.165053,2.411325 -3.747328,2.411325"
         inkscape:path-effect="#path-effect1540" />
      <path
         style="opacity:0.99;fill:none;stroke:#ffffff;stroke-width:0.899999;stroke-linecap:square;stroke-dasharray:none;stroke-opacity:1;paint-order:fill markers stroke"
         d="m 39.949778,8.7329043 c 0.346152,0.7930418 0.79392,1.5365387 1.121881,2.3391097 0.516302,1.26347 0.952789,2.558449 1.524925,3.799999 0.49398,1.07195 0.997619,2.140491 1.556721,3.180335"
         id="path1542"
         inkscape:path-effect="#path-effect1544"
         inkscape:original-d="m 39.949778,8.7329043 c 0.281779,0.6567303 0.657929,1.2687027 0.944981,1.9225427 0.55449,1.263005 0.95663,2.59079 1.531517,3.845085 0.297508,0.64911 1.042734,2.286764 1.727029,3.551816"
         sodipodi:nodetypes="cssc" />
      <path
         style="opacity:0.99;fill:none;stroke:#ffffff;stroke-width:0.899999;stroke-linecap:square;stroke-dasharray:none;stroke-opacity:1;paint-order:fill markers stroke"
         d="m 39.786853,8.4722206 c 1.409695,-0.3544736 2.886091,-0.593925 4.334334,-0.3661565 0.435603,0.068508 0.885945,0.1317335 1.281063,0.3292456 0.489726,0.244805 0.931269,0.6776143 1.038492,1.233706 0.0655,0.3396883 -0.08841,0.6635043 -0.234705,0.9583363 -0.480508,0.968407 -1.417042,1.601318 -2.376135,2.061245 -0.636167,0.30507 -1.289914,0.573653 -1.957577,0.801784"
         id="path1546"
         inkscape:path-effect="#path-effect1548"
         inkscape:original-d="m 39.786853,8.4722206 c 1.800393,-0.4545453 3.763129,-0.6991324 5.550705,-0.066881 0.690311,0.3046951 1.383169,1.0939785 1.01362,1.8840004 -0.418721,1.143909 -1.421448,1.948222 -2.521276,2.399257 -0.636167,0.30507 -1.289914,0.573653 -1.957577,0.801784"
         sodipodi:nodetypes="cssscsc" />
      <path
         style="opacity:0.99;fill:none;stroke:#ffffff;stroke-width:0.649296;stroke-linecap:round;stroke-dasharray:none;stroke-opacity:0.976471;paint-order:fill markers stroke"
         d="m 35.097557,19.786329 c 0.323127,0.09377 0.666521,0.145649 1.001266,0.08992 0.182548,-0.03039 0.360568,-0.09617 0.512623,-0.202747"
         id="path1550"
         inkscape:path-effect="#path-effect1552"
         inkscape:original-d="m 35.097557,19.786329 c 0.606216,0.17727 1.138165,0.149437 1.513889,-0.112831"
         sodipodi:nodetypes="cc" />
      <path
         style="opacity:0.99;fill:none;stroke:#ffffff;stroke-width:0.649296;stroke-linecap:round;stroke-dasharray:none;stroke-opacity:0.976471;paint-order:fill markers stroke"
         d="m 33.851608,20.562109 c 0.389396,0.372422 0.894275,0.626983 1.431637,0.69341 0.647433,0.08003 1.302336,-0.101399 1.870934,-0.405825 0.131646,-0.07048 0.259573,-0.147865 0.383511,-0.231145"
         id="path1554"
         inkscape:path-effect="#path-effect1556"
         inkscape:original-d="m 33.851608,20.562109 c 1.118496,1.054313 2.546436,0.822264 3.686082,0.05644"
         sodipodi:nodetypes="cc" />
      <path
         style="opacity:0.99;fill:none;stroke:#ffffff;stroke-width:0.649296;stroke-linecap:round;stroke-dasharray:none;stroke-opacity:0.976471;paint-order:fill markers stroke"
         d="m 33.404947,21.808057 c 0.663995,0.48448 1.475297,0.763851 2.298395,0.780717 0.960602,0.01968 1.914642,-0.283905 2.722994,-0.794787"
         id="path1558"
         inkscape:path-effect="#path-effect1560"
         inkscape:original-d="m 33.404947,21.808057 c 1.805841,1.299901 3.818097,0.752627 5.021389,-0.01407"
         sodipodi:nodetypes="cc" />
    </g>
    <g
       id="g2214"
       transform="matrix(0.73011715,0,0,0.74065079,51.937058,-23.957937)">
      <g
         id="g5231">
        <path
           id="path552"
           style="opacity:0.99;fill:#ffaab6;fill-opacity:1;stroke:#ffaab5;stroke-width:0;stroke-linecap:square;stroke-dasharray:none;paint-order:fill markers stroke"
           d="m 301.03401,10.322997 c -8.51244,0.05235 -17.39707,3.365165 -24.4376,7.415031 v -3.243213 h -5.02346 v 6.72052 c -4.76328,3.986167 -7.36465,9.273215 -7.83053,14.849739 -0.70036,8.383236 1.18423,18.291048 7.90442,23.96753 v 15.074532 h 2.51148 V 62.202497 c 3.33226,2.418756 15.07243,3.765457 22.20918,1.716216 10.60448,-3.044962 17.84155,-8.311874 26.6204,-19.669642 v 30.858065 h 2.51147 V 40.685464 c 2.67799,-4.223087 4.28449,-8.43496 4.28449,-12.15533 0,-14.850546 -16.17317,-18.284487 -28.74985,-18.207137 z"
           sodipodi:nodetypes="sccccaccccaccccss" />
        <g
           id="g5217">
          <ellipse
             style="opacity:0.99;fill:#d72c25;fill-opacity:0.992157;stroke:#ffaab5;stroke-width:0;stroke-linecap:square;stroke-dasharray:none;paint-order:fill markers stroke"
             id="path1898"
             cx="318.41772"
             cy="23.057631"
             rx="3.2264326"
             ry="2.6019619" />
          <ellipse
             style="opacity:0.99;fill:#d72c25;fill-opacity:0.992157;stroke:#ffaab5;stroke-width:0;stroke-linecap:square;stroke-dasharray:none;paint-order:fill markers stroke"
             id="path1898-7"
             cx="318.41772"
             cy="29.883265"
             rx="3.2264326"
             ry="2.6019619" />
          <ellipse
             style="opacity:0.99;fill:#d72c25;fill-opacity:0.992157;stroke:#ffaab5;stroke-width:0;stroke-linecap:square;stroke-dasharray:none;paint-order:fill markers stroke"
             id="path1898-2"
             cx="310.57718"
             cy="36.65271"
             rx="3.2264326"
             ry="2.6019619" />
          <ellipse
             style="opacity:0.99;fill:#d72c25;fill-opacity:0.992157;stroke:#ffaab5;stroke-width:0;stroke-linecap:square;stroke-dasharray:none;paint-order:fill markers stroke"
             id="path1898-7-2"
             cx="310.57718"
             cy="43.82563"
             rx="3.2264326"
             ry="2.6019619" />
          <ellipse
             style="opacity:0.99;fill:#d72c25;fill-opacity:0.992157;stroke:#ffaab5;stroke-width:0;stroke-linecap:square;stroke-dasharray:none;paint-order:fill markers stroke"
             id="path1898-2-6"
             cx="302.23373"
             cy="43.82563"
             rx="3.2264326"
             ry="2.6019619" />
          <ellipse
             style="opacity:0.99;fill:#d72c25;fill-opacity:0.992157;stroke:#ffaab5;stroke-width:0;stroke-linecap:square;stroke-dasharray:none;paint-order:fill markers stroke"
             id="path1898-7-2-6"
             cx="302.23373"
             cy="50.955002"
             rx="3.2264326"
             ry="2.6019619" />
          <ellipse
             style="opacity:0.99;fill:#ff778a;fill-opacity:1;stroke:#ffaab5;stroke-width:0;stroke-linecap:square;stroke-dasharray:none;paint-order:fill markers stroke"
             id="path1898-2-6-8"
             cx="273.70303"
             cy="36.65271"
             rx="3.2264326"
             ry="2.6019619" />
          <ellipse
             style="opacity:0.99;fill:#ff778a;fill-opacity:1;stroke:#ffaab5;stroke-width:0;stroke-linecap:square;stroke-dasharray:none;paint-order:fill markers stroke"
             id="path1898-7-2-6-5"
             cx="273.70303"
             cy="43.82563"
             rx="3.2264326"
             ry="2.6019619" />
          <ellipse
             style="opacity:0.99;fill:#ff778a;fill-opacity:1;stroke:#ffaab5;stroke-width:0;stroke-linecap:square;stroke-dasharray:none;paint-order:fill markers stroke"
             id="path1898-2-6-8-3"
             cx="283.95624"
             cy="24.255833"
             rx="3.2264326"
             ry="2.6019619" />
          <ellipse
             style="opacity:0.99;fill:#ff778a;fill-opacity:1;stroke:#ffaab5;stroke-width:0;stroke-linecap:square;stroke-dasharray:none;paint-order:fill markers stroke"
             id="path1898-7-2-6-5-1"
             cx="283.95624"
             cy="31.914097"
             rx="3.2264326"
             ry="2.6019619" />
        </g>
      </g>
    </g>
  </g>
</svg>
