<?xml version="1.0" encoding="UTF-8" standalone="no"?>
<!-- Created with Inkscape (http://www.inkscape.org/) -->

<svg
   width="177.09818mm"
   height="130.5408mm"
   viewBox="0 0 177.09817 130.5408"
   version="1.1"
   id="svg5"
   inkscape:version="1.2.1 (9c6d41e4, 2022-07-14)"
   sodipodi:docname="cen-cenelec.svg"
   xmlns:inkscape="http://www.inkscape.org/namespaces/inkscape"
   xmlns:sodipodi="http://sodipodi.sourceforge.net/DTD/sodipodi-0.dtd"
   xmlns="http://www.w3.org/2000/svg"
   xmlns:svg="http://www.w3.org/2000/svg">
  <sodipodi:namedview
     id="namedview7"
     pagecolor="#ffffff"
     bordercolor="#000000"
     borderopacity="0.25"
     inkscape:showpageshadow="2"
     inkscape:pageopacity="0"
     inkscape:pagecheckerboard="true"
     inkscape:deskcolor="#d1d1d1"
     inkscape:document-units="mm"
     showgrid="false"
     inkscape:zoom="0.75598489"
     inkscape:cx="126.98667"
     inkscape:cy="253.31194"
     inkscape:window-width="2560"
     inkscape:window-height="1395"
     inkscape:window-x="0"
     inkscape:window-y="23"
     inkscape:window-maximized="1"
     inkscape:current-layer="g2506"
     showguides="true"
     inkscape:lockguides="false">
    <sodipodi:guide
       position="-367.29681,294.05775"
       orientation="1,0"
       id="guide2923"
       inkscape:locked="false" />
    <sodipodi:guide
       position="-164.37704,238.298"
       orientation="0,-1"
       id="guide8011"
       inkscape:locked="false" />
    <sodipodi:guide
       position="95.643772,343.40318"
       orientation="0,-1"
       id="guide11504"
       inkscape:locked="false" />
    <sodipodi:guide
       position="72.046868,333.82403"
       orientation="-0.00080638876,-0.99999967"
       id="guide13038"
       inkscape:locked="false" />
    <sodipodi:guide
       position="61.756998,377.8834"
       orientation="0,-1"
       id="guide13636"
       inkscape:locked="false" />
    <sodipodi:guide
       position="194.21577,389.66999"
       orientation="0,-1"
       id="guide13711"
       inkscape:locked="false" />
  </sodipodi:namedview>
  <defs
     id="defs2" />
  <g
     inkscape:label="Ebene 1"
     inkscape:groupmode="layer"
     id="layer1"
     transform="translate(-361.95755,-169.27204)">
    <g
       id="g2767">
      <ellipse
         style="opacity:0.2;fill:#333333;stroke-width:4"
         id="path2761"
         cx="393.45621"
         cy="237.69409"
         rx="31.148659"
         ry="9.9745703" />
      <ellipse
         style="opacity:0.2;fill:#333333;stroke-width:4.12417"
         id="path2763"
         cx="428.08371"
         cy="269.09616"
         rx="48.822899"
         ry="13.377851" />
    </g>
    <g
       id="g2506"
       style="stroke-width:0.1;stroke-dasharray:none"
       transform="translate(284.9552,94.369262)">
      <ellipse
         style="fill:#d62d26;fill-opacity:1;stroke:#ffaab6;stroke-width:0.5;stroke-linecap:round;stroke-linejoin:round;stroke-dasharray:none;stroke-opacity:1"
         id="path7480-4"
         cx="100.05542"
         cy="140.82286"
         rx="22.80307"
         ry="6.4516001" />
      <ellipse
         style="fill:#ff778a;fill-opacity:1;stroke:none;stroke-width:0.1;stroke-linecap:round;stroke-linejoin:round;stroke-dasharray:none;stroke-opacity:1"
         id="path7480"
         cx="100.05542"
         cy="138.15323"
         rx="22.80307"
         ry="6.4516001" />
      <path
         id="path2744-6-3-0-6-5"
         style="fill:#ff778a;fill-opacity:1;stroke:none;stroke-width:0.1;stroke-linecap:round;stroke-linejoin:round;stroke-dasharray:none;stroke-opacity:1"
         d="m 132.9984,84.388001 c -4.08539,-0.01038 -9.08631,0.985454 -14.50031,2.58483 -15.74984,4.652734 -29.027924,12.649937 -32.654282,28.132759 -3.626359,15.48281 4.726042,30.56335 20.475872,25.91061 15.74986,-4.65275 32.93333,-27.27675 36.5597,-42.759572 2.37979,-10.160592 -2.08158,-13.848766 -9.88098,-13.868627 z m -0.81826,2.514651 c 6.57882,0.01676 10.34155,3.127817 8.33419,11.698315 -3.05885,13.059813 -17.55319,32.143013 -30.83823,36.067603 -13.285058,3.92462 -20.330445,-8.79547 -17.271595,-21.85529 3.058846,-13.059818 14.258565,-19.805222 27.543625,-23.729818 4.56672,-1.349081 8.78595,-2.189585 12.23201,-2.18081 z" />
      <path
         id="path2744-6-3-0-6"
         style="fill:#ffaab6;fill-opacity:1;stroke:none;stroke-width:0.1;stroke-linecap:round;stroke-linejoin:round;stroke-dasharray:none;stroke-opacity:1"
         d="m 107.21683,75.389927 c -7.804817,0.105917 -14.739556,4.433 -19.77192,15.869833 -7.855398,17.85262 -6.718818,44.29909 6.481775,50.10754 13.200595,5.80844 33.466625,-11.22055 41.322025,-29.07317 7.85539,-17.852606 -1.05693,-27.798801 -14.25753,-33.607246 -4.74396,-2.08741 -9.39604,-3.356373 -13.77435,-3.296957 z m 7.44657,7.573182 c 1.47039,-0.01781 2.88023,0.240553 4.19148,0.817521 9.32444,4.102886 10.12732,22.78374 4.57853,35.39422 -5.54878,12.61048 -14.37178,12.98348 -23.696227,8.8806 C 90.412732,123.95256 84.117697,116.92731 89.66648,104.31684 94.434966,93.479712 105.67772,83.071924 114.6634,82.963109 Z" />
    </g>
    <g
       id="g2554"
       style="stroke-width:0.1;stroke-dasharray:none"
       transform="matrix(1.3910154,0,0,1.3910154,306.24183,76.908857)">
      <ellipse
         style="fill:#d62d26;fill-opacity:1;stroke:#ffaab6;stroke-width:0.5;stroke-linecap:round;stroke-linejoin:round;stroke-dasharray:none;stroke-opacity:1"
         id="path7480-4-8"
         cx="100.05542"
         cy="140.82286"
         rx="22.80307"
         ry="6.4516001" />
      <ellipse
         style="fill:#ff778a;fill-opacity:1;stroke:none;stroke-width:0.1;stroke-linecap:round;stroke-linejoin:round;stroke-dasharray:none;stroke-opacity:1"
         id="path7480-1"
         cx="100.05542"
         cy="138.15323"
         rx="22.80307"
         ry="6.4516001" />
      <path
         id="path2744-6-3-0-6-5-2"
         style="fill:#d62d26;fill-opacity:1;stroke:#ffaab6;stroke-width:0.5;stroke-linecap:round;stroke-linejoin:round;stroke-dasharray:none;stroke-opacity:1"
         d="m 77.434513,78.900616 c 4.005388,0.804604 8.707235,2.777797 13.693498,5.424791 14.505519,7.700355 25.921919,18.185033 26.387579,34.080053 0.46568,15.895 -10.72654,29.00681 -25.232038,21.30645 -14.50553,-7.70037 -26.831746,-33.29688 -27.297426,-49.191904 -0.30559,-10.43109 4.80171,-13.155412 12.448387,-11.61939 z m 0.300309,2.627324 c -6.449999,-1.295632 -10.757596,1.002501 -10.499832,9.801165 0.392798,13.407505 10.790071,34.998035 23.025519,41.493305 12.235461,6.4953 21.676161,-4.56415 21.283361,-17.97165 C 111.15108,101.44325 101.52163,92.599725 89.286165,86.104447 85.080243,83.871697 81.113404,82.206611 77.734822,81.52794 Z" />
      <path
         id="path2744-6-3-0-6-1"
         style="fill:#ffaab6;fill-opacity:1;stroke:none;stroke-width:0.1;stroke-linecap:round;stroke-linejoin:round;stroke-dasharray:none;stroke-opacity:1"
         d="m 107.21683,75.389927 c -7.804817,0.105917 -14.739556,4.433 -19.77192,15.869833 -7.855398,17.85262 -6.718818,44.29909 6.481775,50.10754 13.200595,5.80844 33.466625,-11.22055 41.322025,-29.07317 7.85539,-17.852606 -1.05693,-27.798801 -14.25753,-33.607246 -4.74396,-2.08741 -9.39604,-3.356373 -13.77435,-3.296957 z m 7.44657,7.573182 c 1.47039,-0.01781 2.88023,0.240553 4.19148,0.817521 9.32444,4.102886 10.12732,22.78374 4.57853,35.39422 -5.54878,12.61048 -14.37178,12.98348 -23.696227,8.8806 C 90.412732,123.95256 84.117697,116.92731 89.66648,104.31684 94.434966,93.479712 105.67772,83.071924 114.6634,82.963109 Z" />
    </g>
    <g
       id="g19572"
       transform="matrix(0.10837535,0,0,0.10837535,474.549,279.94865)">
      <g
         id="layer"
         transform="translate(0.00315972)"
         style="fill:#ffffff">
        <path
           class="cls-3"
           d="m 50.05,89.94 c -31.41,0 -31.58,-56.27 4.24,-56.27 H 79.9 V 45.9 H 55.66 C 33.15,46.55 31.94,76.79 54.16,77.77 H 79.9 V 90 Z"
           transform="translate(-3.97,-4)"
           id="path700"
           style="fill:#ffffff" />
        <path
           class="cls-3"
           d="m 190.48,61.66 c 0,-35.82 -56.27,-35.69 -56.27,-4.24 v 20.35 h -30.53 c -6.89,-0.16 -9.76,-1.37 -12.43,-8 A 4.41,4.41 0 0 1 91,68.57 h 40 c 0.94,-29.94 -17.55,-35 -28.15,-35 C 88.3,33.57 76.29,46.75 76.29,62.51 76.27,75.29 87.85,90 103.64,90 h 42.77 V 61.56 c 2.06,-21.27 30.27,-20.78 31.8,1.5 V 90 h 12.2 z M 91,55.17 c 4,-12 18.4,-9.86 21.79,-3.82 a 16.17,16.17 0 0 1 2.19,6.23 H 90.51 Z"
           transform="translate(-3.97,-4)"
           id="path702"
           style="fill:#ffffff" />
        <path
           class="cls-3"
           d="m 28.75,157 c 5.74,-2.9 18.26,-5.38 24.49,-7.92 1.44,-0.75 8,-4.05 9.6,-4.93 0.65,-0.36 1.46,-0.42 2,-1 0.16,-0.19 0.42,0.36 0.52,0.43 0.58,0.22 0.88,-0.59 1.37,-0.89 0,0.2 0.23,0.3 0.16,0.49 a 0.85,0.85 0 0 1 1,0.07 c 0.26,0.16 0.45,-0.2 0.62,-0.36 0.17,-0.16 0.09,-0.75 0.45,-0.88 0.36,-0.13 0.88,0 1.27,-0.23 a 0.61,0.61 0 0 0 0.33,-0.68 c 1.18,0 1,-0.92 2.09,-1.15 a 24.27,24.27 0 0 0 2.8,-0.16 3.56,3.56 0 0 1 0.79,-0.1 c 0.81,-0.19 1.27,-1.4 2.08,-1.66 a 9.56,9.56 0 0 0 2.42,-0.62 9.27,9.27 0 0 1 1.69,-0.49 c 0.27,-0.1 0.53,-0.23 0.79,-0.33 0.26,-0.1 0.58,0 0.88,-0.13 0.3,-0.13 0.81,-0.48 1.24,-0.68 a 2.83,2.83 0 0 1 0.78,-0.1 c 0,0.1 0.07,0.2 0.13,0.16 0.91,-0.22 7.28,-3 8.16,-3.29 0.49,-0.16 16.7,-5.38 17.74,-5.94 0.65,-0.36 2.35,-0.42 3.07,-0.81 a 4.8,4.8 0 0 1 1.66,-0.43 12.19,12.19 0 0 0 1.4,-0.42 c -2.38,0.62 -1.46,0.68 2.35,-0.52 0.49,-0.17 1,0 1.67,-0.2 a 14.42,14.42 0 0 0 4.27,-1.66 18.26,18.26 0 0 1 2.19,-0.62 14,14 0 0 1 2.28,-0.72 c 0.26,0 3.2,-0.91 6.49,-1.56 0.16,0 1.34,-0.56 1.53,-0.66 0.82,-0.36 0.36,0.07 1.18,-0.49 0.55,-0.36 1.82,0 2.54,-0.06 0.13,0 0.78,-0.1 0.91,-0.13 0.92,-0.2 1,0 1.9,0 a 7.35,7.35 0 0 0 2.64,-0.49 c 2.64,-0.78 4.63,-0.82 7.31,-1.44 2.12,-0.49 3.71,-0.32 5.61,-0.94 3,-1 1.17,-0.07 4.47,-1 2.28,-0.65 4.66,-1 6.94,-1.5 2.28,-0.5 4.83,-1.66 8.65,-1.86 0.45,0 3.29,-0.45 3.75,-0.52 1.83,-0.16 4.73,0.46 6.49,0.59 a 65.77,65.77 0 0 0 8.74,-0.16 c 2.65,-0.2 -0.58,-0.2 2.19,-0.69 1,-0.2 3.49,1.47 2.71,0.95 -1.77,-1.18 1.24,-1.08 3.29,-0.82 1.14,0.13 -2.67,-1.79 -1.53,-1.73 0.94,0.07 1.89,-0.36 2.74,-0.13 0.52,0.13 1.24,0.39 1.6,0.1 0.52,-0.42 0.16,-1.37 -0.69,-1.44 -0.19,0 -0.19,-0.26 -0.26,-0.32 a 4.79,4.79 0 0 1 -2,-1.73 c -0.13,-0.26 -0.45,-0.13 -0.62,-0.33 0.59,0.1 1,-0.42 0.56,-0.81 a 3.9,3.9 0 0 0 -2.45,-1 c -0.16,0 -0.29,-0.2 -0.46,-0.33 a 0.56,0.56 0 0 0 0.46,-0.16 c 0.33,-0.33 0.2,-0.85 0.42,-1.21 0.1,-0.13 0.43,0 0.53,-0.29 -0.39,-0.13 -0.92,0.16 -1.24,-0.26 0.36,-0.17 0.68,-0.75 0.78,-0.75 C 143.11,97 18.8,156.25 6.53,164.25 c 2.91,-0.23 5.06,-1.31 7.67,-2.42 4.76,-2 2.35,-0.85 7.4,-2.61 z"
           transform="translate(-3.97,-4)"
           id="path704"
           style="fill:#ffffff" />
      </g>
      <polygon
         class="cls-4"
         points="353.91,40.93 304.32,177 353.12,80.29 375.84,137.08 424.98,0 376.96,95.25 "
         id="polygon707"
         transform="translate(0.00315972)"
         style="fill:#ffffff" />
      <polygon
         class="cls-1"
         points="339.74,47.34 376.4,96.48 388.32,8.43 388.54,133.93 351.55,83.33 339.74,172.61 "
         id="polygon709"
         transform="translate(0.00315972)"
         style="fill:#ffffff" />
      <path
         class="cls-1"
         d="m 262.71316,79.05 v -10 c 0,-6 -1,-9.23 -7.43,-9.23 -6.43,0 -6.74,5.07 -6.74,8.66 v 42.29 c 0,4.72 0.78,9 7.31,9 6.86,0 6.86,-5 6.86,-9.67 V 99.86 h 14.39 V 111 c 0,6.41 0,20.13 -21.48,20.13 -4.16,0 -10.68,-0.79 -15.29,-3.82 -6.3,-4.16 -6.3,-10.24 -6.3,-14.62 v -43 c 0,-6.41 0.34,-10.68 3.94,-14.62 5.73,-6.18 14.61,-6.3 17.65,-6.3 21.48,0 21.48,12.71 21.48,18.33 v 12.18 h -14.39 z"
         id="path711"
         style="fill:#ffffff" />
      <polygon
         class="cls-1"
         points="304.43,92.66 304.43,116.95 329.17,116.95 329.17,129.09 289.92,129.09 289.92,50.04 328.16,50.04 328.16,62.19 304.43,62.19 304.43,80.74 326.69,80.74 326.69,92.66 "
         id="polygon713"
         transform="translate(0.00315972)"
         style="fill:#ffffff" />
      <polygon
         class="cls-1"
         points="415.87,92.66 415.87,116.95 440.61,116.95 440.61,129.09 401.36,129.09 401.36,50.04 439.6,50.04 439.6,62.19 415.87,62.19 415.87,80.74 438.14,80.74 438.14,92.66 "
         id="polygon715"
         transform="translate(0.00315972)"
         style="fill:#ffffff" />
      <polygon
         class="cls-1"
         points="467.04,50.15 467.04,117.17 488.51,117.17 488.51,129.09 452.64,129.09 452.64,50.15 "
         id="polygon717"
         transform="translate(0.00315972)"
         style="fill:#ffffff" />
      <polygon
         class="cls-1"
         points="510.22,92.66 510.22,116.95 534.85,116.95 534.85,129.09 495.6,129.09 495.6,50.04 533.83,50.04 533.83,62.19 510.22,62.19 510.22,80.74 532.37,80.74 532.37,92.66 "
         id="polygon719"
         transform="translate(0.00315972)"
         style="fill:#ffffff" />
      <path
         class="cls-1"
         d="m 574.31316,79.05 v -10 c 0,-6 -1,-9.23 -7.42,-9.23 -6.42,0 -6.75,5.07 -6.75,8.66 v 42.29 c 0,4.72 0.79,9 7.31,9 6.86,0 6.86,-5 6.86,-9.67 V 99.86 h 14.39 V 111 c 0,6.41 0,20.13 -21.47,20.13 -4.16,0 -10.69,-0.79 -15.3,-3.82 -6.29,-4.16 -6.29,-10.24 -6.29,-14.62 v -43 c 0,-6.41 0.33,-10.68 3.93,-14.62 5.74,-6.18 14.62,-6.3 17.66,-6.3 21.47,0 21.47,12.71 21.47,18.33 v 12.18 h -14.39 z"
         id="path721"
         style="fill:#ffffff" />
    </g>
  </g>
</svg>
