<?xml version="1.0" encoding="UTF-8" standalone="no"?>
<!-- Created with Inkscape (http://www.inkscape.org/) -->

<svg
   width="262.38699mm"
   height="166.51793mm"
   viewBox="0 0 262.38699 166.51793"
   version="1.1"
   id="svg5"
   inkscape:version="1.2.1 (9c6d41e4, 2022-07-14)"
   sodipodi:docname="itu-r.svg"
   xmlns:inkscape="http://www.inkscape.org/namespaces/inkscape"
   xmlns:sodipodi="http://sodipodi.sourceforge.net/DTD/sodipodi-0.dtd"
   xmlns="http://www.w3.org/2000/svg"
   xmlns:svg="http://www.w3.org/2000/svg">
  <sodipodi:namedview
     id="namedview7"
     pagecolor="#ffffff"
     bordercolor="#000000"
     borderopacity="0.25"
     inkscape:showpageshadow="2"
     inkscape:pageopacity="1"
     inkscape:pagecheckerboard="true"
     inkscape:deskcolor="#d1d1d1"
     inkscape:document-units="mm"
     showgrid="false"
     inkscape:zoom="0.90206372"
     inkscape:cx="442.31909"
     inkscape:cy="431.78768"
     inkscape:window-width="2560"
     inkscape:window-height="1395"
     inkscape:window-x="0"
     inkscape:window-y="23"
     inkscape:window-maximized="1"
     inkscape:current-layer="layer1"
     showguides="true"
     inkscape:lockguides="false">
    <sodipodi:guide
       position="-364.25263,245.439"
       orientation="1,0"
       id="guide2923"
       inkscape:locked="false" />
    <sodipodi:guide
       position="-161.33287,189.67925"
       orientation="0,-1"
       id="guide8011"
       inkscape:locked="false" />
    <sodipodi:guide
       position="98.687931,294.78443"
       orientation="0,-1"
       id="guide11504"
       inkscape:locked="false" />
    <sodipodi:guide
       position="75.091029,285.20528"
       orientation="-0.00080638876,-0.99999967"
       id="guide13038"
       inkscape:locked="false" />
    <sodipodi:guide
       position="64.801159,329.26465"
       orientation="0,-1"
       id="guide13636"
       inkscape:locked="false" />
    <sodipodi:guide
       position="197.25993,341.05124"
       orientation="0,-1"
       id="guide13711"
       inkscape:locked="false" />
  </sodipodi:namedview>
  <defs
     id="defs2">
    <inkscape:perspective
       sodipodi:type="inkscape:persp3d"
       inkscape:vp_x="0 : 57.154392 : 1"
       inkscape:vp_y="0 : 999.99997 : 0"
       inkscape:vp_z="263.88632 : 57.154392 : 1"
       inkscape:persp3d-origin="131.94316 : 20.699886 : 1"
       id="perspective9050" />
  </defs>
  <g
     inkscape:label="Ebene 1"
     inkscape:groupmode="layer"
     id="layer1"
     transform="translate(-358.91339,-173.47037)">
    <g
       id="g8783"
       transform="translate(319.65667,172.35083)">
      <rect
         style="fill:#ff778a;fill-opacity:1;stroke:#ffaab6;stroke-width:0.7;stroke-dasharray:none;stroke-opacity:1"
         id="rect26731-2"
         width="11.365323"
         height="12.12541"
         x="77.086823"
         y="39.566074" />
      <rect
         style="fill:#ff778a;fill-opacity:1;stroke:#ffaab6;stroke-width:0.7;stroke-dasharray:none;stroke-opacity:1"
         id="rect26731-2-9"
         width="11.365323"
         height="12.12541"
         x="68.902794"
         y="38.136215" />
      <rect
         style="fill:#ff778a;fill-opacity:1;stroke:#ffaab6;stroke-width:0.7;stroke-dasharray:none;stroke-opacity:1"
         id="rect26731-9-6"
         width="11.365323"
         height="12.12541"
         x="84.108986"
         y="43.848969" />
      <rect
         style="fill:#ff778a;fill-opacity:1;stroke:#ffaab6;stroke-width:0.7;stroke-dasharray:none;stroke-opacity:1"
         id="rect26731-9-3-7"
         width="13.942188"
         height="12.048233"
         x="88.192802"
         y="49.620369" />
      <rect
         style="fill:#ff778a;fill-opacity:1;stroke:#ffaab6;stroke-width:0.7;stroke-dasharray:none;stroke-opacity:1"
         id="rect26731-9-3-7-8-8-0"
         width="34.670155"
         height="11.597685"
         x="93.053497"
         y="83.067879" />
      <rect
         style="fill:#ff778a;fill-opacity:1;stroke:#ffaab6;stroke-width:0.7;stroke-dasharray:none;stroke-opacity:1"
         id="rect26731-9-3-7-8-8"
         width="26.147903"
         height="9.3389492"
         x="92.858467"
         y="73.244827" />
      <rect
         style="fill:#ff778a;fill-opacity:1;stroke:#ffaab6;stroke-width:0.7;stroke-dasharray:none;stroke-opacity:1"
         id="rect26731-9-3-7-8"
         width="16.26049"
         height="11.984599"
         x="94.452263"
         y="60.905651" />
      <ellipse
         style="fill:#ff425c;fill-opacity:1;stroke:#ffaab6;stroke-width:0.601255;stroke-opacity:1"
         id="path17948-1-5-7"
         cx="68.185837"
         cy="66.198349"
         rx="28.628492"
         ry="28.345039" />
      <path
         id="path13389-4"
         style="fill:#ffaab6;fill-opacity:1;stroke:none;stroke-width:0.233434;stroke-linecap:round;stroke-linejoin:round;stroke-dasharray:none;stroke-opacity:1"
         d="m 79.916157,67.52386 a 14.322791,14.621636 0 0 0 -14.322705,14.621674 14.322791,14.621636 0 0 0 4.504183,10.640158 l -1.379946,2.048411 H 87.03045 a 14.322791,14.621636 0 0 0 0.0051,-0.0026 L 102.79031,94.802259 94.23586,81.85229 A 14.322791,14.621636 0 0 0 79.916157,67.52386 Z" />
    </g>
    <g
       id="g8855"
       transform="matrix(1.1659041,0,0,1.1659041,412.0966,229.34567)">
      <ellipse
         style="fill:#ff778a;fill-opacity:1;stroke:none;stroke-width:0.282788;stroke-opacity:1"
         id="path17948-1-5"
         cx="68.854942"
         cy="37.512383"
         rx="13.464823"
         ry="13.331507" />
      <path
         id="path17948"
         style="fill:#ff425c;fill-opacity:1;stroke:#ffaab6;stroke-width:0.7;stroke-opacity:1"
         d="M 79.716552,30.350936 A 16.541286,16.37751 0 0 1 68.8552,34.390999 16.541286,16.37751 0 0 1 58.012451,30.367472 33.330002,33 0 0 0 35.524934,61.548515 33.330002,33 0 0 0 68.8552,94.548567 33.330002,33 0 0 0 102.18495,61.548515 33.330002,33 0 0 0 79.716552,30.350936 Z" />
      <path
         id="path13389-4-2"
         style="fill:#ffaab6;fill-opacity:1;stroke:none;stroke-width:0.233434;stroke-linecap:round;stroke-linejoin:round;stroke-dasharray:none;stroke-opacity:1"
         d="m 79.916157,67.52386 a 14.322791,14.621636 0 0 0 -14.322705,14.621674 14.322791,14.621636 0 0 0 4.504183,10.640158 l -1.379946,2.048411 H 87.03045 a 14.322791,14.621636 0 0 0 0.0051,-0.0026 L 102.79031,94.802259 94.23586,81.85229 A 14.322791,14.621636 0 0 0 79.916157,67.52386 Z" />
    </g>
    <g
       id="g8901"
       transform="matrix(0.66906953,0,0,0.66906953,429.70031,163.99417)">
      <g
         id="g20118"
         transform="translate(0.52916667)">
        <path
           id="rect20080"
           style="fill:#ff778a;fill-opacity:1;stroke:none;stroke-width:0.795674;stroke-opacity:1"
           d="m 96.074824,58.136251 v 36.903874 h 5.054996 V 58.136251 Z" />
        <path
           id="rect20080-1"
           style="fill:#ff778a;fill-opacity:1;stroke:none;stroke-width:0.510076;stroke-opacity:1"
           d="m 88.19185,79.621254 v 15.166002 h 5.05499 V 79.621254 Z" />
        <path
           id="rect20080-9"
           style="fill:#ff778a;fill-opacity:1;stroke:none;stroke-width:0.42676;stroke-opacity:1"
           d="m 79.874206,84.171042 v 10.616214 h 5.05499 V 84.171042 Z" />
      </g>
      <path
         style="fill:#ffaab6;fill-opacity:1;stroke:none;stroke-width:0.283059;stroke-linecap:round;stroke-linejoin:round;stroke-dasharray:none;stroke-opacity:1"
         d="M 43.075124,40.313744 68.663376,14.97513 93.689938,40.251339 Z"
         id="path13389"
         sodipodi:nodetypes="cccc" />
      <ellipse
         style="fill:#ff425c;fill-opacity:1;stroke:#ffaab6;stroke-width:0.7;stroke-opacity:1"
         id="path17948-0"
         cx="68.855087"
         cy="61.548512"
         rx="33.330002"
         ry="33" />
      <ellipse
         style="fill:#ffaab6;fill-opacity:1;stroke:none;stroke-width:0.103444;stroke-opacity:1"
         id="path17948-1"
         cx="86.098404"
         cy="45.624256"
         rx="4.925426"
         ry="4.8766589" />
    </g>
  </g>
</svg>
