<?xml version="1.0" encoding="UTF-8" standalone="no"?>
<!-- Created with Inkscape (http://www.inkscape.org/) -->

<svg
   width="197.94189mm"
   height="158.91061mm"
   viewBox="0 0 197.94189 158.91061"
   version="1.1"
   id="svg5"
   inkscape:version="1.2.1 (9c6d41e4, 2022-07-14)"
   sodipodi:docname="itu-r.svg"
   xmlns:inkscape="http://www.inkscape.org/namespaces/inkscape"
   xmlns:sodipodi="http://sodipodi.sourceforge.net/DTD/sodipodi-0.dtd"
   xmlns="http://www.w3.org/2000/svg"
   xmlns:svg="http://www.w3.org/2000/svg">
  <sodipodi:namedview
     id="namedview7"
     pagecolor="#ffffff"
     bordercolor="#000000"
     borderopacity="0.25"
     inkscape:showpageshadow="2"
     inkscape:pageopacity="0"
     inkscape:pagecheckerboard="true"
     inkscape:deskcolor="#d1d1d1"
     inkscape:document-units="mm"
     showgrid="false"
     inkscape:zoom="0.45103186"
     inkscape:cx="425.69055"
     inkscape:cy="411.27915"
     inkscape:window-width="1440"
     inkscape:window-height="855"
     inkscape:window-x="0"
     inkscape:window-y="23"
     inkscape:window-maximized="1"
     inkscape:current-layer="layer1"
     showguides="true"
     inkscape:lockguides="false">
    <sodipodi:guide
       position="-368.10729,244.93393"
       orientation="1,0"
       id="guide2923"
       inkscape:locked="false" />
    <sodipodi:guide
       position="-165.18753,189.17418"
       orientation="0,-1"
       id="guide8011"
       inkscape:locked="false" />
    <sodipodi:guide
       position="94.833271,294.27936"
       orientation="0,-1"
       id="guide11504"
       inkscape:locked="false" />
    <sodipodi:guide
       position="71.236369,284.70021"
       orientation="-0.00080638876,-0.99999967"
       id="guide13038"
       inkscape:locked="false" />
    <sodipodi:guide
       position="60.946499,328.75957"
       orientation="0,-1"
       id="guide13636"
       inkscape:locked="false" />
    <sodipodi:guide
       position="193.40527,340.54616"
       orientation="0,-1"
       id="guide13711"
       inkscape:locked="false" />
  </sodipodi:namedview>
  <defs
     id="defs2">
    <inkscape:perspective
       sodipodi:type="inkscape:persp3d"
       inkscape:vp_x="0 : 49.547077 : 1"
       inkscape:vp_y="0 : 999.99997 : 0"
       inkscape:vp_z="263.88632 : 49.547077 : 1"
       inkscape:persp3d-origin="131.94316 : 13.092571 : 1"
       id="perspective9050" />
  </defs>
  <g
     inkscape:label="Ebene 1"
     inkscape:groupmode="layer"
     id="layer1"
     transform="translate(-362.76805,-180.57261)">
    <g
       id="g6446">
      <ellipse
         style="opacity:0.2;fill:#333333;stroke-width:4"
         id="path6437"
         cx="453.06555"
         cy="237.70502"
         rx="38.423466"
         ry="9.6791945" />
      <ellipse
         style="opacity:0.2;fill:#333333;stroke-width:4"
         id="path6439"
         cx="537.83185"
         cy="275.24857"
         rx="22.878096"
         ry="8.5059586" />
      <ellipse
         style="opacity:0.2;fill:#333333;stroke-width:4"
         id="path6441"
         cx="402.32312"
         cy="326.87094"
         rx="34.023834"
         ry="12.612283" />
    </g>
    <g
       id="g6470">
      <g
         id="g8783"
         transform="translate(373.62552,143.01993)">
        <rect
           style="fill:#ff778a;fill-opacity:1;stroke:#ffaab6;stroke-width:0.7;stroke-dasharray:none;stroke-opacity:1"
           id="rect26731-2"
           width="11.365323"
           height="12.12541"
           x="77.086823"
           y="39.566074" />
        <rect
           style="fill:#ff778a;fill-opacity:1;stroke:#ffaab6;stroke-width:0.7;stroke-dasharray:none;stroke-opacity:1"
           id="rect26731-2-9"
           width="11.365323"
           height="12.12541"
           x="68.902794"
           y="38.136215" />
        <rect
           style="fill:#ff778a;fill-opacity:1;stroke:#ffaab6;stroke-width:0.7;stroke-dasharray:none;stroke-opacity:1"
           id="rect26731-9-6"
           width="11.365323"
           height="12.12541"
           x="84.108986"
           y="43.848969" />
        <rect
           style="fill:#ff778a;fill-opacity:1;stroke:#ffaab6;stroke-width:0.7;stroke-dasharray:none;stroke-opacity:1"
           id="rect26731-9-3-7"
           width="13.942188"
           height="12.048233"
           x="88.192802"
           y="49.620369" />
        <rect
           style="fill:#ff778a;fill-opacity:1;stroke:#ffaab6;stroke-width:0.7;stroke-dasharray:none;stroke-opacity:1"
           id="rect26731-9-3-7-8-8-0"
           width="34.670155"
           height="11.597685"
           x="93.053497"
           y="83.067879" />
        <rect
           style="fill:#ff778a;fill-opacity:1;stroke:#ffaab6;stroke-width:0.7;stroke-dasharray:none;stroke-opacity:1"
           id="rect26731-9-3-7-8-8"
           width="26.147903"
           height="9.3389492"
           x="92.858467"
           y="73.244827" />
        <rect
           style="fill:#ff778a;fill-opacity:1;stroke:#ffaab6;stroke-width:0.7;stroke-dasharray:none;stroke-opacity:1"
           id="rect26731-9-3-7-8"
           width="16.26049"
           height="11.984599"
           x="94.452263"
           y="60.905651" />
        <ellipse
           style="fill:#ff425c;fill-opacity:1;stroke:#ffaab6;stroke-width:0.601255;stroke-opacity:1"
           id="path17948-1-5-7"
           cx="68.185837"
           cy="66.198349"
           rx="28.628492"
           ry="28.345039" />
        <path
           id="path13389-4"
           style="fill:#ffaab6;fill-opacity:1;stroke:none;stroke-width:0.233434;stroke-linecap:round;stroke-linejoin:round;stroke-dasharray:none;stroke-opacity:1"
           d="m 79.916157,67.52386 a 14.322791,14.621636 0 0 0 -14.322705,14.621674 14.322791,14.621636 0 0 0 4.504183,10.640158 l -1.379946,2.048411 H 87.03045 a 14.322791,14.621636 0 0 0 0.0051,-0.0026 L 102.79031,94.802259 94.23586,81.85229 A 14.322791,14.621636 0 0 0 79.916157,67.52386 Z" />
      </g>
      <g
         id="g8855"
         transform="matrix(1.1659041,0,0,1.1659041,321.75745,221.13302)">
        <ellipse
           style="fill:#ff778a;fill-opacity:1;stroke:none;stroke-width:0.282788;stroke-opacity:1"
           id="path17948-1-5"
           cx="68.854942"
           cy="37.512383"
           rx="13.464823"
           ry="13.331507" />
        <path
           id="path17948"
           style="fill:#ff425c;fill-opacity:1;stroke:#ffaab6;stroke-width:0.7;stroke-opacity:1"
           d="M 79.716552,30.350936 A 16.541286,16.37751 0 0 1 68.8552,34.390999 16.541286,16.37751 0 0 1 58.012451,30.367472 33.330002,33 0 0 0 35.524934,61.548515 33.330002,33 0 0 0 68.8552,94.548567 33.330002,33 0 0 0 102.18495,61.548515 33.330002,33 0 0 0 79.716552,30.350936 Z" />
        <path
           id="path13389-4-2"
           style="fill:#ffaab6;fill-opacity:1;stroke:none;stroke-width:0.233434;stroke-linecap:round;stroke-linejoin:round;stroke-dasharray:none;stroke-opacity:1"
           d="m 79.916157,67.52386 a 14.322791,14.621636 0 0 0 -14.322705,14.621674 14.322791,14.621636 0 0 0 4.504183,10.640158 l -1.379946,2.048411 H 87.03045 a 14.322791,14.621636 0 0 0 0.0051,-0.0026 L 102.79031,94.802259 94.23586,81.85229 A 14.322791,14.621636 0 0 0 79.916157,67.52386 Z" />
      </g>
      <g
         id="g8901"
         transform="matrix(0.66906953,0,0,0.66906953,487.18886,213.27006)">
        <g
           id="g20118"
           transform="translate(0.52916667)">
          <path
             id="rect20080"
             style="fill:#ff778a;fill-opacity:1;stroke:none;stroke-width:0.795674;stroke-opacity:1"
             d="m 96.074824,58.136251 v 36.903874 h 5.054996 V 58.136251 Z" />
          <path
             id="rect20080-1"
             style="fill:#ff778a;fill-opacity:1;stroke:none;stroke-width:0.510076;stroke-opacity:1"
             d="m 88.19185,79.621254 v 15.166002 h 5.05499 V 79.621254 Z" />
          <path
             id="rect20080-9"
             style="fill:#ff778a;fill-opacity:1;stroke:none;stroke-width:0.42676;stroke-opacity:1"
             d="m 79.874206,84.171042 v 10.616214 h 5.05499 V 84.171042 Z" />
        </g>
        <path
           style="fill:#ffaab6;fill-opacity:1;stroke:none;stroke-width:0.283059;stroke-linecap:round;stroke-linejoin:round;stroke-dasharray:none;stroke-opacity:1"
           d="M 43.075124,40.313744 68.663376,14.97513 93.689938,40.251339 Z"
           id="path13389"
           sodipodi:nodetypes="cccc" />
        <ellipse
           style="fill:#ff425c;fill-opacity:1;stroke:#ffaab6;stroke-width:0.7;stroke-opacity:1"
           id="path17948-0"
           cx="68.855087"
           cy="61.548512"
           rx="33.330002"
           ry="33" />
        <ellipse
           style="fill:#ffaab6;fill-opacity:1;stroke:none;stroke-width:0.103444;stroke-opacity:1"
           id="path17948-1"
           cx="86.098404"
           cy="45.624256"
           rx="4.925426"
           ry="4.8766589" />
      </g>
    </g>
    <g
       id="g6382"
       transform="matrix(0.17009455,0,0,0.17009455,452.80538,248.14463)">
      <path
         class="cls-1"
         d="m 53.071996,123.04334 a 1.39913,1.39913 0 0 1 1.40068,1.40094 v 84.80738 a 1.404,1.404 0 0 1 -1.40068,1.40666 h -25.38915 a 1.40764,1.40764 0 0 1 -1.40068,-1.40666 v -84.80738 a 1.40272,1.40272 0 0 1 1.40068,-1.40094 h 25.38915"
         id="path5469"
         style="fill:#ffffff" />
      <path
         class="cls-1"
         d="m 144.79129,123.04334 a 1.39914,1.39914 0 0 1 1.40068,1.40094 V 145.326 a 1.404,1.404 0 0 1 -1.40068,1.40668 h -22.16238 a 1.404,1.404 0 0 0 -1.40663,1.40092 v 61.118 a 1.4041,1.4041 0 0 1 -1.401,1.40666 H 94.432446 a 1.404,1.404 0 0 1 -1.40068,-1.40666 v -61.118 a 1.40277,1.40277 0 0 0 -1.401,-1.40092 h -21.65112 a 1.4089,1.4089 0 0 1 -1.40664,-1.40668 v -20.88172 a 1.404,1.404 0 0 1 1.40664,-1.40094 h 74.811644"
         id="path5471"
         style="fill:#ffffff" />
      <path
         class="cls-1"
         d="m 243.58966,123.04334 a 1.40422,1.40422 0 0 1 1.40663,1.40094 v 43.22185 c 0,28.627 -15.0027,43.76154 -43.38279,43.76154 -27.4157,0 -41.31559,-14.93933 -41.31559,-44.4046 v -42.57879 a 1.39921,1.39921 0 0 1 1.401,-1.40094 h 25.38284 a 1.40043,1.40043 0 0 1 1.40664,1.40094 v 42.441 c 0,9.33564 2.45758,20.46263 14.1585,20.46263 9.5251,0 14.1529,-6.69457 14.1529,-20.46263 v -42.441 a 1.404,1.404 0 0 1 1.40664,-1.40094 h 25.3832"
         id="path5473"
         style="fill:#ffffff" />
      <path
         class="cls-1"
         d="m 270.24036,298 c -16.84562,-8.30792 -35.804,-17.7871 -53.2867,-28.20789 q 4.4696,-3.46207 8.635,-7.28018 A 133.03915,133.03915 0 0 0 246.40152,88.2695 134.47457,134.47457 0 0 0 63.064566,49.3595 C 52.132836,34.11588 41.155236,17.58043 29.551696,0 c 3.65154,7.41225 14.47985,30.26336 27.17426,53.60822 A 135.0389,135.0389 0 0 0 1.161607e-4,163.51161 132.39673,132.39673 0 0 0 13.314776,221.5522 134.51424,134.51424 0 0 0 209.09908,275.436 c 20.48556,8.47442 41.07449,15.55367 61.14128,22.564 M 122.0528,286.31035 a 124.4229,124.4229 0 0 1 -79.129314,-39.63342 33.60229,33.60229 0 0 1 -5.5575,-15.96706 175.63893,175.63893 0 0 0 46.236,31.6298 187.00148,187.00148 0 0 0 59.797384,17.44261 c -6.9757,4.87453 -14.19285,7.13093 -21.34657,6.52807 M 34.409036,219.36472 c -0.12055,1.24016 -0.19519,2.4516 -0.24705,3.65157 -1.11368,-1.21145 -2.21053,-2.42291 -3.25517,-3.65157 h -3.99632 c 2.23365,2.74441 4.65654,5.44865 7.22871,8.107 a 45.77546,45.77546 0 0 0 1.52718,10.55285 122.68891,122.68891 0 0 1 -4.63341,-142.53227 67.04283,67.04283 0 0 0 -1.91757,18.82631 h 3.00283 A 60.01641,60.01641 0 0 1 37.049866,87.21882 124.9733,124.9733 0 0 1 53.510736,70.115 q 4.70245,-2.64395 9.6516,-4.9262 c 7.3377,12.87816 14.97957,25.13044 22.00714,34.18475 A 148.36379,148.36379 0 0 1 61.457136,98.8798 l 1.28609,0.36171 c -0.40756,-0.0345 -0.8095,-0.0746 -1.223,-0.11483 2.50313,5.2075 5.24211,10.26575 8.14719,15.192 h 51.174004 q -4.01332,-3.28127 -7.90049,-6.80366 a 214.83757,214.83757 0 0 1 36.63621,-24.13724 53.34945,53.34945 0 0 0 15.33,11.7241 55.86873,55.86873 0 0 0 23.69482,6.4649 c 0.90166,4.13961 1.67681,8.39979 2.31986,12.75183 h 3.05436 q -0.94722,-6.53667 -2.29077,-12.77481 c 7.64748,-0.32152 14.16411,-2.77312 18.07423,-7.25146 a 134.07139,134.07139 0 0 1 17.02329,20.02627 h 3.6459 A 136.97749,136.97749 0 0 0 211.53949,91.812 a 16.79184,16.79184 0 0 0 1.36633,-12.93552 28.74433,28.74433 0 0 0 -4.31767,-8.95674 30.75992,30.75992 0 0 1 14.968,7.02761 122.772,122.772 0 0 1 27.39258,131.0722 c -10.52418,21.89225 -35.98762,33.78285 -67.28436,34.65556 13.21689,-3.34152 23.74668,-7.92323 36.22872,-15.82926 -4.66776,-2.14155 -9.35268,-4.48408 -14.038,-6.98737 -1.44658,0.0746 -2.91069,0.12057 -4.4207,0.12057 -26.07215,0 -42.30907,-11.483 -47.59113,-34.18476 -8.18749,-6.27545 -16.18541,-12.815 -23.91909,-19.48085 V 185.312 c 10.95486,9.9787 21.89219,19.14211 32.10623,27.5878 -7.85984,5.23625 -33.30611,12.96428 -38.29,13.837 q 6.425,5.14149 13.00454,9.78347 a 193.15732,193.15732 0 0 1 -31.4229,-11.83893 q -1.50755,-0.72342 -2.99724,-1.46982 c -0.14333,-0.0689 -0.2814,-0.13779 -0.41912,-0.20669 q -2.790144,-1.40381 -5.506004,-2.87648 a 142.74922,142.74922 0 0 1 -33.249,-24.631 v 4.21425 q 4.43541,4.2975 9.41015,8.2907 a 161.36744,161.36744 0 0 0 33.771494,20.4741 193.87776,193.87776 0 0 0 37.5954,13.00445 q 10.4809,6.97591 21.226,12.9413 c -0.0803,0.14355 -0.16646,0.29281 -0.25267,0.4421 -5.52876,9.37583 -11.54042,16.78233 -17.79283,22.05875 -19.77944,-1.72244 -41.33837,-7.50411 -62.266184,-17.5115 -18.82626,-9.00265 -35.19529,-20.5832 -47.72885,-33.30632 a 59.25825,59.25825 0 0 1 0.32135,-6.74049 z M 142.52084,70.93026 a 29.50071,29.50071 0 0 0 5.09283,10.05906 219.33257,219.33257 0 0 0 -36.93484,24.46443 C 97.054376,92.80528 84.428656,78.02675 71.952576,61.46828 c 0.06869,-0.023 0.13211,-0.05738 0.2008,-0.08038 0.01156,-0.0057 0.02873,-0.01147 0.0403,-0.01721 v 0.0057 a 109.521,109.521 0 0 1 17.57456,-4.94916 126.6736,126.6736 0 0 1 54.113724,1.57318 16.75412,16.75412 0 0 0 -1.36108,12.92981 m 2.917,-0.77512 a 13.70221,13.70221 0 0 1 1.3835,-11.18439 c 0.0403,-0.06316 0.0918,-0.12059 0.13212,-0.18371 a 143.44783,143.44783 0 0 1 28.32857,10.93177 q -2.86792,0.82678 -5.82768,1.83727 a 157.61385,157.61385 0 0 0 -19.06175,8.03234 26.81162,26.81162 0 0 1 -4.95476,-9.43328 m 31.05564,-3.198 A 147.18752,147.18752 0 0 0 149.14681,56.255 c 3.72019,-3.37024 9.47919,-5.08123 16.14476,-5.0927 a 69.51757,69.51757 0 0 1 11.20191,15.7948 m -6.7693,-15.5594 a 54.77565,54.77565 0 0 1 19.40027,5.9941 52.42951,52.42951 0 0 1 12.06888,8.58352 78.61407,78.61407 0 0 0 -20.57772,2.34825 79.14234,79.14234 0 0 0 -10.89143,-16.92587 m 0.70612,23.01761 c 2.90508,-0.9933 5.73587,-1.83728 8.50884,-2.555 q 1.83451,3.953 3.47944,8.34234 a 152.17933,152.17933 0 0 1 5.50038,18.37848 53.66044,53.66044 0 0 1 -21.61675,-6.1606 50.91755,50.91755 0 0 1 -13.90024,-10.461 154.40473,154.40473 0 0 1 18.02833,-7.54427 m 14.81872,4.731 q -0.973,-2.60091 -2.01533,-5.05249 a 142.63376,142.63376 0 0 1 24.3326,18.12584 c -3.45071,4.07645 -9.43328,6.2295 -16.52988,6.40748 A 157.66347,157.66347 0 0 0 185.24902,79.14626 M 183.53224,70.781 a 69.52887,69.52887 0 0 1 20.74978,-1.487 27.61015,27.61015 0 0 1 5.70122,10.35755 14.07557,14.07557 0 0 1 -0.71769,10.01889 A 146.12178,146.12178 0 0 0 183.53224,70.781 m 6.98165,-16.07038 a 55.6803,55.6803 0 0 0 -23.71794,-6.45916 43.3225,43.3225 0 0 0 -7.05069,-5.71279 124.27675,124.27675 0 0 1 53.95848,25.47493 42.49122,42.49122 0 0 0 -7.96322,-1.69373 53.22364,53.22364 0 0 0 -15.22663,-11.60925 m -28.1905,-6.35583 c -6.95293,0.54545 -12.86086,2.89944 -16.53549,7.01035 a 129.93743,129.93743 0 0 0 -56.599344,-1.90043 113.03233,113.03233 0 0 0 -18.574,5.27067 v 0.01148 c -0.178,0.0689 -0.36164,0.14354 -0.54527,0.21245 -0.13772,-0.1895 -0.287,-0.38469 -0.42508,-0.57414 A 124.53515,124.53515 0 0 1 134.86768,40.06984 q 5.55453,0 10.9892,0.47654 c 5.74709,0.67747 11.30494,3.353 16.46646,7.80841 m -14.47418,231.84662 c 3.85265,0.30431 7.66465,0.47655 11.41988,0.47655 2.78453,0 5.54629,-0.0861 8.26179,-0.25837 3.69741,-0.22965 7.25744,-0.63156 10.67906,-1.17125 a 124.84385,124.84385 0 0 1 -41.6082,7.68209 45.52058,45.52058 0 0 0 11.24747,-6.729 m 3.44475,-2.97408 a 92.61049,92.61049 0 0 0 16.20818,-20.83009 c 0.10338,-0.17224 0.20115,-0.34447 0.29857,-0.51671 9.70907,5.31086 19.54395,10.08778 29.42508,14.47425 -0.683,0.39616 -1.3779,0.76936 -2.06685,1.1483 -12.26968,4.7482 -27.3698,6.68882 -43.865,5.72425 m 31.343,-31.515 c 4.19678,-0.0861 8.33643,-0.36171 12.37831,-0.83826 20.75575,-2.46308 37.45173,-9.88683 48.60739,-21.364 a 124.33918,124.33918 0 0 1 -36.27463,40.34537 214.60728,214.60728 0 0 1 -24.71107,-18.14309"
         id="path5475"
         style="fill:#ffffff" />
    </g>
  </g>
</svg>
