<?xml version="1.0" encoding="UTF-8" standalone="no"?>
<!-- Created with Inkscape (http://www.inkscape.org/) -->

<svg
   width="78.02919mm"
   height="101.7224mm"
   viewBox="0 0 78.02919 101.7224"
   version="1.1"
   id="svg43170"
   inkscape:version="1.2.1 (9c6d41e4, 2022-07-14)"
   sodipodi:docname="tree2.svg"
   xmlns:inkscape="http://www.inkscape.org/namespaces/inkscape"
   xmlns:sodipodi="http://sodipodi.sourceforge.net/DTD/sodipodi-0.dtd"
   xmlns="http://www.w3.org/2000/svg"
   xmlns:svg="http://www.w3.org/2000/svg">
  <sodipodi:namedview
     id="namedview43172"
     pagecolor="#ffffff"
     bordercolor="#000000"
     borderopacity="0.25"
     inkscape:showpageshadow="2"
     inkscape:pageopacity="0.0"
     inkscape:pagecheckerboard="true"
     inkscape:deskcolor="#d1d1d1"
     inkscape:document-units="mm"
     showgrid="false"
     inkscape:zoom="3.0562137"
     inkscape:cx="147.40461"
     inkscape:cy="192.23132"
     inkscape:window-width="2560"
     inkscape:window-height="1395"
     inkscape:window-x="0"
     inkscape:window-y="23"
     inkscape:window-maximized="1"
     inkscape:current-layer="g39188"
     inkscape:lockguides="true" />
  <defs
     id="defs43167">
    <inkscape:path-effect
       effect="simplify"
       id="path-effect13620"
       is_visible="true"
       lpeversion="1"
       steps="1"
       threshold="0.00522388"
       smooth_angles="360"
       helper_size="0"
       simplify_individual_paths="false"
       simplify_just_coalesce="false" />
    <inkscape:path-effect
       effect="simplify"
       id="path-effect13616"
       is_visible="true"
       lpeversion="1"
       steps="1"
       threshold="0.00522388"
       smooth_angles="360"
       helper_size="0"
       simplify_individual_paths="false"
       simplify_just_coalesce="false" />
    <inkscape:path-effect
       effect="simplify"
       id="path-effect13612"
       is_visible="true"
       lpeversion="1"
       steps="1"
       threshold="0.00522388"
       smooth_angles="360"
       helper_size="0"
       simplify_individual_paths="false"
       simplify_just_coalesce="false" />
    <inkscape:path-effect
       effect="simplify"
       id="path-effect13608"
       is_visible="true"
       lpeversion="1"
       steps="1"
       threshold="0.00522388"
       smooth_angles="360"
       helper_size="0"
       simplify_individual_paths="false"
       simplify_just_coalesce="false" />
    <inkscape:path-effect
       effect="simplify"
       id="path-effect13604"
       is_visible="true"
       lpeversion="1"
       steps="1"
       threshold="0.00522388"
       smooth_angles="360"
       helper_size="0"
       simplify_individual_paths="false"
       simplify_just_coalesce="false" />
    <inkscape:path-effect
       effect="simplify"
       id="path-effect13600"
       is_visible="true"
       lpeversion="1"
       steps="1"
       threshold="0.00522388"
       smooth_angles="360"
       helper_size="0"
       simplify_individual_paths="false"
       simplify_just_coalesce="false" />
    <inkscape:path-effect
       effect="simplify"
       id="path-effect13596"
       is_visible="true"
       lpeversion="1"
       steps="1"
       threshold="0.00522388"
       smooth_angles="360"
       helper_size="0"
       simplify_individual_paths="false"
       simplify_just_coalesce="false" />
    <inkscape:path-effect
       effect="simplify"
       id="path-effect13592"
       is_visible="true"
       lpeversion="1"
       steps="1"
       threshold="0.00522388"
       smooth_angles="360"
       helper_size="0"
       simplify_individual_paths="false"
       simplify_just_coalesce="false" />
    <inkscape:path-effect
       effect="simplify"
       id="path-effect13588"
       is_visible="true"
       lpeversion="1"
       steps="1"
       threshold="0.00522388"
       smooth_angles="360"
       helper_size="0"
       simplify_individual_paths="false"
       simplify_just_coalesce="false" />
    <inkscape:path-effect
       effect="simplify"
       id="path-effect13564"
       is_visible="true"
       lpeversion="1"
       steps="1"
       threshold="0.00522388"
       smooth_angles="360"
       helper_size="0"
       simplify_individual_paths="false"
       simplify_just_coalesce="false" />
    <inkscape:path-effect
       effect="simplify"
       id="path-effect13560"
       is_visible="true"
       lpeversion="1"
       steps="1"
       threshold="0.00522388"
       smooth_angles="360"
       helper_size="0"
       simplify_individual_paths="false"
       simplify_just_coalesce="false" />
    <inkscape:path-effect
       effect="simplify"
       id="path-effect13556"
       is_visible="true"
       lpeversion="1"
       steps="1"
       threshold="0.00522388"
       smooth_angles="360"
       helper_size="0"
       simplify_individual_paths="false"
       simplify_just_coalesce="false" />
    <inkscape:path-effect
       effect="simplify"
       id="path-effect13552"
       is_visible="true"
       lpeversion="1"
       steps="1"
       threshold="0.00522388"
       smooth_angles="360"
       helper_size="0"
       simplify_individual_paths="false"
       simplify_just_coalesce="false" />
    <inkscape:path-effect
       effect="simplify"
       id="path-effect13548"
       is_visible="true"
       lpeversion="1"
       steps="1"
       threshold="0.00522388"
       smooth_angles="360"
       helper_size="0"
       simplify_individual_paths="false"
       simplify_just_coalesce="false" />
    <inkscape:path-effect
       effect="simplify"
       id="path-effect13544"
       is_visible="true"
       lpeversion="1"
       steps="1"
       threshold="0.00522388"
       smooth_angles="360"
       helper_size="0"
       simplify_individual_paths="false"
       simplify_just_coalesce="false" />
    <inkscape:path-effect
       effect="simplify"
       id="path-effect13540"
       is_visible="true"
       lpeversion="1"
       steps="1"
       threshold="0.00522388"
       smooth_angles="360"
       helper_size="0"
       simplify_individual_paths="false"
       simplify_just_coalesce="false" />
    <inkscape:path-effect
       effect="simplify"
       id="path-effect13536"
       is_visible="true"
       lpeversion="1"
       steps="1"
       threshold="0.00522388"
       smooth_angles="360"
       helper_size="0"
       simplify_individual_paths="false"
       simplify_just_coalesce="false" />
    <inkscape:path-effect
       effect="simplify"
       id="path-effect13532"
       is_visible="true"
       lpeversion="1"
       steps="1"
       threshold="0.00522388"
       smooth_angles="360"
       helper_size="0"
       simplify_individual_paths="false"
       simplify_just_coalesce="false" />
    <inkscape:path-effect
       effect="simplify"
       id="path-effect38815"
       is_visible="true"
       lpeversion="1"
       steps="1"
       threshold="0.00522388"
       smooth_angles="360"
       helper_size="0"
       simplify_individual_paths="false"
       simplify_just_coalesce="false" />
    <inkscape:path-effect
       effect="simplify"
       id="path-effect38823"
       is_visible="true"
       lpeversion="1"
       steps="1"
       threshold="0.00522388"
       smooth_angles="360"
       helper_size="0"
       simplify_individual_paths="false"
       simplify_just_coalesce="false" />
    <inkscape:path-effect
       effect="simplify"
       id="path-effect38827"
       is_visible="true"
       lpeversion="1"
       steps="1"
       threshold="0.00522388"
       smooth_angles="360"
       helper_size="0"
       simplify_individual_paths="false"
       simplify_just_coalesce="false" />
    <inkscape:path-effect
       effect="simplify"
       id="path-effect38835"
       is_visible="true"
       lpeversion="1"
       steps="1"
       threshold="0.00522388"
       smooth_angles="360"
       helper_size="0"
       simplify_individual_paths="false"
       simplify_just_coalesce="false" />
    <inkscape:path-effect
       effect="simplify"
       id="path-effect38831"
       is_visible="true"
       lpeversion="1"
       steps="1"
       threshold="0.00522388"
       smooth_angles="360"
       helper_size="0"
       simplify_individual_paths="false"
       simplify_just_coalesce="false" />
    <inkscape:path-effect
       effect="simplify"
       id="path-effect38855"
       is_visible="true"
       lpeversion="1"
       steps="1"
       threshold="0.00522388"
       smooth_angles="360"
       helper_size="0"
       simplify_individual_paths="false"
       simplify_just_coalesce="false" />
    <inkscape:path-effect
       effect="simplify"
       id="path-effect38851"
       is_visible="true"
       lpeversion="1"
       steps="1"
       threshold="0.00522388"
       smooth_angles="360"
       helper_size="0"
       simplify_individual_paths="false"
       simplify_just_coalesce="false" />
    <inkscape:path-effect
       effect="simplify"
       id="path-effect38843"
       is_visible="true"
       lpeversion="1"
       steps="1"
       threshold="0.00522388"
       smooth_angles="360"
       helper_size="0"
       simplify_individual_paths="false"
       simplify_just_coalesce="false" />
    <inkscape:path-effect
       effect="simplify"
       id="path-effect38847"
       is_visible="true"
       lpeversion="1"
       steps="1"
       threshold="0.00522388"
       smooth_angles="360"
       helper_size="0"
       simplify_individual_paths="false"
       simplify_just_coalesce="false" />
  </defs>
  <g
     inkscape:label="Ebene 1"
     inkscape:groupmode="layer"
     id="layer1"
     transform="translate(-65.439956,-97.640999)">
    <g
       id="g39188"
       transform="translate(53.520402,-12.857647)">
      <path
         style="fill:#4d4d4d;fill-opacity:1;stroke-width:1;stroke-linecap:round;stroke-linejoin:round"
         d="m 43.253269,203.04014 c 0.449763,-4.78682 3.733506,-8.74025 4.140677,-13.55961 0.503685,-5.96172 3.181819,-11.92992 1.730688,-17.90508 -1.098651,-4.52379 -3.747367,-8.75309 -7.4322,-11.58389 -4.7609,-3.65747 -11.493971,-3.37002 -15.986599,-7.44617 -1.747058,-1.5851 -4.425489,-3.20408 -4.381976,-5.59754 0.04466,-2.45631 2.436607,1.01328 2.733202,1.82062 0.583418,1.58809 2.851751,1.68992 2.149753,-0.42678 -0.455384,-1.3731 -0.005,-4.93227 1.689741,-2.94163 1.406644,1.65224 -0.950518,4.55157 2.214359,5.87554 1.78923,0.74849 3.56198,0.85395 5.036382,-1.08092 1.279776,-1.67946 1.934768,-5.49792 4.140157,-4.95522 2.571147,0.6327 -0.07908,3.22786 -0.448784,4.68006 -0.650696,2.55593 3.107132,1.77672 4.483594,0.87779 1.675779,-1.0944 2.446385,-6.7759 3.175597,-4.97665 0.577004,1.42369 3.172204,1.94725 2.557829,3.75578 -0.727312,2.14098 3.052873,3.96728 4.157663,2.08465 1.133253,-1.93113 3.040619,-2.90184 4.543482,-4.79031 1.362625,-1.71225 2.287926,-0.006 1.761095,1.65594 -0.621325,1.96016 -3.219665,1.77076 -3.997975,4.0335 -0.973567,2.8304 2.821215,1.61954 4.260723,0.91774 3.850597,-1.87728 7.242832,-8.83174 10.997402,-6.55983 2.391816,1.4473 -0.41254,4.13246 -2.501897,4.3679 -1.801978,0.20306 -5.443209,3.96028 -3.463897,4.26254 2.630712,0.40174 5.268094,-0.76322 7.506957,-1.98972 1.878496,-1.02908 4.391844,-1.64342 5.059404,-4.13199 0.303753,-1.13235 -0.878978,-4.11857 0.01253,-3.58112 2.379215,1.43431 3.868922,4.9706 1.848542,7.31389 -2.552218,2.96013 -7.423112,1.9734 -10.068659,4.52003 -2.233818,2.1503 -2.168939,5.62608 -1.931931,8.48088 0.274896,3.31117 0.232281,6.72219 -1.301616,9.81346 -1.923985,3.87742 -4.998473,7.19898 -5.791446,11.62238 -0.652288,3.63863 -1.806453,7.64248 -0.382626,11.07488 1.519565,3.66319 5.15107,6.29383 5.87554,10.28936 0.405171,2.23456 -2.581456,3.88361 -4.446261,2.3592 -1.425364,-1.16518 -2.515914,-3.12767 -4.850276,-2.75287 -2.274225,0.36514 -1.690168,3.59047 -4.404622,3.65321 -2.76459,0.0639 -3.78721,-3.32057 -6.012822,-4.30729 -2.030501,-0.90022 -2.886944,3.32222 -4.766601,2.37324 -2.45278,-1.23833 -1.631985,-4.21728 0.329701,-5.5075 0,0 0.268784,-0.32718 0.268784,-0.32718 0,0 0.245254,-0.33889 0.245254,-0.33889"
         id="path38813"
         inkscape:path-effect="#path-effect38815"
         inkscape:original-d="m 43.253269,203.04014 c 0.309851,-3.60482 2.316308,-6.65023 3.395919,-10.00902 0.740947,-2.30517 0.828032,-4.77996 1.251127,-7.1493 1.572459,-8.80577 3.411652,-13.72398 -2.323523,-21.80537 -6.224032,-8.77022 -13.247063,-6.00492 -20.196775,-11.79634 -0.896485,-0.74708 -5.03649,-5.15127 -3.932115,-6.25564 0.591003,-0.591 2.867098,3.5776 3.753384,3.93211 2.76825,1.1073 -1.114621,-6.01101 2.144789,-4.82577 3.519932,1.27997 -2.792389,5.16096 4.468315,6.6131 0.283572,0.0567 1.428419,0.33255 1.787324,0.17873 1.668071,-0.71489 4.006175,-7.44139 6.076905,-6.6131 2.93878,1.17551 -3.100295,5.28178 -0.178732,6.25564 3.039264,1.01309 6.970567,-2.78824 6.970567,-5.71944 0,-0.26644 0.15517,0.54153 0.357466,0.71493 1.586767,1.36008 0.30993,-0.31678 1.429861,1.25112 0.221731,0.31043 0.610129,0.52686 0.71493,0.89367 0.335452,1.17408 -0.515585,2.33382 0.893662,3.03845 0.348531,0.17427 1.59748,0.76966 2.14479,0.71493 1.464463,-0.14645 2.259417,-3.04276 3.217185,-3.93212 1.31885,-1.22464 1.528569,-1.00522 3.038453,-1.96605 0.60528,-0.38518 0.0768,-0.55659 1.072396,-0.35747 0.726866,0.14537 0.178732,1.65076 0.178732,2.32352 0,1.23977 -2.276997,1.64668 -3.038451,2.32353 -0.693571,0.6165 -2.032609,3.57465 -0.178734,3.57465 4.968864,0 9.872159,-6.73924 14.477335,-7.50677 1.06448,-0.17741 0.920007,2.15069 0.714928,2.50226 -1.037412,1.77842 -4.411435,1.73045 -5.898171,3.21718 -0.444217,0.44422 -0.556524,1.10289 -0.893664,1.60859 -0.630111,0.94517 -0.420249,1.34227 0.893664,1.42987 1.985103,0.13233 9.899192,-3.2861 11.081414,-4.46832 0.580276,-0.58027 1.150517,-3.609 1.072396,-4.46831 -0.02905,-0.31952 -0.624416,-1.07163 -0.357465,-0.89366 2.104702,1.40313 3.672038,4.18577 2.323523,6.6131 -2.218529,3.99335 -9.709634,3.75975 -11.081417,5.71944 -2.429734,3.47105 -1.019564,8.93214 -1.251127,12.86874 -0.274251,4.66227 -3.842223,8.44908 -5.898173,12.33254 -1.785597,3.3728 -2.44343,11.24094 -1.787324,15.01354 0.494495,2.84336 8.143279,9.72997 5.361974,12.51127 -3.714676,3.71468 -5.153956,-2.84104 -7.864231,-2.50225 -3.448413,0.43105 -2.189772,2.61411 -3.753382,3.39592 -4.208031,2.10401 -6.810187,-4.24062 -8.042963,-4.11085 -1.495957,0.15747 -2.574168,2.79415 -3.932116,2.68099 -0.428135,-0.0357 -0.783402,-0.39704 -1.072396,-0.71494 -2.244799,-2.46927 0.37963,-3.69726 1.608593,-5.5407" />
      <path
         style="fill:#666666;fill-opacity:1;stroke-width:1;stroke-linecap:round;stroke-linejoin:round"
         d="m 23.771426,137.44531 c -2.128775,-1.32466 -4.696199,0.10558 -6.087344,1.89559 -1.454382,1.87138 -2.468251,5.16509 -0.414575,6.82535 1.272933,1.02908 5.091526,-1.69426 3.959896,1.06915 -0.764862,1.86777 1.129032,3.44121 2.881271,2.50855 1.455675,-0.77481 2.635718,-2.51076 4.557238,-2.02632 2.168492,0.5467 4.30849,1.97645 6.615737,1.20119 1.935957,-0.6505 3.798393,-2.201 5.984316,-1.43433 2.244368,0.78717 4.226156,2.49512 6.696871,2.43462 1.799004,-0.044 3.757446,-0.13482 5.583828,-0.89821 1.933095,-0.80799 4.069362,-1.20579 6.165858,-1.27597 4.120928,-0.13795 6.795581,4.22223 10.929533,4.00318 2.352553,-0.12466 4.820308,-1.78085 7.098438,-0.46682 1.637653,0.9446 3.072863,2.12332 5.132105,2.44839 1.493217,0.23572 3.992384,-0.53264 3.433883,-2.33163 -0.465967,-1.50093 -1.523789,-2.86632 -2.815474,-3.74949 -2.984558,-2.04064 -6.92071,0.27932 -9.896479,-1.87174 -2.098916,-1.51722 0.455421,-4.69926 -1.551047,-6.15915 -2.365245,-1.72093 -5.485881,-1.72576 -8.284737,-1.83487 -4.333523,-0.16893 -8.728245,0.77419 -13.000707,0.02 -3.19747,-0.56445 -6.228126,-2.10091 -9.469581,-2.24705 -3.761473,-0.16959 -7.385843,1.06584 -11.163571,1.04214 -2.142225,-0.0134 -4.343209,0.0147 -6.355459,0.84745 z"
         id="path38821"
         inkscape:path-effect="#path-effect38823"
         inkscape:original-d="m 23.771426,137.44531 c -4.399951,-2.57501 -9.56902,4.82976 -6.791836,8.40043 1.580638,2.03225 2.591968,-1.31772 3.932115,0.35746 0.976267,1.22034 -0.848351,3.262 1.608593,3.75339 2.438472,0.48769 3.358431,-2.71703 5.71944,-2.32353 2.331604,0.3886 3.856307,1.83693 6.43437,1.42986 1.629442,-0.25728 3.225287,-1.62727 4.825781,-1.78732 2.135933,-0.21359 4.114995,1.49082 6.076905,2.14479 1.686528,0.56217 3.788492,0.68222 5.540708,0.5362 3.704066,-0.30868 0.774684,-0.68519 3.753382,-1.42986 2.251067,-0.56277 5.063664,-1.23806 7.328035,-0.35747 2.864117,1.11382 4.784381,3.40315 8.042962,3.57465 2.156603,0.11351 4.118721,-1.30069 6.255639,-0.89366 2.496233,0.47547 3.257521,2.74969 5.898171,2.85972 1.202338,0.0501 3.081115,0.18945 3.753385,-1.25113 0.557958,-1.19562 -0.300681,-2.17593 -0.893662,-3.03845 -3.541139,-5.15075 -8.657439,-0.61448 -11.975082,-3.93212 -1.498809,-1.49881 0.42589,-4.22116 -1.072393,-5.71944 -3.30555,-3.30555 -16.966885,-1.40593 -21.447902,-1.96606 -1.235073,-0.15438 -7.851148,-2.02345 -8.579162,-2.14478 -3.12556,-0.52093 -6.710678,0.72503 -9.830287,0.89366 -3.060801,0.16545 -5.677358,-0.26706 -8.579162,0.89366 z" />
      <path
         style="fill:#999999;fill-opacity:1;stroke-width:1;stroke-linecap:round;stroke-linejoin:round"
         d="m 20.732972,140.84122 c -1.60167,0.0457 -3.371036,0.13675 -4.7173,-0.90387 -1.878615,-1.45211 -3.158556,-3.5863 -3.890546,-5.83442 -0.588052,-1.80605 0.145755,-3.76705 1.435507,-5.11169 0.812003,-0.84656 1.873769,-1.5057 2.241941,-2.72736 0.462643,-1.53513 1.188465,-3.20331 2.678469,-3.98037 0.982812,-0.51255 2.171834,-0.23739 3.043269,0.36177 1.015725,0.69837 2.33648,0.60227 3.413994,0.0847 1.306025,-0.62736 2.591739,-1.6396 4.136723,-1.4131 0.88511,0.12976 2.045176,0.53714 2.091238,1.61351 0.04518,1.05564 -0.812947,2.30343 0.02641,3.19467 1.083166,1.15011 3.088668,0.2946 4.093257,1.5427 0.953834,1.18504 0.710882,2.82368 0.568063,4.23931 -0.07614,0.75471 -0.549377,1.54739 0.24091,2.18479 0.700063,0.56463 1.686883,1.0908 1.667469,2.14167 -0.03041,1.64615 -1.414708,2.809 -2.713092,3.57877 -2.578433,1.52867 -5.288023,3.16173 -8.343046,3.38586 -0.932325,0.0684 -1.987615,0.006 -2.658887,-0.75254 -0.541771,-0.61216 -1.161361,-1.23965 -2.060889,-1.26742 -0.437035,-0.0135 -0.879572,-0.0985 -1.253493,-0.33696 z"
         id="path38825"
         inkscape:path-effect="#path-effect38827"
         inkscape:original-d="m 20.732972,140.84122 c -1.284457,0.0124 -2.524317,0.13417 -3.753383,-0.35746 -2.529793,-1.01192 -5.554352,-5.82995 -5.00451,-8.57916 0.650312,-3.25156 3.332383,-3.67798 3.753383,-5.36198 0.48332,-1.93328 1.895217,-4.98293 4.468313,-4.46831 0.961848,0.19237 1.684588,0.97276 2.680988,1.0724 2.447766,0.24477 3.870295,-2.33677 6.43437,-1.78733 3.531494,0.75675 0.738047,3.17806 1.787326,4.64705 0.953961,1.33554 3.226803,0.37029 4.289581,1.78732 1.376027,1.8347 0.0536,5.53174 0.178732,5.71944 0.80297,1.20446 2.506924,1.2858 2.144789,3.21719 -0.353216,1.88382 -2.654073,3.09967 -4.110847,3.93211 -2.305529,1.31745 -5.437082,2.85034 -8.221697,2.50226 -1.277813,-0.15973 -1.621406,-1.3469 -2.502254,-1.78733 -0.727113,-0.36355 -1.268537,-0.0104 -2.144791,-0.5362 z" />
      <path
         style="fill:#ececec;fill-opacity:1;stroke-width:1;stroke-linecap:round;stroke-linejoin:round"
         d="m 75.246392,145.30953 c 2.027128,-0.73865 3.492596,-2.40745 4.764122,-4.06889 0.907984,-1.18642 2.035036,-2.16837 3.164288,-3.13653 1.231657,-1.05596 2.320672,-2.443 2.441492,-4.1476 0.117334,-1.65542 -0.989922,-3.09755 -2.261636,-4.02581 -2.018184,-1.47313 -4.46161,-2.29814 -6.92799,-2.63095 -1.476092,-0.19918 -2.997011,0.19115 -4.203476,1.09311 -1.495488,1.11803 -2.443125,2.86406 -4.046601,3.82882 -1.161582,0.69889 -2.745526,0.94161 -3.465667,2.15759 -0.668846,1.12937 -0.323035,2.54483 0.354212,3.58939 1.327136,2.04693 2.726825,4.28523 4.993783,5.35637 1.676929,0.79235 3.59597,0.98361 5.187473,1.9845 z"
         id="path38833"
         inkscape:path-effect="#path-effect38835"
         inkscape:original-d="m 75.246392,145.30953 c 2.705285,-1.04142 3.943905,-3.23015 5.719439,-5.18324 1.802519,-1.98277 4.817425,-3.37594 4.647047,-6.6131 -0.210217,-3.99411 -7.131101,-6.4027 -10.366486,-6.25564 -3.161623,0.14371 -4.492607,2.85278 -6.613105,4.64705 -1.044601,0.88389 -3.626717,1.40733 -4.110847,2.85972 -0.488066,1.4642 0.108043,2.57495 0.893662,3.75338 1.394759,2.09214 3.043328,4.35078 5.540709,5.18324 1.519753,0.50659 2.898097,0.77371 4.289581,1.60859 z" />
      <path
         style="fill:#ffffff;fill-opacity:1;stroke-width:1;stroke-linecap:round;stroke-linejoin:round"
         d="m 71.671742,146.38193 c -0.122357,-1.59617 -0.688021,-3.22712 -0.271291,-4.80616 0.440695,-1.66984 1.848912,-2.89932 3.336335,-3.64836 1.438374,-0.72434 3.112373,-1.15089 4.727764,-0.81225 0.730367,0.15311 1.215504,0.7935 1.408365,1.49898 0.184979,0.67665 0.148932,1.62784 0.880701,1.93419 1.420361,0.59462 2.987922,0.21835 4.474769,0.27967 1.172046,0.0483 2.12458,0.84702 2.796258,1.77199 1.086348,1.49601 1.13234,3.51049 0.564794,5.21497 -0.494454,1.48497 -1.475504,2.96948 -3.011551,3.51197 -1.200412,0.42395 -2.507638,-0.10461 -3.399025,-0.95772 -0.981991,-0.93982 -1.770652,-2.29273 -3.189824,-2.57829 -1.324281,-0.26647 -2.618956,0.36066 -3.956467,0.18028 -1.491872,-0.2012 -2.990287,-0.64692 -4.244119,-1.49991 0,0 -0.05947,-0.0446 -0.05947,-0.0446 0,0 -0.05724,-0.0448 -0.05724,-0.0448 z"
         id="path38829"
         inkscape:path-effect="#path-effect38831"
         inkscape:original-d="m 71.671742,146.38193 c -0.119155,-1.42986 -0.483576,-2.86031 -0.357465,-4.28958 0.281379,-3.18896 5.14133,-5.68724 8.042962,-5.00451 2.346775,0.55218 0.980171,3.0887 2.680989,3.57465 2.861516,0.81758 5.264478,-1.24966 7.328032,2.50226 1.814984,3.29997 -0.874411,9.12017 -4.468312,8.22169 -2.131751,-0.53293 -2.770934,-3.01423 -4.825778,-3.57465 -0.879753,-0.23993 -1.98832,0.0819 -2.85972,0.17874 -1.584655,0.17607 -4.343741,-0.65102 -5.540708,-1.6086 z" />
      <path
         style="fill:#808080;fill-opacity:1;stroke-width:1;stroke-linecap:round;stroke-linejoin:round"
         d="m 53.441024,131.90459 c -1.208657,-0.40173 -2.658939,-0.51307 -3.524023,-1.52028 -0.921221,-1.07257 -0.999802,-2.57619 -1.000928,-3.91666 -8.78e-4,-1.04515 -0.176241,-2.13085 0.106992,-3.13744 0.370437,-1.3165 1.673837,-2.07403 2.853069,-2.55562 1.354179,-0.55304 2.800069,-1.13669 4.266432,-1.01864 1.134353,0.0913 2.043138,1.41433 3.16523,1.04301 1.29759,-0.4294 1.892486,-2.04593 3.248587,-2.29931 2.043372,-0.38179 4.185049,0.27337 5.876484,1.41843 1.032946,0.69928 1.908587,1.72375 2.123818,2.99888 0.225226,1.33434 0.494046,2.68104 0.318782,4.04601 -0.385137,2.99948 -2.522963,5.51773 -5.116252,6.9537 -3.02215,1.67344 -6.902571,1.97028 -9.994668,0.31145 -0.988567,-0.53034 -1.550267,-1.55415 -2.323523,-2.32353 z"
         id="path38853"
         inkscape:path-effect="#path-effect38855"
         inkscape:original-d="m 53.441024,131.90459 c -3.6409,-1.09227 -4.833191,-0.92412 -4.468312,-8.22169 0.128341,-2.56685 5.290595,-3.87793 6.970566,-3.93212 1.073492,-0.0346 1.969736,0.96552 3.038454,1.0724 1.157912,0.11579 2.329125,-2.05276 3.574651,-2.32353 2.465218,-0.53591 6.122503,0.87555 7.506766,3.03846 0.498565,0.77901 0.533543,1.77405 0.714928,2.68098 1.567182,7.83592 -8.166322,13.63402 -15.01353,10.00903 -0.968031,-0.51249 -1.549016,-1.54902 -2.323523,-2.32353" />
      <path
         style="fill:#b3b3b3;fill-opacity:1;stroke-width:1;stroke-linecap:round;stroke-linejoin:round"
         d="m 23.056495,128.50868 c -2.57391,-1.42204 -4.816519,-3.87859 -5.204479,-6.89529 -0.265651,-2.06565 0.929774,-3.9972 2.546882,-5.25676 0.891315,-0.69424 2.023131,-1.01554 3.170374,-0.80285 1.35531,0.25127 2.871438,1.15852 4.162028,0.39967 1.698226,-0.99854 1.97332,-3.59284 3.894696,-4.17838 2.511881,-0.7655 5.156552,-1.56276 7.798059,-1.17522 1.067592,0.15663 2.155863,0.7431 2.508619,1.89342 0.279853,0.91259 0.116624,2.29546 1.136523,2.67688 1.515238,0.56667 3.38024,-0.73299 4.698098,0.36236 1.915173,1.59181 2.331301,4.30715 2.081766,6.65019 -0.359491,3.37549 -1.682529,6.71226 -3.967225,9.25503 -0.981512,1.09238 -2.343409,1.79537 -3.821814,1.92621 -2.656203,0.23507 -5.374278,0.89744 -8.021136,0.16198 -1.752681,-0.487 -3.494992,-1.01165 -5.26295,-1.44259"
         id="path38849"
         inkscape:path-effect="#path-effect38851"
         inkscape:original-d="m 23.056495,128.50868 c -5.552383,-3.06551 -7.507522,-9.59157 -1.787325,-12.69001 1.923674,-1.04199 3.708162,0.54031 5.719439,0.35747 2.157924,-0.19618 2.772238,-3.84332 4.825781,-4.46832 2.307984,-0.70242 7.616841,-2.21344 9.651555,-0.17873 0.730457,0.73046 0.520671,2.66546 1.251127,3.39592 1.112378,1.11238 3.804463,-0.51872 5.183243,0.71493 4.432671,3.96608 0.75369,14.77222 -3.753381,17.15832 -1.022356,0.54125 -2.24885,0.56531 -3.395919,0.71493 -6.197656,0.80839 -4.902407,0.33831 -11.975079,-1.42986" />
      <path
         style="fill:#cccccc;fill-opacity:1;stroke-width:1;stroke-linecap:round;stroke-linejoin:round"
         d="m 62.020186,142.80728 c -2.367689,1.59595 -5.161259,2.89298 -8.082804,2.66451 -2.090395,-0.16347 -4.044061,-1.32212 -5.240073,-3.05462 -1.437122,-2.08176 -2.510551,-4.50746 -2.673263,-7.05263 -0.08326,-1.30235 0.335027,-2.66353 1.434789,-3.51489 1.038157,-0.80367 2.598592,-1.24479 3.023799,-2.55206 0.353934,-1.08815 -0.37552,-2.11647 -0.867896,-3.02831 -0.495945,-0.91845 -1.060775,-2.12622 -0.404464,-3.09319 0.990212,-1.45892 2.923233,-1.82173 4.565805,-1.76367 2.174402,0.0769 4.528538,0.30428 6.309617,1.56947 0.792539,0.56298 1.703687,0.89195 2.654024,1.09685 1.569823,0.33846 3.334672,0.63854 4.414877,1.9731 0.758415,0.937 0.732106,2.20461 0.809472,3.34272 0.104239,1.53342 0.249645,3.05828 0.418726,4.58897 0.126157,1.1421 0.319433,2.41284 -0.402865,3.42675 -1.567254,2.2 -3.878299,3.72894 -5.959744,5.397 z"
         id="path38841"
         inkscape:path-effect="#path-effect38843"
         inkscape:original-d="m 62.020186,142.80728 c -3.429429,2.33575 -8.031377,4.03394 -11.796347,1.25113 -2.449243,-1.81031 -5.564,-8.56538 -3.574651,-11.43888 0.843846,-1.21889 3.838453,-2.16114 3.932116,-3.75338 0.112109,-1.90587 -3.067526,-4.2794 -0.893665,-6.25564 2.282333,-2.07485 7.221101,-1.04163 9.651558,0 1.212483,0.51963 1.392958,0.94299 2.502255,1.25113 2.073592,0.576 4.634897,0.58217 5.719439,2.85972 0.338559,0.71096 0.514573,4.28514 0.5362,4.82577 0.04564,1.14098 0.597082,3.7475 0.357465,4.82578 -0.464262,2.08918 -4.776078,5.10774 -6.43437,6.43437" />
      <path
         style="fill:#ffffff;fill-opacity:1;stroke-width:1;stroke-linecap:round;stroke-linejoin:round"
         d="m 41.287212,140.84123 c -2.863673,-0.23123 -5.76923,-1.34928 -7.731543,-3.48364 -0.983812,-1.07007 -1.771094,-2.42779 -1.862484,-3.90497 -0.0654,-1.05709 0.861507,-1.76448 1.745214,-2.16437 1.263824,-0.5719 2.880992,-0.67754 3.755627,-1.84673 0.636684,-0.8511 0.439845,-2.07948 -0.278517,-2.84557 -0.774929,-0.82641 -1.842514,-1.51153 -2.062667,-2.73431 -0.169752,-0.94284 0.457564,-1.84223 1.329612,-2.19197 1.648042,-0.66095 3.479655,-0.53513 5.211076,-0.37384 1.915235,0.17841 3.788162,0.75103 5.450161,1.73538 3.178962,1.88279 5.686459,5.21488 5.908478,8.98102 0.13368,2.26764 -0.523329,4.76516 -2.367282,6.23084 -1.896519,1.50746 -4.370299,2.0413 -6.717426,2.15267 -0.650163,0.0309 -1.24557,0.28391 -1.878453,0.42254 -0.952975,0.20874 -1.694586,-0.65512 -2.467854,-1.04945"
         id="path38845"
         inkscape:path-effect="#path-effect38847"
         inkscape:original-d="m 41.287212,140.84123 c -3.465787,-0.23814 -7.627562,-2.19317 -9.115359,-5.54071 -2.354638,-5.29793 4.708287,-3.50808 5.361975,-6.6131 0.50592,-2.40312 -2.432971,-2.71764 -2.680986,-4.82578 -0.450887,-3.83254 7.358607,-2.58313 8.936625,-2.14479 5.436298,1.51008 10.059826,7.01004 8.757893,12.86874 -1.076613,4.84476 -5.554996,5.443 -9.651555,5.89817 -0.545918,0.0607 -1.069983,0.46519 -1.608593,0.35747 -0.732007,-0.14641 -1.310706,-0.71493 -1.966058,-1.0724" />
    </g>
  </g>
</svg>
