<?xml version="1.0" encoding="UTF-8" standalone="no"?>
<!-- Created with Inkscape (http://www.inkscape.org/) -->

<svg
   width="45.887817mm"
   height="94.686241mm"
   viewBox="0 0 45.887816 94.686244"
   version="1.1"
   id="svg43170"
   inkscape:version="1.2.1 (9c6d41e4, 2022-07-14)"
   sodipodi:docname="tree-leaf.svg"
   xmlns:inkscape="http://www.inkscape.org/namespaces/inkscape"
   xmlns:sodipodi="http://sodipodi.sourceforge.net/DTD/sodipodi-0.dtd"
   xmlns="http://www.w3.org/2000/svg"
   xmlns:svg="http://www.w3.org/2000/svg">
  <sodipodi:namedview
     id="namedview43172"
     pagecolor="#ffffff"
     bordercolor="#000000"
     borderopacity="0.25"
     inkscape:showpageshadow="2"
     inkscape:pageopacity="0.0"
     inkscape:pagecheckerboard="true"
     inkscape:deskcolor="#d1d1d1"
     inkscape:document-units="mm"
     showgrid="false"
     inkscape:zoom="0.2102413"
     inkscape:cx="-42.807954"
     inkscape:cy="118.91098"
     inkscape:window-width="1344"
     inkscape:window-height="456"
     inkscape:window-x="0"
     inkscape:window-y="23"
     inkscape:window-maximized="0"
     inkscape:current-layer="layer1" />
  <defs
     id="defs43167">
    <inkscape:path-effect
       effect="simplify"
       id="path-effect38815"
       is_visible="true"
       lpeversion="1"
       steps="1"
       threshold="0.00522388"
       smooth_angles="360"
       helper_size="0"
       simplify_individual_paths="false"
       simplify_just_coalesce="false" />
    <inkscape:path-effect
       effect="simplify"
       id="path-effect38823"
       is_visible="true"
       lpeversion="1"
       steps="1"
       threshold="0.00522388"
       smooth_angles="360"
       helper_size="0"
       simplify_individual_paths="false"
       simplify_just_coalesce="false" />
    <inkscape:path-effect
       effect="simplify"
       id="path-effect38827"
       is_visible="true"
       lpeversion="1"
       steps="1"
       threshold="0.00522388"
       smooth_angles="360"
       helper_size="0"
       simplify_individual_paths="false"
       simplify_just_coalesce="false" />
    <inkscape:path-effect
       effect="simplify"
       id="path-effect38835"
       is_visible="true"
       lpeversion="1"
       steps="1"
       threshold="0.00522388"
       smooth_angles="360"
       helper_size="0"
       simplify_individual_paths="false"
       simplify_just_coalesce="false" />
    <inkscape:path-effect
       effect="simplify"
       id="path-effect38831"
       is_visible="true"
       lpeversion="1"
       steps="1"
       threshold="0.00522388"
       smooth_angles="360"
       helper_size="0"
       simplify_individual_paths="false"
       simplify_just_coalesce="false" />
    <inkscape:path-effect
       effect="simplify"
       id="path-effect38855"
       is_visible="true"
       lpeversion="1"
       steps="1"
       threshold="0.00522388"
       smooth_angles="360"
       helper_size="0"
       simplify_individual_paths="false"
       simplify_just_coalesce="false" />
    <inkscape:path-effect
       effect="simplify"
       id="path-effect38851"
       is_visible="true"
       lpeversion="1"
       steps="1"
       threshold="0.00522388"
       smooth_angles="360"
       helper_size="0"
       simplify_individual_paths="false"
       simplify_just_coalesce="false" />
    <inkscape:path-effect
       effect="simplify"
       id="path-effect38843"
       is_visible="true"
       lpeversion="1"
       steps="1"
       threshold="0.00522388"
       smooth_angles="360"
       helper_size="0"
       simplify_individual_paths="false"
       simplify_just_coalesce="false" />
    <inkscape:path-effect
       effect="simplify"
       id="path-effect38847"
       is_visible="true"
       lpeversion="1"
       steps="1"
       threshold="0.00522388"
       smooth_angles="360"
       helper_size="0"
       simplify_individual_paths="false"
       simplify_just_coalesce="false" />
    <inkscape:path-effect
       effect="simplify"
       id="path-effect26733"
       is_visible="true"
       lpeversion="1"
       steps="1"
       threshold="0.00522388"
       smooth_angles="360"
       helper_size="0"
       simplify_individual_paths="false"
       simplify_just_coalesce="false" />
    <inkscape:path-effect
       effect="simplify"
       id="path-effect30963"
       is_visible="true"
       lpeversion="1"
       steps="1"
       threshold="0.00522388"
       smooth_angles="360"
       helper_size="0"
       simplify_individual_paths="false"
       simplify_just_coalesce="false" />
    <inkscape:path-effect
       effect="simplify"
       id="path-effect30233"
       is_visible="true"
       lpeversion="1"
       steps="1"
       threshold="0.00522388"
       smooth_angles="360"
       helper_size="0"
       simplify_individual_paths="false"
       simplify_just_coalesce="false" />
    <inkscape:path-effect
       effect="simplify"
       id="path-effect21479"
       is_visible="true"
       lpeversion="1"
       steps="1"
       threshold="0.00980583"
       smooth_angles="360"
       helper_size="0"
       simplify_individual_paths="false"
       simplify_just_coalesce="false" />
    <inkscape:path-effect
       effect="simplify"
       id="path-effect21483"
       is_visible="true"
       lpeversion="1"
       steps="1"
       threshold="0.00980583"
       smooth_angles="360"
       helper_size="0"
       simplify_individual_paths="false"
       simplify_just_coalesce="false" />
    <inkscape:path-effect
       effect="simplify"
       id="path-effect21487"
       is_visible="true"
       lpeversion="1"
       steps="1"
       threshold="0.00980583"
       smooth_angles="360"
       helper_size="0"
       simplify_individual_paths="false"
       simplify_just_coalesce="false" />
    <inkscape:path-effect
       effect="simplify"
       id="path-effect21491"
       is_visible="true"
       lpeversion="1"
       steps="1"
       threshold="0.00980583"
       smooth_angles="360"
       helper_size="0"
       simplify_individual_paths="false"
       simplify_just_coalesce="false" />
    <inkscape:path-effect
       effect="simplify"
       id="path-effect21495"
       is_visible="true"
       lpeversion="1"
       steps="1"
       threshold="0.00980583"
       smooth_angles="360"
       helper_size="0"
       simplify_individual_paths="false"
       simplify_just_coalesce="false" />
    <inkscape:path-effect
       effect="simplify"
       id="path-effect21499"
       is_visible="true"
       lpeversion="1"
       steps="1"
       threshold="0.00980583"
       smooth_angles="360"
       helper_size="0"
       simplify_individual_paths="false"
       simplify_just_coalesce="false" />
    <inkscape:path-effect
       effect="simplify"
       id="path-effect21503"
       is_visible="true"
       lpeversion="1"
       steps="1"
       threshold="0.00980583"
       smooth_angles="360"
       helper_size="0"
       simplify_individual_paths="false"
       simplify_just_coalesce="false" />
    <inkscape:path-effect
       effect="simplify"
       id="path-effect21507"
       is_visible="true"
       lpeversion="1"
       steps="1"
       threshold="0.00980583"
       smooth_angles="360"
       helper_size="0"
       simplify_individual_paths="false"
       simplify_just_coalesce="false" />
    <inkscape:path-effect
       effect="simplify"
       id="path-effect21511"
       is_visible="true"
       lpeversion="1"
       steps="1"
       threshold="0.00980583"
       smooth_angles="360"
       helper_size="0"
       simplify_individual_paths="false"
       simplify_just_coalesce="false" />
    <inkscape:path-effect
       effect="simplify"
       id="path-effect21515"
       is_visible="true"
       lpeversion="1"
       steps="1"
       threshold="0.00980583"
       smooth_angles="360"
       helper_size="0"
       simplify_individual_paths="false"
       simplify_just_coalesce="false" />
    <inkscape:path-effect
       effect="simplify"
       id="path-effect21519"
       is_visible="true"
       lpeversion="1"
       steps="1"
       threshold="0.00980583"
       smooth_angles="360"
       helper_size="0"
       simplify_individual_paths="false"
       simplify_just_coalesce="false" />
    <inkscape:path-effect
       effect="simplify"
       id="path-effect21523"
       is_visible="true"
       lpeversion="1"
       steps="1"
       threshold="0.00980583"
       smooth_angles="360"
       helper_size="0"
       simplify_individual_paths="false"
       simplify_just_coalesce="false" />
    <inkscape:path-effect
       effect="simplify"
       id="path-effect21527"
       is_visible="true"
       lpeversion="1"
       steps="1"
       threshold="0.00980583"
       smooth_angles="360"
       helper_size="0"
       simplify_individual_paths="false"
       simplify_just_coalesce="false" />
    <inkscape:path-effect
       effect="simplify"
       id="path-effect21531"
       is_visible="true"
       lpeversion="1"
       steps="1"
       threshold="0.00980583"
       smooth_angles="360"
       helper_size="0"
       simplify_individual_paths="false"
       simplify_just_coalesce="false" />
    <inkscape:path-effect
       effect="simplify"
       id="path-effect21535"
       is_visible="true"
       lpeversion="1"
       steps="1"
       threshold="0.00980583"
       smooth_angles="360"
       helper_size="0"
       simplify_individual_paths="false"
       simplify_just_coalesce="false" />
    <inkscape:path-effect
       effect="simplify"
       id="path-effect21539"
       is_visible="true"
       lpeversion="1"
       steps="1"
       threshold="0.00980583"
       smooth_angles="360"
       helper_size="0"
       simplify_individual_paths="false"
       simplify_just_coalesce="false" />
  </defs>
  <g
     inkscape:label="Ebene 1"
     inkscape:groupmode="layer"
     id="layer1"
     transform="translate(-75.221106,-116.57239)">
    <g
       id="g21577"
       transform="translate(34.020369,63.956326)">
      <path
         id="path21378"
         style="fill:#4d4d4d;fill-opacity:1;stroke-width:1;stroke-linecap:round;stroke-linejoin:round"
         d="m 78.112028,54.876237 c -6.701751,3.692944 -14.075507,6.163676 -20.481437,10.337353 -7.293792,4.75215 -11.424374,13.707895 -13.582634,22.073072 -3.08433,11.954523 -5.08191,28.731658 1.72651,36.997738 -1.065087,3.0484 -1.527927,6.32897 -1.133781,9.48986 0.461344,3.69979 0.91953,7.52017 2.547131,10.88978 0.501871,1.03902 1.030476,2.57958 2.322856,2.63601 0.99953,0.0436 1.062117,-0.54753 0.663525,-1.58026 -1.346378,-3.4884 -3.061384,-7.76252 -3.347199,-11.4537 -0.240268,-3.10296 0.738646,-5.74826 0.975768,-8.85256 0.0035,-5.1e-4 0.0068,-5e-4 0.01033,-10e-4 5.939819,-0.8943 12.266497,-0.83636 17.691427,-3.66748 8.381193,-4.3739 15.131037,-12.1447 18.583878,-21.05556 2.743743,-7.080865 0.255538,-14.661079 -2.460831,-21.321178 -2.284035,-5.600085 -5.534256,-11.479969 -3.315209,-17.186928 0.995469,-2.560157 10.970783,-9.727288 8.334023,-9.562529 -1.356066,0.0042 -7.521501,1.707451 -8.534357,2.257382 z"
         sodipodi:nodetypes="csacsscssccsssscc" />
      <g
         id="g21557">
        <path
           style="fill:#808080;fill-opacity:1;stroke-width:1;stroke-linecap:round;stroke-linejoin:round"
           d="m 48.783829,115.00851 c -1.048006,-0.85391 -2.287857,-1.42679 -3.370413,-2.23409 -0.82819,-0.61761 -1.324874,-1.52697 -1.819814,-2.48333 -0.128885,-0.24904 -0.161275,-0.81576 0.264267,-0.49676 0.596878,0.44744 1.001851,1.09351 1.435312,1.6887 0.268311,0.36842 0.541675,0.73642 0.931454,0.99776 0.844186,0.56602 1.823646,0.96537 2.538264,1.69386 0.0582,0.0593 0.120216,0.12136 0.147314,0.20195"
           id="path21477"
           inkscape:path-effect="#path-effect21479"
           inkscape:original-d="m 48.783829,115.00851 c -1.447614,-1.24423 -4.769286,-2.40788 -5.181703,-4.67617 -0.03768,-0.20724 -0.210637,-0.63192 0,-0.63192 0.607886,0 1.871718,2.16929 2.274896,2.52766 0.468638,0.41657 2.907096,1.70718 3.033191,2.14852"
           sodipodi:nodetypes="csssc" />
        <path
           style="fill:#808080;fill-opacity:1;stroke-width:1;stroke-linecap:round;stroke-linejoin:round"
           d="m 49.542128,110.83787 c -1.532538,-1.73928 -3.19916,-3.46746 -4.03328,-5.67781 -0.368792,-0.97727 -1.12313,-2.21065 -0.532284,-3.06036 0.184907,-0.26592 0.489683,0.54366 0.590132,0.75853 1.113188,2.3812 3.298248,4.07262 4.344282,6.48783 0.188564,0.43538 0.330579,0.89361 0.389446,1.36543"
           id="path21481"
           inkscape:path-effect="#path-effect21483"
           inkscape:original-d="m 49.542128,110.83787 c -1.896568,-2.14475 -4.095332,-4.37755 -4.423405,-7.33021 -0.05533,-0.49794 -0.187507,-1.48603 -0.126383,-1.5166 0.170883,-0.0854 0.572534,0.97135 1.137446,1.89575 1.282076,2.09794 3.862499,4.35955 4.170638,6.82468" />
        <path
           style="fill:#808080;fill-opacity:1;stroke-width:1;stroke-linecap:round;stroke-linejoin:round"
           d="m 50.932339,98.07319 c -0.705234,-0.691987 -1.41082,-1.404427 -1.869481,-2.295817 -0.555772,-1.080121 -1.164021,-2.142795 -1.586929,-3.281127 -0.284865,-0.766765 -0.442202,-1.575209 -0.601011,-2.374455 -0.072,-0.362348 0.128211,-0.949844 0.447083,-0.376183 0.657268,1.182448 0.584173,2.642666 1.406434,3.763475 0.819041,1.11642 1.741202,2.157538 2.453278,3.359453 0.257769,0.435089 0.08441,0.870927 -0.249374,1.204654 z"
           id="path21485"
           inkscape:path-effect="#path-effect21487"
           inkscape:original-d="m 50.932339,98.07319 c -1.649146,-1.649145 -1.43909,-1.356048 -3.285956,-5.181703 -0.400005,-0.82858 -0.55141,-1.757521 -0.758298,-2.654041 -0.05991,-0.259617 0.08632,-0.966353 0.252767,-0.758298 0.707178,0.883973 0.701344,2.484064 1.263829,3.538723 0.523494,0.981556 2.992501,3.395069 2.906808,4.423404 -0.0204,0.244795 -0.252767,0.421278 -0.37915,0.631915 z" />
        <path
           style="fill:#808080;fill-opacity:1;stroke-width:1;stroke-linecap:round;stroke-linejoin:round"
           d="m 54.34468,92.006808 c -0.436305,-0.20834 -0.690513,-0.61935 -0.976236,-0.987706 -1.700056,-2.191723 -3.898562,-4.133856 -4.904675,-6.727003 -0.209865,-0.540904 -0.283623,-1.359767 0.255571,-1.696302 0.519178,-0.324042 1.086717,0.102115 1.329624,0.603304 0.448931,0.926276 0.484924,1.992877 0.912558,2.922703 0.242002,0.526197 0.654997,0.935802 1.144461,1.243641 0.662494,0.416663 1.137272,1.056548 1.449273,1.77142 0.316974,0.726266 0.517093,1.495341 0.789424,2.238028"
           id="path21489"
           inkscape:path-effect="#path-effect21491"
           inkscape:original-d="m 54.34468,92.006808 c -0.16851,-0.126384 -0.377372,-0.211984 -0.505531,-0.379151 -1.814798,-2.367124 -3.773477,-4.646144 -5.308087,-7.203829 -0.389077,-0.648464 -0.3087,-2.221211 0.884682,-1.895744 0.928823,0.253314 1.141061,2.825204 1.516595,3.538722 0.629602,1.196242 0.80274,0.910143 1.769364,1.769364 0.878813,0.781169 1.244348,2.475712 1.642977,3.538723" />
        <path
           style="fill:#808080;fill-opacity:1;stroke-width:1;stroke-linecap:round;stroke-linejoin:round"
           d="M 58.894469,84.550212 C 58.045057,83.701784 57.170115,82.858221 56.576784,81.79625 55.84968,80.494846 55.041952,79.227072 54.472687,77.849647 54.188054,77.160933 53.88941,76.341424 54.181199,75.630466 c 0.26353,-0.642104 0.89529,0.0313 1.149755,0.351644 0.380994,0.47963 0.58537,1.053406 0.762678,1.642467 0.330773,1.098909 0.819054,2.14763 1.349073,3.163153 0.288643,0.553044 0.600318,1.094611 0.94623,1.61397"
           id="path21493"
           inkscape:path-effect="#path-effect21495"
           inkscape:original-d="m 58.894469,84.550212 c -2.154415,-2.154412 -1.710545,-1.595885 -4.297024,-6.445533 -0.951032,-1.783183 -0.538107,-4.309187 1.137449,-1.516594 0.274161,0.456938 0.31424,1.019235 0.505531,1.516594 0.550984,1.432562 1.292416,3.012882 2.14851,4.297021" />
        <path
           style="fill:#808080;fill-opacity:1;stroke-width:1;stroke-linecap:round;stroke-linejoin:round"
           d="m 61.674893,75.197871 c -0.530731,-0.415725 -1.195271,-0.777941 -1.408298,-1.460351 -0.261374,-0.837286 -0.36096,-1.717058 -0.404637,-2.587934 -0.01626,-0.32429 -0.155476,-0.659421 -0.06646,-0.973911 0.127768,-0.451389 0.721043,-0.663683 0.768468,-1.118009 0.02294,-0.219789 0.09868,-0.20696 0.100816,0.01598 0.0065,0.676397 -0.088,1.36103 0.0093,2.029765 0.232428,1.596976 1.405598,2.80518 2.264612,4.094463"
           id="path21497"
           inkscape:path-effect="#path-effect21499"
           inkscape:original-d="m 61.674893,75.197871 c -1.602304,-1.201727 -1.467342,-0.946925 -1.895745,-4.802552 -0.05425,-0.488284 0.510752,-0.839465 0.758298,-1.26383 0.04746,-0.08137 0.03218,-0.252767 0.126384,-0.252767 0.0037,0 -0.0049,2.109364 0,2.148512 0.203909,1.63127 1.401876,2.861114 2.274893,4.170637" />
        <path
           style="fill:#808080;fill-opacity:1;stroke-width:1;stroke-linecap:round;stroke-linejoin:round"
           d="m 56.49319,110.58511 c 2.884333,-1.24387 6.265184,-1.21023 8.931993,-2.89125 2.09332,-1.31952 3.842365,-3.11684 5.444273,-4.97845 0.199386,-0.23171 0.941872,-0.86126 0.157778,-0.47158 -1.621403,0.80581 -3.236032,1.70427 -5.052018,1.99485 -1.511722,0.24189 -3.06226,0.42201 -4.442526,1.17045 -1.643957,0.89143 -3.373435,1.69226 -4.809258,2.90042 -0.664862,0.55944 -0.312727,1.54921 -0.230242,2.27556 z"
           id="path21501"
           inkscape:path-effect="#path-effect21503"
           inkscape:original-d="m 56.49319,110.58511 c 2.724832,-1.16045 5.755521,-1.47347 8.467661,-2.65405 1.894218,-0.82454 4.973936,-4.15807 6.44553,-5.81362 0.08851,-0.0996 -0.258751,0.0694 -0.379147,0.12639 -1.729926,0.81944 -2.2107,1.23704 -4.044257,1.76936 -1.4829,0.43052 -3.253153,0.37861 -4.676169,1.01106 -0.744085,0.33071 -5.362017,2.78606 -5.813618,3.53873 -0.319405,0.53234 -0.07845,1.47296 0,2.02213 z" />
        <path
           style="fill:#808080;fill-opacity:1;stroke-width:1;stroke-linecap:round;stroke-linejoin:round"
           d="m 60.031915,102.74936 c 0.37926,-0.15425 1.430468,-0.59458 1.413642,-0.58584 -0.408755,0.21223 -1.686221,0.74425 -1.247982,0.64503 1.475984,-0.33417 2.890243,-0.91147 4.318901,-1.40914 1.636983,-0.57024 3.221892,-1.25631 4.789613,-2.011819 1.354208,-0.652616 2.674103,-1.34477 4.013529,-2.046443 0.677433,-0.354881 1.524542,-0.796946 1.692695,-1.557641 0.201891,-0.913322 -1.060527,-0.986839 -1.701924,-1.026841 -2.340132,-0.145948 -4.523414,0.949042 -6.410563,2.239108 -1.823173,1.246332 -3.673131,2.43385 -5.701864,3.392306 -0.886841,0.41898 -1.838101,1.1897 -1.924345,2.2349"
           id="path21505"
           inkscape:path-effect="#path-effect21507"
           inkscape:original-d="m 60.031915,102.74936 c 5.501619,-2.29234 -6.645278,2.7037 6.698297,-2.14851 1.0979,-0.39924 2.119554,-0.984493 3.159575,-1.516597 0.772255,-0.395107 1.504048,-0.865973 2.274893,-1.26383 0.535995,-0.27664 1.15792,-0.399775 1.642978,-0.758296 3.287186,-2.42966 -0.76277,-2.522881 -2.52766,-2.148512 -3.407368,0.722776 -5.711198,3.424325 -8.720423,4.928937 -0.990775,0.495388 -1.310344,0.382438 -2.148512,1.011068 -0.519602,0.3897 -1.137446,1.09142 -1.137446,1.76936" />
        <path
           style="fill:#808080;fill-opacity:1;stroke-width:1;stroke-linecap:round;stroke-linejoin:round"
           d="m 66.730212,91.501276 c 1.790304,-0.250643 3.644475,-0.22987 5.367443,-0.795105 0.524942,-0.172212 1.117337,-0.358788 1.438155,-0.8452 0.270565,-0.41022 0.13827,-1.095254 -0.374373,-1.215444 -0.620499,-0.145477 -1.269211,-0.03338 -1.884709,0.08234 -1.474673,0.277249 -2.97738,0.615705 -4.287662,1.358514 -0.444247,0.251847 -0.979852,0.55179 -1.0267,1.130387 -0.01791,0.221147 0.0098,0.442426 0.0095,0.663656"
           id="path21509"
           inkscape:path-effect="#path-effect21511"
           inkscape:original-d="m 66.730212,91.501276 c 1.558724,-0.21064 3.13267,-0.329268 4.676169,-0.631915 0.614572,-0.120504 1.243563,-0.291692 1.769362,-0.631915 0.715571,-0.463015 0.678508,-1.549852 -0.252765,-1.64298 -1.375418,-0.137541 -5.606518,0.930349 -6.698297,2.022128 -0.362484,0.362485 -0.252767,0.816703 -0.252767,1.26383" />
        <path
           style="fill:#808080;fill-opacity:1;stroke-width:1;stroke-linecap:round;stroke-linejoin:round"
           d="m 69.229836,86.052789 c 1.931048,-0.610813 3.919667,-1.257282 5.535712,-2.488767 0.378348,-0.288315 1.092598,-0.548593 1.003975,-1.043772 -0.08679,-0.484937 -0.754559,-0.399793 -1.126834,-0.391756 -1.703741,0.03678 -3.170932,1.013203 -4.533886,1.937291 -0.728664,0.494037 -1.47698,0.94949 -2.254918,1.373744 -0.403464,0.220032 -0.967629,0.479172 -0.997289,1.006428"
           id="path21513"
           inkscape:path-effect="#path-effect21515"
           inkscape:original-d="m 69.229836,86.052789 c 4.676053,-1.435325 8.843297,-4.217184 5.083356,-3.903853 -2.113317,0.176109 -3.97406,1.852546 -5.687235,2.906807 -0.482952,0.297201 -1.769361,0.682165 -1.769361,1.390214"
           sodipodi:nodetypes="cssc" />
        <path
           style="fill:#808080;fill-opacity:1;stroke-width:1;stroke-linecap:round;stroke-linejoin:round"
           d="m 69.384256,80.253191 c 1.416573,-0.581804 2.773801,-1.335722 3.962456,-2.299686 0.340476,-0.276116 1.060005,-0.457021 0.976933,-0.886195 -0.06274,-0.324109 -0.424121,-0.490538 -0.721421,-0.529489 -0.630105,-0.08255 -1.285177,0.09103 -1.821039,0.414925 -0.908151,0.548924 -1.594928,1.411647 -2.068223,2.348738 -0.07364,0.145804 -0.141631,0.294508 -0.202325,0.446175"
           id="path21517"
           inkscape:path-effect="#path-effect21519"
           inkscape:original-d="m 69.384256,80.253191 c 1.637966,-0.651042 3.832188,-2.007992 4.928936,-3.159575 0.09052,-0.09504 -0.361445,-0.960387 -2.022129,-0.379148 -1.232749,0.431461 -2.315739,1.871475 -2.780426,3.033191" />
        <path
           style="fill:#808080;fill-opacity:1;stroke-width:1;stroke-linecap:round;stroke-linejoin:round"
           d="m 72.670211,74.69234 c 0.516719,-1.208879 1.17418,-2.35202 1.53477,-3.638014 0.05388,-0.192145 0.04646,-0.679414 -0.258688,-0.50212 -0.42075,0.244462 -0.722878,0.646501 -1.001165,1.034804 -0.675997,0.943242 -1.270514,1.966531 -1.604075,3.081911 -0.06727,0.224941 -0.122002,0.45421 -0.151736,0.687315"
           id="path21521"
           inkscape:path-effect="#path-effect21523"
           inkscape:original-d="m 72.670211,74.69234 c 0.505532,-1.179574 1.264912,-2.280306 1.516597,-3.538723 0.443318,-2.216592 -2.707227,1.906118 -2.997491,4.202619"
           sodipodi:nodetypes="csc" />
        <path
           style="fill:#808080;fill-opacity:1;stroke-width:1;stroke-linecap:round;stroke-linejoin:round"
           d="m 73.807658,66.603829 c 0.589806,-1.344623 1.330625,-2.633472 1.761939,-4.037812 0.08373,-0.272631 0.39882,-0.655614 0.174918,-0.844835 -0.228586,-0.193179 -0.497944,0.241094 -0.636553,0.410365 -0.390034,0.476314 -0.606264,1.058304 -0.768487,1.645834 -0.350164,1.268206 -0.449436,2.599255 -0.910965,3.837511"
           id="path21525"
           inkscape:path-effect="#path-effect21527"
           inkscape:original-d="m 73.807658,66.603829 c 0.505534,-1.137446 1.033571,-2.265156 1.516597,-3.412339 1.177869,-2.79744 -0.389893,-1.126339 -0.758299,-0.126384 -0.554945,1.506278 -0.597937,3.111093 -1.137446,4.549786" />
        <path
           style="fill:#808080;fill-opacity:1;stroke-width:1;stroke-linecap:round;stroke-linejoin:round"
           d="m 78.483829,59.147233 c 0.753686,-0.625203 1.589853,-1.16249 2.260071,-1.877715 0.149242,-0.159264 0.362495,-0.426457 0.19922,-0.625072 -0.193926,-0.2359 -0.556553,-0.188968 -0.797408,-0.0662 -0.353763,0.180319 -0.637036,0.474238 -0.894435,0.771136 -0.539322,0.622082 -0.70695,1.457054 -1.177388,2.123472 -0.141196,0.200017 -0.301636,0.386068 -0.474742,0.559061"
           id="path21529"
           inkscape:path-effect="#path-effect21531"
           inkscape:original-d="m 78.483829,59.147233 c 0.716169,-0.589788 1.458908,-1.14872 2.14851,-1.769361 0.876384,-0.788747 -0.05076,-1.197946 -0.758296,-0.631915 -1.454793,1.163833 -1.030153,2.041215 -2.274896,3.285958" />
        <path
           style="fill:#808080;fill-opacity:1;stroke-width:1;stroke-linecap:round;stroke-linejoin:round"
           d="m 50.174043,117.40979 c -0.420522,-3.35481 -0.187413,-6.94497 0.660193,-10.25442 1.683847,-6.57452 4.651863,-12.687502 7.117171,-18.992078 2.558467,-6.542813 6.980559,-12.361754 8.707836,-19.163147 0.80653,-3.175824 1.630993,-8.108294 5.271101,-8.554298 1.726842,-0.211581 3.007344,-1.470914 0.592139,-0.153863 -2.750921,1.500123 -2.902337,4.806917 -4.020644,7.403652 -1.295,3.007021 -2.234401,6.148725 -3.540988,9.145213 -3.140493,7.202315 -4.713207,15.22338 -9.100035,21.750348 -1.629508,2.424473 -2.283701,5.225963 -3.020145,8.022403 -0.748547,2.8424 -1.465642,5.74523 -1.670429,8.65395 -0.07379,1.04807 -1.694417,5.46395 -1.661496,3.79015 0.01226,-0.62323 0.458894,-1.09228 0.665297,-1.64791 z"
           id="path21533"
           inkscape:path-effect="#path-effect21535"
           inkscape:original-d="m 50.174043,117.40979 c -0.609804,-1.38423 -0.07637,-2.97235 0,-4.42341 0.03985,-0.75725 -0.09125,-1.5221 0,-2.27489 0.665258,-5.48839 3.027039,-10.64395 5.1817,-15.671491 1.027856,-2.398326 1.780212,-4.917929 2.780427,-7.330212 1.815428,-4.378389 3.861432,-8.63495 5.939999,-12.891064 1.02121,-2.091047 1.574795,-3.210094 2.401276,-5.308086 0.537544,-1.364533 0.615442,-2.70196 1.137447,-4.044254 0.502232,-1.29145 1.458685,-2.795585 2.274895,-3.917874 0.96968,-1.333309 3.081592,-0.933082 4.170638,-2.022125 0.05958,-0.05958 -0.175774,-0.03422 -0.252767,0 -0.402627,0.178945 -1.269154,0.744045 -1.642978,1.011062 -1.289021,0.920729 -2.042128,1.984542 -2.654043,3.41234 -0.416306,0.971386 -0.42603,2.036392 -0.758296,3.033191 -0.63971,1.919129 -1.52119,3.676592 -2.274896,5.560851 -0.559731,1.399331 -0.848259,2.960351 -1.516594,4.297021 -0.642268,1.284536 -1.044702,2.714752 -1.64298,4.044257 -2.095286,4.65619 -3.741973,9.493697 -5.813616,14.154893 -0.598273,1.346113 -1.215213,2.739903 -1.895745,4.044254 -0.656738,1.258747 -1.568854,2.501347 -1.895745,3.917877 -0.890822,3.86023 -2.006174,7.67621 -2.401276,11.62723 -0.123793,1.23792 -0.126481,5.3e-4 -0.37915,1.39021 -0.107945,0.59371 0.212328,1.51407 -0.126381,2.02213 -0.0668,0.1002 -1.036574,1.84472 -1.137449,1.64298 -0.457433,-0.91487 0.180033,-1.46115 0.505534,-2.27489 z" />
        <path
           style="fill:#808080;fill-opacity:1;stroke-width:1;stroke-linecap:round;stroke-linejoin:round"
           d="m 62.15348,118.77328 c 1.522673,-1.47908 3.037057,-2.96135 4.483544,-4.53615 0.675666,-0.7356 -0.446383,-1.07601 -1.036772,-0.84199 -1.427103,0.56567 -2.411601,1.81765 -3.467215,2.87323 -0.59704,0.59702 -1.304361,1.05381 -2.147372,1.28763 -1.582651,0.43896 -3.214815,0.68051 -4.867395,0.62559 -1.199972,-0.0399 -2.591915,0.19139 -3.362673,1.1502 -0.257158,0.3199 0.02696,0.6912 0.314191,0.85842"
           id="path21537"
           inkscape:path-effect="#path-effect21539"
           inkscape:original-d="m 62.15348,118.77328 c 0.320876,-0.39493 5.519861,-4.71549 4.576732,-5.28137 -1.886902,-1.13214 -4.533148,3.47531 -6.192766,3.91788 -1.152622,0.30736 -2.478368,0.6594 -3.665106,0.75829 -1.434121,0.11951 -2.570974,-0.21012 -3.917873,0.37915 -0.726742,0.31795 -1.942481,0.93778 -0.884679,1.64298"
           sodipodi:nodetypes="cssssc" />
      </g>
    </g>
  </g>
</svg>
