<?xml version="1.0" encoding="UTF-8" standalone="no"?>
<!-- Created with Inkscape (http://www.inkscape.org/) -->

<svg
   width="118.28716mm"
   height="109.00056mm"
   viewBox="0 0 118.28716 109.00056"
   version="1.1"
   id="svg43170"
   inkscape:version="1.2.1 (9c6d41e4, 2022-07-14)"
   sodipodi:docname="tree-mobstera.svg"
   xmlns:inkscape="http://www.inkscape.org/namespaces/inkscape"
   xmlns:sodipodi="http://sodipodi.sourceforge.net/DTD/sodipodi-0.dtd"
   xmlns="http://www.w3.org/2000/svg"
   xmlns:svg="http://www.w3.org/2000/svg">
  <sodipodi:namedview
     id="namedview43172"
     pagecolor="#ffffff"
     bordercolor="#000000"
     borderopacity="0.25"
     inkscape:showpageshadow="2"
     inkscape:pageopacity="0.0"
     inkscape:pagecheckerboard="true"
     inkscape:deskcolor="#d1d1d1"
     inkscape:document-units="mm"
     showgrid="false"
     inkscape:zoom="0.2102413"
     inkscape:cx="33.295075"
     inkscape:cy="156.9625"
     inkscape:window-width="1344"
     inkscape:window-height="456"
     inkscape:window-x="0"
     inkscape:window-y="23"
     inkscape:window-maximized="0"
     inkscape:current-layer="layer1" />
  <defs
     id="defs43167">
    <inkscape:path-effect
       effect="simplify"
       id="path-effect38815"
       is_visible="true"
       lpeversion="1"
       steps="1"
       threshold="0.00522388"
       smooth_angles="360"
       helper_size="0"
       simplify_individual_paths="false"
       simplify_just_coalesce="false" />
    <inkscape:path-effect
       effect="simplify"
       id="path-effect38823"
       is_visible="true"
       lpeversion="1"
       steps="1"
       threshold="0.00522388"
       smooth_angles="360"
       helper_size="0"
       simplify_individual_paths="false"
       simplify_just_coalesce="false" />
    <inkscape:path-effect
       effect="simplify"
       id="path-effect38827"
       is_visible="true"
       lpeversion="1"
       steps="1"
       threshold="0.00522388"
       smooth_angles="360"
       helper_size="0"
       simplify_individual_paths="false"
       simplify_just_coalesce="false" />
    <inkscape:path-effect
       effect="simplify"
       id="path-effect38835"
       is_visible="true"
       lpeversion="1"
       steps="1"
       threshold="0.00522388"
       smooth_angles="360"
       helper_size="0"
       simplify_individual_paths="false"
       simplify_just_coalesce="false" />
    <inkscape:path-effect
       effect="simplify"
       id="path-effect38831"
       is_visible="true"
       lpeversion="1"
       steps="1"
       threshold="0.00522388"
       smooth_angles="360"
       helper_size="0"
       simplify_individual_paths="false"
       simplify_just_coalesce="false" />
    <inkscape:path-effect
       effect="simplify"
       id="path-effect38855"
       is_visible="true"
       lpeversion="1"
       steps="1"
       threshold="0.00522388"
       smooth_angles="360"
       helper_size="0"
       simplify_individual_paths="false"
       simplify_just_coalesce="false" />
    <inkscape:path-effect
       effect="simplify"
       id="path-effect38851"
       is_visible="true"
       lpeversion="1"
       steps="1"
       threshold="0.00522388"
       smooth_angles="360"
       helper_size="0"
       simplify_individual_paths="false"
       simplify_just_coalesce="false" />
    <inkscape:path-effect
       effect="simplify"
       id="path-effect38843"
       is_visible="true"
       lpeversion="1"
       steps="1"
       threshold="0.00522388"
       smooth_angles="360"
       helper_size="0"
       simplify_individual_paths="false"
       simplify_just_coalesce="false" />
    <inkscape:path-effect
       effect="simplify"
       id="path-effect38847"
       is_visible="true"
       lpeversion="1"
       steps="1"
       threshold="0.00522388"
       smooth_angles="360"
       helper_size="0"
       simplify_individual_paths="false"
       simplify_just_coalesce="false" />
    <inkscape:path-effect
       effect="simplify"
       id="path-effect26733"
       is_visible="true"
       lpeversion="1"
       steps="1"
       threshold="0.00522388"
       smooth_angles="360"
       helper_size="0"
       simplify_individual_paths="false"
       simplify_just_coalesce="false" />
    <inkscape:path-effect
       effect="simplify"
       id="path-effect30963"
       is_visible="true"
       lpeversion="1"
       steps="1"
       threshold="0.00522388"
       smooth_angles="360"
       helper_size="0"
       simplify_individual_paths="false"
       simplify_just_coalesce="false" />
    <inkscape:path-effect
       effect="simplify"
       id="path-effect30233"
       is_visible="true"
       lpeversion="1"
       steps="1"
       threshold="0.00522388"
       smooth_angles="360"
       helper_size="0"
       simplify_individual_paths="false"
       simplify_just_coalesce="false" />
  </defs>
  <g
     inkscape:label="Ebene 1"
     inkscape:groupmode="layer"
     id="layer1"
     transform="translate(-55.376882,-106.02568)">
    <g
       id="g30989"
       transform="translate(-13.834513,-41.807686)">
      <g
         id="g29128"
         transform="matrix(0.77044278,0,0,0.83894124,-50.310638,9.3829848)">
        <g
           id="g27915"
           transform="translate(36.421921,-18.591181)">
          <path
             style="fill:#cccccc;fill-opacity:1;stroke-width:1.24384;stroke-linecap:round;stroke-linejoin:round"
             d="m 161.49519,243.06275 c 2.02398,-1.74164 4.40276,-4.1716 7.42442,-3.36322 6.2715,1.6778 10.85833,6.69943 15.03271,11.35948 6.10933,6.82013 9.61688,15.50656 11.58034,24.37441 1.73711,7.84556 -0.60773,17.46371 4.47297,23.68188 1.85504,2.27035 4.98571,2.82015 7.56205,3.96927 2.78542,1.24238 6.28996,2.76488 6.9297,6.15264 0.54777,2.90075 -2.0765,5.14561 -5.00878,4.00935 -5.69396,-2.20641 -10.15621,-6.65679 -14.43477,-10.90983 -1.92615,-1.91466 -2.54714,-4.4955 -3.07067,-7.11411 -0.79506,-3.97673 -0.72387,-8.2306 -2.26806,-11.96482 -4.45145,-10.7647 -9.11718,-21.85565 -16.98273,-30.52435 -2.21792,-2.44439 -4.5964,-5.87788 -8.12073,-5.837 -0.62675,0.007 -1.24447,0.2411 -1.72453,0.64025"
             id="path27866"
             sodipodi:nodetypes="cssssscc" />
          <g
             id="g27873"
             transform="translate(2.3235701,-2.4833315)">
            <path
               id="path26975"
               style="fill:#4d4d4d;fill-opacity:1;stroke-width:1.24384;stroke-linecap:round;stroke-linejoin:round"
               d="m 140.86592,236.20052 c -3.2148,-0.0294 -6.4704,0.53784 -9.46008,1.45739 -0.2154,0.0663 -0.42909,0.14086 -0.64323,0.21435 1.5294,0.91366 2.42577,2.61713 3.30002,4.13071 1.56434,2.70833 2.29169,5.83932 4.24442,8.31809 2.82943,3.59159 6.92044,6.04556 11.18186,7.63682 -1.66691,-0.25763 -3.30914,-0.69046 -4.8776,-1.31264 -2.62425,-1.04099 -5.2941,-2.71454 -6.42029,-5.42917 -0.98971,-2.38567 -2.96402,-4.08354 -4.38058,-6.1702 -0.71966,-1.06004 -0.82725,-2.37471 -1.57959,-3.38846 -0.75339,-1.01516 -2.25874,-1.05492 -3.3671,-1.62124 -0.38411,-0.19625 -0.86735,-0.47149 -1.17513,-0.82478 -3.10923,1.68012 -5.7577,4.2071 -7.06889,7.52656 0.10047,0.11431 0.20154,0.22462 0.30652,0.32092 1.18147,1.08382 2.30906,2.22126 3.33491,3.45252 1.20854,1.4506 2.5851,2.75141 4.1257,3.84305 3.78674,2.68323 7.97602,4.64934 12.05515,6.7991 -0.0688,0.40656 0.21147,1.52807 -0.56342,1.30463 -0.88612,-0.25551 -1.81028,-0.32208 -2.70508,-0.52111 -6.37855,-1.41879 -11.82975,-5.93594 -16.12787,-10.91502 -0.41091,-0.47602 -0.83555,-0.94166 -1.24958,-1.41551 -0.67989,3.00712 -1.01663,6.08172 -1.54404,9.12193 0.1157,0.0664 0.23309,0.134 0.34745,0.19773 5.15916,2.87511 10.15745,6.05494 15.57853,8.40555 0.0768,0.094 0.15016,0.19053 0.21866,0.29074 0.42793,0.62603 0.44102,1.58801 -0.43598,1.7007 -1.5121,0.1943 -3.04965,-0.0289 -4.40875,-0.65724 -3.25323,-1.50404 -6.35586,-3.31928 -9.3427,-5.29367 -0.85732,-0.56672 -1.71421,-1.15045 -2.52733,-1.78693 -0.13947,0.59286 -0.29148,1.18361 -0.46415,1.7703 -0.49835,1.69322 -0.7678,3.4289 -0.82903,5.17232 0.93002,0.0935 1.84782,0.31106 2.74197,0.57039 1.70719,0.49514 3.2434,1.45153 4.78235,2.3333 1.51105,0.86578 3.13408,1.52266 4.69717,2.29142 -0.008,0.59854 0.34269,1.23553 0.0637,1.81527 -0.31416,0.65291 -1.2048,0.63376 -1.84519,0.60796 -1.82533,-0.0737 -3.55692,-0.78872 -5.24382,-1.45246 -1.74044,-0.6848 -3.43566,-1.51016 -5.02181,-2.50885 0.17296,1.31715 0.46126,2.62518 0.86055,3.90834 0.40667,1.30683 0.76041,2.67255 1.11544,4.04817 0.58309,-0.1935 1.18882,-0.32815 1.79087,-0.41455 0.91482,-0.13129 1.83496,-0.17232 2.7574,-0.17124 1.761,0.002 3.53048,0.15776 5.29077,0.13243 -0.42164,0.57004 -1.0246,0.97216 -1.62989,1.32496 -1.75844,1.02493 -3.75236,1.58555 -5.74151,1.97973 -0.53973,0.10694 -1.08872,0.19584 -1.64062,0.25009 0.61765,2.19278 1.33891,4.34165 2.38514,6.27798 0.45473,-0.42237 0.94427,-0.80901 1.46757,-1.14324 1.7137,-1.09453 3.70681,-1.63256 5.58321,-2.3986 0.0434,-0.5709 0.20602,-1.57401 0.73648,-1.60399 -0.25385,0.52332 -0.14712,1.36057 -0.73647,1.60399 -0.0381,0.54715 -0.0526,1.09853 -0.28439,1.60276 -0.55284,1.20268 -1.58955,2.04099 -2.4113,3.03613 -0.36179,0.43813 -0.61541,0.94079 -0.76397,1.48203 -0.12594,0.45883 -0.34356,0.93543 -0.73043,1.22147 0.37738,0.35736 0.77751,0.69883 1.20934,1.0182 1.3826,1.02253 2.87572,1.74978 4.43826,2.25631 -0.0415,-0.32974 -0.0368,-0.66864 -0.0248,-0.9948 0.0339,-0.91963 0.21735,-1.85752 0.65262,-2.68009 0.66961,-1.26543 1.58864,-2.43337 1.89886,-3.85907 0.13575,0.15582 0.27742,0.30672 0.4172,0.4589 0.18153,0.19763 0.38596,0.39863 0.51043,0.63137 0.62612,1.17074 -0.39528,2.62573 -0.60098,3.9373 -0.16216,1.03396 -0.32433,2.06891 -0.52519,3.09587 2.74906,0.52008 5.6406,0.49768 8.48013,0.28396 -0.42217,-0.50871 -0.80826,-1.04373 -1.1369,-1.61877 -0.98408,-4.76915 -3.69396,-8.71885 -5.22839,-12.69888 -0.30205,-0.80091 -0.40396,-1.63951 -0.34946,-2.4836 0.0313,-0.48435 -0.0313,-1.9692 0.75324,-1.61877 1.28241,0.57283 0.9799,2.53267 1.64397,3.71862 0.70244,1.25446 1.81892,2.22375 2.7071,3.3515 2.11499,2.58965 2.43356,5.1849 4.14515,8.03285 0.52892,0.9162 1.03098,1.90416 1.31129,2.93633 0.24674,-0.0286 0.49621,-0.0566 0.7405,-0.0856 3.03429,-0.35985 6.08456,-0.54538 9.10659,-0.97385 -0.64857,-0.46901 -1.26576,-0.9846 -1.86733,-1.49804 -1.93312,-1.64992 -2.63716,-4.16859 -3.33625,-6.50343 -0.56236,-1.87822 -1.48697,-3.64062 -2.8238,-5.07808 -0.77474,-0.83306 -1.84304,-1.06808 -2.75673,-1.62555 -2.26963,-1.38479 -3.89468,-3.50963 -5.62278,-5.47045 l -0.23208,-1.06563 c 0.0596,-0.28453 0.1785,-0.39066 0.33269,-0.38929 0.46255,0.004 1.24172,0.97904 1.68422,1.03237 2.48416,0.29954 4.69057,1.9676 6.49742,3.7796 2.35819,2.36487 3.12141,5.72656 5.16602,8.29099 1.21872,1.52853 2.7736,2.68812 4.3343,3.81841 1.30792,0.94721 2.76177,2.17806 3.01295,3.85968 0.18216,-0.0467 0.3642,-0.0921 0.54598,-0.14229 2.79921,-0.77252 5.65371,-1.61636 8.44525,-2.62466 -3.53028,-2.54132 -5.91859,-6.30279 -8.63641,-9.64859 -4.00658,-4.9323 -9.79083,-8.0134 -15.11908,-11.38501 1.55076,0.28456 3.08327,0.67464 4.57711,1.17959 5.78173,1.95436 10.69842,5.72811 15.11841,9.82722 2.72407,2.52634 5.65441,4.93459 7.70408,8.07724 0.0792,0.12139 0.16083,0.25829 0.24079,0.401 2.47513,-1.0848 4.85264,-2.3415 7.03603,-3.85291 -2.30286,-0.85238 -4.20247,-2.5084 -5.80791,-4.33336 -2.40986,-2.73941 -5.14141,-5.35316 -8.55524,-6.76769 -5.81689,-2.41019 -10.81114,-6.26287 -15.90519,-9.85678 0.53516,0.14743 1.07377,0.28131 1.6138,0.40962 3.02875,0.71963 6.09525,1.38506 8.90604,2.76387 3.85845,2.96847 10.9314,5.58251 15.28207,7.93187 3.08709,1.68214 6.12815,3.54033 8.7236,5.92996 0.0606,0.0557 0.12235,0.123 0.18378,0.18418 0.20908,-0.21592 0.41536,-0.43535 0.61775,-0.65909 2.07145,-2.29 3.79541,-4.91605 5.10498,-7.73415 -0.54549,0.30767 -1.14461,0.45635 -1.80026,0.24208 -5.46585,-1.78627 -10.14951,-5.0532 -15.62481,-6.62231 -3.80492,-1.09043 -7.74532,-1.69758 -11.50649,-2.95544 -0.62059,-0.20754 -2.74654,-0.69697 -2.02697,-1.49743 0.29971,-0.3334 0.68245,-0.45195 1.11275,-0.44473 1.09966,0.0184 2.51019,0.86003 3.64344,1.04777 3.55908,0.58962 6.9874,2.07924 10.64661,1.99144 1.60234,-0.0385 3.17388,0.21649 4.74278,0.50633 4.23953,0.78321 8.46941,1.79075 12.7554,2.26554 0.37362,-1.48671 0.63747,-2.99884 0.77269,-4.52123 0.27603,-3.1077 -1.01153,-5.85426 -2.7735,-8.34026 -0.54684,0.25326 -1.18993,0.35811 -1.75867,0.43487 -1.79488,0.24224 -3.59846,0.36933 -5.3954,0.62275 -5.55527,0.78344 -11.17938,1.777 -16.79525,1.22086 -1.5675,-0.15523 -3.14922,-0.43163 -4.59321,-1.08535 3.52579,0.427 7.08596,-0.16516 10.45612,-1.22085 2.33475,-0.73136 4.66376,-1.47564 6.98035,-2.26555 1.66962,-0.5693 3.04326,-1.72975 4.58248,-2.56121 0.51405,-0.27768 1.02958,-0.60464 1.55745,-0.89932 -0.86909,-0.78638 -1.8299,-1.46907 -2.97673,-1.94462 -3.14128,-1.3026 -6.43496,-1.86608 -9.78337,-2.08384 -0.72473,1.49753 -1.94336,2.73969 -3.23764,3.77345 -1.50431,1.2015 -3.29205,2.02159 -4.73809,3.28744 -0.47437,0.41526 -0.9222,0.9531 -1.60843,1.00835 -0.49007,0.0395 -0.97492,-0.0763 -1.46421,-0.0764 0.81661,-1.35085 1.51555,-2.76768 2.29459,-4.13933 0.75652,-1.33209 2.10086,-2.14426 3.3074,-3.0158 0.47925,-0.34619 0.97841,-0.66487 1.49105,-0.9603 -3.6985,6e-5 -7.41931,0.24319 -11.03698,0.23222 -1.95396,-1.94097 -1.28672,-5.0075 -4.0385,-7.08799 -1.27969,-0.96751 -2.66494,-1.71386 -4.119,-2.26986 0.005,1.38975 0.29985,2.79835 0.69153,4.11346 1.06762,3.58444 2.34929,7.30756 4.98961,10.01324 0.74208,0.76045 2.308,1.23607 2.21343,2.30066 -0.0625,0.70391 -1.17536,0.72281 -1.75531,0.68804 -1.29851,-0.0778 -2.75811,-0.12575 -3.78095,-0.93997 -1.12101,-0.8924 -1.92289,-2.1156 -2.69166,-3.30593 -1.58193,-2.44927 -3.10978,-4.96183 -4.2129,-7.667 -0.5807,-1.42404 -0.41336,-3.03715 -0.0268,-4.48428 0.15742,-0.58933 0.38194,-1.1892 0.67476,-1.74936 -1.15963,-0.18554 -2.34052,-0.27867 -3.52673,-0.2895 z"
               sodipodi:nodetypes="sscsscsssssccssscsssccscsssscscsscscscscsscssccscccssscscsscsssccccssscccccssssccccssscccscsssccsscsccscscsssssssscscssscssscscssscssccscssssscsscss" />
            <path
               style="fill:#cccccc;fill-opacity:1;stroke-width:1.24384;stroke-linecap:round;stroke-linejoin:round"
               d="m 129.06266,285.36517 c 0.3069,-1.32561 -0.30424,-2.67749 0.3649,-4.01209 1.03501,-2.06434 2.46092,-3.88617 3.53691,-5.94104 2.74089,-5.23444 5.6403,-10.45619 9.63982,-14.85756 2.35445,-2.59101 4.55678,-5.53183 7.62354,-7.23794 3.44818,-1.9183 7.38531,-3.99061 9.00979,-7.5537 0.46098,-1.0111 2.52884,-3.05958 2.55065,-0.8197 0.0271,2.78816 -0.96479,5.5496 -2.68665,7.77526 -3.09577,4.00157 -11.11107,7.99001 -13.82922,12.2931 -3.50439,5.54779 -1.28098,7.81818 -6.53625,11.86335 -2.77028,2.13239 -7.54914,5.42797 -9.67349,8.49032 z"
               id="path27862"
               sodipodi:nodetypes="csssssssssc" />
          </g>
        </g>
        <g
           id="g28881"
           transform="matrix(0.96419942,0.24352676,-0.28875465,0.96419942,75.777205,-35.928777)">
          <path
             style="fill:#e6e6e6;fill-opacity:1;stroke-width:1.24384;stroke-linecap:round;stroke-linejoin:round"
             d="m 200.89466,176.3742 c -2.46036,-4.92904 -4.40869,-11.95073 -0.17889,-16.2804 5.06635,-5.18598 13.38534,-5.96056 19.97971,-3.97187 6.57194,1.98193 10.1696,8.25298 14.36292,13.18481 4.38543,5.15778 7.11382,11.51739 8.16889,18.20271 1.49484,9.47183 1.87612,19.06776 3.54759,28.53162 1.99219,11.27975 3.73956,22.63021 3.91811,34.12593 0.0657,4.2306 0.23102,9.03109 3.18077,12.11405 1.65438,1.72909 0.25782,6.40045 -1.39929,3.61424 -2.09645,-3.52489 -3.97684,-7.10747 -4.47643,-11.45921 -0.81634,-7.11085 -5.05507,-13.38756 -4.81582,-20.74184 0.28528,-8.76922 -2.38618,-17.21126 -4.55721,-25.5922 -1.97229,-7.61375 -3.75947,-15.7434 -8.62961,-22.00107 -2.4733,-3.17796 -3.5434,-7.54998 -5.24399,-11.31242 -2.6432,-5.84792 -7.70966,-9.85694 -13.47422,-13.12136 -3.17432,-1.79759 -7.57708,-0.6249 -8.58331,3.50887 -0.89068,3.65906 4.27796,10.4112 0.90304,10.99882 -0.89241,0.15538 -1.8017,0.13464 -2.70226,0.19932 z"
             id="path26731"
             inkscape:original-d="m 200.89466,176.3742 c -2.09873,-4.14993 -3.65357,-10.04988 -1.39192,-14.48708 3.53139,-6.92835 15.85171,-7.89147 22.50271,-5.32613 1.93946,0.74806 3.57764,2.07913 5.10371,3.40872 1.51572,1.32058 2.6699,2.95313 3.94377,4.47396 3.2069,3.82857 6.87469,8.08003 9.04749,12.56967 4.2501,8.78194 4.02363,20.93552 5.33569,30.46548 1.67506,12.16649 4.61808,24.37919 5.10371,36.6438 0.1997,5.04333 -0.14122,9.83711 1.62391,14.70013 0.10575,0.29134 3.44906,6.65831 3.01583,6.81745 -2.29706,0.8438 -2.39857,1.17558 -3.24782,-0.85218 -1.04138,-2.48652 -0.25355,-0.14119 -1.6239,-2.3435 -2.18345,-3.50905 -2.00855,-7.88519 -3.01583,-11.71749 -0.94663,-3.60153 -2.61505,-7.02191 -3.4798,-10.65227 -1.00912,-4.23648 -0.36154,-8.51734 -0.92795,-12.78272 -0.57145,-4.30333 -1.85966,-8.53912 -2.78384,-12.78272 -1.85427,-8.51434 -4.02683,-17.22662 -8.11954,-25.13935 -3.23043,-6.24563 -1.45012,-0.83815 -3.4798,-5.75222 -3.00887,-7.28481 -6.28317,-17.16853 -14.61517,-20.87845 -0.96271,-0.42866 -5.03446,-2.271 -6.9596,-1.91741 -8.3848,1.54004 -1.7,13.13554 -2.78384,15.12622 -0.21732,0.39916 -2.86663,0.36775 -3.24781,0.42609 z"
             inkscape:path-effect="#path-effect26733" />
          <path
             id="path26592"
             style="fill:#808080;fill-opacity:1;stroke-width:1.24384;stroke-linecap:round;stroke-linejoin:round"
             d="m 216.04002,167.6553 c -3.07877,0.52116 -5.97852,1.65961 -7.69005,4.31302 l -11.51015,3.94145 c -2.23946,1.32241 -4.56856,2.49132 -6.82125,3.79132 -0.99485,0.57413 -1.9414,1.20388 -2.84995,1.87639 2.16715,-0.48815 4.32797,-1.03059 6.52533,-1.35188 0.60137,-0.088 1.20496,-0.15894 1.81275,-0.20734 0.84491,-0.0673 1.79846,-0.30654 2.56489,0.14038 0.67806,0.39533 0.0802,1.20189 -0.28081,1.57634 -1.03664,1.07536 -2.15161,2.3668 -3.64297,2.58499 -2.46082,0.36004 -4.94167,0.60893 -7.42281,0.83109 -1.38576,0.12414 -2.76956,0.34442 -4.15733,0.46705 -1.82607,1.85319 -3.51342,3.84739 -5.15125,5.86477 -0.81235,1.00061 -1.47309,2.07714 -1.97904,3.2052 0.0398,-0.0484 0.0779,-0.0983 0.11881,-0.14581 l -1.1e-4,-6.1e-4 c 4.40765,-1.79611 8.71039,-3.99766 13.41963,-4.93773 0.11484,-0.0228 0.23015,-0.0437 0.34544,-0.0636 1.73041,-0.29195 3.51803,-0.21725 5.26884,-0.47035 0.66206,-0.0953 1.37594,0.50747 0.70804,1.10103 -1.07591,0.95615 -2.37193,1.65586 -3.7087,2.17851 -2.76845,1.08243 -5.6379,1.90287 -8.46465,2.83063 -0.73011,0.23963 -1.48213,0.38944 -2.27246,0.34144 -0.67585,-0.0408 -1.31492,0.21784 -1.96353,0.36058 -1.17988,0.25992 -2.37391,0.77411 -3.60268,0.55028 -0.21963,-0.04 -0.35003,-0.13082 -0.41674,-0.25097 -0.65526,2.06156 -0.82603,4.25103 -0.49363,6.43783 1.07097,-0.59037 2.16011,-1.15206 3.36758,-1.45737 5.18195,-1.31025 10.1722,-3.25692 15.41087,-4.3613 0.15591,-0.0333 0.31508,-0.0626 0.47618,-0.0887 1.12786,-0.18159 2.35599,-0.16817 3.32575,0.42432 0.76507,0.46743 -0.32092,1.32622 -0.77759,1.63071 -1.94496,1.29679 -4.2577,1.91461 -6.49923,2.54341 -2.29504,0.64382 -4.70153,0.91834 -6.94875,1.69847 -2.41198,0.83733 -4.66853,2.11743 -7.27225,2.46376 -0.21372,0.028 -0.41928,0.0246 -0.61124,-0.01 0.38508,2.20195 0.8192,4.39756 1.28009,6.5888 2.99103,-1.19812 5.57067,-3.29308 8.62875,-4.38328 2.15559,-0.76848 4.31352,-1.58567 6.57383,-1.99216 0.11181,-0.0203 0.22427,-0.0377 0.33655,-0.0527 1.68415,-0.22456 3.41368,0.10208 5.12757,0.15742 0.64993,0.021 1.33494,0.64649 0.56293,1.15908 -4.61725,3.06573 -10.06335,4.55502 -15.3837,5.99994 -1.23434,0.33522 -2.41065,0.81799 -3.59494,1.28953 -0.53034,0.21116 -1.11889,0.41588 -1.70317,0.36719 0.36912,1.67713 0.74635,3.35292 1.13533,5.02458 0.11463,0.49271 0.23872,0.98228 0.36968,1.47008 2.81404,-1.64398 5.52852,-3.48711 8.57592,-4.67495 1.00057,-0.39001 2.04729,-0.6661 3.11714,-0.83519 0.64194,-0.10135 1.29191,-0.16408 1.94522,-0.18977 0.46717,-0.0184 1.30552,0.14774 1.02898,0.84087 -0.63109,1.58178 -2.1974,2.50048 -3.69692,3.1474 -2.52571,1.08964 -5.26999,1.56462 -7.85098,2.50895 -0.91583,0.33509 -1.50659,1.25028 -2.41532,1.55365 0.86226,2.64831 1.95133,5.22039 3.22518,7.70707 0.002,-0.002 10e-4,-0.003 0.003,-0.006 l 0.0536,-0.12322 0.0577,-0.13448 c 3.80044,-2.33339 7.51685,-4.82826 11.60537,-6.67779 1.75768,-0.79513 3.50118,-1.65222 5.39539,-2.10529 0.68831,-0.1646 1.39767,-0.38934 2.11058,-0.49707 0.55449,-0.0838 1.11123,-0.0967 1.66183,0.0452 0.97671,0.25177 0.30971,1.29189 -0.10505,1.74842 -2.13613,2.3513 -4.82619,4.10236 -7.41994,5.90782 -1.12896,0.78585 -2.15123,1.70291 -3.10522,2.68732 -0.88314,0.91132 -2.03779,1.51707 -3.30647,1.75336 -1.70974,0.31847 -3.50312,0.0968 -5.18847,0.51914 -0.0153,0.003 -0.0299,0.004 -0.0451,0.006 1.57003,2.66994 3.33543,5.23418 5.2339,7.68176 0.4006,0.51646 0.83096,0.99441 1.28386,1.44046 0.008,-0.0251 0.0142,-0.0538 0.0225,-0.0772 l 0.003,-0.0823 c 2.40117,-2.67352 4.49703,-5.6622 7.28337,-7.95741 1.2991,-1.07013 2.61221,-2.13477 4.02825,-3.04689 1.31332,-0.84595 3.38014,-3.52621 4.4515,-3.71702 0.29997,-0.0535 0.52186,0.0882 0.62732,0.5201 0.11907,0.48768 -0.22883,1.26384 -0.51081,1.76497 -1.24829,2.21847 -3.09513,4.0108 -4.92366,5.74835 -2.29111,2.17717 -4.39319,4.59322 -6.97943,6.4181 -0.85455,0.60297 -1.76833,1.17439 -2.77225,1.51392 3.21375,2.53226 7.3346,3.67716 11.38817,3.96241 0.15324,-1.90782 -0.0166,-3.89882 0.68838,-5.68028 0.5021,-1.26888 1.45186,-2.29031 1.8841,-3.60403 0.50143,-1.52385 0.76682,-3.22366 1.90978,-4.43191 0.10483,-0.11083 0.22107,-0.16823 0.34137,-0.18586 0.36089,-0.0528 0.7582,0.2525 0.99149,0.5512 0.83871,1.074 1.11383,2.44952 1.14295,3.76473 0.0515,2.32733 -0.27461,4.68903 -1.19245,6.8108 -0.46302,1.07036 -1.123,2.14177 -2.08741,2.81843 5.26603,-0.19407 10.38458,-1.34112 15.39797,-2.85576 -0.49999,-0.18219 -0.88421,-0.81145 -1.25605,-1.1999 -0.80449,-0.84045 -1.43966,-1.81339 -2.00653,-2.81782 -1.61265,-2.85745 -2.94827,-5.87149 -3.9566,-8.98002 -0.42207,-1.30117 -0.81894,-2.67261 -0.67097,-4.03951 0.039,-0.36018 0.25039,-0.57696 0.49965,-0.62449 0.21991,-0.0421 0.4694,0.0478 0.65621,0.28826 0.90716,1.16774 1.87666,2.27265 2.66065,3.50992 0.82828,1.30718 1.23871,2.78693 1.74787,4.21833 1.06438,2.99235 2.50063,5.87868 4.29812,8.52802 -0.27603,0.21936 -0.52567,0.51678 -0.80692,0.75887 3.09335,-0.9708 6.14644,-2.06297 9.17121,-3.14296 -2.1655,-1.18816 -3.82276,-3.14662 -5.17949,-5.17533 -1.12791,-1.68653 -2.20668,-3.40341 -3.24544,-5.14411 -0.0952,-0.15944 -0.48336,-0.79427 -0.32349,-0.84383 0.0369,-0.0118 0.1028,0.008 0.20844,0.0721 0.90549,0.54787 1.61147,1.35903 2.39071,2.0644 0.93943,0.85038 2.00484,1.59297 3.25328,1.92032 1.48855,0.39029 3.08986,0.52924 4.42111,1.38608 0.89903,0.57865 1.33771,1.82942 0.8232,2.79663 -0.46729,0.87847 -1.48311,1.3859 -1.77203,2.36113 -0.0357,0.12046 -0.044,0.2461 -0.0386,0.3714 0.006,-0.002 0.0118,-0.005 0.0178,-0.007 6.39346,-2.28057 12.77865,-6.0381 16.6044,-11.7001 -3.34496,1.0059 -6.93558,0.93131 -10.42678,0.74802 -3.14636,-0.16517 -6.31695,-0.54336 -9.37475,-1.40737 -3.095,-0.87454 -5.4795,-3.19284 -8.23139,-4.76312 -1.17652,-0.67136 -1.50463,-2.1226 -1.35011,-3.34039 0.0587,-0.46284 0.32634,-0.66835 0.68085,-0.72688 0.59084,-0.0975 1.42307,0.21323 1.93094,0.42212 0.99444,0.40899 1.90402,0.91919 2.72757,1.59437 1.71575,1.40668 4.03173,1.82525 6.10332,2.5769 3.15723,1.14557 6.43215,2.11309 9.78102,2.35021 3.59402,0.25448 6.96472,-1.28523 10.46749,-1.95366 0.0679,-0.18552 0.13594,-0.37052 0.19873,-0.5592 1.5997,-4.80676 1.11621,-9.8181 -0.0751,-14.65834 -0.12659,0.34643 -0.28305,0.68022 -0.4695,0.99275 -0.95318,1.59766 -3.0523,1.64955 -4.75132,1.76015 -1.61663,0.10521 -3.20188,0.34398 -4.78368,0.63079 -5.65508,1.02546 -11.5306,0.017 -17.2733,-0.54828 -2.10896,-0.2076 -4.3354,-0.41535 -6.22291,-1.50835 -1.09893,-0.63637 -0.80074,-2.30905 0.32625,-2.50036 0.0364,-0.006 0.0737,-0.0105 0.11185,-0.0132 3.08783,-0.24376 6.18491,-0.34019 9.27879,-0.44673 4.39856,-0.1515 8.70541,-0.96632 13.0348,-1.58878 3.14095,-0.45157 6.17993,-1.29836 9.24899,-2.02937 -1.075,-3.94941 -1.29472,-8.1291 -3.30143,-11.76739 -0.12885,0.36503 -0.33341,0.7041 -0.61,0.97951 -1.53891,1.53238 -3.50337,2.55606 -5.46228,3.45739 -4.98372,2.29311 -10.69395,2.0671 -16.1271,2.31832 -2.63491,0.12183 -5.16224,0.83487 -7.79137,0.92059 -1.06921,0.0349 -2.56727,-0.49095 -1.78707,-1.70304 0.60604,-0.94152 1.68411,-0.99655 2.60516,-1.3013 4.04691,-1.33903 8.33225,-1.90292 12.48091,-2.92104 5.10403,-1.25263 10.47594,-1.87346 15.21612,-4.18814 -1.2963,-2.01703 -2.71127,-3.94765 -4.26271,-5.74318 -0.84384,-0.97661 -1.50453,-2.06977 -2.08778,-3.21252 -1.02151,1.14211 -2.32024,2.03041 -3.59015,2.8729 -5.22484,3.46631 -11.55303,4.66295 -17.57683,6.23243 -2.24098,0.58389 -4.40963,1.39626 -6.68114,1.86321 -0.80871,0.16619 -2.54157,0.58534 -2.66885,-0.64026 -0.10843,-1.04436 1.44934,-1.39685 2.29737,-1.89271 2.34861,-1.37326 5.01036,-2.16357 7.59057,-3.05707 6.61331,-2.29009 13.69445,-3.76287 19.53786,-7.71891 -1.01781,-2.31578 -1.98505,-4.66646 -3.6426,-6.58246 -0.98749,-1.14145 -2.11051,-2.14853 -3.32956,-2.99979 -0.19745,0.50637 -0.51899,1.00344 -0.79267,1.3557 -1.80458,2.32272 -4.76367,3.41997 -7.41097,4.66276 -4.42562,2.07762 -8.66353,4.49592 -13.11846,6.50898 -1.38455,0.62564 -2.7288,1.31822 -4.10886,1.94747 -0.52123,0.23766 -2.44327,0.87103 -1.85097,-0.28643 0.83423,-1.63022 2.55072,-2.60847 3.93267,-3.79041 6.12894,-5.24191 14.08484,-7.70367 20.99139,-11.78292 -2.28609,-1.10884 -4.7981,-1.69576 -7.36085,-1.60464 -1.75838,0.0625 -3.67002,0.15298 -5.51729,0.46569 z m -13.33472,14.06201 c 0.27582,-0.0323 0.52098,0.13834 0.68338,0.6626 0.87336,2.81925 0.45935,5.80143 0.49462,8.69172 0.0461,3.77479 1.93446,7.25546 3.12205,10.80443 1.35311,4.04362 1.96068,8.20997 2.69981,12.35519 0.32029,1.79567 0.87892,3.543 1.85421,5.10575 1.18809,1.90372 2.43271,4.24314 1.58107,6.48664 -0.5312,1.39933 -2.02402,0.049 -2.57924,-0.6079 -2.67887,-3.1695 -3.33251,-7.43502 -5.1221,-11.09155 -2.23335,-4.56318 -3.4886,-9.52752 -4.61652,-14.44606 -0.62012,-2.70418 -0.69811,-5.46008 -0.41435,-8.17631 0.28605,-2.73813 0.83695,-5.46875 0.60242,-8.24366 0.3344,-0.41821 1.08784,-1.46976 1.69465,-1.54085 z" />
        </g>
      </g>
      <g
         id="g30973"
         transform="matrix(-1,0,0,1,250.06115,-14.552597)">
        <path
           style="fill:#999999;fill-opacity:1;stroke-width:1;stroke-linecap:round;stroke-linejoin:round"
           d="m 82.251684,193.43687 c -0.495242,-3.03504 3.057444,-5.4919 5.77622,-4.3261 3.249172,1.39323 5.592427,4.25516 7.661998,7.00174 5.372318,7.12973 8.456878,15.80766 9.745988,24.58661 0.62141,4.23186 -0.0176,8.6 0.97613,12.76222 1.30094,5.44885 5.79316,9.31722 7.29168,14.75788 1.7199,6.24442 -0.66037,12.97425 -5.16278,17.61752 -1.10025,1.13467 -4.06563,3.46716 -4.43499,0.5723 -0.30167,-2.36437 2.92779,-1.99457 3.68299,-3.89996 0.81298,-2.05117 2.01927,-3.92824 2.44062,-6.17335 0.62108,-3.30937 1.24998,-6.84542 0.3382,-10.0713 -0.69434,-2.45657 -3.26421,-3.64278 -4.37044,-5.89772 -0.8996,-1.83375 -2.68242,-3.0605 -3.51191,-4.89744 -1.03323,-2.28813 -0.64976,-4.87137 -1.34988,-7.27708 -1.894065,-6.50827 -0.5911,-13.53334 -3.053149,-19.9371 -1.606457,-4.17838 -3.196048,-8.70836 -6.578624,-11.72373 -2.31164,-2.06069 -5.227683,-3.90274 -8.34257,-3.96112 -0.42099,-0.008 -0.854593,0.0448 -1.235867,0.23471"
           id="path30961"
           inkscape:path-effect="#path-effect30963"
           inkscape:original-d="m 82.251684,193.43687 c -0.04096,-1.04861 0.08743,-2.23594 0.884679,-3.03319 3.550584,-3.55059 7.082081,-0.3743 9.731491,2.40127 6.456921,6.7644 10.057106,15.48076 12.006376,24.5183 0.71012,3.29235 0.8821,6.50482 1.01107,9.85787 0.0878,2.28247 0.0308,4.46566 0.63191,6.6983 1.22773,4.56013 4.79722,7.68937 6.44553,12.00638 2.10304,5.50796 1.75722,11.21911 -1.39021,16.30341 -1.11719,1.80469 -3.8313,4.9422 -6.06638,5.68724 -1.09278,0.36425 -1.56455,-1.45119 -1.39022,-2.14852 0.35729,-1.42914 2.83201,-1.48477 3.53873,-2.78042 0.14686,-0.26925 0.12691,-0.605 0.25276,-0.88468 0.93203,-2.07117 0.99196,-1.33288 1.76937,-3.66511 1.22135,-3.66407 1.08001,-7.32923 1.01106,-11.1217 -0.0541,-2.97531 -2.35707,-3.54146 -4.04426,-6.19277 -0.38383,-0.60316 -1.76935,-2.9068 -2.27489,-3.41233 -3.32401,-3.32402 -1.66117,-4.63094 -3.03319,-9.47873 -1.351817,-4.77643 -1.04523,-9.66663 -1.642977,-14.53404 -0.569241,-4.63525 -4.159756,-12.75199 -7.203829,-16.30341 -1.308651,-1.52676 -3.110209,-2.7203 -4.928936,-3.53872 -1.491988,-0.6714 -4.020442,-1.71808 -5.434468,-1.01107"
           sodipodi:nodetypes="csssssssssssssscssssc" />
        <g
           id="g30967">
          <path
             id="path30122"
             style="fill:#4d4d4d;fill-opacity:1;stroke-width:1;stroke-linecap:round;stroke-linejoin:round"
             d="m 92.247083,189.30472 c -1.030026,0.0136 -2.02128,0.20803 -2.913518,0.73691 -1.650648,0.97852 -3.235674,2.49597 -5.32939,1.9172 -1.612109,-0.27667 -3.288859,-0.59224 -4.933032,-0.30851 0.04194,0.46299 0.137622,0.92046 0.305407,1.3596 0.277522,0.72636 0.655093,1.43886 1.212329,1.98128 0.503838,0.49044 1.191431,0.81825 1.545642,1.43867 0.21747,0.38091 0.222873,0.99989 -0.186551,1.23713 -0.493487,0.28595 -1.097797,0.23386 -1.636076,0.13953 -0.788695,-0.13822 -1.591845,-0.32399 -2.27273,-0.76946 -1.101387,-0.72059 -2.054572,-1.69342 -2.692342,-2.84686 -0.11964,-0.21637 -0.231122,-0.44813 -0.324528,-0.68781 -1.489975,0.92236 -2.872413,2.00396 -3.9672,3.42822 -0.121091,0.15753 -0.244845,0.31769 -0.366902,0.47542 0.261351,0.42904 0.577735,0.82304 0.964282,1.15962 1.325799,1.1544 3.039248,1.67466 4.594035,2.43292 1.238486,0.604 2.630085,0.73932 3.912939,1.21492 0.734,0.27212 1.343738,0.86903 1.558045,1.63814 0.171967,0.61716 0.345871,1.28686 0.177767,1.89859 -0.100156,0.36446 -0.631877,0.44734 -0.966866,0.45217 -1.080772,0.0156 -1.988003,-0.65546 -2.892847,-1.15393 -1.748927,-0.96346 -3.64571,-1.64727 -5.325256,-2.73937 -1.176989,-0.76532 -2.090105,-1.92692 -2.509408,-3.27939 -0.07897,-0.25472 -0.130006,-0.51409 -0.167432,-0.77566 -1.593553,2.05597 -3.188211,4.1519 -4.359423,6.4487 0.159822,-0.009 0.320019,-0.0148 0.48059,-0.0145 0.499154,8.8e-4 0.999696,0.0423 1.487248,0.0977 1.25742,0.14268 2.31843,0.87943 3.220475,1.70791 0.981825,0.90172 2.111833,1.65813 3.389458,2.06137 2.696404,0.85103 5.547386,0.55372 8.322489,0.56172 l 1.429887,0.1788 c -0.456863,0.45646 -0.934063,0.89983 -1.478463,1.25109 -0.449005,0.28971 -0.949816,0.50258 -1.491382,0.45578 -2.174124,-0.18796 -4.342478,-0.40796 -6.492627,-0.75395 -1.284547,-0.2067 -2.611969,-0.37772 -3.790466,-0.9679 -0.839983,-0.42066 -1.60483,-0.97474 -2.482536,-1.30122 -1.192083,-0.4434 -2.502387,-0.31163 -3.774963,-0.39532 -0.595371,1.8864 -1.017056,3.81589 -1.309998,5.76812 0.06384,-9.8e-4 0.127275,-0.006 0.191203,-0.005 0.439556,0.003 0.880218,0.0377 1.309998,0.0718 1.625608,0.12906 3.243998,0.32402 4.871537,0.41652 2.025013,0.11515 4.038067,0.42748 6.011519,0.88676 1.752251,0.40783 3.598042,-0.0726 5.397604,-0.0646 0.242205,0.54636 0.238162,1.24071 -0.223759,1.67225 -0.77491,0.72394 -1.901731,0.84043 -2.911451,0.9617 -3.362402,0.40383 -6.770516,0.34359 -10.156486,0.22324 -1.639148,-0.0583 -3.29853,-0.16578 -4.896342,-0.55759 -0.140519,1.78175 -0.198171,3.56966 -0.214973,5.34954 0.112092,-0.007 0.224539,-0.012 0.329695,-0.0258 1.613514,-0.21232 3.232097,-0.33978 4.84725,-0.51935 1.288174,-0.14322 2.578212,-0.15697 3.867464,-0.24547 2.959416,-0.20312 5.882609,-0.75497 8.822717,-1.13894 -0.314888,0.78441 -0.688802,1.56437 -1.259871,2.19728 -0.538305,0.59659 -1.28352,0.87297 -2.030367,1.0573 -2.552983,0.6301 -5.184116,0.86511 -7.796424,1.11983 -2.244228,0.21883 -4.500073,0.37552 -6.756693,0.38292 0.06395,1.83547 0.22567,3.68071 0.507979,5.50716 0.630443,-0.15674 1.285256,-0.23025 1.926497,-0.29611 1.098755,-0.11285 2.195588,-0.22809 3.281971,-0.42426 3.311008,-0.59787 6.683416,-0.82355 9.981819,-1.5012 l 0.03462,0.0667 c 0.18417,0.41579 0.652481,0.84716 0.444935,1.32963 -0.250188,0.58159 -0.959213,0.79945 -1.498617,1.09193 -1.330657,0.72152 -2.776721,1.21602 -4.220414,1.67328 -3.008001,0.95272 -6.209161,1.43894 -9.362736,1.09709 0.499723,2.12869 1.184097,4.20746 2.083594,6.19032 0.0062,-0.004 0.01239,-0.008 0.0186,-0.0114 1.804678,-1.05182 3.726422,-1.89029 5.601725,-2.81068 2.184225,-1.07201 4.59891,-1.58114 6.898287,-2.37143 l 0.894003,-0.53589 c 0.0075,1.38419 -0.437607,2.86035 -1.551844,3.75481 -1.098389,0.88174 -2.39722,1.47576 -3.657141,2.09807 -2.020634,0.99805 -4.13019,1.85065 -6.329846,2.36833 -0.174891,0.0412 -0.352964,0.0762 -0.532267,0.10748 0.689222,1.182 1.466874,2.31924 2.34611,3.3967 1.029123,1.26112 2.229096,2.35108 3.547587,3.27266 0.536495,-0.70211 1.205795,-1.30884 1.861385,-1.8991 0.477952,-0.43033 1.019058,-0.77391 1.578198,-1.08521 1.860179,-1.03565 3.731291,-2.05265 5.597591,-3.07733 -0.228655,1.13998 -0.222281,2.40828 -0.925008,3.39204 -0.278021,0.3892 -0.730697,0.53035 -1.098124,0.79272 -0.752655,0.53745 -1.206216,1.39602 -1.771468,2.12235 -0.49341,0.63401 -1.047436,1.24698 -1.70894,1.70377 1.685887,0.71185 3.477491,1.19805 5.309237,1.44746 0.535693,0.0729 1.070666,0.11899 1.605587,0.14572 0.04821,-0.42085 0.09143,-0.84197 0.148311,-1.26193 0.252625,-1.86517 1.04939,-3.61387 1.300179,-5.48236 0.240014,0.1918 0.456061,0.41387 0.638204,0.66146 0.638264,0.86761 0.796732,1.99342 0.679545,3.04064 -0.119298,1.06609 -0.458035,2.09111 -0.91674,3.05925 2.390523,-0.063 4.775922,-0.42004 7.162354,-0.62529 -0.489277,-0.70043 -0.970342,-1.40667 -1.415418,-2.1363 -0.799053,-1.30992 -1.262197,-2.77648 -1.858801,-4.17856 0.120932,-0.0606 0.232195,-0.1377 0.348299,-0.2067 0.153782,-0.0913 0.325321,-0.14602 0.494544,-0.14263 0.101531,0.002 0.202223,0.0248 0.298173,0.0734 0.703876,0.35644 1.345403,0.81483 1.960603,1.30018 1.123412,0.88629 2.160589,1.8887 3.078366,2.98896 0.257058,0.30818 0.533967,0.63743 0.620117,1.04025 0.07977,0.373 -0.06797,0.74149 -0.248047,1.08676 2.024667,-0.0673 4.088475,-0.12888 6.07921,-0.48835 -0.44889,-0.26737 -0.87572,-0.57601 -1.28312,-0.88573 -1.343931,-1.02168 -2.408118,-2.341 -3.609599,-3.514 -1.38967,-1.35672 -3.067882,-2.34821 -4.803841,-3.18482 -1.517771,-0.73146 -3.049138,-1.44896 -4.491716,-2.32234 -1.212904,-0.7343 -2.160467,-1.83305 -3.268534,-2.71559 l 0.103869,-0.0248 c 0.163964,-0.0519 0.326341,-0.0765 0.487309,-0.0816 0.697527,-0.0222 1.370068,0.33048 2.042769,0.49868 1.586167,0.39661 3.271599,0.29473 4.816761,0.88264 0.676106,0.25725 1.166544,0.73265 1.778703,1.06298 1.953792,1.0543 3.830961,2.2444 5.660119,3.50211 1.29217,0.88849 2.55685,1.82743 3.93619,2.57866 1.08041,0.58842 2.32887,1.18762 2.85512,2.37711 0.0533,0.12046 0.0852,0.24325 0.10646,0.36639 0.24744,-0.13572 0.49163,-0.28163 0.73277,-0.43822 1.6188,-1.05118 2.02374,-2.80758 2.38176,-4.57646 -0.34093,-0.0725 -0.67762,-0.16222 -1.00148,-0.25425 -2.94144,-0.83584 -5.07355,-3.255 -7.68429,-4.7594 -2.038085,-1.17442 -4.361936,-1.51692 -6.558252,-2.22519 -3.002625,-0.96829 -5.61715,-2.82687 -8.406722,-4.27054 0.974034,-2.2e-4 1.947867,-0.0828 2.921786,-0.0853 0.324638,-8.4e-4 0.649477,0.007 0.9741,0.03 2.970862,0.21074 5.884245,0.9366 8.780343,1.62212 3.658805,0.86606 7.314805,1.97072 10.612265,3.81992 0.57678,0.32345 1.15936,0.69185 1.68724,1.12086 0.67751,-3.11166 0.72484,-6.33526 1.0418,-9.51156 -1.22613,0.29359 -2.46286,0.51007 -3.70882,0.65267 -1.72365,0.19725 -3.47706,0.33241 -5.20899,0.13126 -3.797256,-0.44102 -7.574343,-1.04634 -11.372425,-1.48466 -2.112721,-0.24382 -4.189554,-0.6752 -6.2637,-1.12086 H 84.36177 c 0.200168,-0.74565 0.538259,-1.54033 1.210779,-1.97611 0.714929,-0.46322 1.656587,-0.36534 2.491837,-0.40824 0.259974,-0.0134 0.51925,-0.0202 0.778247,-0.0212 3.884949,-0.0146 7.665464,1.29542 11.506787,1.83503 1.93826,0.27227 3.91232,0.14506 5.86579,0.27182 1.86762,0.12118 3.76402,0.18504 5.59294,0.60875 0.0655,-0.48371 0.13793,-0.96623 0.22635,-1.44591 0.52308,-2.83808 1.23417,-5.63979 1.94355,-8.4429 -0.007,0.0137 -0.01,0.0262 -0.0176,0.0403 -0.61237,1.12428 -1.78423,1.82088 -2.77658,2.60553 -0.79724,0.63038 -1.68722,1.14458 -2.67632,1.40094 -2.95772,0.7666 -6.0435,0.79436 -9.070245,0.62219 -4.589778,-0.26108 -9.003054,-1.61921 -13.466878,-2.59726 0.157274,-0.21052 0.353967,-0.39396 0.585494,-0.52038 0.999811,-0.54593 2.147759,-0.0162 3.155363,0.27699 1.123199,0.32674 2.268801,0.28532 3.405994,0.22892 3.041715,-0.15075 6.015249,-0.83992 8.958622,-1.57355 3.01617,-0.75175 6.10472,-1.41954 9.22321,-1.42161 0.4455,-3e-4 0.89183,0.0128 1.33842,0.0413 0.44168,0.0283 1.39306,0.12703 1.40611,0.63407 0.39056,-1.54398 0.77593,-3.08938 1.13017,-4.64106 -0.79797,0.079 -1.63348,0.0219 -2.42414,0.0279 -2.0078,0.0153 -4.01357,-0.0238 -6.01927,0.062 -6.09581,0.26064 -12.177278,0.70068 -18.2578,1.16634 v -5.2e-4 c 0.689632,-0.661 1.618698,-0.98814 2.514575,-1.26245 3.32184,-1.01712 6.84957,-1.02306 10.297045,-1.25419 2.41954,-0.16222 4.80273,-0.57012 7.19181,-0.94103 2.31729,-0.35976 4.65441,-0.75368 7.00474,-0.76946 0.1071,-7.2e-4 0.21425,6.7e-4 0.32142,0.002 0.32521,-1.70506 0.58449,-3.42334 0.73949,-5.16247 -0.61261,0.5229 -1.43524,0.84479 -2.19573,1.0635 -2.06043,0.59255 -4.1892,0.67907 -6.30452,0.73277 -3.17496,0.0806 -6.33948,0.4027 -9.508979,0.60513 -2.604558,0.16635 -5.1763,0.60674 -7.736479,1.08882 l -1.965771,0.3576 c 0.40898,-0.61666 0.925277,-1.17063 1.552877,-1.56838 1.839138,-1.16558 4.131782,-0.82562 6.128824,-1.4981 0.680927,-0.22929 1.354393,-0.43083 2.05879,-0.54725 4.244168,-0.70146 8.361758,-1.99954 12.598708,-2.73575 1.17926,-0.20493 2.38448,-0.43476 3.58686,-0.42168 0.4008,0.004 0.80134,0.0356 1.20045,0.10387 0.2113,0.0361 0.42885,0.11504 0.6289,0.22634 -0.30782,-2.42763 -1.79065,-4.57347 -3.62097,-6.19393 -1.20702,1.09847 -2.8749,1.43813 -4.33875,2.0686 -3.92906,1.69223 -8.04317,3.07994 -12.312942,3.51142 -1.800203,0.18192 -3.64116,0.50007 -5.43171,0.17001 -0.690705,-0.12732 -1.709249,-0.2505 -1.869653,-1.02422 -0.168531,-0.81295 0.50926,-1.47996 1.051615,-1.98231 0.178584,-0.16541 0.363944,-0.32335 0.553972,-0.47543 2.007788,-0.85337 3.916489,-1.97124 6.003768,-2.60604 3.059518,-0.93049 6.14763,-1.7917 9.13381,-2.9378 0.5164,-0.19821 1.03724,-0.39576 1.56734,-0.56069 -3.0968,-1.6355 -6.464,-2.761 -9.879495,-3.32538 -0.223936,-0.037 -0.4547,-0.0812 -0.684196,-0.12402 -1.259052,1.10556 -2.851157,1.7669 -4.253487,2.67115 -0.692178,0.44633 -1.360365,0.9439 -1.889807,1.58957 -0.45571,0.55575 -0.906328,1.11492 -1.425753,1.62264 -0.269737,0.26366 -0.572785,0.005 -0.645955,-0.32401 -0.06042,-0.27227 -0.06921,-0.55311 -0.0708,-0.83096 0.108918,-0.52773 0.05634,-1.11894 0.340031,-1.5844 0.283034,-0.46438 0.71551,-0.81066 1.102258,-1.18546 0.844031,-0.81795 1.56787,-1.75655 2.420524,-2.56418 -0.02933,9e-5 -0.0591,-10e-4 -0.08837,-10e-4 z" />
          <path
             style="fill:#999999;fill-opacity:1;stroke-width:1;stroke-linecap:round;stroke-linejoin:round"
             d="m 83.131713,190.52887 c -0.486744,6.85998 2.798725,13.56223 1.48281,20.38949 -0.496937,2.57822 -1.099906,5.13912 -1.262561,7.77286 -0.178786,2.89494 -0.637714,5.75341 -1.210895,8.6016 -0.456829,2.27003 -0.937711,4.65446 -0.125962,6.94927 0.637823,1.80312 0.345053,3.71006 0.197518,5.55419 -0.104704,1.30876 1.260502,2.44884 0.586243,3.67395 -0.325608,0.59162 0.05267,2.19589 0.388794,0.77721 0.718626,-3.03312 0.308125,-6.16248 0.239385,-9.23927 -0.10118,-4.52877 -0.292937,-9.13092 0.777064,-13.55858 0.488379,-2.02091 0.976132,-4.05135 0.909511,-6.16058 -0.0809,-2.56129 -0.249012,-5.16963 0.569984,-7.65903 0.793169,-2.4109 0.167518,-4.94944 -0.653893,-7.24532 -1.143362,-3.19575 -0.105137,-6.85852 -1.897998,-9.85579 z"
             id="path30231"
             inkscape:path-effect="#path-effect30233"
             inkscape:original-d="m 83.131713,190.52887 c -0.461102,6.59264 2.335798,12.93701 1.608593,19.48184 -0.216405,1.94766 -0.8006,3.81688 -1.072396,5.71944 -0.342749,2.39925 -0.410747,4.89458 -0.714928,7.32804 -0.447971,3.58376 -2.095428,7.9992 -1.186076,10.44052 1.544533,4.14657 -0.602999,5.26802 1.198776,8.87157 0.103352,0.2067 -0.59971,2.49327 -0.191434,2.49327 0.678156,0 0.816274,-3.908 0.801666,-4.25891 -0.164426,-3.94979 -0.144696,-6.27328 -0.200415,-9.63885 -0.0512,-3.09274 0.230409,-6.5252 0.82861,-9.5162 0.311471,-1.55736 0.813007,-2.85519 0.893662,-4.46831 0.112014,-2.24028 -0.22334,-4.55844 0,-6.79184 0.141052,-1.41053 0.751986,-2.69407 0.893662,-4.11084 0.259834,-2.59834 -0.678002,-4.35606 -1.251127,-6.79184 -0.721934,-3.06822 0.02402,-6.03688 -1.608593,-8.75789 z"
             sodipodi:nodetypes="csssssssssssssc" />
        </g>
      </g>
    </g>
  </g>
</svg>
