<?xml version="1.0" encoding="UTF-8" standalone="no"?>
<!-- Created with Inkscape (http://www.inkscape.org/) -->

<svg
   width="102.35687mm"
   height="80.18853mm"
   viewBox="0 0 102.35687 80.188531"
   version="1.1"
   id="svg5"
   inkscape:version="1.2.1 (9c6d41e4, 2022-07-14)"
   sodipodi:docname="hut-square1.svg"
   xmlns:inkscape="http://www.inkscape.org/namespaces/inkscape"
   xmlns:sodipodi="http://sodipodi.sourceforge.net/DTD/sodipodi-0.dtd"
   xmlns="http://www.w3.org/2000/svg"
   xmlns:svg="http://www.w3.org/2000/svg">
  <sodipodi:namedview
     id="namedview7"
     pagecolor="#ffffff"
     bordercolor="#000000"
     borderopacity="0.25"
     inkscape:showpageshadow="2"
     inkscape:pageopacity="0"
     inkscape:pagecheckerboard="true"
     inkscape:deskcolor="#d1d1d1"
     inkscape:document-units="mm"
     showgrid="false"
     inkscape:zoom="1.4142136"
     inkscape:cx="200.46477"
     inkscape:cy="125.51145"
     inkscape:window-width="2560"
     inkscape:window-height="1395"
     inkscape:window-x="0"
     inkscape:window-y="23"
     inkscape:window-maximized="1"
     inkscape:current-layer="g13050-8-9-5"
     showguides="true">
    <sodipodi:guide
       position="-349.89674,-95.185408"
       orientation="1,0"
       id="guide2923"
       inkscape:locked="false" />
    <sodipodi:guide
       position="-146.97698,-150.94516"
       orientation="0,-1"
       id="guide8011"
       inkscape:locked="false" />
    <sodipodi:guide
       position="113.04382,-45.839989"
       orientation="0,-1"
       id="guide11504"
       inkscape:locked="false" />
    <sodipodi:guide
       position="89.446923,-55.419138"
       orientation="-0.00080638876,-0.99999967"
       id="guide13038"
       inkscape:locked="false" />
    <sodipodi:guide
       position="79.157054,-11.359769"
       orientation="0,-1"
       id="guide13636"
       inkscape:locked="false" />
    <sodipodi:guide
       position="211.61582,0.426821"
       orientation="0,-1"
       id="guide13711"
       inkscape:locked="false" />
  </sodipodi:namedview>
  <defs
     id="defs2" />
  <g
     inkscape:label="Ebene 1"
     inkscape:groupmode="layer"
     id="layer1"
     transform="translate(-344.5575,80.824632)">
    <g
       id="g14005"
       transform="translate(9.3544335,-11.22532)"
       inkscape:export-filename="../../gut-square1.svg"
       inkscape:export-xdpi="96"
       inkscape:export-ydpi="96"
       style="stroke-width:1.1;stroke-dasharray:none">
      <g
         id="g13050-8-9-5"
         transform="translate(-31.408729,-45.150305)"
         style="stroke-width:1.1;stroke-dasharray:none">
        <rect
           style="fill:#ff778a;stroke:#ffaab6;stroke-width:0.7;stroke-linecap:round;stroke-linejoin:round;stroke-dasharray:none;stroke-opacity:1;fill-opacity:1"
           id="rect12802-5-6-8"
           width="50"
           height="50"
           x="-297.93033"
           y="-325.71655"
           transform="rotate(134.81991)" />
        <rect
           style="fill:#ffaab6;stroke:none;stroke-width:0.5;stroke-linecap:round;stroke-linejoin:round;stroke-dasharray:none;stroke-opacity:1;fill-opacity:1"
           id="rect13040-6-1-5"
           width="3.0869629"
           height="5.3320274"
           x="427.36279"
           y="-24.449007" />
        <path
           style="fill:#ff778a;fill-opacity:1;stroke:#ffaab6;stroke-width:0.7;stroke-linecap:round;stroke-linejoin:round;stroke-dasharray:none;stroke-opacity:1"
           d="m 405.66497,-16.973469 27.68984,-4.768407 35.46388,35.731539 -27.74855,4.288325 z"
           id="path12880-2-33-55"
           sodipodi:nodetypes="ccccc" />
        <path
           style="fill:#d62d26;stroke:#ffaab6;stroke-width:0.7;stroke-linecap:round;stroke-linejoin:round;stroke-dasharray:none;stroke-opacity:1;fill-opacity:1"
           d="m 405.83902,53.663262 c 0.88987,-1.779751 35.16901,-35.329568 35.16901,-35.329568 l 27.79962,-4.329729 -32.96364,36.071548 z"
           id="path12882-7-5-2"
           sodipodi:nodetypes="ccccc" />
        <path
           style="fill:#6b67ea;stroke:#ffaab6;stroke-width:0.7;stroke-linecap:round;stroke-linejoin:round;stroke-dasharray:none;stroke-opacity:1;fill-opacity:1"
           d="M 370.46895,18.518665 441.08298,18.31204"
           id="path12938-2-1-4"
           sodipodi:nodetypes="cc" />
        <path
           style="fill:#ffaab6;fill-opacity:1;stroke:none;stroke-width:0.7;stroke-linecap:round;stroke-linejoin:round;stroke-dasharray:none;stroke-opacity:1"
           d="m 378.43372,15.508212 27.11979,-26.855208 26.52448,26.789062 z"
           id="path13389-7"
           sodipodi:nodetypes="cccc" />
      </g>
      <path
         id="path13968"
         style="fill:#ffaab6;fill-opacity:1;stroke:none;stroke-width:1.1;stroke-linecap:round;stroke-linejoin:round;stroke-dasharray:none;stroke-opacity:1"
         d="m 362.53671,-32.494026 c -2.69671,3.571246 -4.3042,8.10053 -7.30653,11.405303 -2.26548,2.493691 -4.54428,4.990654 -6.40633,7.936787 -2.31766,3.6670068 -4.96533,7.0139153 -7.24969,10.7408219 -1.02695,1.67545978 -1.94323,3.4366904 -2.99103,5.1042557 -1.01663,1.6179567 -2.1517,3.1635248 -2.95331,4.9484425 -0.2316,0.5156958 -0.89066,2.7618079 0.11472,1.6181563 2.91663,-3.3177634 5.45999,-7.0496662 8.19537,-10.5680339 0.25879,-0.332873 0.51401,-0.6693876 0.76946,-1.0058154 3.53751,2.19708632 7.08289,4.4138758 10.84895,6.0282227 -0.0303,0.1003454 -0.061,0.200644 -0.0904,0.3013202 -0.50272,1.7209656 -1.25923,3.7572128 -0.51057,5.4625664 0.62848,1.4315936 2.41587,1.4293556 3.37189,0.2837373 2.90534,-3.4815085 3.68849,-8.4415965 5.44515,-12.6942506 3.03942,-6.0763988 4.91849,-10.2869461 6.06423,-16.4974321 0.55465,-2.569757 1.1572,-5.131406 1.56941,-7.737322 0.24622,-1.556553 0.27626,-3.27058 -0.45269,-4.667734 -2.14788,4.597066 -4.63774,8.974197 -6.81095,13.555165 -0.21371,-0.172325 -0.44393,-0.319449 -0.67076,-0.45289 -1.3538,-0.79642 -2.81134,-1.304665 -4.24367,-1.865517 -0.38887,-0.152271 -0.78097,-0.297183 -1.17047,-0.450465 0.0203,-0.04388 0.0414,-0.0869 0.0615,-0.130956 1.66685,-3.664191 2.83587,-7.601479 4.41575,-11.314362 z m -5.29839,13.079238 c 1.25426,0.639757 2.50073,1.301393 3.77393,1.886737 0.76706,0.35265 1.53706,0.74197 2.33888,0.963376 -0.66849,1.487608 -1.2963,3.001724 -1.86087,4.556179 -0.29914,0.823648 -0.56728,1.665353 -0.82941,2.510598 -0.002,-0.00223 -0.003,-0.00446 -0.005,-0.00669 -1.36041,-1.778539 -2.76393,-3.517799 -4.27777,-5.118805 -0.434,-0.458993 -0.9341,-0.825005 -1.46348,-1.114946 0.8361,-1.169991 1.62245,-2.38719 2.32389,-3.67647 z m -4.67103,6.735142 c 2.39565,1.86095 4.74786,3.8115629 7.31842,5.3079648 0.0318,0.018537 0.064,0.036065 0.0961,0.053956 -0.35011,1.0937975 -0.72503,2.1728761 -1.1777,3.2053928 -0.44134,-0.3994333 -0.89543,-0.7783246 -1.36219,-1.1331344 -1.39394,-1.0595949 -2.79466,-2.138631 -4.31705,-2.9168042 -1.03939,-0.531289 -2.20226,-0.6599396 -3.26854,-1.0882692 0.69876,-0.9213888 1.40756,-1.8319558 2.13631,-2.7209758 0.19239,-0.234699 0.38342,-0.471598 0.57464,-0.708133 z m -3.45715,4.4215856 c 2.4986,1.8606221 4.94609,3.821346 7.51737,5.5401705 0.37612,0.2514245 0.75124,0.5192857 1.13016,0.780279 -0.53871,1.13542328 -1.03537,2.29909902 -1.47485,3.490343 -2.26493,-1.45003397 -4.56485,-2.827698 -6.93136,-4.0305367 -1.10042,-0.5593173 -2.20054,-1.1572534 -3.35173,-1.5575278 1.03917,-1.4051478 2.0667,-2.8228985 3.11041,-4.222728 z"
         sodipodi:nodetypes="sssssssscccssccsccssccsscscsccscccssccsscssscsccscc" />
    </g>
  </g>
</svg>
