<?xml version="1.0" encoding="UTF-8" standalone="no"?>
<!-- Created with Inkscape (http://www.inkscape.org/) -->

<svg
   width="99.184387mm"
   height="82.06356mm"
   viewBox="0 0 99.184385 82.063561"
   version="1.1"
   id="svg5"
   inkscape:version="1.2.1 (9c6d41e4, 2022-07-14)"
   sodipodi:docname="hut-square15.svg"
   xmlns:inkscape="http://www.inkscape.org/namespaces/inkscape"
   xmlns:sodipodi="http://sodipodi.sourceforge.net/DTD/sodipodi-0.dtd"
   xmlns="http://www.w3.org/2000/svg"
   xmlns:svg="http://www.w3.org/2000/svg">
  <sodipodi:namedview
     id="namedview7"
     pagecolor="#12bb9d"
     bordercolor="#000000"
     borderopacity="0.25"
     inkscape:showpageshadow="2"
     inkscape:pageopacity="0"
     inkscape:pagecheckerboard="false"
     inkscape:deskcolor="#d1d1d1"
     inkscape:document-units="mm"
     showgrid="false"
     inkscape:zoom="1.9276236"
     inkscape:cx="144.99719"
     inkscape:cy="231.11359"
     inkscape:window-width="2560"
     inkscape:window-height="1395"
     inkscape:window-x="0"
     inkscape:window-y="23"
     inkscape:window-maximized="1"
     inkscape:current-layer="g13050"
     showguides="true"
     inkscape:lockguides="false">
    <sodipodi:guide
       position="-284.02418,-19.938659"
       orientation="1,0"
       id="guide2923"
       inkscape:locked="false" />
    <sodipodi:guide
       position="-81.104424,-75.698409"
       orientation="0,-1"
       id="guide8011"
       inkscape:locked="false" />
  </sodipodi:namedview>
  <defs
     id="defs2" />
  <g
     inkscape:label="Ebene 1"
     inkscape:groupmode="layer"
     id="layer1"
     transform="translate(-278.68493,7.4529116)">
    <g
       id="g13050"
       transform="translate(-91.299271,20.018488)">
      <path
         id="rect2029"
         style="fill:#ff778a;fill-opacity:1;stroke:none;stroke-width:0.86432"
         d="m 351.50185,-154.02738 2.2e-4,28.92559 2.93697,5.7637 10.51399,-5.35755 -7e-5,-29.33165 z"
         transform="rotate(27.001738)" />
      <rect
         style="fill:#ffaab6;fill-opacity:1;stroke:#ff778a;stroke-width:0.7;stroke-linecap:round;stroke-linejoin:round;stroke-dasharray:none;stroke-opacity:1"
         id="rect12802"
         width="50"
         height="50"
         x="-297.93033"
         y="-325.71655"
         transform="rotate(134.81991)" />
      <path
         style="fill:#d62d26;fill-opacity:1;stroke:#ffaab6;stroke-width:0.7;stroke-linecap:round;stroke-linejoin:round;stroke-dasharray:none;stroke-opacity:1"
         d="m 405.87895,53.751294 c 0.88987,-1.779751 35.12908,-35.4176 35.12908,-35.4176 l 27.79962,-4.329729 -32.96364,36.071548 z"
         id="path12882"
         sodipodi:nodetypes="ccccc" />
      <path
         id="rect2029-1"
         style="fill:#d62d26;fill-opacity:1;stroke:none;stroke-width:0.851838"
         d="m 392.6898,221.64635 -13.45084,-2.6e-4 -3e-4,25.08261 13.45134,6.60423 z"
         transform="rotate(-26.149731)" />
      <path
         id="path12880"
         style="fill:#ff778a;fill-opacity:1;stroke:#ff778a;stroke-width:0.700296;stroke-linecap:round;stroke-linejoin:round;stroke-dasharray:none;stroke-opacity:1"
         d="m 419.5605,-27.116544 a 8.336883,7.8597182 61.580067 0 0 -2.312,0.447001 8.336883,7.8597182 61.580067 0 0 -4.91495,8.533846 l -6.80061,1.166337 35.53736,35.281567 27.74818,-4.292244 -35.46347,-35.761642 -5.48287,0.940511 a 8.336883,7.8597182 61.580067 0 0 -0.2558,-0.778247 8.336883,7.8597182 61.580067 0 0 -8.05584,-5.537129 z" />
      <path
         style="fill:#d62d26;fill-opacity:1;stroke:none;stroke-width:0.7;stroke-opacity:1"
         id="path2344"
         d="m 403.74903,-5.4254791 c 0.0493,0.3383328 0.0685,0.6824202 0.14778,1.0149983 0.32461,1.3615247 0.95423,3.0446911 1.36666,4.33088357 0.60704,1.89313293 1.38792,4.37989203 1.77552,6.31844383 0.235,1.1753295 0.35284,2.3710741 0.52926,3.5566138 0.0485,1.2457116 0.14754,2.4904836 0.14555,3.7371386 -0.004,2.584636 -0.24088,5.296959 -0.5528,7.858996 -0.27718,2.2767 -0.65174,4.478512 -1.11461,6.721546 -0.17502,0.848133 -0.38533,1.6886 -0.57799,2.532899 0,0 2.9246,1.56356 2.9246,1.56356 v 0 c 0.37849,-2.19678 0.62502,-3.530134 0.93748,-5.797121 0.1674,-1.214491 0.31432,-2.431793 0.4546,-3.649713 0.321,-2.786906 0.58755,-5.060614 0.62748,-7.866015 0.0178,-1.249844 -0.0639,-2.499124 -0.0958,-3.748688 -0.1559,-1.1871454 -0.25447,-2.3832393 -0.46771,-3.5614342 -0.303,-1.6741298 -1.11505,-4.5664013 -1.57414,-6.2428556 -0.41954,-1.53202157 -0.77281,-2.5660222 -1.0094,-4.0821463 -0.0417,-0.2670369 -0.0297,-0.5397188 -0.0446,-0.8095785 0,0 -3.47189,-1.8775275 -3.47189,-1.8775275 z" />
      <path
         style="fill:#d62d26;fill-opacity:1;stroke:none;stroke-width:0.7;stroke-opacity:1"
         id="path2346"
         d="m 391.43909,9.1639741 c 0.0335,0.352724 0.0355,0.7098824 0.10049,1.0581769 0.13218,0.708052 0.30886,1.407425 0.48994,2.104575 0.15318,0.589773 1.57218,5.571019 1.67601,5.983103 0.74998,2.976435 0.80944,3.678351 1.32443,6.696866 0.13363,1.10286 0.28567,2.203645 0.4009,3.308583 0.10324,0.990076 0.17279,1.983382 0.2544,2.975472 0.20566,2.499926 0.37432,5.000172 0.49247,7.505636 0,0 3.29435,1.642708 3.29435,1.642708 v 0 c -0.58646,-4.684839 -1.06779,-9.381259 -1.64704,-14.066845 -0.51613,-3.065931 -0.57029,-3.677531 -1.27487,-6.705489 -0.59937,-2.575822 -1.44234,-5.113094 -1.67469,-7.762689 -0.0281,-0.320887 0.01,-0.644166 0.0145,-0.966248 0,0 -3.45086,-1.7738489 -3.45086,-1.7738489 z" />
      <path
         style="fill:#d62d26;fill-opacity:1;stroke:none;stroke-width:0.7;stroke-opacity:1"
         id="path2348"
         d="m 424.95967,14.378533 c 0.0602,0.243732 0.14447,0.482748 0.18053,0.731195 0.2245,1.546669 -0.0401,3.052334 -0.4651,4.543417 -0.19067,0.669049 -0.41031,1.330761 -0.66262,1.979088 -0.26274,0.675169 -0.58721,1.324666 -0.88082,1.987 -1.41405,2.729505 -3.42177,5.062564 -5.42145,7.370112 0,0 2.93839,1.768101 2.93839,1.768101 v 0 c 1.97422,-2.368221 3.99071,-4.729651 5.4705,-7.453161 0.30531,-0.667195 0.63676,-1.323039 0.91595,-2.001584 0.26725,-0.649531 0.50363,-1.311965 0.72205,-1.979501 0.48341,-1.477396 0.85419,-2.981492 0.81272,-4.546351 -0.006,-0.227026 -0.0579,-0.450512 -0.0868,-0.67577 0,0 -3.52335,-1.722546 -3.52335,-1.722546 z" />
      <path
         style="fill:#d62d26;fill-opacity:1;stroke:none;stroke-width:0.7;stroke-opacity:1"
         id="path2350"
         d="m 377.48385,13.094076 c 0.0167,0.25277 -0.0118,0.512676 0.0501,0.758307 0.085,0.337209 0.23934,0.653904 0.38554,0.969444 0.33456,0.722058 0.88269,1.609727 1.2748,2.276713 1.07858,1.834676 0.54312,0.903938 1.56624,2.718549 0.77924,1.471493 1.54217,2.967931 2.03735,4.56284 0.10919,0.466352 0.27346,0.916691 0.38577,1.381693 0,0 3.52766,1.710294 3.52766,1.710294 v 0 c -0.0294,-0.1806 -0.0596,-0.409927 -0.11474,-0.587084 -0.0876,-0.281509 -0.22977,-0.549402 -0.27789,-0.844466 -0.53655,-1.676323 -1.48323,-3.194801 -2.27221,-4.756771 -0.74018,-1.304973 -1.49334,-2.603305 -2.21024,-3.921316 -0.28677,-0.527214 -0.67751,-1.217477 -0.86745,-1.804045 -0.052,-0.160626 -0.0532,-0.333457 -0.0798,-0.500187 0,0 -3.4052,-1.963971 -3.4052,-1.963971 z" />
    </g>
  </g>
</svg>
