<?xml version="1.0" encoding="UTF-8" standalone="no"?>
<!-- Created with Inkscape (http://www.inkscape.org/) -->

<svg
   width="99.184387mm"
   height="82.06356mm"
   viewBox="0 0 99.184385 82.063561"
   version="1.1"
   id="svg5"
   inkscape:version="1.2.1 (9c6d41e4, 2022-07-14)"
   sodipodi:docname="hut-square16.svg"
   xmlns:inkscape="http://www.inkscape.org/namespaces/inkscape"
   xmlns:sodipodi="http://sodipodi.sourceforge.net/DTD/sodipodi-0.dtd"
   xmlns="http://www.w3.org/2000/svg"
   xmlns:svg="http://www.w3.org/2000/svg">
  <sodipodi:namedview
     id="namedview7"
     pagecolor="#12bb9d"
     bordercolor="#000000"
     borderopacity="0.25"
     inkscape:showpageshadow="2"
     inkscape:pageopacity="0"
     inkscape:pagecheckerboard="false"
     inkscape:deskcolor="#d1d1d1"
     inkscape:document-units="mm"
     showgrid="false"
     inkscape:zoom="1.9276236"
     inkscape:cx="275.20933"
     inkscape:cy="238.89519"
     inkscape:window-width="2560"
     inkscape:window-height="1395"
     inkscape:window-x="0"
     inkscape:window-y="116"
     inkscape:window-maximized="0"
     inkscape:current-layer="g13050"
     showguides="true"
     inkscape:lockguides="false">
    <sodipodi:guide
       position="-284.02418,-19.938659"
       orientation="1,0"
       id="guide2923"
       inkscape:locked="false" />
    <sodipodi:guide
       position="-81.104424,-75.698409"
       orientation="0,-1"
       id="guide8011"
       inkscape:locked="false" />
  </sodipodi:namedview>
  <defs
     id="defs2">
    <inkscape:perspective
       sodipodi:type="inkscape:persp3d"
       inkscape:vp_x="12.291814 : -7.9696156 : 1"
       inkscape:vp_y="0 : 1000 : 0"
       inkscape:vp_z="-0.83128874 : 6.5798183 : 1"
       inkscape:persp3d-origin="60.016123 : 4.7068154 : 1"
       id="perspective5378" />
  </defs>
  <g
     inkscape:label="Ebene 1"
     inkscape:groupmode="layer"
     id="layer1"
     transform="translate(-278.68493,7.4529116)">
    <g
       id="g13050"
       transform="translate(-91.299271,20.018488)">
      <path
         style="fill:#ff778a;fill-opacity:1;stroke:#ffaab6;stroke-width:0.7;stroke-linecap:round;stroke-linejoin:round;stroke-dasharray:none;stroke-opacity:1"
         d="m 405.38964,-16.948004 27.68984,-4.768407 35.46388,35.731539 -27.74855,4.288325 z"
         id="path12880-2-33"
         sodipodi:nodetypes="ccccc" />
      <rect
         style="fill:#ffaab6;fill-opacity:1;stroke:#ff778a;stroke-width:0.7;stroke-linecap:round;stroke-linejoin:round;stroke-dasharray:none;stroke-opacity:1"
         id="rect12802"
         width="50"
         height="50"
         x="-297.93033"
         y="-325.71655"
         transform="rotate(134.81991)" />
      <path
         style="fill:#ff425c;fill-opacity:1;stroke:#ffaab6;stroke-width:0.7;stroke-linecap:round;stroke-linejoin:round;stroke-dasharray:none;stroke-opacity:1"
         d="m 405.87895,53.751294 c 0.88987,-1.779751 35.12908,-35.4176 35.12908,-35.4176 l 27.79962,-4.329729 -32.96364,36.071548 z"
         id="path12882"
         sodipodi:nodetypes="ccccc" />
      <path
         style="fill:#ffaab6;fill-opacity:1;stroke:none;stroke-width:0.7;stroke-opacity:1"
         id="path5447"
         d="m 383.49729,32.212673 c -1.38746,0.132524 -2.69093,0.647276 -3.84141,1.425622 -0.19821,0.134091 -0.38287,0.287166 -0.57431,0.43075 -0.11131,0.146621 -0.26679,0.268457 -0.33392,0.439867 -0.23557,0.601514 0.34215,1.13888 0.67226,1.540812 0.63885,0.777875 0.32512,0.344733 0.85459,1.155641 0.0553,0.197033 0.15593,0.386699 0.16576,0.591095 0.035,0.728083 -0.56622,1.263817 -1.09371,1.646153 -0.58375,0.423124 -1.21211,0.733438 -1.84437,1.075148 -0.93854,0.502843 -1.9096,0.964914 -2.76351,1.609772 -0.36349,0.274495 -0.80084,0.652516 -1.02911,1.065464 -0.0922,0.166778 -0.12081,0.361477 -0.18121,0.542213 0.0291,0.179465 0.0115,0.373124 0.0873,0.53839 0.16891,0.368401 0.62303,0.72575 0.95095,0.922925 1.0145,0.61 2.05811,1.170332 3.07998,1.767901 0.5397,0.315608 -1.06102,-0.670417 -1.6334,-0.92197 -0.25303,-0.111201 0.44292,0.330732 0.66438,0.4961 0.58246,0.510055 1.19742,1.195845 0.9949,2.042138 -0.0882,0.368435 -0.28401,0.560351 -0.5059,0.854639 -0.94312,0.8787 -2.15736,1.364041 -3.29358,1.936522 -0.92986,0.458629 -1.81213,1.003417 -2.72493,1.493483 -0.55279,0.301517 -1.12344,0.569217 -1.70122,0.81897 0,0 2.45592,1.631437 2.45592,1.631437 v 0 c 0.57174,-0.263073 1.1427,-0.531244 1.67862,-0.86297 0.89126,-0.501798 1.75338,-1.05519 2.66659,-1.518232 1.18004,-0.585195 2.41834,-1.114412 3.38598,-2.033993 0.26549,-0.351721 0.4747,-0.555659 0.59025,-0.993865 0.1672,-0.634142 -0.0414,-1.27776 -0.43141,-1.784246 -0.15849,-0.205841 -0.36299,-0.371748 -0.54448,-0.557623 -1.56759,-1.245822 -0.55313,-0.490958 -3.75098,-2.334083 -0.56034,-0.322958 1.10733,0.668827 1.66938,0.988806 0.19296,0.109853 -0.38238,-0.227131 -0.56163,-0.358158 -0.14742,-0.10776 -0.30642,-0.21037 -0.416,-0.356449 -0.0857,-0.114327 -0.10137,-0.267248 -0.15206,-0.400873 0.0373,-0.155655 0.0433,-0.322308 0.11178,-0.466961 0.1985,-0.419211 0.56945,-0.742087 0.92307,-1.020318 0.82951,-0.652661 1.77882,-1.124093 2.71142,-1.606391 1.10323,-0.57808 3.24488,-1.470422 3.19214,-3.005328 -0.008,-0.239159 -0.12098,-0.463055 -0.18148,-0.694581 -0.51038,-0.78045 -0.28811,-0.4927 -0.8923,-1.207112 -0.16772,-0.198313 -0.87485,-0.872119 -0.79548,-1.205484 0.036,-0.15127 0.16605,-0.262964 0.24907,-0.394443 0.17859,-0.1407 0.34825,-0.293542 0.53578,-0.422098 1.1401,-0.781587 2.47526,-1.247259 3.86481,-1.207376 0,0 -2.25855,-1.661294 -2.25855,-1.661294 z" />
      <path
         style="fill:#ffaab6;fill-opacity:1;stroke:none;stroke-width:0.778492;stroke-opacity:1"
         id="path5449"
         d="m 446.88127,32.882129 c 0.1996,0.02934 0.40245,0.04807 0.5988,0.08805 0.32389,0.06595 0.64826,0.134716 0.95952,0.229253 0.39881,0.121129 1.53105,0.587734 1.16592,0.41629 -0.53525,-0.251321 -1.04859,-0.662296 -1.67858,-0.656998 -0.42318,0.0036 0.67456,0.401526 0.9179,0.663393 0.20615,0.221847 0.2668,0.503368 0.4002,0.755055 -0.0597,0.282184 -0.0405,0.580684 -0.179,0.846558 -0.34845,0.668756 -1.26568,1.433249 -1.84466,1.959769 -0.4609,0.419132 -1.65337,1.441983 -2.06133,1.93364 -0.20956,0.252552 -0.33545,0.539662 -0.50316,0.809494 0.0661,0.237467 0.0102,0.51592 0.19855,0.712404 0.24802,0.258719 0.64725,0.420885 1.02505,0.564007 1.49516,0.566416 3.00461,1.121953 4.57464,1.557345 0.60235,0.16704 1.26982,0.142378 1.89884,0.237851 1.97322,0.299493 1.64723,0.266992 3.40461,0.796748 -0.64127,-0.240556 -1.2139,-0.652236 -1.9238,-0.721668 -0.29654,-0.029 0.37298,0.364544 0.46703,0.579196 0.089,0.203182 0.0983,0.427374 0.0673,0.64013 -0.0803,0.550107 -0.44095,0.992489 -0.76714,1.471656 -0.18569,0.272754 -0.37744,0.543122 -0.56616,0.814683 -0.44492,0.703609 -0.97603,1.516316 -0.55954,2.315454 0.45801,0.878766 1.76124,1.359785 2.74005,1.823353 2.68401,1.206246 5.42237,2.362069 8.32608,3.240495 0.69567,0.210455 1.65809,0.468636 2.37289,0.663848 1.33521,0.362391 2.70727,0.636051 4.06216,0.951709 0,0 -2.93326,-1.708924 -2.93326,-1.708924 v 0 c -1.29615,-0.262058 -2.59213,-0.528887 -3.86266,-0.856116 -1.69543,-0.453326 -3.34912,-0.948663 -4.96537,-1.547976 -0.46425,-0.17214 -1.67928,-0.851422 -1.38321,-0.530858 0.34712,0.375829 1.03559,0.47674 1.55338,0.715113 -0.81086,-0.366222 -2.25661,-0.919686 -2.73391,-1.58639 -0.52138,-0.728315 -0.0248,-1.513521 0.38938,-2.176701 0.19526,-0.269975 0.39187,-0.539391 0.58577,-0.809925 0.49548,-0.691292 1.1754,-1.488626 0.90196,-2.326747 -0.467,-1.431372 -3.21479,-1.966289 -4.41507,-2.515911 -1.87963,-0.500004 -1.24243,-0.380106 -3.36199,-0.714781 -0.64375,-0.101643 -1.53296,-0.67605 -1.9369,-0.283599 -0.36158,0.35129 1.09955,0.490708 1.29021,0.911878 0.2021,0.446398 -1.95475,-0.757023 -1.41244,-0.928785 0.12821,-0.263087 0.20425,-0.544301 0.38464,-0.789259 0.43026,-0.584242 1.46478,-1.452686 2.01295,-1.937368 0.58529,-0.517509 1.66155,-1.37505 2.04375,-2.026705 0.17751,-0.30264 0.18072,-0.647891 0.27108,-0.971836 -0.13749,-0.294506 -0.18852,-0.621103 -0.41247,-0.883512 -0.24712,-0.289564 -0.58836,-0.538702 -0.96596,-0.731641 -2.09308,-1.069475 -4.33413,-2.173976 -6.85907,-2.545169 0,0 2.71305,1.5535 2.71305,1.5535 z" />
      <path
         style="fill:#ffaab6;fill-opacity:1;stroke:none;stroke-width:0.561318;stroke-linecap:round;stroke-linejoin:round;stroke-dasharray:none;stroke-opacity:1"
         d="m 409.32722,-15.866769 23.00383,-4.392004 32.51632,32.999464 -23.55221,3.203621 z"
         id="path12880-2-33-3"
         sodipodi:nodetypes="ccccc" />
    </g>
  </g>
</svg>
