<?xml version="1.0" encoding="UTF-8" standalone="no"?>
<!-- Created with Inkscape (http://www.inkscape.org/) -->

<svg
   width="67.615379mm"
   height="70.71769mm"
   viewBox="0 0 67.61538 70.717689"
   version="1.1"
   id="svg14852"
   inkscape:version="1.2.1 (9c6d41e4, 2022-07-14)"
   sodipodi:docname="spehere2.svg"
   xmlns:inkscape="http://www.inkscape.org/namespaces/inkscape"
   xmlns:sodipodi="http://sodipodi.sourceforge.net/DTD/sodipodi-0.dtd"
   xmlns="http://www.w3.org/2000/svg"
   xmlns:svg="http://www.w3.org/2000/svg">
  <sodipodi:namedview
     id="namedview14854"
     pagecolor="#43b189"
     bordercolor="#000000"
     borderopacity="0.25"
     inkscape:showpageshadow="2"
     inkscape:pageopacity="0"
     inkscape:pagecheckerboard="0"
     inkscape:deskcolor="#d1d1d1"
     inkscape:document-units="mm"
     showgrid="false"
     showguides="true"
     inkscape:zoom="2.9606624"
     inkscape:cx="175.12973"
     inkscape:cy="128.18077"
     inkscape:window-width="2560"
     inkscape:window-height="1395"
     inkscape:window-x="0"
     inkscape:window-y="23"
     inkscape:window-maximized="1"
     inkscape:current-layer="layer1">
    <sodipodi:guide
       position="62.139958,-0.14142518"
       orientation="0,-1"
       id="guide20083"
       inkscape:locked="false" />
  </sodipodi:namedview>
  <defs
     id="defs14849" />
  <g
     inkscape:label="Ebene 1"
     inkscape:groupmode="layer"
     id="layer1"
     transform="translate(-35.174934,-24.180876)">
    <ellipse
       style="fill:#ff778a;fill-opacity:1;stroke:none;stroke-width:0.282788;stroke-opacity:1"
       id="path17948-1-5"
       cx="68.854942"
       cy="37.512383"
       rx="13.464823"
       ry="13.331507" />
    <path
       id="path17948"
       style="fill:#ff425c;fill-opacity:1;stroke:#ffaab6;stroke-width:0.7;stroke-opacity:1"
       d="M 79.716552,30.350936 A 16.541286,16.37751 0 0 1 68.8552,34.390999 16.541286,16.37751 0 0 1 58.012451,30.367472 33.330002,33 0 0 0 35.524934,61.548515 33.330002,33 0 0 0 68.8552,94.548567 33.330002,33 0 0 0 102.18495,61.548515 33.330002,33 0 0 0 79.716552,30.350936 Z" />
    <path
       id="path13389-4"
       style="fill:#ffaab6;fill-opacity:1;stroke:none;stroke-width:0.233434;stroke-linecap:round;stroke-linejoin:round;stroke-dasharray:none;stroke-opacity:1"
       d="m 79.916157,67.52386 a 14.322791,14.621636 0 0 0 -14.322705,14.621674 14.322791,14.621636 0 0 0 4.504183,10.640158 l -1.379946,2.048411 H 87.03045 a 14.322791,14.621636 0 0 0 0.0051,-0.0026 L 102.79031,94.802259 94.23586,81.85229 A 14.322791,14.621636 0 0 0 79.916157,67.52386 Z" />
  </g>
</svg>
