<?xml version="1.0" encoding="UTF-8" standalone="no"?>
<!-- Created with Inkscape (http://www.inkscape.org/) -->

<svg
   width="1365"
   height="355"
   viewBox="0 0 1365 354.99999"
   version="1.1"
   id="svg527"
   inkscape:version="1.2.2 (b0a8486, 2022-12-01)"
   sodipodi:docname="layer6repeatable.svg"
   xmlns:inkscape="http://www.inkscape.org/namespaces/inkscape"
   xmlns:sodipodi="http://sodipodi.sourceforge.net/DTD/sodipodi-0.dtd"
   xmlns:xlink="http://www.w3.org/1999/xlink"
   xmlns="http://www.w3.org/2000/svg"
   xmlns:svg="http://www.w3.org/2000/svg">
  <sodipodi:namedview
     id="namedview529"
     pagecolor="#ffffff"
     bordercolor="#000000"
     borderopacity="0.25"
     inkscape:showpageshadow="2"
     inkscape:pageopacity="0.0"
     inkscape:pagecheckerboard="0"
     inkscape:deskcolor="#d1d1d1"
     inkscape:document-units="mm"
     showgrid="false"
     inkscape:zoom="0.67269545"
     inkscape:cx="752.19774"
     inkscape:cy="228.18647"
     inkscape:window-width="2560"
     inkscape:window-height="1387"
     inkscape:window-x="0"
     inkscape:window-y="25"
     inkscape:window-maximized="1"
     inkscape:current-layer="layer1"
     showguides="true">
    <sodipodi:guide
       position="1329.7103,229.91262"
       orientation="0,-1"
       id="guide6168"
       inkscape:locked="false" />
    <sodipodi:guide
       position="783.11003,262.49841"
       orientation="0,-1"
       id="guide549"
       inkscape:locked="false" />
  </sodipodi:namedview>
  <defs
     id="defs524">
    <linearGradient
       inkscape:collect="always"
       id="linearGradient22386">
      <stop
         style="stop-color:#00946e;stop-opacity:1;"
         offset="0.06626506"
         id="stop22382" />
      <stop
         style="stop-color:#00946e;stop-opacity:0;"
         offset="1"
         id="stop22384" />
    </linearGradient>
    <linearGradient
       inkscape:collect="always"
       xlink:href="#linearGradient22386"
       id="linearGradient375"
       gradientUnits="userSpaceOnUse"
       x1="245.55272"
       y1="117.30122"
       x2="244.9695"
       y2="-44.285309"
       gradientTransform="matrix(3.7790306,0,0,3.7860271,-0.70225572,-67.558967)" />
  </defs>
  <g
     inkscape:label="Ebene 1"
     inkscape:groupmode="layer"
     id="layer1"
     transform="translate(-0.25269775,-24.023391)">
    <path
       id="path373"
       style="fill:url(#linearGradient375);fill-opacity:1;stroke-width:3.67624;stroke-linecap:round;stroke-linejoin:round"
       d="m 1118.8712,24.044437 c -22.0686,0.286413 -43.7688,3.221095 -63.0756,12.116506 -71.22464,32.815734 -118.59679,139.684107 -151.97422,179.822377 -92.14852,78.09174 -93.72925,-2.65662 -140.42488,0.60063 -16.28226,1.13576 -36.25908,7.78246 -48.52098,6.5914 -13.95399,-1.35542 -23.47813,-11.84191 -39.76821,-13.71104 -11.01168,-1.26347 -17.14769,15.34167 -27.90647,16.94315 -11.72532,1.74536 -23.17125,-12.44485 -34.45642,-8.81005 -17.58424,5.66367 -32.75981,32.13011 -53.51444,40.39748 -44.56784,17.75303 -98.21065,17.24685 -142.99681,15.98839 -71.89928,-2.02032 -81.84304,-19.79135 -145.2524,-55.61893 C 201.78398,179.26679 198.28456,157.42517 128.89594,120.84734 92.224989,101.51645 69.663454,90.407166 0.25269775,116.13809 V 379.49056 H 1365.5302 V 113.28357 c -15.4418,-7.6292 -108.7021,-53.532738 -164.0174,-76.226558 -29.0407,-9.756917 -55.7528,-13.344173 -82.6416,-13.012575 z" />
  </g>
</svg>
