<?xml version="1.0" encoding="UTF-8" standalone="no"?>
<!-- Created with Inkscape (http://www.inkscape.org/) -->

<svg
   width="1397.4551"
   height="201.79848"
   viewBox="0 0 369.74332 53.392516"
   version="1.1"
   id="svg5"
   inkscape:version="1.2.1 (9c6d41e4, 2022-07-14)"
   sodipodi:docname="layer2repeatable.svg"
   inkscape:export-filename="layer5.svg"
   inkscape:export-xdpi="96"
   inkscape:export-ydpi="96"
   xmlns:inkscape="http://www.inkscape.org/namespaces/inkscape"
   xmlns:sodipodi="http://sodipodi.sourceforge.net/DTD/sodipodi-0.dtd"
   xmlns="http://www.w3.org/2000/svg"
   xmlns:svg="http://www.w3.org/2000/svg">
  <sodipodi:namedview
     id="namedview7"
     pagecolor="#ffffff"
     bordercolor="#000000"
     borderopacity="0.25"
     inkscape:showpageshadow="2"
     inkscape:pageopacity="0.0"
     inkscape:pagecheckerboard="0"
     inkscape:deskcolor="#d1d1d1"
     inkscape:document-units="mm"
     showgrid="false"
     inkscape:zoom="0.92883128"
     inkscape:cx="890.36622"
     inkscape:cy="102.81738"
     inkscape:window-width="1920"
     inkscape:window-height="1035"
     inkscape:window-x="0"
     inkscape:window-y="23"
     inkscape:window-maximized="0"
     inkscape:current-layer="layer2"
     showguides="true">
    <sodipodi:guide
       position="298.55337,13.79313"
       orientation="0,-1"
       id="guide4992"
       inkscape:locked="false" />
    <sodipodi:guide
       position="269.31356,29.481498"
       orientation="0,-1"
       id="guide6904"
       inkscape:locked="false" />
    <sodipodi:guide
       position="295.96557,43.137693"
       orientation="1,0"
       id="guide6117"
       inkscape:locked="false" />
  </sodipodi:namedview>
  <defs
     id="defs2" />
  <g
     inkscape:groupmode="layer"
     id="layer2"
     inkscape:label="Ebene 2"
     transform="translate(-0.44493408,-24.393622)">
    <path
       id="path1327"
       style="display:inline;fill:#c8c8c8;fill-opacity:1;stroke-width:0;stroke-linecap:round;stroke-linejoin:round"
       d="m 270.31839,24.394046 c -3.70435,-0.02486 -19.84894,3.793589 -24.02997,4.801734 -9.84525,2.373923 -8.62238,3.760684 -29.25581,9.38101 -19.42976,5.292457 -41.75899,14.619651 -49.01496,18.260753 -9.08793,4.560395 -18.79477,9.475446 -28.66026,4.03438 -7.89211,-4.352678 -14.0623,-12.859736 -24.18458,-7.686353 -8.73507,4.464403 -15.173675,-1.44326 -21.860676,3.603914 C 83.232509,64.397319 69.996629,57.81983 59.680595,53.372639 51.765137,49.96032 43.368682,47.109251 34.921383,45.42377 26.160699,43.675761 24.286284,48.702826 19.359025,51.22755 12.606115,54.687738 3.5323822,58.851754 0.44493408,58.601777 V 77.786136 H 370.18826 V 58.591958 c -17.77447,0.685524 -30.9443,-26.97789 -50.13235,-31.866783 -6.44545,-1.642225 -13.26015,1.524825 -19.90898,1.341157 -10.0141,-0.276629 -25.06585,-3.640328 -29.82854,-3.672286 z"
       sodipodi:nodetypes="ssssssssssccccaas" />
  </g>
</svg>
