<?xml version="1.0" encoding="UTF-8" standalone="no"?>
<!-- Created with Inkscape (http://www.inkscape.org/) -->

<svg
   width="1397.4551"
   height="263.56903"
   viewBox="0 0 369.74332 69.735976"
   version="1.1"
   id="svg5"
   inkscape:version="1.2.1 (9c6d41e4, 2022-07-14)"
   sodipodi:docname="layer8repeatable.svg"
   inkscape:export-filename="layer5.svg"
   inkscape:export-xdpi="96"
   inkscape:export-ydpi="96"
   xmlns:inkscape="http://www.inkscape.org/namespaces/inkscape"
   xmlns:sodipodi="http://sodipodi.sourceforge.net/DTD/sodipodi-0.dtd"
   xmlns="http://www.w3.org/2000/svg"
   xmlns:svg="http://www.w3.org/2000/svg">
  <sodipodi:namedview
     id="namedview7"
     pagecolor="#ffffff"
     bordercolor="#000000"
     borderopacity="0.25"
     inkscape:showpageshadow="2"
     inkscape:pageopacity="0.0"
     inkscape:pagecheckerboard="0"
     inkscape:deskcolor="#d1d1d1"
     inkscape:document-units="mm"
     showgrid="false"
     inkscape:zoom="1.3109545"
     inkscape:cx="1125.1344"
     inkscape:cy="193.37056"
     inkscape:window-width="1440"
     inkscape:window-height="855"
     inkscape:window-x="0"
     inkscape:window-y="23"
     inkscape:window-maximized="1"
     inkscape:current-layer="layer2"
     showguides="true">
    <sodipodi:guide
       position="298.55337,-6.3976317"
       orientation="0,-1"
       id="guide4992"
       inkscape:locked="false" />
    <sodipodi:guide
       position="269.31356,9.2907363"
       orientation="0,-1"
       id="guide6904"
       inkscape:locked="false" />
  </sodipodi:namedview>
  <defs
     id="defs2" />
  <g
     inkscape:groupmode="layer"
     id="layer2"
     inkscape:label="Ebene 2"
     transform="translate(-0.44493407,12.140598)">
    <path
       id="path1327"
       style="display:inline;fill:#12bb9d;fill-opacity:1;stroke-width:0;stroke-linecap:round;stroke-linejoin:round"
       d="m 168.01765,45.342215 c -9.64346,-0.282656 -18.79477,-9.475446 -28.66026,-4.03438 -7.89211,4.352678 -14.0623,12.859736 -24.18458,7.686353 -8.73507,-4.464403 -15.173675,1.44326 -21.860676,-3.603914 C 83.232509,37.782439 69.996629,44.359928 59.680595,48.807119 51.765137,52.219438 43.368682,55.070507 34.921383,56.755988 26.160699,58.503997 24.286284,53.476932 19.359025,50.952208 12.606115,47.49202 3.5323822,43.328004 0.44493408,43.577981 V 24.393622 H 370.18826 V 43.5878 c -17.77447,-0.685524 -18.97304,-1.929207 -28.48328,-2.600815 -24.79395,-1.750935 -62.47855,-7.616326 -74.47409,-3.722862 -39.74463,20.680126 -66.04696,9.050217 -99.21324,8.078092 z"
       sodipodi:nodetypes="assssssccccaca" />
    <path
       id="rect841"
       style="fill:#12bb9d;fill-opacity:1;stroke:none;stroke-width:0.517792"
       d="m 0.44493407,-12.140598 v 37.012211 1.805575 17.378784 C 3.5323791,43.805995 12.606122,47.970014 19.359025,51.430199 c 4.927254,2.524721 6.801682,7.551787 15.562358,5.80378 8.44729,-1.685479 16.843762,-4.536553 24.759212,-7.948869 10.316024,-4.447187 23.551924,-11.024673 33.631539,-3.416846 6.686992,5.047169 13.125616,-0.860484 21.860676,3.603915 10.12227,5.173378 16.29247,-3.333679 24.18458,-7.686353 9.86548,-5.44106 19.01681,3.751724 28.66026,4.034379 33.16625,0.972124 59.46848,12.602046 99.21307,-8.07806 11.99552,-3.89346 49.68008,1.971837 74.474,3.722771 9.51023,0.671607 10.70908,1.915351 28.48354,2.600874 10e-6,-18.847328 -4.5e-4,-39.516214 -5.2e-4,-56.206388 z"
       sodipodi:nodetypes="ccccssssssscsccc" />
    <path
       id="path1327-0-2"
       style="display:inline;fill:#12bb9d;fill-opacity:1;stroke-width:0;stroke-linecap:round;stroke-linejoin:round"
       d="m 168.10048,45.820327 c -9.64346,-0.282656 -18.79477,-9.475446 -28.66026,-4.03438 -7.89211,4.352678 -14.0623,12.859736 -24.18458,7.686353 -8.73507,-4.464403 -15.17368,1.44326 -21.860679,-3.603914 C 83.315336,38.260551 70.079456,44.83804 59.763422,49.285231 51.847964,52.69755 43.451509,55.548619 35.00421,57.2341 26.243526,58.982109 24.369111,53.955044 19.441852,51.43032 12.688942,47.970132 3.6152088,43.806116 0.52776066,44.056093 V 24.871734 H 370.27109 v 19.194178 c -17.77447,-0.685524 -18.97304,-1.929207 -28.48328,-2.600815 -24.79395,-1.750935 -62.47855,-7.616326 -74.47409,-3.722862 -39.74463,20.680126 -66.04696,9.050217 -99.21324,8.078092 z"
       sodipodi:nodetypes="assssssccccaca" />
    <path
       id="path1327-0-5"
       style="display:inline;fill:#12bb9d;fill-opacity:1;stroke-width:0;stroke-linecap:round;stroke-linejoin:round"
       d="m 168.10048,45.820327 c -9.64346,-0.282656 -18.79477,-9.475446 -28.66026,-4.03438 -7.89211,4.352678 -14.0623,12.859736 -24.18458,7.686353 -8.73507,-4.464403 -15.17368,1.44326 -21.860679,-3.603914 C 83.315336,38.260551 70.079456,44.83804 59.763422,49.285231 51.847964,52.69755 43.451509,55.548619 35.00421,57.2341 26.243526,58.982109 24.369111,53.955044 19.441852,51.43032 12.688942,47.970132 3.6152088,43.806116 0.52776066,44.056093 V 24.871734 H 370.27109 v 19.194178 c -17.77447,-0.685524 -18.97304,-1.929207 -28.48328,-2.600815 -24.79395,-1.750935 -62.47855,-7.616326 -74.47409,-3.722862 -39.74463,20.680126 -66.04696,9.050217 -99.21324,8.078092 z"
       sodipodi:nodetypes="assssssccccaca" />
  </g>
</svg>
