<?xml version="1.0" encoding="UTF-8" standalone="no"?>
<!-- Created with Inkscape (http://www.inkscape.org/) -->

<svg
   width="1397.4551"
   height="263.56903"
   viewBox="0 0 369.74332 69.735976"
   version="1.1"
   id="svg5"
   inkscape:version="1.2.1 (9c6d41e4, 2022-07-14)"
   sodipodi:docname="layer8repeatable.svg"
   inkscape:export-filename="layer5.svg"
   inkscape:export-xdpi="96"
   inkscape:export-ydpi="96"
   xmlns:inkscape="http://www.inkscape.org/namespaces/inkscape"
   xmlns:sodipodi="http://sodipodi.sourceforge.net/DTD/sodipodi-0.dtd"
   xmlns="http://www.w3.org/2000/svg"
   xmlns:svg="http://www.w3.org/2000/svg">
  <sodipodi:namedview
     id="namedview7"
     pagecolor="#ffffff"
     bordercolor="#000000"
     borderopacity="0.25"
     inkscape:showpageshadow="2"
     inkscape:pageopacity="0.0"
     inkscape:pagecheckerboard="0"
     inkscape:deskcolor="#d1d1d1"
     inkscape:document-units="mm"
     showgrid="false"
     inkscape:zoom="0.65547725"
     inkscape:cx="843.6601"
     inkscape:cy="121.28567"
     inkscape:window-width="1920"
     inkscape:window-height="1035"
     inkscape:window-x="0"
     inkscape:window-y="23"
     inkscape:window-maximized="0"
     inkscape:current-layer="layer2"
     showguides="true">
    <sodipodi:guide
       position="298.55337,-6.3976317"
       orientation="0,-1"
       id="guide4992"
       inkscape:locked="false" />
    <sodipodi:guide
       position="269.31356,9.2907363"
       orientation="0,-1"
       id="guide6904"
       inkscape:locked="false" />
  </sodipodi:namedview>
  <defs
     id="defs2" />
  <g
     inkscape:groupmode="layer"
     id="layer2"
     inkscape:label="Ebene 2"
     transform="translate(-0.44493407,12.140598)">
    <path
       id="rect841"
       style="fill:#c8c8c8;fill-opacity:1;stroke:none;stroke-width:0.517792"
       d="M 0.44493407,-11.737075 V 3.2873311 C 3.532376,3.0373541 12.606129,7.2013761 19.359025,10.661558 c 4.927249,2.524718 6.80169,7.551785 15.562358,5.80378 8.447281,-1.685477 16.84377,-4.536556 24.759212,-7.9488689 10.316014,-4.447183 23.551934,-11.024665 33.631539,-3.416846 6.686985,5.0471639 13.125626,-0.86048 21.860676,3.603915 10.12226,5.1733729 16.29247,-3.333683 24.18458,-7.686353 9.86547,-5.441054 19.01682,3.751725 28.66026,4.034379 33.16622,0.972123 59.46852,12.6020259 99.21307,-8.07806 11.9955,-3.893456 49.68011,1.971838 74.474,3.72277096 9.51022,0.67160604 10.70909,1.91535204 28.48354,2.60087404 0,-5.041325 4e-5,-9.843248 0,-15.0342241 z" />
  </g>
</svg>
