<?xml version="1.0" encoding="UTF-8" standalone="no"?>
<!-- Created with Inkscape (http://www.inkscape.org/) -->

<svg
   width="1404.3379"
   height="295.88083"
   viewBox="0 0 371.56439 78.285139"
   version="1.1"
   id="svg5"
   inkscape:version="1.2.1 (9c6d41e4, 2022-07-14)"
   sodipodi:docname="layer1.svg"
   inkscape:export-filename="layer1.svg"
   inkscape:export-xdpi="96"
   inkscape:export-ydpi="96"
   xmlns:inkscape="http://www.inkscape.org/namespaces/inkscape"
   xmlns:sodipodi="http://sodipodi.sourceforge.net/DTD/sodipodi-0.dtd"
   xmlns="http://www.w3.org/2000/svg"
   xmlns:svg="http://www.w3.org/2000/svg">
  <sodipodi:namedview
     id="namedview7"
     pagecolor="#ffffff"
     bordercolor="#000000"
     borderopacity="0.25"
     inkscape:showpageshadow="2"
     inkscape:pageopacity="0.0"
     inkscape:pagecheckerboard="0"
     inkscape:deskcolor="#d1d1d1"
     inkscape:document-units="mm"
     showgrid="false"
     inkscape:zoom="0.8409652"
     inkscape:cx="504.18257"
     inkscape:cy="233.66008"
     inkscape:window-width="2560"
     inkscape:window-height="1395"
     inkscape:window-x="0"
     inkscape:window-y="23"
     inkscape:window-maximized="1"
     inkscape:current-layer="layer2" />
  <defs
     id="defs2" />
  <g
     inkscape:groupmode="layer"
     id="layer2"
     inkscape:label="Ebene 2"
     transform="translate(0,-27.998591)">
    <path
       id="path1095"
       style="display:inline;fill:#1c8078;fill-opacity:1;stroke-width:0;stroke-linecap:round;stroke-linejoin:round"
       d="m 371.5644,27.998591 c -6.99874,0.97204 -14.89666,5.305145 -21.58628,6.458003 -10.17892,1.754187 -19.64462,-5.821464 -30.01109,-2.995166 -10.41076,2.838372 -21.61065,8.400592 -32.41869,3.905188 -8.79538,-3.658274 -19.09947,-2.21592 -25.30233,3.678329 -6.27794,5.965557 -19.60302,-6.013239 -26.17773,1.517737 -6.86296,7.861099 -18.01472,-2.108165 -27.00869,-2.231905 -8.77104,-0.120674 -17.31275,5.609378 -25.72298,2.380216 -10.68801,-4.103727 -19.55434,5.225808 -27.95488,-3.424597 -6.67684,-6.875446 -16.40772,6.774698 -23.37738,0.191203 -6.14672,-5.806117 -13.6296,-8.902578 -21.61264,-6.342766 -8.03153,2.575364 -11.551919,10.417602 -18.391641,7.611939 C 85.57942,36.113012 84.465572,28.859787 78.763151,33.479393 72.784073,38.323123 64.736938,42.495606 56.105103,45.855382 46.974511,49.409289 41.614928,46.737206 29.377018,40.799876 17.08285,36.07102 4.0508506,41.649335 0,40.200947 v 66.082783 h 371.5644 z" />
  </g>
</svg>
