<?xml version="1.0" encoding="UTF-8" standalone="no"?>
<!-- Created with Inkscape (http://www.inkscape.org/) -->

<svg
   width="338.72211"
   height="144.63219"
   viewBox="0 0 89.620223 38.267267"
   version="1.1"
   id="svg5"
   inkscape:version="1.2.1 (9c6d41e4, 2022-07-14)"
   sodipodi:docname="layer3.svg"
   inkscape:export-filename="layer2.svg"
   inkscape:export-xdpi="96"
   inkscape:export-ydpi="96"
   xmlns:inkscape="http://www.inkscape.org/namespaces/inkscape"
   xmlns:sodipodi="http://sodipodi.sourceforge.net/DTD/sodipodi-0.dtd"
   xmlns="http://www.w3.org/2000/svg"
   xmlns:svg="http://www.w3.org/2000/svg">
  <sodipodi:namedview
     id="namedview7"
     pagecolor="#ffffff"
     bordercolor="#000000"
     borderopacity="0.25"
     inkscape:showpageshadow="2"
     inkscape:pageopacity="0.0"
     inkscape:pagecheckerboard="0"
     inkscape:deskcolor="#d1d1d1"
     inkscape:document-units="mm"
     showgrid="false"
     inkscape:zoom="0.5946522"
     inkscape:cx="532.24389"
     inkscape:cy="122.76083"
     inkscape:window-width="1344"
     inkscape:window-height="456"
     inkscape:window-x="0"
     inkscape:window-y="23"
     inkscape:window-maximized="0"
     inkscape:current-layer="layer2" />
  <defs
     id="defs2" />
  <g
     inkscape:groupmode="layer"
     id="layer2"
     inkscape:label="Ebene 2"
     transform="translate(0.88986816,-82.272498)">
    <path
       id="path1518"
       style="display:inline;fill:#1c8078;stroke-width:0;stroke-linecap:round;stroke-linejoin:round;fill-opacity:1"
       d="m -0.88986816,82.272498 v 37.894332 c 2.31051556,-0.528 4.98671656,-1.61621 6.98717036,-1.73737 8.5009998,-0.51486 16.6063308,-4.45434 25.2082808,-3.38687 2.93485,0.3642 5.59307,1.7247 7.784021,3.6406 2.71016,2.36994 6.564122,2.05602 9.832991,1.31982 3.094476,-0.69692 5.795308,-2.36045 7.913729,-4.62297 2.391672,-2.55436 5.40697,-4.32261 8.597408,-5.62033 3.6898,-1.50084 7.582423,-2.20357 11.494389,-2.71301 3.67642,-0.47877 7.51517,-0.91636 10.844816,-2.67374 1.724999,-0.91045 0.892935,-4.05229 -0.710034,-4.800743 C 83.864548,98.078855 80.183745,99.073562 76.771541,99.201697 68.54013,99.510802 60.215052,98.782083 52.17821,96.856104 47.16153,95.653888 42.888121,92.69926 38.113953,90.908663 32.068661,88.641319 25.664434,90.192569 19.490283,89.281372 17.343723,88.964577 15.516361,87.773555 13.389364,87.520756 11.066991,87.244736 8.7674835,86.77216 6.7830485,85.501758 4.4785193,84.026437 1.9455431,82.304064 -0.88986816,82.272498 Z" />
  </g>
</svg>
