<?xml version="1.0" encoding="UTF-8" standalone="no"?>
<!-- Created with Inkscape (http://www.inkscape.org/) -->

<svg
   width="1404.3379"
   height="170"
   viewBox="0 0 371.56439 44.979168"
   version="1.1"
   id="svg5"
   inkscape:version="1.2.2 (b0a8486, 2022-12-01)"
   sodipodi:docname="layer1repeatable-short.svg"
   inkscape:export-filename="layer1.svg"
   inkscape:export-xdpi="96"
   inkscape:export-ydpi="96"
   xmlns:inkscape="http://www.inkscape.org/namespaces/inkscape"
   xmlns:sodipodi="http://sodipodi.sourceforge.net/DTD/sodipodi-0.dtd"
   xmlns="http://www.w3.org/2000/svg"
   xmlns:svg="http://www.w3.org/2000/svg">
  <sodipodi:namedview
     id="namedview7"
     pagecolor="#ffffff"
     bordercolor="#000000"
     borderopacity="0.25"
     inkscape:showpageshadow="2"
     inkscape:pageopacity="0.0"
     inkscape:pagecheckerboard="0"
     inkscape:deskcolor="#d1d1d1"
     inkscape:document-units="mm"
     showgrid="false"
     inkscape:zoom="4"
     inkscape:cx="1187.5"
     inkscape:cy="113.875"
     inkscape:window-width="2560"
     inkscape:window-height="1387"
     inkscape:window-x="0"
     inkscape:window-y="25"
     inkscape:window-maximized="1"
     inkscape:current-layer="layer2"
     showguides="true"
     showborder="false">
    <sodipodi:guide
       position="122.35794,70.673609"
       orientation="0,-1"
       id="guide5475"
       inkscape:locked="false" />
  </sodipodi:namedview>
  <defs
     id="defs2" />
  <g
     inkscape:groupmode="layer"
     id="layer2"
     inkscape:label="Ebene 2"
     transform="translate(0,-30.011911)">
    <path
       id="path1095"
       style="display:inline;fill:#4da990;fill-opacity:1;stroke-width:0;stroke-linecap:round;stroke-linejoin:round"
       d="m 327.82715,30.22807 c -1.69127,-0.06252 -3.9493,0.383982 -7.83673,1.44384 -10.41072,2.83836 -21.61069,8.400572 -32.41869,3.905188 -8.79534,-3.658258 -19.09951,-2.215897 -25.30233,3.678328 -6.27794,5.965533 -19.60306,-6.013207 -26.17773,1.517737 -6.86296,7.861067 -18.01476,-2.108165 -27.00869,-2.231905 -8.771,-0.120674 -17.31279,5.609363 -25.72298,2.380217 -10.68797,-4.103711 -19.55438,5.225775 -27.95488,-3.424598 -6.6768,-6.875418 -16.40776,6.774674 -23.37738,0.191203 C 125.88102,31.881987 118.3981,28.785511 110.4151,31.345315 102.38361,33.920667 98.863149,41.762908 92.023455,38.957253 85.602834,36.323505 84.488934,29.070285 78.786537,33.689875 72.807483,38.533585 64.760288,42.706103 56.128489,46.065863 46.997933,49.619758 41.638266,46.947664 29.400404,41.010358 17.106288,36.281522 0.02338608,40.208857 0.02338608,40.208857 v 34.76997 H 371.58779 v -34.76997 c -0.11064,0.410956 -26.63778,2.811209 -35.10587,-5.910234 -3.62465,-3.73309 -5.83593,-3.966351 -8.65477,-4.070553 z"
       sodipodi:nodetypes="sssccssscsssscccccss" />
  </g>
</svg>
