<?xml version="1.0" encoding="UTF-8" standalone="no"?>
<!-- Created with Inkscape (http://www.inkscape.org/) -->

<svg
   width="338.72211"
   height="144.63219"
   viewBox="0 0 89.620223 38.267267"
   version="1.1"
   id="svg5"
   inkscape:version="1.2.1 (9c6d41e4, 2022-07-14)"
   sodipodi:docname="layer7.svg"
   inkscape:export-filename="layer2.svg"
   inkscape:export-xdpi="96"
   inkscape:export-ydpi="96"
   xmlns:inkscape="http://www.inkscape.org/namespaces/inkscape"
   xmlns:sodipodi="http://sodipodi.sourceforge.net/DTD/sodipodi-0.dtd"
   xmlns="http://www.w3.org/2000/svg"
   xmlns:svg="http://www.w3.org/2000/svg">
  <sodipodi:namedview
     id="namedview7"
     pagecolor="#ffffff"
     bordercolor="#000000"
     borderopacity="0.25"
     inkscape:showpageshadow="2"
     inkscape:pageopacity="0.0"
     inkscape:pagecheckerboard="0"
     inkscape:deskcolor="#d1d1d1"
     inkscape:document-units="mm"
     showgrid="false"
     inkscape:zoom="0.5946522"
     inkscape:cx="260.65657"
     inkscape:cy="122.76083"
     inkscape:window-width="1344"
     inkscape:window-height="456"
     inkscape:window-x="0"
     inkscape:window-y="23"
     inkscape:window-maximized="0"
     inkscape:current-layer="layer2" />
  <defs
     id="defs2" />
  <g
     inkscape:groupmode="layer"
     id="layer2"
     inkscape:label="Ebene 2"
     transform="translate(0.88986816,-82.272498)">
    <path
       id="path1518"
       style="display:inline;fill:#e6e6e6;fill-opacity:1;stroke-width:0;stroke-linecap:round;stroke-linejoin:round"
       d="m 88.730353,82.272498 v 37.894332 c -2.310516,-0.528 -4.986717,-1.61621 -6.98717,-1.73737 -8.501,-0.51486 -16.606331,-4.45434 -25.208281,-3.38687 -2.93485,0.3642 -5.59307,1.7247 -7.784021,3.6406 -2.71016,2.36994 -6.564122,2.05602 -9.832991,1.31982 -3.094476,-0.69692 -5.795308,-2.36045 -7.913729,-4.62297 -2.391672,-2.55436 -5.40697,-4.32261 -8.597408,-5.62033 -3.6898,-1.50084 -7.582423,-2.20357 -11.494389,-2.71301 -3.6764202,-0.47877 -7.5151702,-0.91636 -10.84481618,-2.67374 -1.72499902,-0.91045 -0.892935,-4.05229 0.710034,-4.800743 3.19835498,-1.493362 6.87915798,-0.498655 10.29136218,-0.37052 8.231411,0.309105 16.556489,-0.419614 24.593331,-2.345593 5.01668,-1.202216 9.290089,-4.156844 14.064257,-5.947441 6.045292,-2.267344 12.449519,-0.716094 18.62367,-1.627291 2.14656,-0.316795 3.973922,-1.507817 6.100919,-1.760616 2.322373,-0.27602 4.62188,-0.748596 6.606315,-2.018998 2.30453,-1.475321 4.837506,-3.197694 7.672917,-3.22926 z" />
  </g>
</svg>
