<?xml version="1.0" encoding="UTF-8" standalone="no"?>
<!-- Created with Inkscape (http://www.inkscape.org/) -->

<svg
   width="830.47601"
   height="429.83762"
   viewBox="0 0 219.73011 113.72788"
   version="1.1"
   id="svg5"
   inkscape:version="1.2.1 (9c6d41e4, 2022-07-14)"
   sodipodi:docname="layer5.svg"
   inkscape:export-filename="layer4.svg"
   inkscape:export-xdpi="96"
   inkscape:export-ydpi="96"
   xmlns:inkscape="http://www.inkscape.org/namespaces/inkscape"
   xmlns:sodipodi="http://sodipodi.sourceforge.net/DTD/sodipodi-0.dtd"
   xmlns="http://www.w3.org/2000/svg"
   xmlns:svg="http://www.w3.org/2000/svg">
  <sodipodi:namedview
     id="namedview7"
     pagecolor="#ffffff"
     bordercolor="#000000"
     borderopacity="0.25"
     inkscape:showpageshadow="2"
     inkscape:pageopacity="0.0"
     inkscape:pagecheckerboard="0"
     inkscape:deskcolor="#d1d1d1"
     inkscape:document-units="mm"
     showgrid="false"
     inkscape:zoom="0.8409652"
     inkscape:cx="429.26865"
     inkscape:cy="393.0008"
     inkscape:window-width="2560"
     inkscape:window-height="1395"
     inkscape:window-x="0"
     inkscape:window-y="23"
     inkscape:window-maximized="1"
     inkscape:current-layer="layer2" />
  <defs
     id="defs2" />
  <g
     inkscape:groupmode="layer"
     id="layer2"
     inkscape:label="Ebene 2"
     transform="translate(1.074353,-97.184248)">
    <path
       id="path7360"
       style="display:inline;fill:#148064;fill-opacity:1;stroke:none;stroke-width:0;stroke-linecap:round;stroke-linejoin:round"
       d="m -1.074353,97.184248 v 56.794502 0.13886 56.79451 c 6.1940852,-0.4803 12.527607,-1.73131 15.952515,-4.60529 2.435928,-2.04408 5.398155,-3.74337 8.958109,-5.5392 3.151668,-1.58983 7.532528,-1.76897 11.792562,-2.17235 5.649866,-0.53498 8.136993,-3.67918 14.018783,-4.16571 6.044616,-0.49999 12.720548,-0.12023 17.946708,-2.11941 6.395412,-2.44648 11.275168,-6.01742 19.507336,-7.1643 4.282034,-0.59654 7.983201,-1.90665 12.652975,-1.95193 4.637765,-0.0449 9.283015,-0.56419 13.048295,-2.11277 7.5245,-3.09469 12.9928,-7.3706 21.71392,-9.73533 4.97016,-1.34764 9.21795,-3.55112 14.79807,-4.15624 4.45845,-0.48348 8.67012,-0.90249 13.23847,-1.67395 5.19974,-0.87811 10.4683,-2.05193 14.95567,-3.67933 4.96723,-0.80178 19.31571,-0.41122 24.34581,-3.80872 5.27573,-3.5634 35.01175,-8.31734 0,-13.25226 -4.43984,-0.6258 -17.49087,-1.60574 -22.4581,-2.40752 -4.48737,-1.62741 -24.543,-9.0288 -29.74274,-9.90691 -16.50404,-6.39131 -18.36064,-3.51185 -35.90724,-10.89483 -8.38257,-2.05337 -21.228261,-2.08386 -29.476698,-3.28625 v 0 0 c -8.232173,-1.14686 -10.280356,-0.0471 -16.675768,-2.49361 -5.22616,-1.99921 -11.902086,-1.61943 -17.946708,-2.11942 -5.881792,-0.48653 -8.368911,-3.63072 -14.018783,-4.16571 -4.26003,-0.40337 -8.640895,-0.5825 -11.792562,-2.17235 -3.559947,-1.79582 -6.522178,-3.49512 -8.958109,-5.53919 -3.424905,-2.874003 -9.7584317,-4.124998 -15.952515,-4.605292 z"
       sodipodi:nodetypes="ccccsssssccsssscascccccccssscc" />
  </g>
</svg>
