<?xml version="1.0" encoding="UTF-8" standalone="no"?>
<!-- Created with Inkscape (http://www.inkscape.org/) -->

<svg
   width="1364.3984"
   height="293.43527"
   viewBox="0 0 360.99708 77.638081"
   version="1.1"
   id="svg527"
   inkscape:version="1.2.1 (9c6d41e4, 2022-07-14)"
   sodipodi:docname="layer6repeatable-old.svg"
   xmlns:inkscape="http://www.inkscape.org/namespaces/inkscape"
   xmlns:sodipodi="http://sodipodi.sourceforge.net/DTD/sodipodi-0.dtd"
   xmlns="http://www.w3.org/2000/svg"
   xmlns:svg="http://www.w3.org/2000/svg">
  <sodipodi:namedview
     id="namedview529"
     pagecolor="#ffffff"
     bordercolor="#000000"
     borderopacity="0.25"
     inkscape:showpageshadow="2"
     inkscape:pageopacity="0.0"
     inkscape:pagecheckerboard="0"
     inkscape:deskcolor="#d1d1d1"
     inkscape:document-units="mm"
     showgrid="false"
     inkscape:zoom="0.67135815"
     inkscape:cx="558.56922"
     inkscape:cy="172.03932"
     inkscape:window-width="1920"
     inkscape:window-height="1035"
     inkscape:window-x="0"
     inkscape:window-y="23"
     inkscape:window-maximized="1"
     inkscape:current-layer="layer1"
     showguides="true">
    <sodipodi:guide
       position="157.72595,45.28199"
       orientation="0,-1"
       id="guide6168"
       inkscape:locked="false" />
  </sodipodi:namedview>
  <defs
     id="defs524" />
  <g
     inkscape:label="Ebene 1"
     inkscape:groupmode="layer"
     id="layer1"
     transform="translate(-0.25269775,-40.440576)">
    <path
       id="path709"
       style="fill:#c8c8c8;fill-opacity:1;stroke-width:0.9719;stroke-linecap:round;stroke-linejoin:round"
       d="m 280.49647,41.230771 c -17.71232,-0.502518 -32.31064,23.059349 -41.14294,33.661065 -24.38423,20.626367 -24.80255,-0.701708 -37.15912,0.158628 -4.30858,0.299989 -9.59484,2.055385 -12.83956,1.74079 -3.69248,-0.358009 -6.21274,-3.127793 -10.52339,-3.621485 -2.91389,-0.333722 -4.53759,4.052179 -7.38456,4.475179 -3.10273,0.461001 -6.13153,-3.287048 -9.11779,-2.326989 -4.65311,1.495941 -4.08985,7.852974 -9.43302,11.226191 -5.34315,3.37321 -17.64469,2.88708 -23.37738,3.11092 C 110.49982,90.39768 93.956,84.149089 77.176685,74.685956 58.865906,64.35912 47.521965,49.330728 26.784928,48.650853 13.642944,48.219984 4.0546716,68.09001 0.25269775,72.937225 V 118.07866 H 361.24978 V 72.937225 C 348.76774,81.4527 349.15851,98.977364 339.41546,95.292967 323.03808,89.099756 307.14027,41.986686 280.49647,41.230771 Z"
       sodipodi:nodetypes="acassssssssccccsa" />
  </g>
</svg>
