<?xml version="1.0" encoding="UTF-8" standalone="no"?>
<!-- Created with Inkscape (http://www.inkscape.org/) -->

<svg
   width="1403.0078"
   height="375.16443"
   viewBox="0 0 371.21248 99.26226"
   version="1.1"
   id="svg5"
   inkscape:version="1.2.1 (9c6d41e4, 2022-07-14)"
   sodipodi:docname="layer0repeatable.svg"
   inkscape:export-filename="layer1.svg"
   inkscape:export-xdpi="96"
   inkscape:export-ydpi="96"
   xmlns:inkscape="http://www.inkscape.org/namespaces/inkscape"
   xmlns:sodipodi="http://sodipodi.sourceforge.net/DTD/sodipodi-0.dtd"
   xmlns="http://www.w3.org/2000/svg"
   xmlns:svg="http://www.w3.org/2000/svg">
  <sodipodi:namedview
     id="namedview7"
     pagecolor="#ffffff"
     bordercolor="#000000"
     borderopacity="0.25"
     inkscape:showpageshadow="2"
     inkscape:pageopacity="0.0"
     inkscape:pagecheckerboard="0"
     inkscape:deskcolor="#d1d1d1"
     inkscape:document-units="mm"
     showgrid="false"
     inkscape:zoom="0.63953961"
     inkscape:cx="817.77577"
     inkscape:cy="232.19828"
     inkscape:window-width="1440"
     inkscape:window-height="855"
     inkscape:window-x="0"
     inkscape:window-y="23"
     inkscape:window-maximized="1"
     inkscape:current-layer="layer2"
     showguides="true">
    <sodipodi:guide
       position="122.02721,6.5520459"
       orientation="0,-1"
       id="guide5475"
       inkscape:locked="false" />
  </sodipodi:namedview>
  <defs
     id="defs2" />
  <g
     inkscape:groupmode="layer"
     id="layer2"
     inkscape:label="Ebene 2"
     transform="translate(-0.33072917,51.808418)">
    <path
       id="rect408"
       style="fill:#003380;stroke:none;stroke-width:0.661474"
       d="m 0.33072917,-51.808418 v 91.88173 C 4.699179,41.177242 17.377489,36.184357 29.377018,40.799883 c 12.237886,5.937318 17.597511,8.609406 26.728085,5.055505 8.631817,-3.359768 16.678982,-7.532268 22.658048,-12.375989 5.702409,-4.619597 6.816283,2.633625 13.236918,5.267379 6.839708,2.805658 10.360131,-5.03658 18.391641,-7.611938 7.98302,-2.559808 15.46592,0.53666 21.61264,6.342765 6.96964,6.583482 16.70056,-7.066635 23.37738,-0.191203 8.40052,8.650388 17.26689,-0.679122 27.95488,3.424597 8.41021,3.229155 16.95196,-2.50089 25.72298,-2.380216 8.99395,0.12374 20.14573,10.092988 27.00869,2.231905 6.57469,-7.530961 19.89979,4.447808 26.17773,-1.517737 6.20284,-5.894237 16.50697,-7.336595 25.30233,-3.678328 10.80802,4.495394 22.00795,-1.066822 32.41869,-3.905188 10.36645,-2.826292 9.14529,-1.290336 16.4915,2.626713 9.36069,4.99119 6.70548,9.182199 35.08468,6.00015 v -91.896716 z" />
  </g>
</svg>
