<?xml version="1.0" encoding="UTF-8" standalone="no"?>
<!-- Created with Inkscape (http://www.inkscape.org/) -->

<svg
   width="1396"
   height="263.56903"
   viewBox="0 0 369.35833 69.735976"
   version="1.1"
   id="svg5"
   inkscape:version="1.2.1 (9c6d41e4, 2022-07-14)"
   sodipodi:docname="layer8repeatable.svg"
   inkscape:export-filename="layer5.svg"
   inkscape:export-xdpi="96"
   inkscape:export-ydpi="96"
   xmlns:inkscape="http://www.inkscape.org/namespaces/inkscape"
   xmlns:sodipodi="http://sodipodi.sourceforge.net/DTD/sodipodi-0.dtd"
   xmlns="http://www.w3.org/2000/svg"
   xmlns:svg="http://www.w3.org/2000/svg">
  <sodipodi:namedview
     id="namedview7"
     pagecolor="#ffffff"
     bordercolor="#000000"
     borderopacity="0.25"
     inkscape:showpageshadow="false"
     inkscape:pageopacity="0.0"
     inkscape:pagecheckerboard="0"
     inkscape:deskcolor="#d1d1d1"
     inkscape:document-units="mm"
     showgrid="false"
     inkscape:zoom="0.65678287"
     inkscape:cx="365.41757"
     inkscape:cy="192.60551"
     inkscape:window-width="1920"
     inkscape:window-height="1035"
     inkscape:window-x="0"
     inkscape:window-y="23"
     inkscape:window-maximized="0"
     inkscape:current-layer="layer2"
     showguides="true">
    <sodipodi:guide
       position="298.55337,-6.3976317"
       orientation="0,-1"
       id="guide4992"
       inkscape:locked="false" />
    <sodipodi:guide
       position="269.31356,9.2907363"
       orientation="0,-1"
       id="guide6904"
       inkscape:locked="false" />
  </sodipodi:namedview>
  <defs
     id="defs2" />
  <g
     inkscape:groupmode="layer"
     id="layer2"
     inkscape:label="Ebene 2"
     transform="translate(-0.44493407,12.140598)">
    <path
       id="rect841"
       style="fill:#c8c8c8;fill-opacity:1;stroke:none;stroke-width:0.517792"
       d="M 0.44493407 -12.266172 L 0.44493407 2.7582342 C 3.5323698 2.5082576 12.606143 6.6722864 19.359025 10.132461 C 24.286264 12.657175 26.160731 17.684242 34.921383 15.936241 C 43.368646 14.250768 51.765169 11.399679 59.680595 7.9873724 C 69.996589 3.5401982 83.232549 -3.0372771 93.312134 4.5705267 C 99.999105 9.6176804 106.43778 3.7100549 115.17281 8.1744411 C 125.29505 13.347803 131.46528 4.8407498 139.35739 0.48808852 C 149.22284 -4.9529547 158.37423 4.2398142 168.01765 4.5224676 C 201.18381 5.4945886 227.48625 17.124452 267.23072 -3.5555923 C 279.22618 -7.4490405 316.91089 -1.5837517 341.70472 0.16717788 C 351.1484 0.8340843 352.43498 2.0641242 369.85598 2.7525498 L 369.85598 -12.124062 L 0.44493407 -12.266172 z " />
  </g>
</svg>
