<?xml version="1.0" encoding="UTF-8" standalone="no"?>
<!-- Created with Inkscape (http://www.inkscape.org/) -->

<svg
   width="934.99994"
   height="207.24243"
   viewBox="0 0 247.3854 54.832894"
   version="1.1"
   id="svg5"
   inkscape:version="1.2.1 (9c6d41e4, 2022-07-14)"
   sodipodi:docname="layer4.svg"
   inkscape:export-filename="layer3.svg"
   inkscape:export-xdpi="96"
   inkscape:export-ydpi="96"
   xmlns:inkscape="http://www.inkscape.org/namespaces/inkscape"
   xmlns:sodipodi="http://sodipodi.sourceforge.net/DTD/sodipodi-0.dtd"
   xmlns="http://www.w3.org/2000/svg"
   xmlns:svg="http://www.w3.org/2000/svg">
  <sodipodi:namedview
     id="namedview7"
     pagecolor="#ffffff"
     bordercolor="#000000"
     borderopacity="0.25"
     inkscape:showpageshadow="2"
     inkscape:pageopacity="0.0"
     inkscape:pagecheckerboard="0"
     inkscape:deskcolor="#d1d1d1"
     inkscape:document-units="mm"
     showgrid="false"
     inkscape:zoom="0.5946522"
     inkscape:cx="104.26263"
     inkscape:cy="530.56223"
     inkscape:window-width="1896"
     inkscape:window-height="1035"
     inkscape:window-x="0"
     inkscape:window-y="23"
     inkscape:window-maximized="0"
     inkscape:current-layer="layer2" />
  <defs
     id="defs2" />
  <g
     inkscape:groupmode="layer"
     id="layer2"
     inkscape:label="Ebene 2"
     transform="translate(-124.13764,-65.070388)">
    <path
       id="path1577"
       style="display:inline;fill:#4da990;stroke-width:0;stroke-linecap:round;stroke-linejoin:round;fill-opacity:1"
       d="m 329.16957,65.070447 c -6.62984,-0.01462 -12.99267,2.807797 -19.61482,1.337386 -6.14305,-1.364046 -12.53899,-1.629147 -18.65364,-0.0031 -5.20846,1.385063 -8.39916,3.341286 -13.28136,2.304252 -4.88525,-1.03768 -9.36194,5.189283 -14.60376,4.122229 -5.29272,-1.077413 -10.99225,-4.30651 -15.81144,-0.383439 -3.52924,2.872981 -10.93659,2.678658 -11.83235,-2.592606 -1.60059,-9.418969 -17.51623,4.409514 -26.50019,5.442045 -5.26563,0.605181 -8.73031,-5.862454 -14.33763,-5.945374 -5.22486,-0.07726 -10.64176,-1.31859 -15.04921,1.897559 -5.06318,3.694632 -8.15338,10.988662 -15.22491,10.930082 -5.86314,-0.04857 -11.28949,-1.714884 -16.80053,0.472323 -8.33116,3.306453 -16.16064,8.022768 -23.32209,13.454992 3.8734,-2.014014 8.38705,-2.347075 12.66486,-2.706811 6.39736,-0.537976 14.06479,-0.825032 19.17971,3.86488 3.84494,3.525455 8.99729,9.436155 14.63528,5.790865 5.85815,-3.787643 11.96835,-1.98754 17.18655,0.99735 7.21342,4.12618 15.60898,4.0024 23.55825,5.21053 13.12167,1.99425 26.19289,5.13432 39.49888,4.28708 11.10297,-0.70697 21.16806,-5.50212 31.98306,-7.24038 9.63182,-1.54809 18.20839,3.25285 27.01696,5.9371 13.19154,4.01988 27.33262,3.48718 41.0378,4.72116 6.49827,0.58509 13.2532,0.6135 19.46652,2.61896 0.42578,0.13743 0.80591,0.23835 1.15755,0.31575 V 68.800452 c -1.62817,0.463213 -3.20078,0.844796 -4.34082,0.818038 -11.91223,-0.279586 -23.47127,-2.658823 -35.15341,-4.347022 -0.95954,-0.138664 -1.91214,-0.198932 -2.85926,-0.201021 z" />
  </g>
</svg>
