<?xml version="1.0" encoding="UTF-8" standalone="no"?>
<!-- Created with Inkscape (http://www.inkscape.org/) -->

<svg
   width="830.47601"
   height="868.61914"
   viewBox="0 0 219.73011 229.82216"
   version="1.1"
   id="svg5"
   inkscape:version="1.2.1 (9c6d41e4, 2022-07-14)"
   sodipodi:docname="layer5.svg"
   inkscape:export-filename="layer4.svg"
   inkscape:export-xdpi="96"
   inkscape:export-ydpi="96"
   xmlns:inkscape="http://www.inkscape.org/namespaces/inkscape"
   xmlns:sodipodi="http://sodipodi.sourceforge.net/DTD/sodipodi-0.dtd"
   xmlns="http://www.w3.org/2000/svg"
   xmlns:svg="http://www.w3.org/2000/svg">
  <sodipodi:namedview
     id="namedview7"
     pagecolor="#ffffff"
     bordercolor="#000000"
     borderopacity="0.25"
     inkscape:showpageshadow="2"
     inkscape:pageopacity="0.0"
     inkscape:pagecheckerboard="0"
     inkscape:deskcolor="#d1d1d1"
     inkscape:document-units="mm"
     showgrid="false"
     inkscape:zoom="0.8409652"
     inkscape:cx="539.26132"
     inkscape:cy="574.34006"
     inkscape:window-width="1344"
     inkscape:window-height="456"
     inkscape:window-x="0"
     inkscape:window-y="23"
     inkscape:window-maximized="0"
     inkscape:current-layer="layer2" />
  <defs
     id="defs2" />
  <g
     inkscape:groupmode="layer"
     id="layer2"
     inkscape:label="Ebene 2"
     transform="translate(1.074353,-97.184248)">
    <path
       id="path1753"
       style="display:inline;fill:#06dba0;fill-opacity:1;stroke-width:0;stroke-linecap:round;stroke-linejoin:round"
       d="m -1.074353,97.184248 v 114.770772 0.2806 114.77078 c 6.1940852,-0.97059 12.527607,-3.49864 15.952515,-9.30641 2.435928,-4.1307 5.398155,-7.56464 8.958109,-11.19364 3.151668,-3.21276 7.532528,-3.57476 11.792562,-4.38991 5.649866,-1.0811 8.136993,-7.43492 14.018783,-8.41809 6.044616,-1.01039 12.720548,-0.24297 17.946708,-4.28294 6.395412,-4.94384 11.275168,-12.16005 19.507336,-14.47767 4.282034,-1.20548 7.983201,-3.85296 12.652975,-3.94446 4.637765,-0.0908 9.283015,-1.14012 13.048295,-4.26951 7.5245,-6.25377 12.9928,-14.89456 21.71392,-19.67322 4.97016,-2.72334 9.21795,-7.17615 14.79807,-8.39897 4.45845,-0.97702 8.67012,-1.82375 13.23847,-3.38274 5.19974,-1.77448 10.4683,-4.14655 14.95567,-7.4352 4.96723,-1.62025 19.31571,-0.831 24.34581,-7.6967 5.27573,-7.20095 35.01175,-16.80774 0,-26.78028 -4.43984,-1.26461 -17.49087,-3.24488 -22.4581,-4.86512 -4.48737,-3.28869 -24.543,-18.24547 -29.74274,-20.01995 -16.50404,-12.91563 -18.36064,-7.0968 -35.90724,-22.01637 -8.38257,-4.14947 -21.228261,-4.21109 -29.476698,-6.64088 v 0 0 c -8.232173,-2.31758 -10.280356,-0.0953 -16.675768,-5.0391 -5.22616,-4.04001 -11.902086,-3.27256 -17.946708,-4.28295 -5.881792,-0.98317 -8.368911,-7.33699 -14.018783,-8.41809 -4.26003,-0.81515 -8.640895,-1.17711 -11.792562,-4.38991 -3.559947,-3.629 -6.522178,-7.06297 -8.958109,-11.19363 -3.424905,-5.80781 -9.7584317,-8.335831 -15.952515,-9.306412 z"
       sodipodi:nodetypes="ccccsssssccsssscascccccccssscc" />
    <path
       id="path7360"
       style="display:inline;fill:#06d6a0;fill-opacity:1;stroke-width:0;stroke-linecap:round;stroke-linejoin:round"
       d="m -1.074353,97.184248 v 114.770772 0.2806 114.77078 c 6.1940852,-0.97059 12.527607,-3.49864 15.952515,-9.30641 2.435928,-4.1307 5.398155,-7.56464 8.958109,-11.19364 3.151668,-3.21276 7.532528,-3.57476 11.792562,-4.38991 5.649866,-1.0811 8.136993,-7.43492 14.018783,-8.41809 6.044616,-1.01039 12.720548,-0.24297 17.946708,-4.28294 6.395412,-4.94384 11.275168,-12.16005 19.507336,-14.47767 4.282034,-1.20548 7.983201,-3.85296 12.652975,-3.94446 4.637765,-0.0908 9.283015,-1.14012 13.048295,-4.26951 7.5245,-6.25377 12.9928,-14.89456 21.71392,-19.67322 4.97016,-2.72334 9.21795,-7.17615 14.79807,-8.39897 4.45845,-0.97702 8.67012,-1.82375 13.23847,-3.38274 5.19974,-1.77448 10.4683,-4.14655 14.95567,-7.4352 4.96723,-1.62025 19.31571,-0.831 24.34581,-7.6967 5.27573,-7.20095 35.01175,-16.80774 0,-26.78028 -4.43984,-1.26461 -17.49087,-3.24488 -22.4581,-4.86512 -4.48737,-3.28869 -24.543,-18.24547 -29.74274,-20.01995 -16.50404,-12.91563 -18.36064,-7.0968 -35.90724,-22.01637 -8.38257,-4.14947 -21.228261,-4.21109 -29.476698,-6.64088 v 0 0 c -8.232173,-2.31758 -10.280356,-0.0953 -16.675768,-5.0391 -5.22616,-4.04001 -11.902086,-3.27256 -17.946708,-4.28295 -5.881792,-0.98317 -8.368911,-7.33699 -14.018783,-8.41809 -4.26003,-0.81515 -8.640895,-1.17711 -11.792562,-4.38991 -3.559947,-3.629 -6.522178,-7.06297 -8.958109,-11.19363 -3.424905,-5.80781 -9.7584317,-8.335831 -15.952515,-9.306412 z"
       sodipodi:nodetypes="ccccsssssccsssscascccccccssscc" />
  </g>
</svg>
