<?xml version="1.0" encoding="UTF-8" standalone="no"?>
<!-- Created with Inkscape (http://www.inkscape.org/) -->

<svg
   width="1396"
   height="263.56903"
   viewBox="0 0 369.35833 69.735976"
   version="1.1"
   id="svg5"
   inkscape:version="1.2.1 (9c6d41e4, 2022-07-14)"
   sodipodi:docname="layer8repeatable.svg"
   inkscape:export-filename="layer5.svg"
   inkscape:export-xdpi="96"
   inkscape:export-ydpi="96"
   xmlns:inkscape="http://www.inkscape.org/namespaces/inkscape"
   xmlns:sodipodi="http://sodipodi.sourceforge.net/DTD/sodipodi-0.dtd"
   xmlns="http://www.w3.org/2000/svg"
   xmlns:svg="http://www.w3.org/2000/svg">
  <sodipodi:namedview
     id="namedview7"
     pagecolor="#ffffff"
     bordercolor="#000000"
     borderopacity="0.25"
     inkscape:showpageshadow="false"
     inkscape:pageopacity="0.0"
     inkscape:pagecheckerboard="0"
     inkscape:deskcolor="#d1d1d1"
     inkscape:document-units="mm"
     showgrid="false"
     inkscape:zoom="31.283471"
     inkscape:cx="28.929015"
     inkscape:cy="42.850104"
     inkscape:window-width="2560"
     inkscape:window-height="1395"
     inkscape:window-x="0"
     inkscape:window-y="23"
     inkscape:window-maximized="1"
     inkscape:current-layer="layer2"
     showguides="true">
    <sodipodi:guide
       position="298.55337,-6.3976317"
       orientation="0,-1"
       id="guide4992"
       inkscape:locked="false" />
    <sodipodi:guide
       position="269.31356,9.2907363"
       orientation="0,-1"
       id="guide6904"
       inkscape:locked="false" />
  </sodipodi:namedview>
  <defs
     id="defs2" />
  <g
     inkscape:groupmode="layer"
     id="layer2"
     inkscape:label="Ebene 2"
     transform="translate(-0.44493407,12.140598)">
    <path
       id="rect841"
       style="fill:#00946e;fill-opacity:1;stroke:none;stroke-width:0.51775"
       d="M 0.44493407,-12.266172 V 2.7582342 C 3.531872,2.5082576 12.604182,6.6722864 19.355975,10.132461 c 4.926445,2.524714 6.800609,7.551781 15.559849,5.80378 8.445901,-1.685473 16.84107,-4.536562 24.755219,-7.9488686 C 69.985374,3.5401982 83.2192,-3.0372771 93.297159,4.5705267 c 6.685893,5.0471537 13.123531,-0.8604718 21.857151,3.6039144 10.12061,5.1733619 16.28984,-3.3336913 24.18068,-7.68635253 9.86386,-5.44104287 19.01377,3.75172563 28.65564,4.03437903 33.16081,0.972121 59.45901,12.6019844 99.19707,-8.0780599 11.99353,-3.893448 49.67216,1.9718406 74.46199,3.72277017 9.44216,0.6669064 10.72853,1.89694633 28.14672,2.58537193 V -12.124062 Z" />
  </g>
</svg>
