<?xml version="1.0" encoding="UTF-8" standalone="no"?>
<!-- Created with Inkscape (http://www.inkscape.org/) -->

<svg
   width="1400"
   height="288.27145"
   viewBox="0 0 1400 288.27146"
   version="1.1"
   id="svg5"
   inkscape:version="1.2.2 (b0a8486, 2022-12-01)"
   sodipodi:docname="layer1repeatable.svg"
   inkscape:export-filename="layer1.svg"
   inkscape:export-xdpi="96"
   inkscape:export-ydpi="96"
   xmlns:inkscape="http://www.inkscape.org/namespaces/inkscape"
   xmlns:sodipodi="http://sodipodi.sourceforge.net/DTD/sodipodi-0.dtd"
   xmlns="http://www.w3.org/2000/svg"
   xmlns:svg="http://www.w3.org/2000/svg">
  <sodipodi:namedview
     id="namedview7"
     pagecolor="#ffffff"
     bordercolor="#000000"
     borderopacity="0.25"
     inkscape:showpageshadow="2"
     inkscape:pageopacity="0.0"
     inkscape:pagecheckerboard="0"
     inkscape:deskcolor="#d1d1d1"
     inkscape:document-units="mm"
     showgrid="false"
     inkscape:zoom="2.5065193"
     inkscape:cx="306.00204"
     inkscape:cy="222.41999"
     inkscape:window-width="2560"
     inkscape:window-height="1387"
     inkscape:window-x="0"
     inkscape:window-y="25"
     inkscape:window-maximized="1"
     inkscape:current-layer="layer2"
     showguides="true">
    <sodipodi:guide
       position="462.45521,247.11285"
       orientation="0,-1"
       id="guide5475"
       inkscape:locked="false" />
  </sodipodi:namedview>
  <defs
     id="defs2" />
  <g
     inkscape:groupmode="layer"
     id="layer2"
     inkscape:label="Ebene 2"
     transform="translate(0,-30.011911)">
    <path
       id="path1095"
       style="display:inline;fill:#4da990;fill-opacity:1;stroke-width:0;stroke-linecap:round;stroke-linejoin:round"
       d="m 1400,69.640253 c -110.5332,12.704322 -96.6349,-3.267863 -132.2728,-22.270256 -27.6795,-14.758895 -23.0792,-20.545594 -62.1385,-9.896519 -39.2262,10.694569 -81.4257,31.652196 -122.1488,14.714174 -33.1397,-13.783838 -71.964,-8.34926 -95.3355,13.859403 -23.65436,22.477342 -73.8613,-22.657 -98.63384,5.71861 -25.85862,29.619465 -67.87681,-7.943256 -101.76477,-8.40949 -33.04799,-0.454682 -65.2319,21.135312 -96.92041,8.968304 C 650.51453,56.862239 617.10751,92.014555 585.45551,59.421101 560.29816,33.515432 523.63363,84.947167 497.37298,60.141526 474.21304,38.264931 446.01865,26.597921 415.93973,36.242916 385.6781,45.946509 372.4138,75.494909 346.64273,64.923583 322.45067,54.999963 318.25385,27.670878 296.76797,45.076874 274.23968,63.327336 243.91926,79.048638 211.39578,91.70778 176.99305,105.09838 156.79893,95.030363 110.68828,72.659377 64.365667,54.841743 15.263009,75.097566 0,69.640253 V 319.39291 h 1400 z"
       sodipodi:nodetypes="csssssssssssssccccc" />
  </g>
</svg>
