<?xml version="1.0" encoding="UTF-8" standalone="no"?>
<!-- Created with Inkscape (http://www.inkscape.org/) -->

<svg
   width="1300"
   height="100.18889"
   viewBox="0 0 1300 100.18889"
   version="1.1"
   id="svg5"
   inkscape:version="1.2.2 (b0a8486, 2022-12-01)"
   sodipodi:docname="layer8repeatable.svg"
   inkscape:export-filename="layer5.svg"
   inkscape:export-xdpi="96"
   inkscape:export-ydpi="96"
   xmlns:inkscape="http://www.inkscape.org/namespaces/inkscape"
   xmlns:sodipodi="http://sodipodi.sourceforge.net/DTD/sodipodi-0.dtd"
   xmlns="http://www.w3.org/2000/svg"
   xmlns:svg="http://www.w3.org/2000/svg">
  <sodipodi:namedview
     id="namedview7"
     pagecolor="#ffffff"
     bordercolor="#000000"
     borderopacity="0.25"
     inkscape:showpageshadow="false"
     inkscape:pageopacity="0.0"
     inkscape:pagecheckerboard="0"
     inkscape:deskcolor="#d1d1d1"
     inkscape:document-units="mm"
     showgrid="false"
     inkscape:zoom="0.95825905"
     inkscape:cx="222.2781"
     inkscape:cy="225.93056"
     inkscape:window-width="2560"
     inkscape:window-height="1387"
     inkscape:window-x="0"
     inkscape:window-y="25"
     inkscape:window-maximized="1"
     inkscape:current-layer="layer2"
     showguides="true"
     showborder="false">
    <sodipodi:guide
       position="1122.4875,-193.30732"
       orientation="0,-1"
       id="guide4992"
       inkscape:locked="false" />
    <sodipodi:guide
       position="1011.9748,-134.0127"
       orientation="0,-1"
       id="guide6904"
       inkscape:locked="false" />
  </sodipodi:namedview>
  <defs
     id="defs2" />
  <g
     inkscape:groupmode="layer"
     id="layer2"
     inkscape:label="Ebene 2"
     transform="translate(-6.3481717,17.887753)">
    <path
       id="rect841"
       style="fill:#00946e;fill-opacity:1;stroke:none;stroke-width:1.82405"
       d="M 6.3481717,-17.887753 V 31.434743 C 17.223581,30.554061 49.185654,48.3907 72.972431,60.581017 90.32847,69.475676 96.931219,87.186204 127.79032,81.027941 157.54555,75.089957 187.122,65.04547 215.00383,53.023793 251.34159,37.356245 297.96481,14.18357 333.46984,40.986132 c 23.55462,17.781293 46.23467,-3.031476 77.00353,12.696713 35.65522,18.225934 57.38967,-11.744716 85.18937,-27.079289 34.75073,-19.1689863 66.9862,13.217457 100.95484,14.213256 116.82674,3.424819 206.91905,39.257387 349.47476,-28.45929 40.12721,-19.0611749 174.99676,6.946868 262.33216,13.115453 33.2651,2.349533 36.5588,3.536415 97.9237,5.961768 v -49.322496 z"
       sodipodi:nodetypes="ccssssscsssccc" />
  </g>
</svg>
