<?xml version="1.0" encoding="UTF-8" standalone="no"?>
<!-- Created with Inkscape (http://www.inkscape.org/) -->

<svg
   width="1365"
   height="293.435"
   viewBox="0 0 1365 293.435"
   version="1.1"
   id="svg527"
   inkscape:version="1.2.2 (b0a8486, 2022-12-01)"
   sodipodi:docname="layer6repeatable-old.svg"
   xmlns:inkscape="http://www.inkscape.org/namespaces/inkscape"
   xmlns:sodipodi="http://sodipodi.sourceforge.net/DTD/sodipodi-0.dtd"
   xmlns:xlink="http://www.w3.org/1999/xlink"
   xmlns="http://www.w3.org/2000/svg"
   xmlns:svg="http://www.w3.org/2000/svg">
  <sodipodi:namedview
     id="namedview529"
     pagecolor="#ffffff"
     bordercolor="#000000"
     borderopacity="0.25"
     inkscape:showpageshadow="2"
     inkscape:pageopacity="0.0"
     inkscape:pagecheckerboard="0"
     inkscape:deskcolor="#d1d1d1"
     inkscape:document-units="mm"
     showgrid="false"
     inkscape:zoom="1.8988876"
     inkscape:cx="55.822156"
     inkscape:cy="289.90658"
     inkscape:window-width="2560"
     inkscape:window-height="1387"
     inkscape:window-x="0"
     inkscape:window-y="25"
     inkscape:window-maximized="1"
     inkscape:current-layer="layer1"
     showguides="true"
     inkscape:lockguides="true">
    <sodipodi:guide
       position="157.72595,45.28199"
       orientation="0,-1"
       id="guide6168"
       inkscape:locked="true" />
  </sodipodi:namedview>
  <defs
     id="defs524">
    <linearGradient
       inkscape:collect="always"
       id="linearGradient25939">
      <stop
         style="stop-color:#00946e;stop-opacity:1;"
         offset="0"
         id="stop25935" />
      <stop
         style="stop-color:#00946e;stop-opacity:0;"
         offset="1"
         id="stop25937" />
    </linearGradient>
    <linearGradient
       inkscape:collect="always"
       xlink:href="#linearGradient25939"
       id="linearGradient25941"
       x1="224.49652"
       y1="109.60545"
       x2="237.50188"
       y2="-55.917233"
       gradientUnits="userSpaceOnUse"
       gradientTransform="matrix(3.7775634,0,0,3.7775634,-0.70188403,-112.32627)" />
  </defs>
  <g
     inkscape:label="Ebene 1"
     inkscape:groupmode="layer"
     id="layer1"
     transform="translate(-0.25269775,-40.440576)">
    <path
       id="path709"
       style="fill:url(#linearGradient25941);fill-opacity:1;stroke-width:3.67141;stroke-linecap:round;stroke-linejoin:round"
       d="m 1139.2835,40.4481 c -44.7484,-0.999607 -89.1499,97.85127 -116.7127,147.99922 -33.37707,60.72642 -97.4804,125.78446 -166.75513,124.13075 -45.11823,-1.07702 -61.18686,-73.6916 -104.62528,-85.93576 -11.85275,-3.34098 -24.33518,6.2756 -36.59232,5.08719 -13.94857,-1.3524 -23.46902,-11.81543 -39.75277,-13.68038 -11.0074,-1.26066 -17.14103,15.30736 -27.89564,16.90527 -11.72076,1.74146 -23.16225,-12.41703 -34.44303,-8.79035 -17.57742,5.65101 -15.44967,29.66511 -35.63384,42.40765 -20.18408,12.74251 -66.65393,10.90613 -88.30953,11.7517 C 416.7182,283.12864 354.22287,259.52419 290.83794,223.77661 221.66781,184.76633 178.81535,127.99563 100.47988,125.42736 50.835202,123.79972 14.614895,144.88807 0.25269775,163.19873 V 333.72336 H 1365.9421 V 163.19873 c -47.1517,32.16775 -51.3622,105.69851 -84.4806,84.45023 -52.898,-33.93866 -95.7027,-206.16268 -142.178,-207.20086 z"
       sodipodi:nodetypes="ssssssssssssccccss" />
  </g>
</svg>
