<?xml version="1.0" encoding="UTF-8" standalone="no"?>
<!-- Created with Inkscape (http://www.inkscape.org/) -->

<svg
   width="1364.3984"
   height="355.48447"
   viewBox="0 0 360.99708 94.055263"
   version="1.1"
   id="svg527"
   inkscape:version="1.2.1 (9c6d41e4, 2022-07-14)"
   sodipodi:docname="layer6repeatable.svg"
   xmlns:inkscape="http://www.inkscape.org/namespaces/inkscape"
   xmlns:sodipodi="http://sodipodi.sourceforge.net/DTD/sodipodi-0.dtd"
   xmlns="http://www.w3.org/2000/svg"
   xmlns:svg="http://www.w3.org/2000/svg">
  <sodipodi:namedview
     id="namedview529"
     pagecolor="#ffffff"
     bordercolor="#000000"
     borderopacity="0.25"
     inkscape:showpageshadow="2"
     inkscape:pageopacity="0.0"
     inkscape:pagecheckerboard="0"
     inkscape:deskcolor="#d1d1d1"
     inkscape:document-units="mm"
     showgrid="false"
     inkscape:zoom="0.95133502"
     inkscape:cx="709.52923"
     inkscape:cy="247.54686"
     inkscape:window-width="1920"
     inkscape:window-height="1035"
     inkscape:window-x="22"
     inkscape:window-y="23"
     inkscape:window-maximized="0"
     inkscape:current-layer="layer1"
     showguides="true">
    <sodipodi:guide
       position="351.81918,60.959229"
       orientation="0,-1"
       id="guide6168"
       inkscape:locked="false" />
    <sodipodi:guide
       position="207.19786,69.580885"
       orientation="0,-1"
       id="guide549"
       inkscape:locked="false" />
  </sodipodi:namedview>
  <defs
     id="defs524" />
  <g
     inkscape:label="Ebene 1"
     inkscape:groupmode="layer"
     id="layer1"
     transform="translate(-0.25269775,-24.023391)">
    <path
       id="path709"
       style="fill:#c8c8c8;fill-opacity:1;stroke-width:0.9719;stroke-linecap:round;stroke-linejoin:round"
       d="M 296.25944 24.194957 C 290.41968 24.270611 284.67743 25.045739 279.56847 27.395278 C 260.72114 36.062878 248.18563 64.289908 239.35335 74.891604 C 214.96916 95.517929 214.55091 74.189915 202.19438 75.050251 C 197.8858 75.350238 192.59957 77.105823 189.35485 76.79123 C 185.66237 76.433221 183.14211 73.663437 178.83146 73.169745 C 175.91757 72.836025 174.29387 77.221926 171.4469 77.644924 C 168.34417 78.105925 165.31537 74.357877 162.32911 75.317934 C 157.676 76.813873 153.66028 83.804427 148.16822 85.988084 C 136.37475 90.67718 122.17992 90.543478 110.32867 90.211082 C 91.302802 89.67746 88.671534 84.983621 71.892253 75.520506 C 53.58151 65.19369 52.655535 59.424702 34.294031 49.763422 C 24.590224 44.657565 18.62006 41.723278 0.25269775 48.51957 L 0.25269775 118.07863 L 361.24978 118.07863 L 361.24978 57.062201 L 361.50093 54.551243 L 361.50093 48.530422 C 334.61396 40.139158 334.06316 34.157524 318.12787 27.631956 C 312.18054 25.196505 305.46006 24.324277 298.76678 24.202708 C 297.93011 24.187512 297.09369 24.184149 296.25944 24.194957 z " />
  </g>
</svg>
