<?xml version="1.0" encoding="UTF-8" standalone="no"?>
<svg
   id="ATISlogo"
   viewBox="0 0 423.41417 160.32922"
   version="1.1"
   sodipodi:docname="ATIS-white.svg"
   width="423.41418"
   height="160.32922"
   inkscape:version="1.2.1 (9c6d41e4, 2022-07-14)"
   xmlns:inkscape="http://www.inkscape.org/namespaces/inkscape"
   xmlns:sodipodi="http://sodipodi.sourceforge.net/DTD/sodipodi-0.dtd"
   xmlns="http://www.w3.org/2000/svg"
   xmlns:svg="http://www.w3.org/2000/svg">
  <sodipodi:namedview
     id="namedview1359"
     pagecolor="#ffffff"
     bordercolor="#000000"
     borderopacity="0.25"
     inkscape:showpageshadow="2"
     inkscape:pageopacity="0.0"
     inkscape:pagecheckerboard="true"
     inkscape:deskcolor="#d1d1d1"
     showgrid="false"
     inkscape:zoom="2.8035617"
     inkscape:cx="211.695"
     inkscape:cy="80.255055"
     inkscape:window-width="1735"
     inkscape:window-height="910"
     inkscape:window-x="0"
     inkscape:window-y="23"
     inkscape:window-maximized="0"
     inkscape:current-layer="ATISlogo" />
  <defs
     id="defs1328">
    <style
       id="style1326">.cls-1,.cls-2{fill:#f15a22;}.cls-2,.cls-3{fill-rule:evenodd;}.cls-3{fill:#005496;} #ATISlogo{max-width: 256px;height:100%}</style>
  </defs>
  <g
     id="g1375">
    <path
       class="cls-1"
       d="m 309.18002,64.219226 a 57.33,57.33 0 0 1 60.61,-64.09999985 c 0.24,36.33999985 -11.43,71.09999985 -60.61,64.09999985 z m 59,-22 c 4.5,-12.22 5.56,-27 4.87,-41.81999985 a 57.42,57.42 0 0 1 10.14,2.17000005 c -2.86,12.8699998 -7.48,27.0099998 -15.04,39.6699998 z m 2.12,7.91 c 8.64,-14.6 13.32,-31.51 15.85,-46.5499998 a 56.91,56.91 0 0 1 12.58,6.5699998 274.17,274.17 0 0 1 -28.46,39.99 z m -6.6,28.12 c 20.61,-14.67 44.33,-20.51 59.68,-22.92 a 57.59,57.59 0 0 1 -1.67,15.89 c -17.42,-1.43 -39.45,-0.96 -58.04,7.04 z m -1.63,8 c 18,-11.06 40.79,-13.14 59,-12.55 a 56.94,56.94 0 0 1 -6.86,14.85 c -17.97,-4.39 -37,-6.55 -52.18,-2.31 z m -18.68,23.750004 c 11.73,-23.430004 40.92,-24.490004 69,-18.900004 a 57.42,57.42 0 0 1 -69,18.900004 z m 76,-73.420004 a 237.46,237.46 0 0 0 -46.66,24.22 c 17.15,-16.31 31.28,-30 39.18,-37.64 a 57,57 0 0 1 7.44,13.39 z m 0.73,1.47 a 57.69,57.69 0 0 1 3.19,15.27 c -13.91,1.52 -34.78,5.34 -54.33,15.57 a 258.28,258.28 0 0 1 51.1,-30.89 z m -49.84,19.4 a 265.85,265.85 0 0 0 30.22,-45.77 57.91,57.91 0 0 1 10.32,10 c -8.3,7.09 -22.98,20.11 -40.58,35.75 z"
       id="path1330"
       style="fill:#ffffff" />
    <path
       class="cls-2"
       d="m 309.18002,64.219226 a 57.33,57.33 0 0 1 60.61,-64.09999985 c 0.24,36.33999985 -11.43,71.09999985 -60.61,64.09999985 z"
       id="path1332"
       style="fill:#ffffff" />
    <path
       class="cls-2"
       d="m 368.15002,42.239226 c 4.5,-12.22 5.56,-27 4.87,-41.81999985 a 57.42,57.42 0 0 1 10.14,2.17000005 c -2.83,12.8499998 -7.45,26.9899998 -15.01,39.6499998 z"
       id="path1334"
       style="fill:#ffffff" />
    <path
       class="cls-2"
       d="m 370.27002,50.139226 c 8.64,-14.6 13.32,-31.51 15.85,-46.5499998 a 56.91,56.91 0 0 1 12.58,6.5699998 274.17,274.17 0 0 1 -28.43,39.98 z"
       id="path1336"
       style="fill:#ffffff" />
    <path
       class="cls-2"
       d="m 363.67002,78.259226 c 20.64,-14.68 44.36,-20.52 59.71,-22.93 a 57.59,57.59 0 0 1 -1.67,15.89 c -17.42,-1.43 -39.45,-0.96 -58.04,7.04 z"
       id="path1338"
       style="fill:#ffffff" />
    <path
       class="cls-2"
       d="m 362.03002,86.239226 c 18,-11.06 40.79,-13.14 59,-12.55 a 56.94,56.94 0 0 1 -6.86,14.85 c -17.93,-4.38 -36.96,-6.54 -52.14,-2.3 z"
       id="path1340"
       style="fill:#ffffff" />
    <path
       class="cls-2"
       d="m 343.39002,109.99923 c 11.73,-23.430004 40.92,-24.490004 69,-18.900004 a 57.42,57.42 0 0 1 -69,18.900004 z"
       id="path1342"
       style="fill:#ffffff" />
    <path
       class="cls-2"
       d="m 419.35002,36.549226 a 237.46,237.46 0 0 0 -46.62,24.25 c 17.15,-16.31 31.28,-30 39.18,-37.64 a 57,57 0 0 1 7.44,13.39 z"
       id="path1344"
       style="fill:#ffffff" />
    <path
       class="cls-2"
       d="m 420.08002,37.999226 a 57.69,57.69 0 0 1 3.19,15.27 c -13.91,1.52 -34.78,5.34 -54.33,15.57 a 258.28,258.28 0 0 1 51.14,-30.84 z"
       id="path1346"
       style="fill:#ffffff" />
    <path
       class="cls-2"
       d="m 370.24002,57.429226 a 265.85,265.85 0 0 0 30.22,-45.77 57.91,57.91 0 0 1 10.32,10 c -8.26,7.11 -22.94,20.13 -40.54,35.77 z"
       id="path1348"
       style="fill:#ffffff" />
    <path
       class="cls-3"
       d="m 111.09002,160.32923 c 1.64,-6.38 2,-7.29 4.37,-16 l 10,-37.35 c 6.19,-23.140004 1.46,-32.250004 -20.22,-32.250004 H 36.570019 l -4.37,16.73 h 70.690001 c 6,0 6.92,1.64 5.83,5.47 -1.1,4.000004 -1.1,4.190004 -1.82,6.740004 H 34.900019 c -19.31,0 -27.8700001,11.84 -31.7000001,25.87 l -1.27,4.92 c -4.74,17.85 -1.45999996,25.87 17.8500001,25.87 z m -12.570001,-25.15 c -2.19,7.82 -3.49,8.39 -9.49,8.39 h -61 c -6.56,0 -8.93,-1.1 -7.29,-7.29 l 2.37,-8.74 c 1.64,-6.2 4.55,-7.29 11.11,-7.29 h 68.320001 z"
       id="path1350"
       style="fill:#ffffff" />
    <path
       class="cls-3"
       d="m 178.42002,160.32923 4.55,-16.76 h -26.23 c -7.65,0 -8.2,-1.46 -6.74,-6.92 l 12,-45.180004 h 32.43 l 4.6,-16.77 h -32.45 l 4.92,-18.58 h -19.31 l -20.77,77.430004 c -5.65,21.32 4.74,26.78 18.4,26.78 z"
       id="path1352"
       style="fill:#ffffff" />
    <path
       class="cls-3"
       d="m 236.63002,62.679226 4.92,-18.95 h -18.59 l -4.93,18.95 z m -25.87,97.650004 23,-85.630004 h -19.36 l -23,85.630004 z"
       id="path1354"
       style="fill:#ffffff" />
    <path
       class="cls-3"
       d="m 337.66002,134.26923 c 4,-15.12 -4,-25.87 -18.4,-25.87 h -55.93 c -4.55,0 -7.29,-3.64 -6,-8 1.27,-4.560004 6,-8.750004 10.38,-8.750004 h 74 l 4.32,-16.77 h -74.7 c -14,0 -27.87,11.48 -31.52,25.510004 -3.83,13.84 4.74,25.32 18.58,25.32 l 55.38,0.18 c 4.92,0 7.83,3.46 6.56,8.38 a 12.42,12.42 0 0 1 -11.48,9.11 h -75.04 l -4.55,16.94 75.79,-0.18 c 14.39,0 28.78,-11.47 32.61,-25.87 z"
       id="path1356"
       style="fill:#ffffff" />
  </g>
</svg>
