<svg id="ATISlogo" xmlns="http://www.w3.org/2000/svg" viewBox="0 0 423.39 160.33"><defs><style>.cls-1,.cls-2{fill:#f15a22;}.cls-2,.cls-3{fill-rule:evenodd;}.cls-3{fill:#005496;} #ATISlogo{max-width: 256px;height:100%}</style></defs><path class="cls-1" d="M309.15,64.22A57.33,57.33,0,0,1,369.76.12C370,36.46,358.33,71.22,309.15,64.22Zm59-22c4.5-12.22,5.56-27,4.87-41.82a57.42,57.42,0,0,1,10.14,2.17C380.3,15.44,375.68,29.58,368.12,42.24Zm2.12,7.91c8.64-14.6,13.32-31.51,15.85-46.55a56.91,56.91,0,0,1,12.58,6.57A274.17,274.17,0,0,1,370.24,50.14Zm-6.6,28.12C384.28,63.58,408,57.74,423.35,55.33a57.59,57.59,0,0,1-1.67,15.89C404.26,69.79,382.23,70.26,363.64,78.26Zm-1.63,8c18-11.06,40.79-13.14,59-12.55a56.94,56.94,0,0,1-6.86,14.85C396.21,84.16,377.18,82,362,86.24ZM343.36,110c11.73-23.43,40.92-24.49,69-18.9a57.42,57.42,0,0,1-69,18.9Zm76-73.42A237.46,237.46,0,0,0,372.7,60.8c17.15-16.31,31.28-30,39.18-37.64A57,57,0,0,1,419.32,36.55Zm.73,1.47a57.69,57.69,0,0,1,3.19,15.27c-13.91,1.52-34.78,5.34-54.33,15.57A258.28,258.28,0,0,1,420.05,38Zm-49.84,19.4a265.85,265.85,0,0,0,30.22-45.77,57.91,57.91,0,0,1,10.32,10C402.49,28.77,387.81,41.79,370.21,57.43Z"></path><path class="cls-2" d="M309.15,64.22A57.33,57.33,0,0,1,369.76.12C370,36.46,358.33,71.22,309.15,64.22Z"></path><path class="cls-2" d="M368.12,42.24c4.5-12.22,5.56-27,4.87-41.82a57.42,57.42,0,0,1,10.14,2.17C380.3,15.44,375.68,29.58,368.12,42.24Z"></path><path class="cls-2" d="M370.24,50.14c8.64-14.6,13.32-31.51,15.85-46.55a56.91,56.91,0,0,1,12.58,6.57A274.17,274.17,0,0,1,370.24,50.14Z"></path><path class="cls-2" d="M363.64,78.26C384.28,63.58,408,57.74,423.35,55.33a57.59,57.59,0,0,1-1.67,15.89C404.26,69.79,382.23,70.26,363.64,78.26Z"></path><path class="cls-2" d="M362,86.24c18-11.06,40.79-13.14,59-12.55a56.94,56.94,0,0,1-6.86,14.85C396.21,84.16,377.18,82,362,86.24Z"></path><path class="cls-2" d="M343.36,110c11.73-23.43,40.92-24.49,69-18.9a57.42,57.42,0,0,1-69,18.9Z"></path><path class="cls-2" d="M419.32,36.55A237.46,237.46,0,0,0,372.7,60.8c17.15-16.31,31.28-30,39.18-37.64A57,57,0,0,1,419.32,36.55Z"></path><path class="cls-2" d="M420.05,38a57.69,57.69,0,0,1,3.19,15.27c-13.91,1.52-34.78,5.34-54.33,15.57A258.28,258.28,0,0,1,420.05,38Z"></path><path class="cls-2" d="M370.21,57.43a265.85,265.85,0,0,0,30.22-45.77,57.91,57.91,0,0,1,10.32,10C402.49,28.77,387.81,41.79,370.21,57.43Z"></path><path class="cls-3" d="M111.06,160.33c1.64-6.38,2-7.29,4.37-16l10-37.35c6.19-23.14,1.46-32.25-20.22-32.25H36.54L32.17,91.46h70.69c6,0,6.92,1.64,5.83,5.47-1.1,4-1.1,4.19-1.82,6.74h-72c-19.31,0-27.87,11.84-31.7,25.87l-1.27,4.92c-4.74,17.85-1.46,25.87,17.85,25.87ZM98.49,135.18C96.3,143,95,143.57,89,143.57H28c-6.56,0-8.93-1.1-7.29-7.29l2.37-8.74c1.64-6.2,4.55-7.29,11.11-7.29h68.32Z"></path><path class="cls-3" d="M178.39,160.33l4.55-16.76H156.71c-7.65,0-8.2-1.46-6.74-6.92l12-45.18h32.43L199,74.7H166.55l4.92-18.58H152.16l-20.77,77.43c-5.65,21.32,4.74,26.78,18.4,26.78Z"></path><path class="cls-3" d="M236.6,62.68l4.92-18.95H222.93L218,62.68Zm-25.87,97.65,23-85.63H214.37l-23,85.63Z"></path><path class="cls-3" d="M337.63,134.27c4-15.12-4-25.87-18.4-25.87H263.3c-4.55,0-7.29-3.64-6-8,1.27-4.56,6-8.75,10.38-8.75h74L346,74.88h-74.7c-14,0-27.87,11.48-31.52,25.51-3.83,13.84,4.74,25.32,18.58,25.32l55.38.18c4.92,0,7.83,3.46,6.56,8.38a12.42,12.42,0,0,1-11.48,9.11H233.78l-4.55,16.94,75.79-.18C319.41,160.14,333.8,148.67,337.63,134.27Z"></path></svg>