<?xml version="1.0" encoding="UTF-8" standalone="no"?>
<!-- Created with Inkscape (http://www.inkscape.org/) -->
<svg width="120" height="111.93" version="1.0" xmlns="http://www.w3.org/2000/svg">
	<g transform="matrix(1.25 0 0 -1.25 -260.66 468.06)">
		<g transform="translate(8 -8.0007)" fill="#2a3e92">
			<path d="m273.46 342.85c.5381-.82503.50238-1.9012.60993-2.87-.0361-2.0447.14327-4.4841-.21548-6.5651-.17935-.86079-.7532-1.7577-1.65-2.0806-1.435-.64569-3.3724-.46629-4.6994.28693-1.1123.7893-1.2556 2.1167-1.3992 3.3724-.10755 2.4755-.28692 5.0942.39448 7.3542.53812 1.3991 2.0092 1.7578 3.3366 1.8656 1.3989 0 2.762-.21528 3.6232-1.3633z"/>
			<path d="m208.53 300.91v73.543h80v-73.543h-80zm42.188 64.753c-.96834.10757-2.1523.14347-3.1926.03592-.39465.0359-.86115 0-1.3274-.03592-8.6098-.68158-16.538-5.1659-21.489-12.807.35875.03588.78915-.10755 1.1479.03588.86115 1.2197 1.8296 2.4037 2.9059 3.5515.93275.89685 1.7937 1.758 2.7983 2.4036.9326-.60992 1.9731-1.1121 2.87-1.6862-1.1121-1.3991-2.2602-2.7981-3.0852-4.3049.25098-.10755.71748-.07167 1.0762 0 .89685 1.3274 1.8654 2.6548 3.0134 3.8386 1.5425-.574 3.0493-1.1838 4.6278-1.6144l.14347-.14347-.89685-2.0808c.39463-.07167.64583-.03573 1.0405 0 .32281.60993.57383 1.2915.93258 1.9014 2.0808-.46646 4.2692-.7175 6.4933-.7893.28707-.25101.07182-.78913.17937-1.1121h.96867c.10755.35873-.03592.75338.10755 1.0762 2.0808.10771 4.269.32303 6.2782.82521l.17938-.0359.9683-1.8655c.32302 0 .75357-.07167 1.0048.07182l-.89685 2.0806s.07145.07182.07145.07182c1.6504.43058 3.193 1.0762 4.7716 1.7219 1.112-1.1838 2.1525-2.5829 3.085-3.9462.39448 0 .78933-.03573 1.0762.07182-.43057.7893-.9687 1.5784-1.5425 2.26-.4663.68175-.9687 1.2915-1.5786 1.9374v.17935l2.5112 1.4707.35875.14365c2.1886-1.6862 4.1256-3.7311 5.6681-5.9911.43057 0 .78932-.14349 1.1481.03588-4.807 7.3184-12.735 12.018-21.309 12.7 0 0-.03605-.07181-.03605-.07181l-.07183.07181zm3.6954-1.6144v-.0718c-3.1212-2.2959-8.1795-2.5112-11.48-.3945-.17938.14347-.53815.21512-.57405.4663 3.8028.89685 8.2872.96867 12.054 0zm9.8654-4.3768-.0718-.14345-2.4755-1.3991h-.17936c-1.9013 1.9372-4.1256 3.6234-6.3856 4.9506.07183.2512.43058.43057.68175.60995 3.0132-.7893 5.8474-2.1524 8.4305-4.018zm-22.601 3.408c-2.2241-1.399-4.4125-3.0493-6.4215-5.0581-.96868.35875-1.8655.89685-2.7265 1.5066v.07182c2.2602 1.686 4.7714 2.9416 7.4261 3.8027.10755.10755.17937.2151.32285.2151v-.07162c.28692-.07183.50218.25102.75337.0359.2153-.17938.4663-.32302.64568-.5024zm18.834-5.4169-.07182-.10771c-1.3992-.60977-2.8342-1.1838-4.3768-1.5066-1.112 1.9013-2.3318 3.8026-3.695 5.6322.50206.28708 1.112.50218 1.6501.7893 2.3318-1.184 4.5918-2.87 6.4935-4.8071zm-16.144 4.0897-.10757-.28713c-1.3633-1.7219-2.4396-3.5874-3.5158-5.4169 0 0-.1435-.03592-.1435-.03592-1.4708.39467-2.9058.86097-4.269 1.4709l.07178.2151c1.9731 1.9015 4.0538 3.4799 6.3497 4.6996.53813-.2153 1.0762-.39467 1.6144-.64565zm3.4799-.6816c.10755-1.8656.03588-4.018.03588-5.9911-1.0046-.14347-1.9014.03591-2.9058.10755-.96867.14365-2.1884.2512-3.1571.57401 1.0405 1.9731 2.2602 3.8746 3.7311 5.6324l2.296-.32285zm3.3721.28692c1.3992-1.7937 2.7624-3.6233 3.695-5.5965-1.937-.46628-3.9101-.71748-5.9193-.71748-.07163 1.9015-.03572 4.018 0 5.9911.71748.10755 1.5068.21527 2.2243.32282zm-2.9058-12.197c-3.9462 1.6862-9.4708 1.8656-13.058-.75342-2.3319-1.7219-3.0494-4.8071-2.4394-7.5336.4663-2.5829 2.9057-4.4842 5.2375-5.381 3.193-1.148 6.5292-1.9731 9.7579-3.0854.32284-.1433.7534-.46628.68157-.8608 0-.32298-.32285-.50235-.57402-.64598-3.3722-.93262-7.0312-.21514-9.4708 2.3679-.28692.35872-.4663.78928-.75338 1.148l-4.843-.03605c-.07165-2.9057-.10757-6.242 0-9.1119l5.3811.03572.07183 1.7219c.60995-.28692 1.2197-.64567 1.8296-.9687 3.7309-1.5782 8.538-1.937 12.233 0 2.6906 1.5068 4.1256 4.4128 3.7307 7.5337-.39445 3.0493-3.2644 5.8117-6.1701 6.5651l-8.6817 2.5471-.64587.32285c-.2869.25119-.46628.57402-.39463.96867.68175 1.1838 2.2602.82505 3.444.78912 2.5112-.35874 5.0942-1.2197 6.5651-3.5515 1.5783 0 3.408-.03592 5.13.0359.07182 2.9418-.03573 5.5246-.07183 8.5023-1.6144.03577-3.5874.03577-5.2018-.0359-.07178-.43056.07182-1.0403-.10755-1.4709 0 0-1.6502.89685-1.6502.89685zm30.422-1.148c-4.6637 3.0136-11.767 3.2287-16.574.50236-2.6188-1.3633-4.3406-4.0539-4.8788-6.8161-.96868-4.5561-.71748-9.973 2.7263-13.381 4.018-3.5874 9.8655-4.3768 15.067-2.906.24663.0494 1.0314.2512 1.5695.54268l.1524.06725c1.6143.68177 3.1569 1.7937 4.3049 3.3005 2.6548 3.9462 2.8342 9.8655 1.2199 14.314-.64565 1.7219-1.9731 3.2646-3.5874 4.3766zm-60.951 2.1525s-2.2241-.03577-2.2241-.03577c-.03593-1.9014-.03593-4.1256 0-6.0629 1.2197-.03573 2.3677 0 3.5515-.10755v-12.197l-.03592-.5024s-3.5516-.07147-3.5516-.07147c-.07178-2.0092-.07178-3.9462 0-5.9193h15.821v5.9193c-1.184.07147-2.5112-.03608-3.6593.10755l.03591 12.592.07182.10775 3.5515.0359c.03588 2.0448.07163 4.2331-.03592 6.0986l-13.525.03577zm22.745-27.552c-.35875 0-.75343.07182-1.0046-.03573l.89685-2.1167-.10753-.10755c-1.6144-.46665-3.1928-1.0405-4.7355-1.6862 0 0-.14345.07183-.14345.07183-1.0044 1.112-1.9731 2.3318-2.7624 3.5513-.17937.60995-.89687.2512-1.2914.32303.86098-1.5782 2.0089-2.9775 3.1569-4.4125-.96863-.57387-1.9372-1.2199-2.9418-1.6862-2.1524 1.6504-4.1613 3.8029-5.6681 6.0629-.43055.07145-.71747.03573-1.148 0 2.583-4.0898 6.601-7.6773 10.798-9.7937 0 0 0 .03573.03593.03573.0359 0 .10755-.07183.0359-.10788 2.834-1.3989 5.8474-2.4033 9.0402-2.8339 11.014-1.471 21.525 3.3005 27.623 12.7-.32265.03573-.78932.03573-1.1481 0-1.5064-2.1886-3.4081-4.3053-5.4887-5.9554-.07182-.10755-.28692-.07149-.35875.03573-.89685.5742-1.8656 1.0405-2.7263 1.6144 1.148 1.3992 2.26 2.7985 3.1211 4.341h-1.1123c-.89685-1.3274-1.8294-2.7267-3.0132-3.9101-1.5786.64532-3.0136 1.2195-4.6279 1.6501l-.17938.14365c.2512.71749.71748 1.3989.86113 2.1164h-.96868l-.96867-1.937c-2.1168.46593-4.4486.71748-6.6009.86075-.10775.32303.0359.78932-.10775 1.0762h-.9326c-.07182-.43057.10755-.75322-.1077-1.1123-2.2241-.10719-4.3766-.35874-6.4574-.78894l-.96847 1.9013zm7.5336-8.2511c-.75337-.17935-1.5786-.17935-2.2961-.35873-1.4707 1.7576-2.6906 3.6592-3.7309 5.6324l.17938.14365c1.8656.35873 3.8027.64528 5.8118.64528 0 0 .03588-6.0626.03588-6.0626zm7.0674 5.3451.03572-.10717c-1.0044-1.9374-2.26-3.8029-3.6232-5.5606-.60995-.07215-1.1841.17937-1.7937.2151 0 0-.60993.07149-.60993.07149-.07182 2.1167-.10773 3.9823 0 6.0986 2.0449-.03573 4.0895-.25083 5.9911-.71748zm-14.171-.32265c1.0404-1.9731 2.3319-3.8386 3.6234-5.7038-.50222-.28725-1.1121-.46663-1.6144-.75357-2.3678 1.1838-4.6278 2.8339-6.5292 4.807v.10793c1.3992.68173 2.87 1.1838 4.3767 1.5786l.14345-.0361zm19.731-1.5068c-1.148-1.3271-2.6191-2.4755-3.9823-3.4438-.82505-.50235-1.6501-1.0405-2.5112-1.4707l-1.5425.68143.10755.25115c1.2917 1.758 2.4394 3.5517 3.4442 5.4526l.10755.0722c1.5425-.35877 3.0132-.86115 4.3768-1.5429zm3.8382-2.0446c-2.0088-1.6144-4.3406-2.6906-6.7082-3.5874l-1.6862-.53811c-.28693.14328-.5381.35873-.7893.57383l.07182.10755c2.2957 1.3632 4.3768 3.0133 6.3498 4.9863.96833-.39445 1.9013-.93257 2.762-1.5422zm-22.744-3.5517c-.17938-.2151-.4665-.43055-.7175-.57383-3.0136.78898-5.8117 2.1524-8.3948 4.0177v.10788c.86113.5381 1.7221 1.112 2.6548 1.5064 2.0448-2.0446 4.1613-3.5874 6.4574-5.0582zm12.843-.82535c.10755-.21515-.17937-.14332-.25118-.21515-3.8026-.82502-8.0358-.8611-11.839.07183-.07165.17937.17937.21547.2871.32267 3.3363 2.1886 8.5382 2.1886 11.803-.17935z"/>
		</g>
		<rect transform="scale(1,-1)" x="220.85" y="-365.36" width="71.366" height="71.366" fill="none"/>
	</g>
</svg>
