<?xml version="1.0" encoding="UTF-8" standalone="no"?>
<!-- Created with Inkscape (http://www.inkscape.org/) -->

<svg
   version="1.1"
   id="svg11246"
   width="106.72522"
   height="106.39841"
   viewBox="0 0 106.72522 106.39841"
   sodipodi:docname="catnip-laptop-back.svg"
   inkscape:version="1.2.1 (9c6d41e4, 2022-07-14)"
   xmlns:inkscape="http://www.inkscape.org/namespaces/inkscape"
   xmlns:sodipodi="http://sodipodi.sourceforge.net/DTD/sodipodi-0.dtd"
   xmlns="http://www.w3.org/2000/svg"
   xmlns:svg="http://www.w3.org/2000/svg">
  <defs
     id="defs11250" />
  <sodipodi:namedview
     id="namedview11248"
     pagecolor="#ffffff"
     bordercolor="#000000"
     borderopacity="0.25"
     inkscape:showpageshadow="2"
     inkscape:pageopacity="0.0"
     inkscape:pagecheckerboard="0"
     inkscape:deskcolor="#d1d1d1"
     showgrid="false"
     inkscape:zoom="6.8167332"
     inkscape:cx="57.505551"
     inkscape:cy="59.779368"
     inkscape:window-width="1920"
     inkscape:window-height="1035"
     inkscape:window-x="0"
     inkscape:window-y="23"
     inkscape:window-maximized="1"
     inkscape:current-layer="g11252" />
  <g
     inkscape:groupmode="layer"
     inkscape:label="Image"
     id="g11252"
     transform="translate(-7.8324765,-5.1819976)">
    <path
       id="path17551"
       style="fill:#ffffff;stroke-width:2.26772;stroke-linecap:round;stroke-linejoin:round;paint-order:stroke fill markers"
       d="M 56.096148,5.4046538 C 49.508071,4.9494499 43.446035,9.7722856 38.42919,12.013555 c -2.406729,-3.2141774 -4.817085,-2.82105 -4.781465,1.463541 1.653919,4.823518 -3.752183,7.5103 -4.911079,11.687446 -3.852225,7.080245 -1.976923,16.485781 3.857549,21.917846 -5.153731,3.371076 -7.160629,10.420389 -11.455551,14.971907 -2.712611,3.729403 -7.37623,11.335432 -2.577123,14.813555 4.68959,-4.842172 1.725052,8.407812 -1.579167,2.89176 -5.000984,-2.77197 -10.3626959,3.903468 -7.8445442,8.422706 1.5839022,5.294201 6.1670832,9.188474 10.2211472,12.736724 3.670673,3.20891 8.394787,4.65115 13.199576,4.99224 4.401232,0.7081 8.940956,1.07926 12.887928,3.29401 5.527433,2.1527 11.473212,2.59997 17.83154,1.22416 6.677918,-1.87149 13.523707,-3.38605 19.590114,-6.88944 3.928267,-1.32115 7.075413,-3.946093 9.867041,-6.911529 l 7.517244,-7.241405 v -5.427735 c -3.659309,-4.020633 -9.75089,-0.01238 -13.498231,-0.411228 2.191506,-3.185459 4.402231,-6.376491 6.603698,-9.565334 6.41124,2.292999 6.241752,-5.157498 8.401913,-8.87583 4.4794,-9.49039 8.16291,-19.325322 12.28168,-28.971826 -0.005,-4.695638 -2.70179,-5.708449 -6.66853,-3.997486 L 79.871539,30.234732 C 79.226706,26.238293 78.095624,23.286612 80.828552,18.870354 83.233874,14.269549 79.671263,10.094898 75.303926,13.887562 70.525351,15.177677 68.099706,7.0531758 62.792854,6.6682494 60.662861,5.8444527 58.383238,5.3871634 56.096148,5.4046538 Z"
       sodipodi:nodetypes="ccccccccccccccccccccccccccc" />
    <path
       style="fill:#000000;stroke-width:0.16"
       d="m 55.757082,111.55391 c -0.03832,-0.0383 -1.137456,-0.11176 -2.442529,-0.16322 -1.305076,-0.0515 -2.5455,-0.15919 -2.756496,-0.23941 -0.210999,-0.0802 -0.684946,-0.14842 -1.053218,-0.15156 -0.871595,-0.007 -3.245224,-0.59627 -3.685091,-0.91421 -0.101471,-0.0733 -0.472493,-0.22862 -0.824493,-0.34506 -0.352,-0.11644 -1.187475,-0.55926 -1.856613,-0.98405 -1.205451,-0.76525 -1.236635,-0.77466 -3.399139,-1.02529 -1.20039,-0.13913 -2.367602,-0.32332 -2.593803,-0.40932 -0.226202,-0.086 -0.907045,-0.15637 -1.512986,-0.15637 -1.092651,0 -2.649926,-0.24968 -2.957459,-0.47417 -0.088,-0.0642 -0.7,-0.2383 -1.36,-0.38681 -2.038,-0.45855 -2.619722,-0.59395 -3.2,-0.74481 -2.127435,-0.55308 -2.867654,-0.79048 -3.36,-1.07764 -0.308,-0.17964 -1.244,-0.66982 -2.08,-1.08929 -0.836,-0.41946 -1.7,-0.92504 -1.92,-1.1235 -0.22,-0.19846 -0.796,-0.55544 -1.28,-0.7933 -0.484,-0.23785 -1.024,-0.55505 -1.2,-0.70488 -0.176,-0.14984 -0.645123,-0.45754 -1.042496,-0.68378 -1.016363,-0.578657 -3.077063,-2.544803 -4.139346,-3.949404 -1.518755,-2.008168 -1.664436,-2.19401 -2.793544,-3.563666 -1.8066204,-2.191502 -2.2223404,-3.306046 -2.4441204,-6.552661 -0.11095,-1.624172 0.18525,-3.60527 0.66624,-4.456086 0.124368,-0.22 0.306776,-0.598 0.405348,-0.84 0.09857,-0.242 0.231593,-0.44 0.295603,-0.44 0.06401,0 0.523031,-0.31577 1.0200464,-0.70171 1.018202,-0.790652 2.277942,-1.177717 4.225195,-1.298229 0.891614,-0.05518 1.208296,-0.01598 1.397224,0.172945 0.134363,0.134364 0.384874,0.271372 0.55669,0.30446 0.627284,0.120803 0.903548,0.391963 1.413222,1.387107 0.286034,0.558485 0.520034,1.069427 0.52,1.135427 -3.4e-5,0.066 -0.174012,0.12 -0.386617,0.12 -0.260166,0 -0.553151,-0.210344 -0.896079,-0.643326 -0.280238,-0.353829 -0.808288,-0.779332 -1.173445,-0.945564 -0.652625,-0.297094 -0.689747,-0.296865 -2.181898,0.01349 -0.834887,0.17365 -1.878887,0.509154 -2.32,0.745564 -0.687189,0.368289 -0.876953,0.582835 -1.325348,1.49843 -0.8479084,1.731379 -0.9733044,3.029634 -0.5922214,6.131403 0.14814,1.205762 1.0833514,3.014315 2.1431234,4.144467 1.056645,1.126818 1.406895,1.548223 2.092423,2.517508 0.965069,1.364536 2.978812,3.323388 4.335036,4.216868 0.657673,0.43328 1.10533,0.83992 1.105869,1.004557 6.88e-4,0.21146 0.150295,0.28218 0.635287,0.30032 0.487802,0.0182 0.874831,0.2031 1.675014,0.8 1.196898,0.89284 3.920581,2.28541 5.208794,2.66316 2.570638,0.7538 4.339525,1.22426 5.18195,1.37822 0.518072,0.0947 1.022072,0.23528 1.12,0.31244 0.267368,0.21067 2.291599,0.55192 2.676631,0.45124 0.184889,-0.0483 1.174345,0.0512 2.198792,0.22119 1.024445,0.17001 2.229355,0.30931 2.677579,0.30957 0.986821,4.8e-4 2.271736,0.42274 3.329566,1.094 0.431485,0.2738 1.043485,0.58166 1.36,0.68412 0.316516,0.10246 0.863482,0.31399 1.215482,0.47006 0.998373,0.44266 2.127096,0.7452 3.52,0.94349 0.704,0.10022 1.64,0.2501 2.08,0.33307 0.44,0.083 2.492,0.16642 4.56,0.18542 3.479366,0.032 4.431352,-0.0275 8.08,-0.50501 1.2766,-0.16707 5.220078,-1.08256 5.91648,-1.37354 0.693099,-0.28959 1.20352,-0.29653 1.20352,-0.0163 0,0.21613 -0.145613,0.30003 -2.116918,1.21977 -1.356124,0.63271 -4.675013,1.4865 -5.32736,1.37047 -0.266352,-0.0474 -0.898813,0.0218 -1.405469,0.1538 -0.506655,0.13196 -1.40473,0.27563 -1.995722,0.31924 -1.735445,0.12809 -5.117078,0.22604 -5.192704,0.15041 z m 17.640938,-3.46849 c 0.004,-0.28609 0.647345,-0.85461 1.117235,-0.98722 0.22,-0.0621 0.544,-0.17175 0.72,-0.24368 0.858226,-0.35077 1.634613,-0.64018 1.96,-0.73061 0.198,-0.055 0.36,-0.16162 0.36,-0.23686 0,-0.0753 0.27,-0.22263 0.6,-0.32752 0.33,-0.10489 0.927074,-0.3964 1.32683,-0.6478 0.399757,-0.25141 1.045162,-0.56941 1.434232,-0.70668 0.746823,-0.2635 1.944778,-0.84374 2.878938,-1.39444 0.308,-0.18157 0.848,-0.48512 1.2,-0.67455 1.465384,-0.78861 4.045298,-2.580807 5.558373,-3.861267 0.110894,-0.09385 0.524649,-0.404351 0.919454,-0.690012 0.690805,-0.49983 3.111456,-2.591862 4.928424,-4.259358 1.280275,-1.174955 2.68027,-3.389853 3.304126,-5.227379 0.390038,-1.148827 0.583138,-2.870259 0.397418,-3.54288 -0.321505,-1.164387 -0.650366,-1.363234 -2.885387,-1.744656 -1.788805,-0.305272 -2.197029,-0.324367 -3.6,-0.168392 -2.335024,0.259595 -4.096955,0.763789 -5.982408,1.711925 l -1.68,0.84482 -0.823461,1.328242 c -1.047245,1.689206 -3.430176,4.16157 -4.482488,4.65072 -1.589299,0.738757 -1.887115,0.809562 -3.401421,0.808677 -1.372427,-8e-4 -1.591512,-0.04499 -2.447294,-0.493578 -1.734478,-0.909189 -2.160301,-1.24955 -2.651098,-2.119037 -0.590851,-1.04674 -1.565488,-3.929782 -1.693153,-5.008462 -0.08631,-0.729304 -0.30032,-4.46865 -0.288442,-5.04 0.0027,-0.132 -0.09431,-0.924 -0.215681,-1.76 -0.12137,-0.836 -0.220562,-1.965838 -0.220428,-2.510754 1.6e-4,-0.804412 -0.07958,-1.111377 -0.424184,-1.632107 -0.233435,-0.352744 -0.59175,-0.750987 -0.796254,-0.884984 -0.741648,-0.485947 -0.63119,-1.372155 0.171027,-1.372155 0.431375,0 1.349491,1.001459 1.832114,1.998426 0.241553,0.49898 0.320763,0.988571 0.320763,1.982609 0,0.726002 0.07237,1.455223 0.160818,1.620491 0.181441,0.339028 0.391033,2.285957 0.633411,5.883834 0.127721,1.89591 0.236753,2.586525 0.485253,3.073626 0.176284,0.345545 0.320518,0.740112 0.320518,0.876811 0,0.136699 0.06474,0.373568 0.143869,0.526374 0.07913,0.152807 0.313128,0.629317 0.52,1.058914 0.357651,0.742709 1.096064,1.434909 2.078025,1.947973 0.232044,0.121238 0.989802,0.267796 1.683908,0.325683 1.190428,0.09928 1.323052,0.07671 2.338105,-0.397866 0.591851,-0.276713 1.076093,-0.570675 1.076093,-0.653249 0,-0.08258 0.31468,-0.334552 0.699291,-0.559948 0.797365,-0.467288 2.603367,-2.467356 2.926693,-3.24119 0.380066,-0.909622 3.191566,-5.313378 4.215245,-6.602488 0.523509,-0.65925 1.788785,-2.359474 2.600681,-3.494683 1.066624,-1.491373 2.04984,-2.599807 2.43276,-2.742584 0.213828,-0.07973 0.62005,0.0087 1.185239,0.257981 1.682161,0.741963 3.197019,0.3573 4.197299,-1.065802 0.561522,-0.798882 1.102791,-2.277606 1.102791,-3.012784 0,-0.30892 -0.649637,-0.978491 -1.279999,-1.319275 -0.27637,-0.14941 -0.958563,-0.209917 -2.207202,-0.195768 l -1.8072,0.02048 -0.342888,-0.463782 c -0.353516,-0.478155 -0.860064,-0.594197 -1.379742,-0.316074 -0.151797,0.08124 -0.505656,0.60324 -0.786357,1.16 -0.371051,0.735973 -0.7328,1.176824 -1.325261,1.615048 -0.924814,0.684054 -1.948134,1.237243 -2.288729,1.237243 -0.12657,0 -0.637659,0.214374 -1.135754,0.476387 -0.498096,0.262015 -1.190262,0.561667 -1.538147,0.665896 -0.347886,0.104229 -0.712482,0.285855 -0.810211,0.403613 -0.09773,0.117757 -0.263787,0.214104 -0.369015,0.214104 -0.105227,0 -0.494411,0.232944 -0.864851,0.517654 -0.603685,0.463975 -0.662149,0.567672 -0.563795,1 0.06035,0.26529 0.09631,0.737508 0.07991,1.049373 -0.01641,0.311866 0.06678,0.851866 0.184864,1.2 0.239978,0.707525 0.194176,1.192973 -0.112553,1.192973 -0.111909,0 -0.336656,0.14717 -0.49944,0.327043 -0.162783,0.179874 -0.443943,0.305874 -0.624799,0.28 -0.270869,-0.03875 -0.347041,-0.20215 -0.432168,-0.927043 -0.05684,-0.484 -0.257312,-1.78 -0.445499,-2.88 -0.188186,-1.1 -0.412494,-2.432 -0.498462,-2.96 -0.08597,-0.528 -0.258271,-1.32 -0.382895,-1.76 -0.124622,-0.44 -0.276894,-1.16 -0.338379,-1.6 -0.06149,-0.44 -0.166394,-0.872 -0.233131,-0.96 -0.06674,-0.088 -0.173823,-0.412 -0.237965,-0.72 -0.06414,-0.308 -0.284603,-0.92 -0.489914,-1.36 -0.20531,-0.44 -0.453132,-1.16 -0.550716,-1.6 -0.09759,-0.44 -0.281439,-0.959467 -0.408564,-1.154371 -0.127126,-0.194904 -0.231137,-0.429821 -0.231137,-0.52204 0,-0.282626 -1.337971,-2.91829 -1.884576,-3.712418 -0.283483,-0.411854 -0.515424,-0.822952 -0.515424,-0.91355 0,-0.0906 -0.288,-0.431191 -0.64,-0.756874 -0.352,-0.325681 -0.64,-0.646299 -0.64,-0.712483 0,-0.06618 -0.252,-0.502976 -0.56,-0.97065 -0.308,-0.467675 -0.56,-0.931515 -0.56,-1.030756 0,-0.23322 -1.682123,-1.826858 -1.928291,-1.826858 -0.103096,0 -0.654031,0.252 -1.224298,0.56 -0.570267,0.308 -1.128925,0.56 -1.241461,0.56 -0.204244,0 -1.846427,0.665419 -3.372515,1.366557 -0.443609,0.203809 -0.983609,0.409497 -1.2,0.457083 -1.474717,0.324306 -4.266013,0.893362 -5.273435,1.075085 -1.29035,0.23276 -4.524574,0.295131 -5.44,0.10491 -0.308,-0.064 -1.388,-0.22876 -2.4,-0.366129 -2.783574,-0.377844 -3.727974,-0.560301 -4.083394,-0.788906 -0.177867,-0.114403 -0.609867,-0.24435 -0.96,-0.28877 -1.390132,-0.17636 -3.776472,-0.740376 -4.427942,-1.046553 -0.378765,-0.178011 -0.868664,-0.372373 -1.088664,-0.431917 -0.549979,-0.148851 -4.303589,-2.005363 -4.413219,-2.18275 -0.04877,-0.0789 -0.329429,-0.244056 -0.623698,-0.36701 -0.552808,-0.230979 -0.78368,-0.407413 -1.818462,-1.389685 -1.327653,-1.260283 -1.738154,-1.330019 -2.467981,-0.419259 -1.584798,1.977686 -1.921197,2.432974 -2.21707,3.000621 -0.182992,0.351077 -0.395205,0.676944 -0.471586,0.724149 -0.07638,0.04721 -0.274882,0.393299 -0.441115,0.769096 -0.166232,0.375796 -0.564282,1.056076 -0.884555,1.511732 -0.320272,0.455655 -0.582314,0.865036 -0.582314,0.909735 0,0.0447 -0.252,0.432037 -0.56,0.86075 -0.308,0.428712 -0.56,0.833234 -0.56,0.898933 0,0.127208 -1.05573,1.619098 -1.39672,1.973757 -0.111803,0.116285 -0.20328,0.276457 -0.20328,0.355939 0,0.07948 -0.54267,0.740338 -1.205934,1.468571 -0.663264,0.728234 -1.418098,1.698904 -1.677409,2.157045 -0.25931,0.458141 -0.616639,0.910674 -0.794065,1.005629 -0.177426,0.09495 -0.322592,0.283659 -0.322592,0.419342 0,0.135683 -0.329436,0.943151 -0.73208,1.794371 -0.402643,0.851221 -0.842626,1.799674 -0.977738,2.107674 -0.135113,0.308 -0.309677,0.685022 -0.387921,0.837829 -0.07824,0.152806 -0.143309,0.476806 -0.144589,0.72 -0.0013,0.243193 -0.100905,0.730171 -0.221386,1.082171 -0.367172,1.072736 -0.476091,3.264717 -0.195415,3.932738 0.31797,0.756784 0.613052,0.979262 1.298833,0.979262 0.463257,0 0.760689,-0.168856 1.608425,-0.913126 1.300434,-1.141719 1.816788,-1.889832 2.854804,-4.136144 1.228296,-2.658087 2.758763,-5.536581 3.341469,-6.284615 0.283579,-0.364037 0.794864,-1.033533 1.136187,-1.487768 0.667341,-0.888099 1.106573,-1.008104 1.18664,-0.324208 0.03333,0.284647 -0.189245,0.708165 -0.756037,1.438632 -0.441795,0.569376 -0.936925,1.215229 -1.100288,1.435229 -0.294198,0.396195 -0.753336,1.33964 -1.479446,3.04 -0.206684,0.484 -0.469314,0.993669 -0.583624,1.132598 -0.114309,0.13893 -0.207834,0.35853 -0.207834,0.488 0,0.129471 -0.06299,0.303802 -0.139986,0.387402 -0.07699,0.0836 -0.33698,0.656 -0.577753,1.272 -0.240773,0.616 -0.614288,1.516 -0.830035,2 -0.759687,1.704251 -0.852226,1.932414 -0.852226,2.101248 0,0.09372 -0.09822,0.397272 -0.218269,0.674571 -0.390774,0.902653 -0.718376,1.77141 -0.914139,2.424181 -0.105563,0.352 -0.249772,0.784 -0.320465,0.96 -0.136365,0.339504 -0.775367,3.775922 -0.877683,4.72 -0.03338,0.308 -0.09893,0.884 -0.145672,1.28 -0.298926,2.532638 -0.166732,6.281408 0.24953,7.076192 0.07956,0.151904 0.160798,0.817648 0.180533,1.479427 0.02903,0.973583 -0.01845,1.256789 -0.248757,1.48381 -0.271389,0.267513 -0.29535,0.266117 -0.514857,-0.03001 -0.126621,-0.170819 -0.230221,-0.403304 -0.230221,-0.516632 0,-0.113326 -0.184849,-0.756707 -0.410776,-1.429731 -0.524069,-1.561173 -0.672725,-4.264699 -0.390569,-7.103056 0.109348,-1.1 0.214814,-2.288 0.234367,-2.64 0.01955,-0.352 0.113294,-0.892 0.208312,-1.2 0.09502,-0.308 0.221229,-0.916858 0.280468,-1.353018 0.136682,-1.006344 0.810665,-3.402185 1.104714,-3.926982 0.123269,-0.22 0.276041,-0.676917 0.339495,-1.015371 l 0.11537,-0.615373 -0.893284,0.593107 c -0.884242,0.587104 -0.901463,0.591146 -1.70126,0.399277 -1.156206,-0.27737 -2.023077,-1.275621 -2.176907,-2.50683 -0.237034,-1.89716 0.95167,-6.127874 2.704006,-9.623823 1.260904,-2.515528 1.760279,-3.26563 3.705874,-5.566525 1.606014,-1.8993 1.907116,-2.2889 2.247884,-2.908568 0.503906,-0.916321 0.896695,-1.507027 1.380282,-2.075776 0.613579,-0.721628 1.381726,-1.96339 2.181933,-3.527236 0.62772,-1.22676 2.088345,-3.2162 2.891,-3.93768 0.393022,-0.353276 0.429245,-0.621199 0.118813,-0.878834 -0.121152,-0.100549 -0.56258,-0.771934 -0.980948,-1.491968 -0.418368,-0.720034 -0.841243,-1.390011 -0.939721,-1.488838 -0.160568,-0.161135 -2.038213,-3.840696 -2.365483,-4.635562 -0.642911,-1.56148 -0.699653,-4.750691 -0.138068,-7.76 0.188856,-1.012 0.385063,-2.2 0.436015,-2.64 0.05095,-0.44 0.190704,-0.942021 0.310561,-1.115602 0.119858,-0.173579 0.217922,-0.411057 0.217922,-0.527728 0,-0.11667 0.147998,-0.514649 0.328883,-0.8844 0.180887,-0.369748 0.388602,-0.96027 0.461589,-1.31227 0.07299,-0.352 0.255227,-1.072 0.404979,-1.6 0.149752,-0.528 0.326943,-1.178421 0.393755,-1.445378 0.06681,-0.266958 0.528573,-1.076428 1.026136,-1.798822 0.497562,-0.722394 0.904658,-1.352149 0.904658,-1.399458 0,-0.04731 0.503992,-0.677838 1.119984,-1.401179 0.623654,-0.732339 1.11999,-1.46604 1.12,-1.655624 8e-6,-0.187253 -0.107984,-0.598938 -0.239984,-0.914859 -0.268838,-0.64342 -0.317214,-1.977905 -0.09198,-2.537151 0.08141,-0.20214 0.243414,-0.717411 0.36,-1.145045 0.270226,-0.9911773 1.504582,-2.5637287 2.064307,-2.6298982 0.31732,-0.037513 0.717119,0.2546423 1.914375,1.3989389 0.832312,0.7954953 1.604272,1.4468323 1.715465,1.4474153 0.213571,0.0011 0.756314,-0.273358 1.157829,-0.585543 0.227781,-0.177105 1.790594,-1.0292293 3.069827,-1.6738253 0.324411,-0.1634657 0.634659,-0.3697412 0.689447,-0.4583905 0.05479,-0.088649 0.243101,-0.1611805 0.418474,-0.1611805 0.175371,0 0.585123,-0.1378438 0.910557,-0.3063195 1.070349,-0.5541141 2.407856,-1.1336805 2.616278,-1.1336805 0.112597,0 0.49513,-0.099896 0.850072,-0.2219917 0.354943,-0.1220955 1.113349,-0.3070489 1.685349,-0.4110078 0.572,-0.1039589 1.364,-0.3080592 1.76,-0.4535565 0.591536,-0.2173402 1.34805,-0.2630584 4.24,-0.256235 4.164264,0.00983 5.896845,0.3130968 7.242893,1.2677987 0.416409,0.295343 1.249251,0.7970382 1.850761,1.1148779 0.601511,0.3178397 1.386314,0.7898907 1.744007,1.0490024 0.357693,0.259112 0.733609,0.471112 0.835368,0.471112 0.101758,0 0.756957,0.43866 1.455993,0.9748003 0.699039,0.53614 1.777079,1.319605 2.395647,1.741035 0.618568,0.421429 1.221384,0.882769 1.339592,1.0252 0.269299,0.324487 0.714989,0.33315 0.975739,0.01896 0.10955,-0.132 0.318346,-0.24 0.46399,-0.24 0.145645,0 0.438818,-0.121882 0.651498,-0.270848 0.212678,-0.148966 0.988163,-0.472966 1.723299,-0.72 1.827215,-0.614014 3.536191,-0.633124 4.395583,-0.04915 0.32376,0.22 0.647475,0.4 0.719369,0.4 0.274818,0 0.897826,1.624607 0.877463,2.288147 -0.03549,1.156439 -0.206396,2.569092 -0.381317,3.151852 -0.33877,1.128624 -1.126301,2.644784 -1.741707,3.353146 -0.347311,0.399769 -0.7371,0.85122 -0.866197,1.003225 -0.278149,0.327506 -0.721981,0.208307 -0.721981,-0.193894 0,-0.155812 0.12036,-0.382108 0.267469,-0.502884 0.36259,-0.297686 1.278723,-2.309096 1.411765,-3.09959 0.05924,-0.352 0.178769,-0.872592 0.265616,-1.156872 0.24506,-0.802174 0.02816,-0.902269 -0.701786,-0.323856 -0.83196,0.65925 -1.882211,1.751173 -1.885829,1.960658 -0.0014,0.08804 -0.18152,0.329627 -0.4,0.536864 -0.48307,0.458211 -0.491278,0.648211 -0.06527,1.510936 0.182579,0.369748 0.464572,1.14027 0.626654,1.71227 0.301392,1.063645 1.059235,3.03328 1.662178,4.32 0.311115,0.663939 0.337894,1.000302 0.343945,4.32 0.0048,2.613765 -0.04978,3.718363 -0.199088,4.032054 -0.113109,0.237631 -0.206699,0.633631 -0.207979,0.88 -0.0013,0.24637 -0.114966,0.771476 -0.252634,1.1669 -0.137667,0.395425 -0.323272,1.115425 -0.412454,1.6 -0.08919,0.484576 -0.219827,0.953046 -0.290318,1.041046 -0.160443,0.200296 -1.098607,1.917664 -1.398477,2.56 -0.286699,0.614126 -0.261291,0.570589 -1.820888,3.12 -0.820506,1.341248 -1.795478,2.67355 -2.572139,3.514829 -0.68792,0.745157 -1.250765,1.43191 -1.250765,1.526118 0,0.09421 0.306,0.42732 0.68,0.740248 0.374,0.312927 0.839648,0.886173 1.034773,1.273882 0.195125,0.387707 0.608025,1.064923 0.917555,1.504923 0.309531,0.44 0.689883,1.000438 0.845227,1.245418 0.207994,0.328009 0.366795,0.41986 0.602445,0.348457 0.588422,-0.178293 12.440422,-0.362768 15.44,-0.240323 1.597269,0.0652 6.517104,-0.243717 7.585473,-0.476296 0.434184,-0.09452 0.825652,-0.06829 1.280002,0.08575 0.58262,0.197533 1.69469,0.130159 1.94254,-0.117686 0.152,-0.152 1.03048,-2.799117 1.03119,-3.107282 10e-4,-0.612665 1.63746,-5.373035 2.71439,-7.898038 0.2815,-0.66 0.55405,-1.344 0.60568,-1.52 0.0516,-0.176 0.25063,-0.572 0.44221,-0.88 0.19159,-0.308 0.58244,-1.064 0.86856,-1.68 1.90107,-4.092909 2.62063,-5.578238 3.002,-6.196821 0.47016,-0.762606 0.46269,-0.864685 -0.0721,-0.984286 -1.70678,-0.381752 -9.71609,-0.662461 -11.07009,-0.387983 -0.87952,0.178292 -5.764181,-0.106008 -7.283668,-0.423924 -0.720499,-0.150749 -2.825454,-0.263423 -6.303937,-0.337436 -3.034488,-0.06456 -5.306036,-0.177644 -5.42225,-0.269923 -0.258912,-0.205587 -0.258912,-0.865557 0,-0.952728 0.11,-0.03703 1.856,-0.03966 3.88,-0.0058 2.024,0.03383 4.58,0.0762 5.68,0.09417 1.1,0.01797 2.635734,0.122312 3.412744,0.231885 0.927566,0.130803 2.795827,0.180307 5.439999,0.144144 2.214992,-0.03029 5.323252,0.0059 6.907252,0.08042 1.584,0.07452 3.636,0.170429 4.56,0.213122 2.45012,0.113206 2.88,0.377252 2.88,1.768987 0,0.304128 0.15355,1.074878 0.34123,1.712781 l 0.34122,1.159822 -0.40218,0.956805 c -0.22119,0.526241 -0.56457,1.352803 -0.76305,1.836803 -0.19848,0.484 -0.66842,1.492 -1.04431,2.24 -0.37589,0.748 -0.75636,1.612 -0.84549,1.92 -0.29087,1.005141 -0.78284,2.202059 -1.28994,3.13832 -0.27361,0.505179 -0.49748,1.062989 -0.49748,1.239578 0,0.176588 -0.141,0.613803 -0.31333,0.971587 -0.27778,0.576723 -1.154,2.894821 -2.35886,6.240501 -0.21985,0.610492 -0.49433,1.258492 -0.60995,1.44 -0.11562,0.181507 -0.29924,0.634033 -0.40805,1.005614 -0.19916,0.680163 -0.66666,1.3244 -0.96106,1.3244 -0.28877,0 -0.32731,-0.422061 -0.0964,-1.055413 0.12526,-0.343523 0.35861,-0.984587 0.51855,-1.424587 0.15993,-0.44 0.48509,-1.232 0.72257,-1.76 0.23747,-0.528 0.59405,-1.448219 0.7924,-2.044931 0.19834,-0.596714 0.42215,-1.122963 0.49736,-1.169443 0.0752,-0.04648 0.13674,-0.198469 0.13674,-0.337749 0,-0.13928 0.324,-1.072373 0.72,-2.073536 0.396,-1.001165 0.72,-1.92805 0.72,-2.059744 0,-0.131695 0.20941,-0.616354 0.46536,-1.077021 0.25596,-0.460667 0.66115,-1.341576 0.90043,-1.957576 0.23929,-0.616 0.82187,-1.934194 1.29464,-2.92932 0.47276,-0.995125 0.86005,-1.967125 0.86062,-2.16 6.4e-4,-0.192874 0.14411,-0.56668 0.31895,-0.83068 0.23731,-0.358322 0.31816,-0.751382 0.31895,-1.550557 6.4e-4,-0.588806 -0.0663,-1.112155 -0.14852,-1.162998 -0.21313,-0.13172 -0.8467,0.769113 -1.45837,2.073555 -0.28885,0.616 -0.5917,1.207176 -0.673,1.313723 -0.0813,0.106549 -0.5214,0.970549 -0.97799,1.92 -0.45659,0.949453 -0.89953,1.834277 -0.98432,1.966277 -0.0848,0.132 -0.23604,0.456 -0.33611,0.72 -0.10007,0.264 -0.36223,0.912 -0.58258,1.44 -0.22035,0.528 -0.55946,1.392 -0.75356,1.92 -0.19411,0.528 -0.53781,1.390136 -0.76378,1.915858 -0.22596,0.525723 -0.47353,1.245723 -0.55015,1.6 -0.0766,0.354278 -0.31199,1.220142 -0.52306,1.924142 -0.21107,0.704 -0.46991,1.770952 -0.57519,2.371003 -0.10528,0.600053 -0.32075,1.431376 -0.47882,1.847384 -0.32254,0.848839 -0.42841,2.648363 -0.24131,4.101613 l 0.12359,0.96 -1.71672,3.36 c -0.9442,1.848 -1.79044,3.451654 -1.88053,3.563677 -0.11518,0.143209 -0.074,0.403488 0.13883,0.876729 0.19113,0.425045 0.29647,1.001964 0.2859,1.56565 -0.0175,0.93205 -0.60286,2.997658 -0.9278,3.273944 -0.10349,0.088 -0.424386,0.492069 -0.71309,0.897931 -0.550734,0.774229 -1.449963,1.299141 -2.662365,1.554117 -0.594645,0.125058 -1.018514,0.07142 -2.891965,-0.365974 -0.430403,-0.100487 -0.575555,-0.03454 -1.16,0.526988 -0.367389,0.35298 -0.668005,0.727575 -0.668005,0.832396 0,0.193123 -0.115035,0.348285 -1.682741,2.269686 -0.482493,0.591351 -0.877259,1.132087 -0.877259,1.201636 0,0.06955 -0.162,0.305716 -0.36,0.524817 -0.598693,0.662495 -1.562067,2.218202 -1.425786,2.302429 0.0702,0.04339 0.483676,-0.08607 0.918826,-0.287674 0.435152,-0.201609 1.078235,-0.416136 1.429072,-0.476726 1.168208,-0.20175 2.23109,-0.458085 2.873038,-0.692886 0.876421,-0.320564 2.647592,-0.264448 5.067728,0.160558 1.933356,0.339522 2.338147,0.622901 3.166217,2.216542 l 0.46966,0.90388 -0.16772,2.21612 c -0.10591,1.399565 -0.24165,2.275919 -0.36837,2.378408 -0.11037,0.08926 -0.2555,0.413258 -0.32252,0.72 -0.067,0.306743 -0.25646,0.729424 -0.421,0.939292 -0.16453,0.209867 -0.29915,0.477649 -0.29915,0.595073 0,0.347179 -0.615233,1.424304 -1.043166,1.826327 -0.218256,0.205041 -0.39683,0.456084 -0.39683,0.557872 0,0.267235 -2.855633,2.966761 -3.839999,3.630083 -0.22,0.148248 -0.718218,0.561936 -1.10715,0.919304 -0.388932,0.357373 -0.772815,0.649763 -0.853072,0.649763 -0.08026,0 -0.453456,0.252 -0.82933,0.56 -0.375872,0.308 -0.734165,0.56 -0.796205,0.56 -0.06204,0 -0.447715,0.341997 -0.857059,0.759997 -0.863253,0.88151 -1.87959,1.55714 -3.539458,2.35294 -0.650249,0.31175 -1.262249,0.67276 -1.36,0.80223 -0.203483,0.26953 -4.866769,2.64483 -5.19244,2.64483 -0.118147,0 -0.399515,0.14529 -0.625264,0.32286 -0.225747,0.17757 -0.813104,0.43826 -1.305235,0.57932 -0.492133,0.14105 -0.985945,0.32954 -1.09736,0.41886 -0.119512,0.0958 -0.562921,0.12006 -1.0814,0.0591 -0.622003,-0.0731 -1.047781,-0.0327 -1.456966,0.13828 -0.702271,0.29343 -1.340051,0.31326 -1.336296,0.0416 z M 83.706109,70.669618 c 0.313031,-0.184691 0.569146,-0.286819 0.569146,-0.22695 0,0.05987 0.234,-0.03229 0.52,-0.204791 0.286,-0.172505 0.808,-0.403971 1.16,-0.514371 0.352,-0.110398 1.11268,-0.443131 1.690398,-0.739405 0.57772,-0.296273 1.121108,-0.538678 1.20753,-0.538678 0.258621,0 1.298494,-1.169499 1.422656,-1.6 0.281037,-0.974421 1.643648,-1.88989 3.025202,-2.032478 0.719088,-0.07422 0.886947,-0.03298 1.308048,0.321355 0.4374,0.368048 0.576881,0.397993 1.47463,0.316589 0.796301,-0.07221 0.991536,-0.144109 0.991536,-0.365165 0,-0.151391 0.207016,-0.663391 0.460037,-1.137778 1.25308,-2.349401 1.779962,-3.398689 1.779962,-3.544803 0,-0.258222 1.277156,-2.708314 1.715626,-3.291254 0.27742,-0.368831 0.35002,-0.584821 0.23517,-0.699672 -0.23507,-0.235064 -2.248746,-0.183591 -6.990795,0.178696 -1.372818,0.104883 -2.715442,0.08504 -4.71111,-0.06962 -1.535111,-0.118966 -2.831111,-0.193701 -2.88,-0.166075 -0.04889,0.02763 -2.247655,0.09999 -4.886144,0.160803 -2.63849,0.06082 -4.82464,0.13796 -4.858111,0.171432 -0.05898,0.05898 0.09559,0.322123 1.427949,2.431093 0.346845,0.549013 0.627416,1.194928 0.627416,1.444398 0,0.248202 0.09629,0.593296 0.213984,0.766875 0.33343,0.491772 1.226016,2.737685 1.226016,3.084888 0,0.171343 0.105054,0.398719 0.233454,0.505282 0.310493,0.257686 1.336263,3.462403 1.517199,4.740042 0.07901,0.557905 0.189683,1.088852 0.245942,1.179881 0.161178,0.260791 0.655619,0.194712 1.274259,-0.170296 z m 16.323721,-5.784195 c 0.34206,-0.638 0.78921,-1.42857 0.99367,-1.756821 0.20447,-0.328251 0.37175,-0.675054 0.37175,-0.770675 0,-0.09562 0.16872,-0.403051 0.37493,-0.683179 0.56933,-0.773397 0.95702,-2.191867 0.74878,-2.739581 -0.29335,-0.77157 -0.40437,-0.597181 -2.540357,3.990256 -1.053883,2.263418 -1.215751,2.71341 -1.064234,2.958568 0.227127,0.367498 0.526983,0.09907 1.115461,-0.998568 z M 59.909253,53.994157 c 0.0693,-0.04266 1.046184,-0.267038 2.170853,-0.498609 1.124669,-0.231573 2.276669,-0.549565 2.56,-0.70665 0.283331,-0.157085 0.875149,-0.382979 1.315149,-0.501985 0.44,-0.119008 1.484,-0.543303 2.32,-0.942879 1.33531,-0.638225 1.701421,-0.911926 3.013091,-2.252555 0.821202,-0.839331 1.631437,-1.793648 1.800523,-2.120706 0.169087,-0.327057 0.452032,-0.67204 0.628768,-0.766625 0.307028,-0.164315 0.487096,-0.444352 1.190927,-1.852079 0.17232,-0.344656 0.436915,-0.770646 0.587992,-0.946646 0.151075,-0.176 0.429776,-0.716 0.619334,-1.2 0.189559,-0.484 0.43828,-0.988 0.552714,-1.12 0.886363,-1.022419 2.528721,-6.252376 2.48711,-7.92 -0.0066,-0.264 -0.03244,-1.632 -0.05745,-3.04 -0.05325,-2.997992 -0.163473,-3.479846 -1.463989,-6.4 -0.195956,-0.44 -0.515806,-1.334619 -0.710777,-1.988042 -0.19497,-0.653422 -0.523261,-1.517422 -0.729536,-1.92 -0.206275,-0.402577 -0.465816,-1.055958 -0.576757,-1.451958 -0.282694,-1.009069 -0.939028,-1.947912 -2.443593,-3.495394 -1.509151,-1.552204 -2.665792,-2.475538 -4.117463,-3.28693 -0.297492,-0.166279 -0.576894,-0.350568 -0.620894,-0.409532 -0.044,-0.05896 -0.626043,-0.444917 -1.293429,-0.857675 -0.917768,-0.5676103 -1.369833,-0.7504683 -1.855329,-0.7504683 -0.609616,0 -0.724615,0.08788 -2.286469,1.7472553 -0.904512,0.96099 -2.013615,2.243175 -2.464671,2.849301 -0.451056,0.606124 -1.151347,1.493859 -1.556201,1.972744 -0.404855,0.478885 -0.976482,1.338699 -1.270283,1.910699 -0.293802,0.572 -0.620632,1.148 -0.72629,1.28 -0.105659,0.132 -0.352171,0.636 -0.547803,1.12 -3.266103,8.080413 -3.792603,9.696187 -4.144816,12.72 -0.07175,0.616 -0.338413,2.056 -0.592583,3.2 -0.442331,1.990906 -0.462006,2.251336 -0.459337,6.08 0.0034,4.890576 0.211886,6.190069 1.458859,9.093486 0.296093,0.689418 0.538352,1.490602 0.538352,1.78041 0,0.289806 0.09423,0.605126 0.2094,0.700709 0.383803,0.318528 2.662958,0.439341 4.544598,0.240899 0.9867,-0.104061 1.8507,-0.224106 1.92,-0.26677 z M 39.796908,49.934178 c -0.112661,-0.422816 -0.303594,-0.928944 -0.424296,-1.124728 -0.120701,-0.195785 -0.293512,-0.915785 -0.384026,-1.6 -0.09051,-0.684216 -0.233235,-1.604027 -0.317163,-2.044027 -0.08393,-0.44 -0.192792,-1.088 -0.24192,-1.44 -0.04913,-0.352 -0.161213,-1.072 -0.249077,-1.6 -0.638513,-3.837008 -0.604529,-7.929154 0.09434,-11.36 0.143406,-0.704 0.31911,-1.568 0.390454,-1.92 0.17239,-0.850544 0.576934,-2.337986 0.957347,-3.52 0.169928,-0.528 0.398818,-1.284 0.508643,-1.68 0.109826,-0.396 0.259164,-0.7884 0.331863,-0.872 0.0727,-0.0836 0.132179,-0.277611 0.132179,-0.431136 0,-0.153525 0.258595,-0.841125 0.574656,-1.528 0.316064,-0.686875 0.749427,-1.788864 0.96303,-2.448864 0.392495,-1.212739 0.889981,-2.269856 1.285866,-2.732352 0.118803,-0.138795 0.558105,-0.800735 0.976229,-1.470981 1.809147,-2.900043 3.910299,-5.7167017 4.767491,-6.3909695 1.354582,-1.065515 -0.990603,-0.6052443 -2.967269,0.5823618 -0.22,0.1321788 -0.73436,0.3852574 -1.143021,0.5623974 -0.408662,0.17714 -1.383947,0.737754 -2.167299,1.2458083 -0.783354,0.508055 -1.536224,0.995736 -1.673045,1.083736 -1.176859,0.756926 -1.610033,1.105139 -1.982873,1.593957 -0.237458,0.311324 -0.559383,0.566043 -0.715388,0.566043 -0.288027,0 -1.2954,0.778093 -3.158992,2.439999 -0.567406,0.506 -1.090804,0.92 -1.163107,0.92 -0.0723,0 -0.211131,0.241413 -0.30851,0.536472 -0.09738,0.295059 -0.36089,0.709059 -0.585579,0.92 -0.620991,0.58299 -2.40446,3.359794 -2.507135,3.903528 -0.04985,0.264 -0.272043,1.02 -0.49376,1.68 -0.221715,0.66 -0.628662,1.956 -0.904326,2.88 -0.275664,0.924 -0.56016,1.86 -0.632215,2.08 -0.741376,2.263629 -0.868521,3.006298 -0.876548,5.12 -0.01099,2.896152 0.05858,3.563926 0.508496,4.88 0.438318,1.282165 1.656291,3.770451 2.192878,4.48 0.199648,0.264 0.480666,0.708488 0.624483,0.98775 0.510615,0.991493 3.59733,4.141615 4.385941,4.476032 0.286,0.121282 0.52,0.286317 0.52,0.366748 0,0.24026 3.577427,1.936043 3.740424,1.773046 0.08809,-0.08809 0.06476,-0.451206 -0.05877,-0.914821 z M 77.732447,16.684825 c 0.423709,-0.39633 0.951792,-0.803256 1.173518,-0.904282 0.221727,-0.101026 0.444205,-0.313072 0.494399,-0.471216 0.05019,-0.158144 0.230153,-0.331619 0.399913,-0.385498 0.16976,-0.05388 0.451234,-0.420285 0.625496,-0.814235 l 0.316842,-0.716273 -0.346238,-0.39821 c -0.319236,-0.367152 -0.421695,-0.390651 -1.31368,-0.301295 -0.842528,0.0844 -2.352812,0.505711 -3.807442,1.062125 -0.607642,0.232431 -0.567541,0.722881 0.125285,1.53229 0.310907,0.363226 0.710277,0.988186 0.887488,1.3888 0.177211,0.400616 0.401365,0.728392 0.498121,0.728392 0.09676,0 0.522591,-0.324269 0.946298,-0.720598 z M 35.277609,13.565424 c 0.352,-0.352 0.706345,-0.64 0.787436,-0.64 0.08109,0 0.385632,-0.245756 0.67676,-0.546123 0.518679,-0.535142 0.523644,-0.553642 0.246872,-0.92 -0.299806,-0.39685 -1.526334,-1.253877 -1.794476,-1.253877 -0.367397,0 -0.838946,1.567994 -0.838946,2.789661 0,0.665687 0.06353,1.210339 0.141176,1.210339 0.07765,0 0.429178,-0.288 0.781178,-0.64 z"
       id="path15101" />
  </g>
</svg>
