<?xml version="1.0" encoding="UTF-8" standalone="no"?>
<!-- Created with Inkscape (http://www.inkscape.org/) -->

<svg
   version="1.1"
   id="svg14905"
   width="120.83047"
   height="165.51157"
   viewBox="0 0 120.83047 165.51156"
   sodipodi:docname="catnip-laptop.svg"
   inkscape:version="1.2.1 (9c6d41e4, 2022-07-14)"
   xmlns:inkscape="http://www.inkscape.org/namespaces/inkscape"
   xmlns:sodipodi="http://sodipodi.sourceforge.net/DTD/sodipodi-0.dtd"
   xmlns="http://www.w3.org/2000/svg"
   xmlns:svg="http://www.w3.org/2000/svg">
  <defs
     id="defs14909" />
  <sodipodi:namedview
     id="namedview14907"
     pagecolor="#ffffff"
     bordercolor="#000000"
     borderopacity="0.25"
     inkscape:showpageshadow="2"
     inkscape:pageopacity="0.0"
     inkscape:pagecheckerboard="0"
     inkscape:deskcolor="#d1d1d1"
     showgrid="false"
     inkscape:lockguides="true"
     inkscape:zoom="4.7792627"
     inkscape:cx="58.795679"
     inkscape:cy="83.381061"
     inkscape:window-width="1920"
     inkscape:window-height="1035"
     inkscape:window-x="0"
     inkscape:window-y="23"
     inkscape:window-maximized="1"
     inkscape:current-layer="g14911" />
  <g
     inkscape:groupmode="layer"
     inkscape:label="Image"
     id="g14911"
     transform="translate(-12.922208,-13.512927)">
    <g
       id="g18318">
      <path
         style="fill:#ffffff;stroke-width:2.26772;stroke-linecap:round;stroke-linejoin:round;paint-order:stroke fill markers"
         d="m 36.890612,28.604144 7.693561,-0.591812 c 6.674885,-9.627961 18.814416,-12.51136 29.74954,-13.747595 7.149145,-0.08723 12.500463,4.67601 18.227779,8.217194 6.732117,2.59045 8.604738,11.321446 13.520938,13.996717 -0.5066,7.026049 -2.02455,14.612185 -3.36399,21.853779 -4.146452,5.450784 -4.394432,9.672494 2.14515,12.715093 7.29987,6.463318 11.00796,15.69691 15.75029,23.949914 0.12377,7.717506 -1.50489,16.758346 -0.82848,23.661186 5.50097,-1.20333 12.79439,1.69898 13.01967,7.92183 -1.03489,7.36258 -5.42595,13.58581 -12.12087,16.76734 -8.84799,6.00795 -18.16401,11.86492 -28.935654,13.55123 -7.599643,2.6841 -18.012942,1.56065 -22.837478,8.9598 -3.093949,3.80285 -12.065766,12.37206 -15.228638,6.21681 3.186353,-10.53937 12.256316,-17.50235 19.604646,-25.109 -7.924315,0.40707 -19.676471,-1.21854 -25.228005,0.44846 8.349119,6.09581 -3.654719,12.96133 -6.295411,19.19537 -3.115309,4.89556 -9.768903,10.13326 -14.355067,10.96282 -4.978338,-4.99367 1.517973,-11.6218 1.652937,-17.44458 1.969787,-6.11234 -5.802258,-8.97376 -8.723172,-13.42098 -3.583407,-0.91365 -8.77645,-0.22334 -7.020109,-5.79798 l 0.787584,-38.32904 c 8.862804,1.64245 8.681399,-6.063239 11.88238,-13.812129 C 28.952353,80.961898 34.5779,74.544436 39.316346,67.760326 48.927657,65.003477 35.769745,57.845266 38.32554,51.82111 39.124578,44.02974 37.453846,36.348486 36.890612,28.604144 Z"
         id="path18314"
         sodipodi:nodetypes="cccccccccccccccccccccccccc" />
      <path
         style="fill:#000000;stroke-width:0.24"
         d="m 27.239999,178.77671 c -1.009994,-0.30861 -1.530276,-1.1503 -1.947271,-3.15022 -0.514894,-2.46945 0.02105,-6.91736 1.143693,-9.49181 0.272141,-0.62407 0.686386,-1.68112 0.920542,-2.34898 0.234156,-0.66787 0.695849,-1.80187 1.025983,-2.52 0.999036,-2.17318 1.130542,-2.74915 0.855295,-3.74602 -0.26813,-0.97108 -1.617756,-2.83667 -3.4402,-4.75538 -1.80813,-1.90364 -3.294602,-3.95074 -3.147375,-4.3344 0.303737,-0.79153 1.121511,-0.27475 3.339101,2.1101 4.271925,4.59413 4.829709,5.51309 4.685937,7.72022 -0.0523,0.80288 -0.332616,2.05378 -0.622927,2.77978 -0.290311,0.726 -0.970296,2.4 -1.511076,3.72 -1.628565,3.9752 -2.335692,8.19319 -1.790448,10.68 0.354209,1.61552 1.438774,2.23899 2.488769,1.43067 0.351986,-0.27097 1.557977,-1.15028 2.679977,-1.95402 1.122,-0.80374 2.148,-1.58619 2.28,-1.73876 0.132,-0.15258 0.672,-0.59361 1.2,-0.98006 1.99313,-1.45881 3.689457,-3.03455 4.707235,-4.37262 0.579021,-0.76124 2.082818,-2.68032 3.341774,-4.26464 2.553667,-3.21363 5.420191,-7.13141 6.919972,-9.45778 1.261956,-1.95747 1.278898,-2.64107 0.09102,-3.67298 -0.495,-0.43001 -1.459483,-1.34057 -2.143298,-2.02348 l -1.243299,-1.24165 -2.476701,0.1513 c -4.205239,0.25688 -11.531049,0.14924 -14.596701,-0.21448 -2.220854,-0.26349 -4.40094,-0.31481 -9.963139,-0.23455 -4.121112,0.0595 -4.37907,0.0358 -5.52,-0.50728 l -1.196861,-0.56965 0.117084,-4.07501 c 0.161766,-5.63014 0.146804,-7.64749 -0.08451,-11.39501 -0.109994,-1.782 -0.237195,-5.724 -0.282669,-8.76 -0.04547,-3.036 -0.106672,-5.898 -0.135998,-6.36 -0.118418,-1.86556 0.694198,-12.7277 0.987712,-13.20262 0.217217,-0.35146 2.668222,-0.71435 4.835914,-0.71599 1.712423,-0.001 1.829077,-0.0337 1.713353,-0.47625 C 20.191639,99.737309 22.640445,93.430238 24.666126,90 c 0.506679,-0.858 1.412878,-2.478 2.013771,-3.6 3.22792,-6.02723 6.839152,-11.512769 9.502238,-14.434104 l 0.578047,-0.634102 -1.520093,-0.172406 c -2.024143,-0.229572 -3.08009,-0.6777 -3.08009,-1.307141 0,-0.5748 0.460929,-0.621257 2.427242,-0.244639 2.433955,0.466183 3.350374,0.376382 4.043796,-0.396262 0.341254,-0.380241 1.064349,-1.041501 1.606881,-1.469472 0.867968,-0.684686 1.023089,-0.733939 1.291798,-0.410164 0.255922,0.308366 0.182693,0.494539 -0.45217,1.149549 -1.033192,1.065987 -0.992455,1.418803 0.142452,1.233708 1.096474,-0.178824 3.264053,-0.662179 3.395652,-0.757205 0.05261,-0.03799 -0.174002,-0.476023 -0.50358,-0.973416 -1.670695,-2.52137 -2.370396,-3.700128 -3.17236,-5.344346 -0.482871,-0.99 -1.081745,-2.185325 -1.330831,-2.656279 -0.553416,-1.04635 -1.654119,-5.002584 -2.04746,-7.359132 -0.267295,-1.60141 -0.273602,-7.206831 -0.0098,-8.749097 0.06062,-0.35448 -0.03864,-1.21848 -0.220593,-1.92 -0.672425,-2.592574 -0.864677,-4.319239 -0.872652,-7.837541 -0.0114,-5.026248 0.239719,-5.439362 3.741045,-6.154586 1.206852,-0.246526 2.342806,-0.333838 3.06,-0.235198 1.08504,0.14923 1.140622,0.129065 1.140622,-0.413849 0,-0.393328 0.578136,-1.143592 1.86,-2.41378 2.972268,-2.945193 4.683203,-4.163234 8.644571,-6.154203 C 56.189057,18.100758 57.672,17.347272 58.2,17.071924 c 0.528,-0.275349 2.472,-0.935101 4.32,-1.466116 7.49495,-2.153642 10.419844,-2.489805 14.879999,-1.710184 3.865505,0.675678 5.604886,1.238265 7.497732,2.425076 0.873447,0.547649 2.245301,1.243101 3.048562,1.545448 3.096244,1.165423 6.117448,3.42767 10.275052,7.693852 1.989015,2.04096 4.498655,5.643113 4.498655,6.457044 0,0.198204 0.12775,0.640757 0.28389,0.983448 0.26755,0.587196 0.35506,0.614186 1.51964,0.468682 1.16345,-0.145364 1.27117,-0.112304 1.84111,0.565034 0.72324,0.859524 1.48283,3.66119 1.26344,4.660073 -0.0851,0.387566 -0.55624,1.6635 -1.04692,2.835405 -0.88374,2.110692 -0.88969,2.147009 -0.63203,3.860043 0.80061,5.322737 -1.77205,13.085388 -6.310479,19.041041 -0.572744,0.751593 -0.978279,1.429603 -0.901193,1.506688 0.07708,0.07709 0.580951,-0.0053 1.119701,-0.183122 0.723061,-0.23863 1.023751,-0.251746 1.148381,-0.05009 0.27939,0.452059 1.97081,0.581417 3.75446,0.287136 0.924,-0.15245 2.058,-0.326539 2.52,-0.386863 0.83896,-0.109543 0.83937,-0.109126 0.33049,0.336677 -0.28022,0.245496 -1.41422,0.647875 -2.52,0.894177 -1.10577,0.246303 -2.04989,0.477507 -2.09806,0.513787 -0.12247,0.09226 1.53455,2.088128 2.96757,3.574414 3.76373,3.903631 5.77965,6.365453 7.20748,8.801662 0.45298,0.772891 1.0502,1.645896 1.32717,1.940008 2.01385,2.138571 3.95212,5.691622 5.48581,10.056072 1.96794,5.60024 2.28974,8.712414 1.71067,16.544444 -0.25346,3.42809 -0.80093,6.72799 -1.21015,7.29424 -0.0954,0.132 -0.23455,0.564 -0.30925,0.96 l -0.1358,0.72 1.96203,0.0121 c 1.94369,0.012 2.96823,0.13053 3.41219,0.39467 0.12642,0.0752 0.60785,0.21321 1.06985,0.30666 1.39978,0.28316 3.67624,1.49819 4.60788,2.4594 0.48357,0.49892 1.2811,1.60913 1.77228,2.46713 0.84923,1.48344 0.89303,1.66602 0.89252,3.72 -4.8e-4,2.3053 -0.57904,5.19442 -1.24054,6.19593 -2.08931,3.16317 -2.76392,4.04583 -3.88578,5.08407 -0.71315,0.66 -1.83882,1.71204 -2.5015,2.33787 -2.05743,1.94303 -7.10485,5.70213 -7.65636,5.70213 -0.063,0 -0.7432,0.41331 -1.51153,0.91847 -1.28452,0.84454 -5.35671,2.92153 -5.728,2.92153 -0.0877,0 -0.6331,0.31972 -1.2121,0.71049 -1.79947,1.21444 -5.62899,3.19821 -8.13687,4.21506 -2.842825,1.15266 -3.428125,1.33576 -7.200004,2.25242 -4.534891,1.10209 -6.864057,1.69311 -8.159999,2.07056 -0.66,0.19223 -1.754424,0.45277 -2.432052,0.57898 -1.424151,0.26524 -5.50145,1.36749 -6.207948,1.67823 -0.264,0.11612 -1.398,0.51643 -2.52,0.88957 -1.359811,0.45223 -2.197315,0.87953 -2.511816,1.28156 -2.191668,2.80165 -11.229765,9.57806 -15.88275,11.90827 l -1.785034,0.89394 -0.635371,-0.47437 c -2.264446,-1.69065 -2.267227,-4.68504 -0.0078,-8.42944 0.71605,-1.18668 1.311086,-1.95502 3.66719,-4.73527 0.447449,-0.528 1.164732,-1.5 1.593958,-2.16 0.429228,-0.66 2.729191,-3.17464 5.11103,-5.58808 4.724573,-4.78727 7.090617,-7.24278 7.090617,-7.35873 0,-0.041 -2.889,-0.0607 -6.419999,-0.0439 -3.531,0.0169 -7.014,-0.0578 -7.74,-0.16603 -1.405503,-0.20944 -8.390606,-0.25269 -8.590106,-0.0532 -0.06523,0.0652 0.06788,0.19016 0.295785,0.27762 0.227912,0.0874 1.114666,0.85929 1.970571,1.7152 1.466018,1.46601 1.552166,1.61357 1.486778,2.54663 -0.112774,1.60922 -0.658596,2.53723 -5.117018,8.70002 -0.656695,0.90774 -2.006695,2.66134 -3,3.89689 -0.993305,1.23555 -2.216681,2.80155 -2.71861,3.48 -1.204245,1.62775 -3.095846,3.54264 -4.727399,4.7856 -0.726,0.55309 -1.958717,1.52922 -2.73937,2.16917 -2.318361,1.90053 -6.215428,4.36338 -6.672921,4.21712 -0.03724,-0.0119 -0.391709,-0.12064 -0.787709,-0.24164 z m 31.799999,-6.12719 c 0.992121,-0.66102 3.329752,-2.27738 4.959844,-3.42949 0.974753,-0.68893 2.816633,-2.18257 5.795837,-4.70003 0.31242,-0.264 0.930062,-0.97211 1.372536,-1.57357 0.835418,-1.1356 0.964113,-1.19927 5.991782,-2.96438 1.38455,-0.48609 5.236711,-1.5531 6.12,-1.69519 0.796761,-0.12816 3.135797,-0.70153 4.92,-1.20604 0.792,-0.22395 1.818,-0.49418 2.28,-0.60052 9.058077,-2.08492 12.565373,-3.42027 18.846453,-7.17551 0.79555,-0.47564 2.36155,-1.29436 3.48,-1.81938 7.36528,-3.45744 16.55161,-11.1828 18.41391,-15.48541 0.60091,-1.3883 1.02543,-3.55241 1.05295,-5.3677 0.024,-1.5827 -0.0438,-1.82781 -0.89526,-3.2385 -1.10522,-1.83103 -2.36117,-2.8916 -4.29805,-3.62944 -0.792,-0.30171 -1.656,-0.64282 -1.92,-0.75803 -0.83991,-0.36654 -3.81363,-0.43891 -4.89655,-0.11916 -1.06856,0.31551 -0.98784,0.20978 -2.59042,3.39283 -0.80248,1.5939 -1.83502,3.38344 -2.181,3.78 -0.40704,0.46654 -1.02917,0.54687 -1.39582,0.18022 -0.15971,-0.15971 -0.20598,0.0497 -0.13856,0.62721 0.18516,1.586 -0.86776,3.55594 -2.12453,3.97486 -0.18311,0.061 -0.1485,0.4302 0.11239,1.19863 0.20735,0.61073 0.44302,1.59207 0.52371,2.18076 0.12406,0.90514 0.059,1.17123 -0.42126,1.72396 -0.52634,0.60572 -3.64655,2.29436 -4.23943,2.29436 -0.1436,0 -0.61827,0.20313 -1.05482,0.45141 -0.43654,0.24827 -2.25171,1.01685 -4.03371,1.70795 -1.782,0.69111 -3.996004,1.55895 -4.920004,1.92854 -0.924,0.36958 -1.896,0.72856 -2.16,0.79773 -1.316875,0.34501 -3.931142,1.4445 -6.959999,2.9272 l -3.36,1.64479 -4.44,-0.0467 c -2.442,-0.0257 -4.953,-0.0784 -5.58,-0.11715 -0.955257,-0.059 -1.14,-0.002 -1.14,0.35238 0,0.23255 -0.297,0.60209 -0.66,0.82121 -0.363,0.21912 -1.686295,1.43661 -2.940657,2.70554 -1.254363,1.26892 -3.183029,3.17113 -4.285925,4.22713 -1.102898,1.056 -2.801774,2.892 -3.775281,4.08 -0.973508,1.188 -2.275157,2.72886 -2.892557,3.42412 -3.138998,3.53489 -5.018551,6.50774 -5.128238,8.11123 -0.116551,1.70379 0.01894,2.52093 0.497304,2.99929 l 0.494645,0.49465 1.365355,-0.77005 c 0.750945,-0.42353 1.743355,-1.0219 2.205355,-1.32972 z m 27.44344,-26.95046 c 1.979803,-0.95212 11.291265,-4.84394 12.396558,-5.18127 0.33,-0.10072 2.598004,-0.96508 5.040004,-1.92081 2.442,-0.95573 4.683,-1.81231 4.98,-1.90351 0.297,-0.0912 0.54,-0.26829 0.54,-0.39353 0,-0.12524 0.378,-0.40796 0.84,-0.62827 0.462,-0.22032 0.84,-0.5622 0.84,-0.75974 0,-0.30948 -1.16097,-3.85347 -1.33306,-4.0693 -0.0339,-0.0426 -0.42287,-0.12741 -0.86431,-0.18858 -0.44145,-0.0612 -1.32095,-0.21535 -1.95445,-0.34263 -2.64154,-0.53073 -3.45807,-0.25772 -5.83068,1.94951 -1.428618,1.32904 -1.599553,1.41907 -2.694253,1.41907 -1.338142,0 -1.821737,-0.38378 -2.323726,-1.84411 L 95.804682,130.92 94.16234,130.86044 c -0.90329,-0.0328 -2.938343,-0.0976 -4.522343,-0.14412 -1.584,-0.0465 -3.393,-0.16939 -4.02,-0.27306 l -1.14,-0.1885 -0.01951,3.69262 c -0.02591,4.90139 0.03819,9.4313 0.13482,9.52792 0.04288,0.0429 0.277471,-0.0325 0.521325,-0.16748 0.723394,-0.40046 7.727083,-3.6168 9.803371,-4.50205 1.056,-0.45024 2.244,-0.97606 2.64,-1.1685 0.396,-0.19243 1.908,-0.88301 3.359997,-1.53462 1.452,-0.6516 3.558,-1.67905 4.68,-2.28321 4.02165,-2.16552 4.32735,-2.26369 4.31369,-1.38528 -0.009,0.58391 -3.79554,2.79627 -8.87369,5.18474 -3.340888,1.57137 -5.396934,2.48427 -5.999997,2.66405 -0.33,0.0984 -1.032,0.41722 -1.56,0.70853 -0.528,0.29131 -1.70837,0.82858 -2.623046,1.19394 -0.914676,0.36535 -1.832676,0.75273 -2.04,0.86084 -2.048599,1.06822 -3.895733,1.91374 -4.180793,1.91374 -0.243,0 -0.34144,0.25455 -0.324844,0.84 0.0131,0.462 0.06695,0.84 0.119685,0.84 0.05273,0 0.976327,-0.42342 2.052435,-0.94094 z m -4.029884,0.3607 c 0.453893,-0.33189 0.465612,-0.83935 0.47803,-20.7 L 82.944328,105 81.94276,104.01335 c -0.981302,-0.96669 -1.04711,-0.99086 -3.252161,-1.19459 -1.237824,-0.11437 -4.68059,-0.21573 -7.65059,-0.22524 -2.97,-0.01 -9.125999,-0.0383 -13.679999,-0.064 -7.375857,-0.0416 -11.575963,0.0882 -18.526845,0.57271 -1.147764,0.08 -5.305764,0.0276 -9.24,-0.11641 -6.428344,-0.23533 -11.53098,-0.34524 -13.316011,-0.28682 -1.369412,0.0448 -1.502997,0.54617 -1.796154,6.74104 -0.09058,1.914 -0.161377,3.75 -0.157336,4.08 0.05783,4.72252 0.384176,15.69195 0.535515,18 0.199684,3.04534 0.165713,5.94636 -0.118293,10.10203 -0.08653,1.26611 -0.09018,2.51358 -0.0081,2.77214 0.283874,0.89441 1.40226,1.03845 7.953133,1.02433 3.42876,-0.007 6.936108,0.0946 7.794108,0.2267 1.990061,0.30632 9.882974,0.40201 16.679999,0.20221 7.593612,-0.22322 11.116718,-0.22374 11.45981,-0.002 0.286191,0.18522 8.565007,0.41077 18.674318,0.50877 3.727512,0.0361 4.789944,-0.0246 5.159429,-0.29473 z m 18.733786,-15.11513 c 2.73757,-2.24631 3.94462,-2.71326 5.7042,-2.20669 0.67565,0.19452 1.96061,0.41581 2.85546,0.49177 1.50407,0.12767 1.6718,0.0933 2.22,-0.45489 0.67188,-0.67188 0.76369,-1.66418 0.28191,-3.04694 -0.42071,-1.20749 -0.72916,-1.52005 -2.06878,-2.09634 -1.19009,-0.51196 -1.55205,-0.95275 -1.30693,-1.59154 0.15184,-0.39568 0.93817,-0.48992 1.15538,-0.13847 0.0753,0.12185 0.44969,0.29024 0.83197,0.3742 0.92408,0.20296 2.30721,1.57699 2.6583,2.6408 l 0.28242,0.85573 0.42755,-0.54613 c 1.32561,-1.69328 4.2264,-8.03838 5.02253,-10.98613 0.5693,-2.10789 0.63022,-2.59927 1.01587,-8.19359 0.23051,-3.34385 0.22969,-4.60482 -0.004,-6 -0.16265,-0.971525 -0.35671,-2.249835 -0.43125,-2.840688 -0.17273,-1.369188 -2.34291,-7.783217 -2.91505,-8.615499 -0.23828,-0.346622 -0.56441,-0.954223 -0.72474,-1.350223 -0.16032,-0.396 -0.93051,-1.584 -1.71153,-2.64 -0.78102,-1.056 -2.24064,-3.108 -3.24359,-4.56 -2.25123,-3.259159 -3.14373,-4.400642 -4.87887,-6.24 -0.74712,-0.792 -1.99911,-2.17644 -2.78218,-3.076531 -1.13205,-1.301206 -1.52545,-1.607338 -1.91996,-1.494048 -0.27289,0.07837 -1.09017,0.313197 -1.816173,0.521846 -2.541317,0.730361 -6.834377,1.768738 -7.314996,1.769304 -0.612547,7.23e-4 -4.684994,2.731644 -4.684994,3.141694 0,0.0946 1.62,0.250116 3.6,0.345597 1.979999,0.09548 3.599999,0.267771 3.599999,0.382868 0,0.115099 -0.135,0.223053 -0.3,0.239899 -0.165,0.01685 -0.57,0.06718 -0.9,0.111859 -0.33,0.04467 -2.364991,0.09879 -4.522199,0.120247 l -3.922203,0.03902 -1.254681,0.749124 c -3.832085,2.287988 -7.755866,3.608069 -12.260916,4.12495 -0.528,0.06058 -1.197184,0.163397 -1.487073,0.228485 -0.470256,0.105585 -5.692368,-0.251479 -6.912926,-0.472675 -0.264,-0.04784 -0.966,-0.249339 -1.56,-0.447766 -0.594,-0.19843 -2.331231,-0.746645 -3.860513,-1.218257 C 56.530205,78.394003 54.878408,77.736307 54.388827,77.40407 53.899248,77.071831 53.441854,76.8 53.372398,76.8 c -0.06946,0 -0.668875,-0.457519 -1.332043,-1.01671 L 50.8346,74.766581 48.877299,75.774266 c -4.650151,2.394056 -8.455627,3.85616 -9.224184,3.544028 -0.316255,-0.128441 -0.188028,-0.239758 0.546883,-0.474771 2.247656,-0.718757 9.483307,-4.457546 9.478361,-4.897637 -9.6e-4,-0.08024 -0.378902,-0.402808 -0.84,-0.716822 -0.461098,-0.314016 -0.838361,-0.665016 -0.838361,-0.78 0,-0.312386 -0.510965,-0.252302 -0.941102,0.110664 -1.611379,1.359746 -9.159967,2.839661 -10.587458,2.07569 -0.360027,-0.192679 -0.709932,0.127395 -2.189964,2.003266 -0.96881,1.227922 -2.139475,2.906935 -2.601475,3.731138 -0.462,0.824204 -1.367511,2.383167 -2.012247,3.464364 -0.644733,1.081198 -1.482285,2.589675 -1.861226,3.352172 -0.378941,0.762496 -1.097196,2.058496 -1.596122,2.88 -1.251859,2.061232 -2.573213,4.83784 -3.052175,6.413642 -0.220666,0.726 -0.492583,1.536 -0.604259,1.8 -0.111676,0.264 -0.360178,1.047 -0.552226,1.74 l -0.349178,1.26 0.633717,0.007 c 0.348544,0.004 1.659716,0.10796 2.913716,0.23196 3.154126,0.31189 11.831443,0.29575 19.559999,-0.0364 11.345304,-0.48756 11.998418,-0.49529 28.252691,-0.33424 l 8.332694,0.0826 1.325489,1.1324 c 0.933554,0.79756 1.396834,1.39736 1.566773,2.02847 0.143205,0.53182 0.232368,4.49607 0.219345,9.7524 -0.03794,15.31205 -0.06481,14.61341 0.563007,14.63429 0.297,0.01 1.134,0.11788 1.86,0.24 0.726,0.12212 3.036069,0.22204 5.133489,0.22204 3.154735,0 3.842652,-0.0622 3.982313,-0.36 0.949992,-2.02578 1.373126,-2.72136 2.30003,-3.78095 0.592346,-0.67714 1.676347,-1.57408 2.408891,-1.9932 0.73255,-0.41911 1.39425,-0.93839 1.47047,-1.15394 0.0762,-0.21555 0.54443,-1.36391 1.04049,-2.55191 1.35664,-3.24899 2.69509,-7.31227 3.56869,-10.83388 0.69175,-2.78856 0.77444,-3.46964 0.71389,-5.88 -0.0699,-2.78234 -0.62606,-5.559246 -1.30856,-6.53366 -0.64507,-0.920952 -0.22476,-1.805741 0.69088,-1.454376 1.23063,0.472238 2.5753,7.523946 2.04628,10.731136 -0.63439,3.84598 -2.64637,10.70007 -4.03059,13.73078 -0.36173,0.792 -0.91402,2.10519 -1.22731,2.91819 -0.51373,1.33317 -0.6631,1.50905 -1.52251,1.79268 -1.98315,0.6545 -4.695507,4.23676 -5.101302,6.73739 -0.118408,0.72966 -0.03878,0.97993 0.475397,1.49411 0.339698,0.3397 0.816874,0.61763 1.060387,0.61763 0.243516,0 1.416399,-0.79892 2.606408,-1.77537 z M 30.880523,99.440525 c -0.563283,-0.563283 0.37625,-2.896522 2.028969,-5.038752 1.107051,-1.434946 1.660239,-1.835071 2.233121,-1.615236 0.564418,0.216588 0.459122,0.602335 -0.418582,1.533463 -1.02899,1.091626 -2.804032,3.718474 -2.804032,4.149634 0,0.419992 -0.822317,1.18805 -1.039476,0.970891 z M 73.14413,78.970675 c 0.959273,-0.137563 2.147273,-0.34494 2.64,-0.460838 1.488259,-0.350069 4.840387,-1.655153 6.006367,-2.338464 l 1.095857,-0.642216 -1.543179,-0.521489 C 79.12421,74.25781 77.759997,73.339997 77.759997,72.59699 c 0,-0.79961 0.579672,-0.777235 1.933013,0.07462 1.326341,0.834859 4.40123,1.819353 5.103256,1.633925 0.288053,-0.07608 1.225731,-0.592952 2.083731,-1.14859 l 1.56,-1.010251 -3.013563,-0.295769 C 83.253446,71.637658 81.970019,71.377872 80.8252,70.91957 c -1.375951,-0.550831 -2.105491,-1.159281 -1.780121,-1.484654 0.05301,-0.05301 1.324553,0.191318 2.82565,0.542954 2.116394,0.495768 3.404959,0.646385 5.738287,0.670733 l 3.009019,0.0314 1.054181,-0.9 c 0.579799,-0.495 1.260852,-0.9 1.513449,-0.9 0.254849,0 0.514212,-0.210108 0.582713,-0.472051 0.06789,-0.25963 0.327782,-0.536907 0.577531,-0.616174 0.803892,-0.255144 0.520337,-0.666933 -0.325913,-0.473301 -0.429,0.09816 -1.158,0.207312 -1.619999,0.242558 -1.103379,0.08418 -4.039356,0.393346 -4.8,0.505457 -0.941827,0.138813 -5.77633,0.109817 -6.84,-0.04103 -3.108103,-0.440775 -4.44,-1.014216 -4.44,-1.911624 0,-0.752971 0.36473,-0.75247 1.867968,0.0026 2.423318,1.217162 5.841381,1.351639 12.292032,0.4836 2.441999,-0.328611 4.769812,-0.598042 5.172919,-0.598738 0.906345,-0.0017 1.617528,-0.728681 3.757072,-3.841262 1.797292,-2.614675 3.383732,-5.630729 3.787182,-7.2 0.15272,-0.594 0.51134,-1.728 0.79693,-2.52 0.4067,-1.127839 0.51998,-1.986281 0.52258,-3.96 0.002,-1.386 -0.0852,-3.022836 -0.19335,-3.637416 -0.166,-0.943171 -0.095,-1.373547 0.4552,-2.76 0.35852,-0.90342 0.79802,-1.855615 0.97666,-2.115987 0.34589,-0.504132 0.41447,-1.832155 0.17076,-3.306597 -0.25009,-1.513063 -0.93103,-1.245017 -3.57454,1.407103 -2.33354,2.341142 -2.890671,3.071083 -4.079831,5.345306 -0.722013,1.380824 -1.126727,1.679782 -1.667003,1.231392 -0.301534,-0.250252 -0.264504,-0.459064 0.270777,-1.526851 1.26228,-2.518015 2.738712,-4.463157 5.238127,-6.901032 0.93075,-0.907831 0.56337,-0.877769 -1.76074,0.144082 -1.050778,0.462 -2.028008,0.84 -2.171624,0.84 -0.143616,0 -0.26112,0.108 -0.26112,0.24 0,0.132 -0.116203,0.24 -0.25823,0.24 -0.142025,0 -0.889822,0.486 -1.66177,1.08 -0.771948,0.594 -1.577133,1.08 -1.789303,1.08 -0.514109,0 -0.736555,-0.639168 -0.37434,-1.075608 0.370183,-0.44605 4.537858,-3.244397 4.831982,-3.244397 0.121659,0 0.648908,-0.27 1.171661,-0.6 0.522754,-0.33 1.108234,-0.6 1.301064,-0.6 0.19284,0 0.40817,-0.09313 0.47852,-0.206966 0.20776,-0.336156 -0.64718,-2.483285 -1.36004,-3.415688 -0.36275,-0.47446 -0.66126,-0.96046 -0.663355,-1.08 -0.01035,-0.589831 -6.44069,-6.651731 -8.396188,-7.915106 -0.594,-0.383761 -1.134,-0.752758 -1.2,-0.819994 -0.239556,-0.24404 -1.111858,-0.725251 -2.637492,-1.45499 -0.85662,-0.409737 -1.61262,-0.821774 -1.68,-0.915638 -0.348713,-0.485782 -6.396701,-3.104634 -6.604039,-2.85963 -0.470038,0.555419 -2.518469,3.711962 -2.518469,3.88085 0,0.126151 -0.146693,0.39987 -0.325982,0.608264 -0.73243,0.851324 -4.474018,11.628963 -4.474018,12.887405 0,0.406925 -0.09954,1.052981 -0.221186,1.43568 -0.121654,0.382697 -0.46032,1.775813 -0.752597,3.095813 -1.325628,5.986937 -1.891159,8.127799 -2.238895,8.475535 -0.339264,0.339267 -0.475766,0.267187 -1.452744,-0.767102 -1.502916,-1.591075 -2.475384,-3.399401 -2.86997,-5.33677 -0.711034,-3.491083 -0.851427,-4.561159 -0.711019,-5.419394 0.103795,-0.634443 0.03899,-0.993972 -0.227122,-1.260089 -0.336475,-0.336473 -0.406673,-0.25093 -0.728467,0.887734 -0.195862,0.693048 -0.476645,2.232086 -0.623964,3.420086 -0.504461,4.068096 -0.983131,6.210185 -1.597411,7.148558 -0.32712,0.499709 -0.68635,0.851955 -0.798293,0.782772 -0.203575,-0.125817 -0.712327,-1.995724 -1.202354,-4.419249 -0.143228,-0.708355 -0.371576,-2.598355 -0.50744,-4.2 -0.135861,-1.601645 -0.301826,-3.093787 -0.368808,-3.315871 -0.126691,-0.420056 0.469596,-7.55606 0.858682,-10.27621 0.122729,-0.858 0.275897,-2.158104 0.340373,-2.889119 0.06448,-0.731016 0.188181,-1.514016 0.274901,-1.74 0.210952,-0.549735 0.182205,-0.541967 -1.719569,0.464647 -0.909763,0.48154 -2.400674,1.244696 -3.313135,1.695902 -0.912461,0.451206 -2.437464,1.406249 -3.388896,2.122317 -2.115607,1.592251 -4.912085,4.51176 -4.912085,5.128191 0,0.325221 0.318391,0.561429 1.129138,0.837676 1.730013,0.589476 3.25392,2.300386 2.048952,2.300386 -0.232049,0 -0.907049,-0.258221 -1.5,-0.573823 -0.968863,-0.515688 -3.110585,-1.140603 -4.837013,-1.411356 -0.351408,-0.05511 -1.266749,-0.015 -2.034093,0.08913 -0.984931,0.133658 -1.445998,0.107088 -1.568028,-0.09036 -0.09507,-0.153828 -0.252994,-0.199553 -0.350938,-0.101607 -0.09794,0.09794 0.256191,0.634817 0.78697,1.19305 1.305984,1.373539 4.645012,5.378765 4.645012,5.571777 0,0.08537 0.264567,0.502083 0.587928,0.926028 1.061004,1.39105 1.484535,2.655783 1.467744,4.382926 -0.01034,1.063723 -0.117705,1.646366 -0.315672,1.713103 -0.190572,0.06424 -0.3,-0.133675 -0.3,-0.542597 0,-0.594739 -0.224071,-1.220678 -1.115553,-3.11627 -0.651415,-1.385126 -2.621467,-3.920059 -5.300381,-6.820178 L 37.928132,31.32 l -0.03403,1.8 c -0.07158,3.786691 0.06559,5.678998 0.519298,7.163705 0.256092,0.838039 0.405468,1.621039 0.331946,1.74 -0.07352,0.118963 -0.03101,0.216295 0.09447,0.216295 0.496462,0 0.721109,1.956938 0.289287,2.52 -0.343831,0.448327 -0.449587,2.937761 -0.251223,5.913562 0.327432,4.911962 2.028773,9.330312 5.716807,14.846438 l 1.845312,2.76 1.08,7.2e-4 c 0.594,4.8e-4 1.479783,-0.188606 1.968406,-0.42 0.488625,-0.231394 1.054488,-0.420715 1.257475,-0.420715 0.202987,0 1.522363,-0.323839 2.931948,-0.719645 1.409587,-0.395803 2.604132,-0.678394 2.654548,-0.627977 0.05042,0.05042 -0.588744,0.364767 -1.420355,0.698556 -0.831612,0.33379 -2.314352,0.943692 -3.294975,1.355338 -0.980625,0.411648 -2.249625,0.865958 -2.82,1.009579 -1.156605,0.291238 -1.236902,0.42889 -0.591103,1.013328 0.420197,0.380273 0.555293,0.359851 2.34,-0.353714 1.04173,-0.416511 2.802142,-1.176293 3.912022,-1.688412 1.109882,-0.512117 2.057819,-0.891267 2.106532,-0.842554 0.232263,0.232262 -3.18274,2.396009 -4.964498,3.145507 -0.594,0.249867 -1.276819,0.635153 -1.517376,0.856191 -0.420069,0.385987 -0.407508,0.427024 0.317388,1.036984 0.871546,0.733356 1.229045,0.639444 2.639988,-0.693494 0.860321,-0.81276 3.36,-2.569632 3.36,-2.36154 0,0.684233 -1.386166,2.226535 -3.18,3.538195 -0.495,0.361947 -0.9,0.740765 -0.9,0.841817 0,0.375211 3.525768,2.610252 4.8,3.042799 0.726,0.246444 1.457609,0.549187 1.625801,0.672761 0.168189,0.123576 0.361507,0.168974 0.429592,0.100886 0.06809,-0.06808 1.010477,0.171636 2.094199,0.532714 l 1.970408,0.656508 0.164752,-0.746914 c 0.09061,-0.410803 0.07135,-1.178913 -0.04282,-1.706913 -0.11417,-0.528 -0.283512,-1.878 -0.376317,-3 -0.176516,-2.134049 -0.582034,-3.228471 -1.67953,-4.53277 C 60.304289,67.476667 60.738682,67.2 63.609756,67.2 c 1.293041,0 2.514998,0.06294 2.715458,0.139862 0.478935,0.183785 0.269511,0.720788 -0.712324,1.826537 -1.377656,1.551523 -1.504236,2.82294 -0.786272,7.897551 l 0.258056,1.823949 1.117663,0.256901 c 1.239609,0.28493 4.270881,0.208896 6.941793,-0.174125 z m 4.705692,-19.136143 c -0.984269,-0.193121 -1.611751,-1.171594 -1.721138,-2.683882 -0.08877,-1.227216 -0.03243,-1.467098 0.450177,-1.916714 0.713366,-0.664601 1.926394,-0.66534 3.106841,-0.0019 0.813492,0.457207 0.922061,0.630696 1.013781,1.62 0.0565,0.609374 -0.03263,1.450262 -0.198062,1.868638 -0.442277,1.1185 -1.138126,1.410804 -2.651599,1.113849 z m -27.029829,-2.00359 c -0.924784,-0.561028 -1.38059,-2.308317 -0.986212,-3.780554 0.230452,-0.860294 1.369907,-1.3392 2.387383,-1.003402 0.638071,0.210581 0.969998,0.54728 1.425304,1.445784 0.70076,1.38288 0.748006,2.152654 0.17353,2.827256 -0.49163,0.577317 -2.364727,0.896316 -3.000005,0.510916 z m -7.076726,14.930969 c 1.024798,-0.412505 2.142446,-0.896282 2.483664,-1.075065 l 0.620395,-0.325056 -0.595253,-0.692024 -0.595252,-0.692023 -2.848411,0.651799 c -1.566627,0.358491 -3.176542,0.6515 -3.577589,0.65113 -0.569429,-4.8e-4 -0.924338,0.232805 -1.62,1.065038 -0.489953,0.58614 -0.890822,1.128857 -0.890822,1.206041 0,0.07718 1.161,0.09979 2.58,0.05025 2.205837,-0.07702 2.850218,-0.198852 4.443268,-0.84009 z M 98.035172,69.34399 C 98.95652,69.088795 100.00315,68.88 100.36101,68.88 c 0.86968,0 1.08332,-0.422335 0.50578,-0.999871 -0.3461,-0.346104 -0.888011,-0.496131 -2.038135,-0.56425 -1.41827,-0.084 -1.619457,-0.03661 -2.123824,0.500266 -0.306432,0.326179 -1.076376,0.926244 -1.710991,1.333473 -0.634613,0.40723 -1.153844,0.797074 -1.153844,0.866321 0,0.208615 2.409183,-0.177269 4.195176,-0.671949 z"
         id="path15032"
         sodipodi:nodetypes="cssssssssssssssssssssscsscccssssscsssscssssssssssssscsssssscssssssssssssssscsssssssscsssscssssscssssssssssssssscssssssccscssssssssccssssssssscsscssssssssssssssssscscsssssssscsssssssssscsssssccsscsscsssscsssssssssscscssccscssssscccscccccssssssssscssscsssssssssssssssscssssscssscssscssssssssssssccscccssscsscsssssssssssssssccssssssssscssssscssssscssssssssscscsssccssssssssssssssssssssssssssssssssssssssssssssssssssssssssssssssssccsssssssccsssssssssssssssssssssscsssssssscsssssssssssssssssscccscssssssssssss" />
    </g>
  </g>
</svg>
