<?xml version="1.0" encoding="UTF-8" standalone="no"?>
<!-- Created with Inkscape (http://www.inkscape.org/) -->

<svg
   width="58.002506mm"
   height="63.004753mm"
   viewBox="0 0 58.002506 63.004753"
   version="1.1"
   id="svg26417"
   inkscape:version="1.2.1 (9c6d41e4, 2022-07-14)"
   sodipodi:docname="catnip-waving.svg"
   xmlns:inkscape="http://www.inkscape.org/namespaces/inkscape"
   xmlns:sodipodi="http://sodipodi.sourceforge.net/DTD/sodipodi-0.dtd"
   xmlns="http://www.w3.org/2000/svg"
   xmlns:svg="http://www.w3.org/2000/svg">
  <sodipodi:namedview
     id="namedview26419"
     pagecolor="#ffffff"
     bordercolor="#000000"
     borderopacity="0.25"
     inkscape:showpageshadow="2"
     inkscape:pageopacity="0.0"
     inkscape:pagecheckerboard="0"
     inkscape:deskcolor="#d1d1d1"
     inkscape:document-units="mm"
     showgrid="false"
     inkscape:zoom="0.2102413"
     inkscape:cx="-480.40037"
     inkscape:cy="-14.269318"
     inkscape:window-width="1344"
     inkscape:window-height="430"
     inkscape:window-x="0"
     inkscape:window-y="23"
     inkscape:window-maximized="0"
     inkscape:current-layer="layer1" />
  <defs
     id="defs26414">
    <inkscape:path-effect
       effect="simplify"
       id="path-effect12476"
       is_visible="true"
       lpeversion="1"
       steps="1"
       threshold="0.00522388"
       smooth_angles="360"
       helper_size="0"
       simplify_individual_paths="false"
       simplify_just_coalesce="false" />
    <inkscape:path-effect
       effect="simplify"
       id="path-effect12480"
       is_visible="true"
       lpeversion="1"
       steps="1"
       threshold="0.00522388"
       smooth_angles="360"
       helper_size="0"
       simplify_individual_paths="false"
       simplify_just_coalesce="false" />
  </defs>
  <g
     inkscape:label="Ebene 1"
     inkscape:groupmode="layer"
     id="layer1"
     transform="translate(-132.08349,-152.23491)">
    <g
       id="g10883"
       transform="matrix(0.40754415,0,0,0.40754415,132.29376,147.79972)">
      <g
         id="g12486">
        <path
           style="fill:#ffffff;stroke:none;stroke-width:1.88976"
           d="m 63.691387,24.536846 -6.264727,9.65812 -0.78309,14.878726 2.349272,12.529453 6.708277,8.051006 -6.708277,3.695356 -10.441211,8.875029 -10.702241,9.919151 -5.220606,-0.26103 -8.091938,-8.613999 -8.352969,-14.095635 -1.305151,-4.437515 0.78309,-3.132363 1.044122,-1.305152 -1.566182,-1.044121 -3.915454,1.566182 -3.9154543,-5.220606 -2.0882422,-1.044121 -3.2750768,2.89463 -2.20655897,6.763491 3.91545407,5.220605 4.9595753,12.268423 7.8309079,16.183877 10.441211,10.963267 10.702242,3.13237 9.397089,-3.13237 7.830909,-7.8309 2.871333,-4.176488 -3.654424,11.224298 1.162438,10.7259 -9.636008,-3.17068 -9.537519,1.84187 -3.108333,6.95317 4.728497,9.65374 c 0,0 10.278099,8.86035 13.219217,10.57297 3.041103,1.77085 10.480555,4.40479 13.612919,4.66582 3.132363,0.26103 -0.522061,3.65442 -0.522061,3.65442 0,0 0.786489,10.31456 2.72862,11.08195 2.037915,0.80524 6.2174,-0.024 6.2174,-0.024 l 5.149615,-4.53216 c 0,0 1.618531,3.05923 4.588497,3.2518 2.670024,0.17313 3.932205,-0.13798 4.547563,-2.99077 0.801879,-3.7175 -0.645019,-9.1086 1.058757,-8.7045 1.884251,0.44691 29.742811,-10.87277 29.742811,-10.87277 l 18.44257,-11.93224 4.83946,-7.42493 -2.3996,-6.48483 -9.13606,-2.87133 -5.74267,-0.52206 2.87133,-11.224305 c 0,0 1.65744,-7.802726 0.61332,-10.151998 -1.04412,-2.349273 -3.4719,-11.774545 -3.4719,-11.774545 0,0 -4.6925,-13.702411 -8.86899,-11.353139 -4.17648,2.349273 2.76464,-8.032217 2.76464,-8.032217 l 4.0349,-15.683961 -2.64184,-15.570556 2.08824,-0.261031 2.6103,-7.308847 -7.83091,-2.349273 -4.08522,3.255163 -12.620715,-5.604435 -21.665513,-1.827212 -9.65812,3.654424 -8.091939,0.26103 -1.305151,7.047817 1.305151,3.393394 z"
           id="path10825"
           sodipodi:nodetypes="ccccccccccccccccccccccccccccccccccsscsccssscccccccscscccccccccccccc" />
        <path
           style="fill:#000000;stroke-width:0.16"
           d="m 68.510676,165.34546 c -1.354195,-0.16678 -3.28,-1.03868 -3.28,-1.485 0,-0.0747 -0.234945,-0.48501 -0.5221,-0.91186 -0.398676,-0.59261 -0.650176,-1.31606 -1.063869,-3.06029 l -0.541768,-2.2842 0.09319,-1.6358 c 0.127002,-2.2293 0.791554,-4.62312 1.385299,-4.99008 0.644451,-0.39829 -1.007022,-1.36583 -2.331161,-1.36575 -0.275224,2e-5 -0.582006,-0.0983 -0.681739,-0.21845 -0.09973,-0.12017 -0.510477,-0.26361 -0.912765,-0.31875 -0.40229,-0.0551 -0.959507,-0.2017 -1.238261,-0.3257 -0.784782,-0.34908 -1.539812,-0.58676 -2.589905,-0.8153 -0.809981,-0.17628 -2.860293,-1.04477 -4.581606,-1.94071 -0.233578,-0.12158 -0.49276,-0.22105 -0.575959,-0.22105 -0.174712,0 -2.973012,-1.6624 -3.540932,-2.10358 -0.209867,-0.16303 -0.540709,-0.29642 -0.735202,-0.29642 -0.194494,0 -0.483942,-0.144 -0.64322,-0.32 -0.159279,-0.176 -0.342232,-0.32 -0.406565,-0.32 -0.30816,0 -2.255835,-1.46778 -3.492462,-2.63193 -0.759536,-0.71503 -1.574562,-1.42212 -1.811171,-1.57133 -0.482623,-0.30433 -5.077909,-5.1891 -5.216922,-5.54556 -0.04908,-0.12585 -0.329657,-0.59385 -0.623507,-1.04 -1.104669,-1.67721 -2.087782,-5.4253 -2.401875,-9.15707 -0.09099,-1.08109 0.382746,-2.88085 0.863278,-3.27966 0.139012,-0.11536 0.419949,-0.47462 0.624309,-0.79835 0.657443,-1.04146 1.577013,-1.8961 2.040141,-1.8961 0.233625,0 0.424774,-0.0692 0.424774,-0.15377 0,-0.31665 0.72617,-0.81118 1.785592,-1.21601 l 1.094203,-0.41812 1.963086,0.005 c 1.079696,0.003 2.321743,0.088 2.760103,0.18942 0.438358,0.10145 1.584905,0.2143 2.54788,0.2508 1.184694,0.0449 1.868411,0.14337 2.114371,0.30453 0.199928,0.131 0.4665,0.23818 0.592382,0.23818 0.125882,0 0.736467,0.216 1.356859,0.48 0.62039,0.264 1.247134,0.48 1.392763,0.48 0.145629,0 0.851576,0.27615 1.56877,0.61368 0.717195,0.33752 1.80799,0.78346 2.42399,0.99098 0.616,0.20752 1.26864,0.50737 1.450312,0.66632 0.181672,0.15896 0.455408,0.28902 0.608301,0.28902 0.152894,0 0.544254,0.13971 0.869687,0.31047 0.325436,0.17077 0.817423,0.39207 1.093308,0.4918 0.275884,0.0997 0.779884,0.44058 1.12,0.75747 0.340115,0.31689 0.947793,0.79758 1.350393,1.06821 1.106189,0.74357 1.637806,1.23287 2.029021,1.8675 0.610304,0.99004 -0.160807,1.10952 -1.191039,0.18455 -0.367553,-0.33 -0.967728,-0.816 -1.33372,-1.08 -0.365993,-0.264 -0.825395,-0.63797 -1.020892,-0.83104 -0.195498,-0.19307 -0.782933,-0.50548 -1.305411,-0.69425 -1.117696,-0.40383 -2.043355,-0.83991 -2.70996,-1.27668 -0.593488,-0.38887 -0.603203,-0.39257 -1.68,-0.63975 -0.484,-0.11111 -1.348,-0.43595 -1.92,-0.72187 -0.572,-0.28592 -1.364,-0.60913 -1.76,-0.71823 -0.937793,-0.25839 -1.734717,-0.61204 -2.27256,-1.00851 l -0.432561,-0.31885 -2.287438,-0.12498 c -1.258093,-0.0687 -3.07944,-0.20619 -4.04744,-0.30546 -2.489838,-0.25533 -2.767714,-0.23869 -3.810122,0.22806 -0.899441,0.40274 -2.669878,1.62008 -2.669878,1.8358 0,0.0582 -0.358619,0.48178 -0.796929,0.94132 -0.521091,0.54634 -0.888947,1.11686 -1.062779,1.64832 l -0.265848,0.81279 0.188355,2.18666 c 0.103597,1.20267 0.267281,2.47467 0.363744,2.82667 0.518083,1.89053 1.187576,3.68905 1.623414,4.36112 1.055266,1.62726 3.743512,4.67585 4.764755,5.40346 0.367009,0.26148 1.459841,1.24942 2.428517,2.19542 0.968673,0.946 1.853699,1.72 1.966723,1.72 0.113022,0 0.40902,0.17117 0.657771,0.38038 0.248752,0.20921 1.172276,0.75655 2.052276,1.21631 0.88,0.45976 1.708,0.92558 1.84,1.03516 0.258125,0.21427 2.310728,1.20353 4,1.92781 0.572,0.24525 1.22,0.56988 1.44,0.7214 0.407309,0.28053 0.663437,0.37166 2.64,0.93923 0.616,0.17689 1.696,0.51203 2.4,0.74476 0.704,0.23273 2.001225,0.62171 2.882724,0.86441 0.881498,0.2427 1.745498,0.52255 1.92,0.6219 0.356485,0.20296 3.0706,0.8959 4.845145,1.23702 0.642328,0.12347 1.324349,0.3341 1.515602,0.46806 0.191251,0.13396 0.509267,0.24356 0.706701,0.24356 0.197433,0 0.595412,0.10073 0.884398,0.22385 0.288986,0.12312 0.819253,0.34456 1.178369,0.4921 0.785152,0.32256 1.98706,1.35293 1.98706,1.70346 0,0.1384 0.152014,0.42464 0.337809,0.63611 0.185795,0.21146 0.626664,0.99648 0.979709,1.74448 0.353045,0.748 0.775393,1.612 0.938555,1.92 0.16316,0.308 0.43363,0.848 0.601045,1.2 0.596345,1.25386 1.672744,2.32114 3.069384,3.04336 l 0.535833,0.27709 1.048832,-0.0941 1.048832,-0.0941 0.522618,-0.59578 c 0.539171,-0.61464 0.997382,-1.83927 0.997382,-2.66564 0,-0.25913 0.152965,-1.12269 0.33992,-1.91902 l 0.33992,-1.44787 -0.07898,-2.09194 -0.07898,-2.09193 -0.590684,-1.28 c -0.324876,-0.704 -0.736837,-1.57947 -0.915469,-1.94548 -0.516134,-1.05754 -0.241688,-1.51628 0.757157,-1.26558 l 0.387574,0.0973 0.719771,1.54027 c 0.395874,0.84714 0.71977,1.66174 0.71977,1.81022 0,0.73895 1.891276,0.30901 4.719996,-1.07297 0.44,-0.21497 1.16,-0.52137 1.6,-0.6809 0.70395,-0.25522 3.09825,-1.14618 3.76,-1.39916 0.132,-0.0505 0.38158,-0.11885 0.55462,-0.15199 0.17304,-0.0331 0.46104,-0.15505 0.64,-0.27092 0.17896,-0.11588 0.6191,-0.25684 0.9781,-0.31325 0.78226,-0.12292 2.78862,-0.87547 3.82728,-1.43554 1.18548,-0.63924 1.73828,-0.89721 2.8,-1.30665 0.66,-0.25451 1.704,-0.6917 2.32,-0.97152 0.616,-0.27981 1.696,-0.70924 2.4,-0.95426 1.59688,-0.5558 4.86897,-2.03112 5.88241,-2.65226 0.41932,-0.25701 0.82823,-0.46728 0.90868,-0.46728 0.0805,0 0.56537,-0.27286 1.0776,-0.60635 0.51222,-0.3335 1.11131,-0.68444 1.33131,-0.77987 0.22,-0.0954 0.832,-0.49525 1.36,-0.88846 0.528,-0.39322 1.212,-0.85096 1.52,-1.01721 0.308,-0.16624 0.812,-0.52903 1.12,-0.80618 0.308,-0.27716 1.064,-0.85037 1.68,-1.2738 0.616,-0.42343 1.192,-0.84834 1.28,-0.94423 0.32332,-0.35232 2.21748,-1.52816 4.50958,-2.79941 4.70043,-2.60697 7.41243,-5.73045 7.64459,-8.80449 l 0.1027,-1.36 -0.39405,-1.21695 c -0.84742,-2.61701 -2.72652,-4.64328 -4.66282,-5.028 -0.176,-0.035 -0.896,-0.24286 -1.6,-0.46197 -2.29187,-0.71331 -2.53,-0.75024 -5.04,-0.78159 -3.21245,-0.0401 -4.06108,0.0537 -4.13897,0.45775 -0.0324,0.16824 -0.3673,0.77823 -0.74415,1.35553 -0.37685,0.5773 -0.79167,1.3045 -0.92183,1.61601 -0.21484,0.51419 -1.64067,2.30862 -2.6667,3.3561 -1.12563,1.14914 -9.94365,6.22312 -10.81511,6.22312 -0.0376,0 -0.84354,0.36486 -1.79085,0.81079 -0.94731,0.44594 -2.11839,0.90363 -2.60239,1.01709 -0.484,0.11346 -1.21805,0.3606 -1.63122,0.5492 -0.41317,0.18861 -0.86675,0.34292 -1.00795,0.34292 -0.14119,0 -0.45114,0.10031 -0.68877,0.22292 -0.23763,0.12261 -0.93606,0.34805 -1.55206,0.50099 -0.616,0.15293 -1.3,0.40317 -1.52,0.55608 -0.22,0.15291 -0.58,0.33108 -0.8,0.39592 -0.22,0.0649 -1.13396,0.43429 -2.03102,0.82099 -0.89706,0.38671 -1.70911,0.7031 -1.80456,0.7031 -0.94824,0 -4.127493,2.64293 -4.808309,3.99718 -0.621198,1.23566 -5.048272,6.29656 -5.980859,6.83715 -0.605029,0.35071 -1.999269,0.23256 -3.295248,-0.27925 -0.66,-0.26065 -1.292915,-0.47417 -1.406478,-0.47449 -0.654381,-0.002 -1.849605,-1.44351 -2.023424,-2.44059 l -0.104598,-0.6 -0.512749,-0.0117 c -0.282013,-0.006 -0.704406,-0.13243 -0.938653,-0.28 -0.532117,-0.33522 -4.170316,-2.40189 -4.959915,-2.81747 -1.015238,-0.53434 -3.076356,-2.62979 -4.732018,-4.81083 -1.426293,-1.8789 -2.420888,-2.85415 -3.322163,-3.25757 -0.44,-0.19695 -0.998,-0.46257 -1.24,-0.59026 -1.782538,-0.94058 -1.992472,-1.03217 -2.365775,-1.03217 -0.181564,0 -0.532356,-0.10459 -0.779539,-0.23241 -0.319523,-0.16523 -0.826179,-0.21503 -1.752913,-0.17229 l -1.303493,0.0601 -0.247826,-0.24783 c -0.136305,-0.1363 -0.225918,-0.43677 -0.19914,-0.66771 l 0.04869,-0.41988 1.52,-0.097 1.52,-0.097 1.358486,0.37251 c 0.747167,0.20488 1.383166,0.44655 1.413333,0.53704 0.03017,0.0905 0.1572,0.16455 0.282299,0.16455 0.125098,0 0.605098,0.19075 1.066666,0.4239 0.461569,0.23315 1.235215,0.62151 1.719215,0.86303 0.484,0.24152 1.06,0.61558 1.28,0.83126 0.617309,0.60517 1.76,2.0053 1.76,2.15651 0,0.0744 0.432,0.56281 0.96,1.0853 0.528,0.52249 0.96,1.02633 0.96,1.11964 0,0.45159 2.49287,2.49508 3.800715,3.11557 0.505606,0.23988 1.406554,0.73509 2.002102,1.10047 0.595551,0.36537 1.11505,0.66432 1.154443,0.66432 0.0394,0 0.416127,0.21894 0.837183,0.48653 l 0.765557,0.48654 0.09462,-0.68654 c 0.05204,-0.37759 0.146444,-0.87097 0.209781,-1.09639 l 0.11516,-0.40986 -0.418094,-0.1905 c -3.271651,-1.49067 2.261939,-9.39737 6.193532,-8.84967 0.549731,0.0766 2.702573,-0.30425 3.065978,-0.54236 0.205107,-0.13439 0.907443,-0.34662 1.560747,-0.47162 1.328636,-0.25421 1.97994,-0.46994 2.124387,-0.70366 0.05346,-0.0865 0.438452,-0.27952 0.85554,-0.42893 1.73525,-0.62162 4.47731,-1.98462 6.27834,-3.12076 0.836,-0.52737 2.492,-1.54399 3.68,-2.25915 4.015,-2.41698 7.0134,-4.8704 8.66934,-7.09363 0.52436,-0.704 1.48727,-1.83784 2.13979,-2.51965 1.24594,-1.30184 1.79362,-2.07049 2.13781,-3.00035 0.23643,-0.6387 0.62233,-1.52989 0.86604,-2 0.0912,-0.176 0.27167,-0.52953 0.40095,-0.78562 0.20789,-0.41178 0.96039,-3.010438 1.53311,-5.294388 0.1349,-0.53795 0.18793,-1.83824 0.1619,-3.96958 l -0.0387,-3.169585 -0.41512,-0.599018 c -0.55202,-0.79657 -0.55775,-1.563686 -0.0135,-1.81165 l 0.40159,-0.182972 0.41362,0.386403 c 0.93104,0.869781 1.03617,1.503166 1.0262,6.182452 -0.003,1.49988 -0.0893,2.6184 -0.2525,3.28 -0.1362,0.55217 -0.38184,1.6165 -0.54586,2.36517 -0.37292,1.702138 -0.86425,3.159278 -1.48325,4.398788 -0.49626,0.99374 -0.57692,1.17385 -0.9976,2.22766 -0.28499,0.7139 -0.88233,1.47792 -2.32384,2.97234 -0.55176,0.572 -1.35523,1.56136 -1.78549,2.19859 -0.91064,1.34866 -1.58064,2.05205 -2.64691,2.7788 -0.42214,0.28773 -1.41183,1.12152 -2.19929,1.85287 -0.78746,0.73136 -1.49427,1.32974 -1.57068,1.32974 -0.0764,0 -0.36811,0.17292 -0.64824,0.38426 -0.28013,0.21135 -0.76133,0.50154 -1.06933,0.64488 -0.51191,0.23823 -1.07082,0.56279 -3.3068,1.92027 -0.42526,0.25818 -1.0252,0.6635 -1.3332,0.90071 -0.308,0.2372 -0.82035,0.56597 -1.13857,0.73058 -0.31821,0.16461 -0.93021,0.4873 -1.36,0.71708 -0.42978,0.22979 -1.3888,0.65824 -2.13114,0.95212 -0.74235,0.29389 -1.93035,0.82981 -2.640001,1.19094 -0.740532,0.37684 -1.767478,0.74731 -2.410281,0.86951 -0.616,0.11709 -1.408,0.35796 -1.76,0.53525 -0.390483,0.19667 -1.076654,0.34903 -1.76,0.39079 -0.616,0.0376 -1.387861,0.16942 -1.715246,0.29283 -0.327386,0.12341 -0.702709,0.18315 -0.83405,0.13275 -0.131342,-0.0504 -0.583481,0.0277 -1.004753,0.17353 l -0.765951,0.26517 -0.93943,1.10602 c -1.12489,1.32438 -1.859139,2.7271 -1.859968,3.55331 -8e-4,0.72602 0.251973,0.79122 0.40292,0.10396 0.173523,-0.79004 1.00185,-1.90396 1.415814,-1.90396 0.745365,0 1.043237,1.11658 0.442826,1.65994 -0.615846,0.55734 -1.073392,2.17906 -1.307245,4.63341 l -0.152675,1.60236 0.389658,0.6649 c 0.214312,0.36569 0.483806,0.74117 0.598878,0.83438 0.329133,0.26662 2.997835,0.88256 3.393561,0.78324 0.875373,-0.21971 5.269955,-5.32965 5.918578,-6.88203 0.120252,-0.2878 0.569291,-0.80301 0.997862,-1.14491 0.428571,-0.3419 1.077003,-0.88772 1.440963,-1.21293 0.96347,-0.8609 1.851,-1.38191 2.7269,-1.60078 0.42424,-0.10602 1.13136,-0.35964 1.57135,-0.56361 0.44,-0.20396 0.90368,-0.37155 1.03039,-0.37241 0.1267,-8e-4 0.70546,-0.28861 1.28612,-0.63945 0.58066,-0.35084 1.59299,-0.79274 2.24962,-0.98201 0.65663,-0.18926 1.87787,-0.57414 2.71387,-0.85528 0.836,-0.28115 1.952,-0.64441 2.48,-0.80725 0.528,-0.16284 1.032,-0.34526 1.12,-0.40538 0.088,-0.0601 0.772,-0.37986 1.52,-0.71053 4.15218,-1.83555 7.22156,-3.40224 8.76401,-4.47335 0.64021,-0.44457 1.56527,-1.06031 2.0557,-1.36831 3.64675,-2.29026 6.17774,-8.0537 8.15054,-18.560008 0.72502,-3.86116 0.75922,-10.021592 0.067,-12.063874 -0.0865,-0.255133 -0.15723,-0.700883 -0.15723,-0.990559 0,-0.289673 -0.072,-0.571179 -0.16,-0.625566 -0.088,-0.05439 -0.16006,-0.292637 -0.16013,-0.529443 -1.6e-4,-0.751044 -0.48206,-2.77537 -0.86116,-3.617973 -0.20108,-0.446922 -0.45918,-1.172584 -0.57357,-1.612584 -0.52557,-2.021661 -1.02641,-3.303245 -1.78204,-4.560001 -1.21431,-2.019625 -1.4403,-2.409773 -1.85359,-3.2 -0.20711,-0.396 -0.7712,-1.332 -1.25352,-2.08 -0.48233,-0.748 -1.02786,-1.594 -1.21228,-1.88 l -0.33532,-0.52 -0.98419,0.006 c -0.54131,0.0033 -1.8842,0.135381 -2.9842,0.293565 l -2,0.287606 -0.96874,0.900379 c -0.53282,0.49521 -1.23458,1.080775 -1.55948,1.301258 -0.3249,0.220483 -0.78896,0.540877 -1.03125,0.711987 -1.4248,1.006234 -3.0416,1.939253 -3.36046,1.939253 -0.12628,0 -0.39589,0.130807 -0.59913,0.29068 -0.20325,0.159874 -0.79061,0.38452 -1.30524,0.499213 -0.51463,0.114694 -1.1517,0.302437 -1.4157,0.417206 -2.12774,0.925005 -7.73766,0.958922 -10.15999,0.06143 -1.08172,-0.400786 -2.604906,-1.130573 -2.830455,-1.35612 l -0.227886,-0.227888 -0.96385,0.951955 c -1.347773,1.331144 -1.000307,1.577839 1.444675,1.025691 l 1.141739,-0.257838 0.234527,0.194638 c 0.17254,0.143199 0.19216,0.273802 0.0742,0.494172 -0.442588,0.826977 -1.518928,0.988216 -6.632973,0.993637 l -4.32,0.0046 -2.067539,-0.435807 c -1.137147,-0.239694 -2.267571,-0.53925 -2.512054,-0.665677 -0.244483,-0.126424 -0.613691,-0.229864 -0.820461,-0.229864 -0.206769,0 -0.444345,-0.0633 -0.527945,-0.140672 -0.0836,-0.07737 -0.44,-0.230997 -0.792,-0.341393 -0.352,-0.110399 -1.324,-0.596788 -2.16,-1.080866 -0.836,-0.484077 -1.844,-1.063906 -2.24,-1.288509 -0.396,-0.224601 -1.034173,-0.681181 -1.41816,-1.014621 -0.383989,-0.333438 -0.949998,-0.653497 -1.2578,-0.711241 -0.608528,-0.11416 -0.635716,-0.103143 -3.00404,1.217393 -0.791999,0.441607 -2.007113,1.089292 -2.700252,1.4393 -0.693139,0.350009 -1.641341,0.889331 -2.107115,1.198494 -0.465775,0.309163 -0.906659,0.563504 -0.979747,0.565203 -0.07309,0.0017 -0.816885,0.646997 -1.652885,1.433999 -0.836,0.787001 -1.605149,1.433613 -1.709218,1.436913 -0.10407,0.0033 -0.230684,0.136652 -0.281367,0.296336 -0.05068,0.159685 -0.378325,0.501685 -0.728096,0.76 -0.349772,0.258316 -0.674668,0.585141 -0.721992,0.726279 -0.04733,0.141138 -0.336949,0.391734 -0.64361,0.556882 -0.306661,0.165147 -0.595957,0.42123 -0.64288,0.569072 -0.04692,0.147843 -0.26892,0.389107 -0.493328,0.536145 -0.224406,0.147037 -0.927736,0.783479 -1.562953,1.414314 -0.635218,0.630835 -1.330805,1.296851 -1.545749,1.480037 -0.527358,0.449438 -1.81608,1.897962 -2.164918,2.433368 -0.155368,0.238462 -0.467752,0.618592 -0.694187,0.844731 -0.226436,0.226141 -0.838818,0.895835 -1.360852,1.488211 -0.522032,0.592377 -1.375558,1.415353 -1.896724,1.828837 -0.521167,0.413484 -1.203376,1.021533 -1.516024,1.35122 -0.70009,0.738242 -1.315202,0.918532 -3.137802,0.919682 l -1.419702,9.6e-4 -0.900297,-0.46026 c -1.093608,-0.55908 -2.131997,-0.931992 -2.694055,-0.967504 -0.106566,-0.0067 -0.713523,-0.709862 -1.348795,-1.562509 -0.635272,-0.852646 -1.664715,-2.130646 -2.287652,-2.84 -0.622938,-0.709421 -1.470123,-1.7218 -1.882637,-2.2498 -0.412512,-0.528 -0.879878,-1.103221 -1.03859,-1.278267 -0.418372,-0.461431 -1.162258,-1.577148 -1.165658,-1.748311 -0.0016,-0.08062 -0.114462,-0.260618 -0.250803,-0.4 -0.369221,-0.377459 -2.287851,-3.334663 -2.759618,-4.253423 -0.225931,-0.44 -0.595668,-1.052284 -0.821636,-1.360632 -0.524514,-0.715725 -0.775634,-1.117158 -0.954568,-1.525944 -0.07862,-0.179616 -0.256957,-0.421192 -0.396299,-0.536835 -0.26976,-0.223882 -0.739988,-1.07903 -0.739988,-1.345733 0,-0.08799 -0.171785,-0.526926 -0.381745,-0.975418 -0.209958,-0.448491 -0.53789,-1.175438 -0.728736,-1.615438 -0.55948,-1.289899 -0.704862,-1.586098 -0.903118,-1.84 -0.495434,-0.634485 -1.092338,-2.815938 -1.085168,-3.965869 l 0.0073,-1.165869 0.347387,-0.469867 c 1.188456,-1.607471 1.389787,-2.146112 0.953944,-2.552162 -0.514403,-0.47924 -1.157691,-0.404498 -2.142043,0.248878 -0.666058,0.442104 -1.083264,0.594772 -1.80396,0.660122 l -0.937518,0.08501 -0.8906124,-1.102293 c -0.489836,-0.60626 -0.944532,-1.317315 -1.010436,-1.580121 -0.391574,-1.5615 -1.074003,-2.487423 -2.28411,-3.099096 l -0.698848,-0.353248 -0.863042,0.19314 c -0.474674,0.106228 -0.943008,0.289493 -1.040743,0.407256 -0.09773,0.117765 -0.346481,0.214117 -0.552773,0.214117 -1.450797,0 -2.56993203,3.518589 -2.359386,7.417973 l 0.05928,1.097972 0.592484,1.113837 c 0.340903,0.640878 0.78131,1.225379 1.037179,1.376524 0.244583,0.144479 0.444696,0.314039 0.444696,0.3768 0,0.06276 0.234,0.365736 0.52,0.673279 1.1786,1.267376 3.561876,6.711207 3.722832,8.503616 0.06045,0.673189 0.789843,3.190036 1.205585,4.160001 0.07544,0.176 0.242804,0.692216 0.371929,1.147148 0.129125,0.454932 0.600371,1.561445 1.0472134,2.458921 0.446843,0.897475 0.812441,1.701411 0.812441,1.786524 0,0.08512 0.252,0.666281 0.56,1.291477 0.308,0.625199 0.56,1.215031 0.56,1.31074 0,0.09571 0.216,0.590334 0.48,1.099169 0.264,0.508836 0.48,1.0606 0.48,1.226146 0,0.165544 0.06264,0.339702 0.139195,0.387018 0.07656,0.04732 0.344298,0.501564 0.594974,1.009443 0.250679,0.507878 0.62004,1.126938 0.820805,1.375688 0.200765,0.24875 0.365026,0.51366 0.365026,0.58869 0,0.075 0.288,0.57 0.64,1.09995 0.352,0.52994 0.64,1.02439 0.64,1.09877 0,0.1613 0.21728,0.44694 1.650356,2.16962 0.599698,0.72088 1.132359,1.418698 1.183693,1.550698 0.120083,0.30877 0.470578,0.6977 2.346707,2.604 0.846584,0.8602 1.539243,1.60408 1.539243,1.65307 0,0.79207 5.352176,4.64768 6.510556,4.6901 0.192807,0.007 0.393847,0.0829 0.446757,0.16849 0.108469,0.17551 0.853759,0.39907 2.722686,0.81674 0.704,0.15733 1.568,0.38012 1.92,0.49511 0.415741,0.1358 1.396875,0.20119 2.8,0.1866 l 2.16,-0.0224 0.945048,-0.33583 c 0.519776,-0.18471 1.131776,-0.33692 1.36,-0.33824 0.438237,-0.003 1.37163,-0.29459 1.774952,-0.55536 0.497142,-0.32142 3.892782,-2.00223 4.044991,-2.00223 0.239981,0 2.217029,-1.71186 2.691005,-2.33005 0.228798,-0.29842 0.840798,-0.8712 1.36,-1.27286 1.070646,-0.82826 2.898241,-2.99534 3.033585,-3.5971 0.159039,-0.707098 0.979653,-2.239998 1.199149,-2.239998 0.0832,0 0.151269,-0.1014 0.151269,-0.22534 0,-0.33334 1.387046,-1.97629 1.771477,-2.09831 1.205286,-0.38254 1.141641,1.20037 -0.117124,2.91297 -0.205894,0.28013 -0.374353,0.57949 -0.374353,0.66524 0,0.0858 -0.171773,0.50455 -0.381719,0.930668 -0.209945,0.42612 -0.468302,1.20678 -0.574126,1.73478 -0.105824,0.528 -0.26064,1.08916 -0.344035,1.24704 -0.14019,0.26539 -0.367427,2.19921 -0.802915,6.83296 -0.130341,1.38686 -0.124394,2.27343 0.02414,3.6 0.152071,1.35809 0.154128,1.91756 0.009,2.44996 l -0.188064,0.68997 -0.351148,-0.05 c -0.258061,-0.0367 -0.364506,-0.17721 -0.401532,-0.52996 -0.02771,-0.264 -0.189708,-0.93759 -0.36,-1.49686 -0.45004,-1.47803 -0.416057,-2.23171 0.421368,-9.34528 0.269239,-2.28707 0.227439,-2.92718 -0.14975,-2.29328 -0.09968,0.16752 -0.529861,0.63552 -0.95596,1.04 -0.426097,0.40448 -1.260206,1.20342 -1.853576,1.77542 -1.459961,1.40738 -3.138595,2.76503 -3.661691,2.96151 -0.236504,0.0888 -1.222008,0.56143 -2.190008,1.05022 -2.284379,1.15348 -3.316609,1.54273 -4.416446,1.66541 -0.493044,0.055 -1.242488,0.20414 -1.665428,0.33143 -1.182895,0.356 -4.318838,0.3114 -5.477488,-0.0779 -0.981203,-0.32968 -2.541022,-0.74826 -3.720637,-0.99844 -0.396,-0.084 -0.936,-0.25229 -1.199999,-0.37402 -0.264,-0.12173 -0.884557,-0.40276 -1.379015,-0.62453 -1.993016,-0.89386 -5.740982,-3.75587 -5.740982,-4.3839 0,-0.0894 -0.323277,-0.44715 -0.718393,-0.79494 -0.395117,-0.3478 -1.299421,-1.34392 -2.009563,-2.2136 -0.710143,-0.86969 -1.621509,-1.96052 -2.02526,-2.42406 -1.091214,-1.252818 -1.914233,-2.384098 -2.6461,-3.637188 -0.359773,-0.616 -0.813565,-1.336 -1.008427,-1.6 -0.819459,-1.11021 -3.5922564,-7.051647 -3.5922564,-7.697345 0,-0.09364 -0.440625,-1.020901 -0.979167,-2.060589 -0.538542,-1.039686 -1.141272,-2.36548 -1.3394,-2.946205 -1.145738,-3.358235 -1.361433,-4.02715 -1.361433,-4.222096 0,-0.118523 -0.331954,-1.254608 -0.737677,-2.524634 -0.405807,-1.270319 -0.801275,-2.57545 -0.878903,-2.900584 -0.07763,-0.325135 -0.32842,-0.865135 -0.557316,-1.200001 -0.228896,-0.334865 -0.598456,-0.968846 -0.821245,-1.408846 -0.222789,-0.44 -0.850355,-1.232 -1.394591,-1.76 -2.14365083,-2.079699 -2.57057063,-3.599464 -2.19495263,-7.813671 0.3043677,-3.414821 1.2531196,-5.373947 2.73568663,-5.649066 0.312902,-0.05807 0.856913,-0.228107 1.208913,-0.37787 0.352,-0.149765 0.990335,-0.324557 1.418522,-0.388428 l 0.778522,-0.116129 0.97264,0.363744 c 1.001512,0.374541 2.830316,1.956605 2.830316,2.448453 0,0.124869 0.101628,0.430869 0.225841,0.68 0.124212,0.249131 0.4193214,0.864049 0.6557974,1.366486 0.236477,0.502436 0.535213,1.000874 0.663858,1.10764 l 0.233902,0.194122 1.366045,-0.680298 c 1.058278,-0.527027 1.560417,-0.684848 2.228785,-0.700496 l 0.86274,-0.0202 0.575168,0.552856 c 0.31634,0.304071 0.684777,0.762277 0.818748,1.018237 l 0.243583,0.465379 -0.208056,0.654621 c -0.114431,0.36004 -0.436629,1.019077 -0.715995,1.464525 -0.279367,0.445447 -0.60396,1.075447 -0.721319,1.4 l -0.213382,0.590095 0.192142,0.53136 c 0.105679,0.292248 0.192143,0.683998 0.192143,0.870557 0,0.186558 0.06336,0.378353 0.140788,0.426209 0.07743,0.04786 0.262744,0.459874 0.411804,0.915594 0.149057,0.45572 0.437697,1.050813 0.641422,1.32243 0.203723,0.271618 0.713289,1.35785 1.132369,2.41385 0.447176,1.126797 0.983327,2.179775 1.297789,2.5488 0.294706,0.34584 0.535827,0.695447 0.535827,0.776903 0,0.08146 0.18,0.36202 0.4,0.623476 0.22,0.261455 0.4,0.572325 0.4,0.690821 0,0.118496 0.16705,0.418973 0.371221,0.667724 0.561075,0.683585 1.868779,2.910915 1.868779,3.182973 0,0.131641 0.110662,0.281812 0.245918,0.333715 0.135255,0.0519 0.359656,0.319641 0.498672,0.594977 0.139015,0.275336 0.665455,1.040612 1.169868,1.700612 0.504411,0.66 1.099267,1.488 1.321902,1.84 0.222633,0.352 0.956541,1.216 1.630902,1.92 1.21665,1.27012 2.652738,3.001474 2.652738,3.198152 0,0.375917 1.404452,1.681699 1.808852,1.68177 0.246867,4.3e-5 0.923719,0.252078 1.504112,0.560078 1.962552,1.041477 3.137904,0.792416 5.228425,-1.10792 1.254696,-1.140549 1.909704,-1.787219 3.739687,-3.69208 0.253622,-0.264 0.645236,-0.732 0.870252,-1.04 0.550935,-0.754114 4.321373,-4.548124 5.501539,-5.535935 0.520922,-0.436016 1.34729,-1.186802 1.836373,-1.668411 1.701309,-1.675315 3.834979,-3.554716 4.590484,-4.043436 1.003936,-0.649424 2.28169,-1.43488 2.680274,-1.647608 2.882249,-1.538278 3.679691,-1.983016 4.559999,-2.543134 0.572,-0.363949 1.17946,-0.714074 1.349909,-0.778056 l 0.309907,-0.116331 -0.413008,-0.41301 -0.413008,-0.413008 -2.5369,0.345683 c -1.395295,0.190127 -3.004899,0.428379 -3.576899,0.529451 -0.572,0.101072 -1.22,0.191826 -1.44,0.201677 -0.22,0.0099 -0.58,0.06542 -0.8,0.123474 -0.83869,0.221341 -4.16,0.520653 -4.16,0.374894 0,-0.148521 3.441734,-0.722646 5.84,-0.974187 0.44,-0.04615 1.16,-0.158366 1.6,-0.249371 0.44,-0.09101 1.624052,-0.330749 2.631228,-0.532765 1.981144,-0.397371 2.111549,-0.4834 1.586704,-1.046755 l -0.346894,-0.372348 -0.999808,0.102434 c -0.549894,0.05634 -1.204878,0.165992 -1.45552,0.243674 -2.217531,0.687291 -8.85571,0.796707 -8.85571,0.145968 0,-0.12953 0.452584,-0.151344 1.591477,-0.07671 2.333241,0.152906 8.259342,-0.630569 8.855212,-1.170728 0.06968,-0.06316 -0.221552,-0.485766 -0.647181,-0.939118 -0.425628,-0.453351 -0.950638,-1.117371 -1.166689,-1.4756 -0.21605,-0.358231 -0.500819,-0.79188 -0.632819,-0.963667 l -0.24,-0.312341 -0.511461,0.149013 c -1.642349,0.478492 -11.475977,0.652809 -11.917529,0.211257 l -0.195009,-0.195009 0.552,-0.0252 c 0.303599,-0.01386 0.659999,-0.01362 0.791999,4.8e-4 3.681067,0.395139 11.305105,-0.413895 10.838747,-1.150168 -0.302987,-0.478346 -0.837773,-2.048666 -1.152854,-3.385185 -0.145221,-0.616 -0.400287,-1.552 -0.566813,-2.08 -0.166527,-0.528 -0.426536,-1.788 -0.577799,-2.8 l -0.27502,-1.84 0.02465,-4.32 c 0.02374,-4.159218 0.152731,-6.344562 0.505268,-8.560001 0.09102,-0.572 0.242546,-1.58 0.336719,-2.24 0.269276,-1.887173 0.743438,-3.292162 1.91872,-5.685357 0.920988,-1.875386 0.893281,-1.639331 0.399612,-3.404536 -0.215475,-0.770475 -0.476603,-2.353739 -0.585824,-3.55196 l -0.197059,-2.161853 0.188735,-1.471671 c 0.190416,-1.484707 0.671521,-2.924547 0.977228,-2.924547 0.09113,0 0.165687,-0.09561 0.165687,-0.212454 0,-1.898857 5.82785,-2.463272 8.589573,-0.831882 l 0.468623,0.276822 1.030901,-0.708782 c 0.970635,-0.667346 2.474635,-1.403704 2.867041,-1.403704 0.09725,0 0.383389,-0.152725 0.635866,-0.339388 0.53768,-0.397525 4.550666,-1.571674 6.167994,-1.804678 0.176,-0.02536 0.824,-0.192255 1.44,-0.370886 0.629527,-0.182554 2.135979,-0.405813 3.44,-0.509813 l 2.32,-0.185028 2.24,0.240904 c 1.231998,0.132497 2.707998,0.315363 3.279998,0.406368 0.572,0.09101 1.508,0.230583 2.08,0.310172 0.98136,0.136547 3.82023,1.114715 5.09813,1.756622 0.32003,0.160756 0.977865,0.383487 1.461865,0.494958 0.484,0.111471 0.952,0.254847 1.04,0.318613 0.088,0.06377 0.304,0.155237 0.48,0.203271 1.41077,0.385019 3.59595,1.300644 4.32,1.810148 0.264,0.185772 1.308,0.792526 2.32,1.348342 1.012,0.555816 2.06475,1.22044 2.33944,1.476945 l 0.49945,0.466372 1.08528,-0.963388 1.08528,-0.963385 1.05528,-0.311379 c 3.67379,-1.084027 6.93719,-0.829293 9.93591,0.775572 l 0.35416,0.18954 -0.11083,1.225059 c -0.061,0.673782 -0.21279,1.384526 -0.3374,1.57943 -0.12461,0.194904 -0.22657,0.508826 -0.22657,0.697604 0,0.453678 -1.51632,3.518608 -2.19068,4.428025 -0.79763,1.075633 -1.26213,0.592354 -0.60932,-0.633944 0.22,-0.413268 0.4,-0.89395 0.4,-1.06818 0,-0.174231 0.17435,-0.735528 0.38744,-1.24733 1.17608,-2.824661 1.12011,-3.20156 -0.33988,-2.289023 -1.53917,0.962021 -2.76756,2.343354 -2.76756,3.112141 0,0.125098 -0.072,0.271949 -0.16,0.326336 -0.28386,0.175439 -0.17239,0.648434 0.41267,1.750908 0.31497,0.593521 0.67588,1.486373 0.80203,1.984112 0.12615,0.497739 0.29944,1.048981 0.3851,1.224981 0.0857,0.176 0.22548,0.716 0.31072,1.2 0.0852,0.484 0.28262,1.456 0.43863,2.16 l 0.28365,1.28 -0.0242,5.271703 c -0.0261,5.690149 -0.26955,10.120947 -0.59821,10.888298 -0.26641,0.622001 -0.73011,2.203266 -0.73137,2.494062 -4.8e-4,0.124266 -0.1139,0.441938 -0.25191,0.705938 -0.13801,0.264 -0.34965,0.84 -0.47031,1.28 -0.47463,1.730714 -0.59653,2.105883 -0.90976,2.8 -0.17871,0.396 -0.38453,0.828 -0.45739,0.96 -0.0729,0.132 -0.31703,0.582 -0.5426,1 l -0.41013,0.76 0.36154,-0.0025 c 0.19885,-0.0014 0.79354,-0.113958 1.32154,-0.250187 0.528,-0.136227 1.248,-0.309817 1.6,-0.385757 1.65396,-0.356814 3.48639,-0.820793 4.03502,-1.021683 0.33274,-0.121838 0.92898,-0.306587 1.32498,-0.410552 0.396,-0.103966 0.936,-0.263891 1.2,-0.355389 0.264,-0.0915 0.66,-0.200486 0.88,-0.242198 0.22,-0.04171 0.544,-0.14192 0.72,-0.222687 0.176,-0.08076 1.58,-0.571024 3.12,-1.089462 3.30898,-1.113962 4.01417,-1.370174 4.91826,-1.786931 0.37304,-0.17196 0.81104,-0.312655 0.97333,-0.312655 0.16229,0 0.34442,-0.04934 0.40473,-0.109654 0.21393,-0.21393 1.22862,-0.491794 1.31073,-0.358933 0.10362,0.167659 -0.76129,0.628587 -1.17951,0.628587 -0.1696,0 -0.39415,0.103371 -0.499,0.229715 -0.10486,0.126344 -0.41968,0.279215 -0.6996,0.339714 -0.27991,0.0605 -0.84565,0.279659 -1.25718,0.487021 -0.84106,0.423792 -1.4038,0.636672 -3.81176,1.44197 -0.924,0.309014 -1.824,0.623729 -2,0.699368 -0.3384,0.14543 -3.87308,1.238597 -5.36,1.65768 -0.484,0.136414 -1.384,0.401006 -2,0.587982 -0.616,0.186976 -1.444,0.401067 -1.84,0.475755 -0.67629,0.127557 -1.97463,0.452932 -3.44,0.862093 l -0.64,0.178703 -0.46138,0.860973 -0.46137,0.860974 1.02137,-0.09226 c 0.56176,-0.05074 2.06538,-0.24515 3.34138,-0.432019 1.276,-0.18687 2.608,-0.377822 2.96,-0.424337 l 0.64,-0.08458 -0.24369,0.253598 c -0.27207,0.283126 -3.19247,0.922274 -6.144,1.344648 -1.86017,0.266197 -2.4212,0.521658 -1.66954,0.760222 0.46741,0.148351 1.96625,1.567797 2.40484,2.277453 l 0.34139,0.552368 1.27301,-0.111046 1.27301,-0.111046 -0.0706,0.21168 c -0.0388,0.116422 -0.44816,0.295529 -0.90967,0.398016 -1.09933,0.244123 -1.10867,0.262004 -0.55104,1.055616 0.26269,0.373854 0.82667,1.291734 1.25329,2.039734 1.52407,2.672143 2.85537,4.88516 3.12822,5.200001 0.42566,0.49118 0.79474,1.30046 0.79474,1.742611 0,0.219177 0.0648,0.438531 0.14392,0.487453 0.0792,0.04892 0.22632,0.467171 0.32703,0.929443 0.26014,1.194142 0.52524,2.091666 0.67873,2.297925 0.33341,0.448024 0.71219,2.124509 1.64221,7.268531 0.72762,4.024514 0.30763,10.50578 -0.96765,14.932408 -0.12333,0.42811 -0.22424,0.94188 -0.22424,1.14171 0,0.19984 -0.10756,0.56957 -0.23901,0.82163 -0.13146,0.25206 -0.24097,0.60229 -0.24336,0.77829 -0.004,0.32711 -0.62404,2.51901 -0.94144,3.33042 -0.29819,0.76229 -0.28288,0.76854 1.62381,0.66282 1.27669,-0.0708 2.28842,-0.0266 3.48,0.15191 0.924,0.13845 2.184,0.32432 2.8,0.41304 1.24702,0.17961 3.57762,0.9908 4.32809,1.50644 1.02247,0.70254 2.29441,1.78272 2.30298,1.95578 0.005,0.0992 0.12808,0.27922 0.27371,0.4 0.30575,0.25356 0.54158,0.78032 1.24445,2.77959 l 0.50624,1.44 -0.1027,1.53094 c -0.17278,2.57559 -4.27448,8.62906 -5.84688,8.62906 -0.10269,0 -0.2751,0.1065 -0.38313,0.23668 -0.19214,0.23151 -0.54863,0.44086 -1.84276,1.08217 -0.352,0.17444 -0.856,0.47635 -1.12,0.67093 -0.264,0.19458 -0.59686,0.39671 -0.7397,0.44919 -0.30231,0.11106 -4.15314,2.70753 -4.8603,3.27712 -0.85644,0.68982 -1.57577,1.13688 -2.88643,1.79392 -0.70753,0.3547 -1.76753,0.96756 -2.35555,1.36192 -0.58802,0.39436 -1.35322,0.86196 -1.70045,1.0391 -0.34723,0.17715 -0.94323,0.52982 -1.32445,0.78372 -1.06479,0.70919 -4.10725,2.14564 -6.84642,3.23244 -1.36032,0.53973 -2.61834,1.08291 -2.7956,1.20706 -0.17727,0.12416 -0.41823,0.22575 -0.53548,0.22575 -0.11724,0 -0.51522,0.13471 -0.8844,0.29936 -0.36917,0.16465 -1.28322,0.56824 -2.03122,0.89686 -0.748,0.32862 -1.88474,0.8419 -2.5261,1.14063 -0.64136,0.29873 -1.25589,0.54315 -1.36562,0.54315 -0.10973,0 -0.70099,0.17323 -1.31389,0.38495 -0.612905,0.21172 -1.978385,0.68279 -3.034385,1.04682 -1.056,0.36402 -2.244,0.81287 -2.64,0.99742 -0.396,0.18456 -1.26,0.5834 -1.92,0.88631 -0.66,0.30291 -1.416,0.66067 -1.68,0.79501 -0.264,0.13434 -0.89227,0.28228 -1.396158,0.32875 l -0.916162,0.0845 -0.101291,0.31914 c -0.05571,0.17552 -0.05227,0.97568 0.0076,1.77812 0.07902,1.05836 0.04232,1.76653 -0.13367,2.57899 -0.133432,0.616 -0.327316,1.66 -0.430852,2.32 -0.450086,2.86912 -1.767755,4.63482 -3.46198,4.6391 -0.193859,0 -0.535818,0.0844 -0.759907,0.18655 -0.444538,0.20254 -1.328117,0.021 -2.247621,-0.46186 -0.264,-0.13862 -0.672906,-0.35192 -0.90868,-0.47398 -1.209073,-0.62599 -3.491325,-3.82422 -3.491325,-4.89256 0,-0.1421 -0.06735,-0.29999 -0.149671,-0.35087 -0.08232,-0.0509 -0.323082,-0.46912 -0.535029,-0.92944 -0.351544,-0.7635 -0.793104,-1.50341 -1.481271,-2.48211 -0.580265,-0.82525 -2.20051,-1.54126 -5.114028,-2.25998 -0.792,-0.19538 -1.631109,-0.45865 -1.864686,-0.58504 -0.233578,-0.1264 -0.714759,-0.22981 -1.069288,-0.22981 h -0.644602 l -0.550566,0.68 c -2.476294,3.05845 -1.222138,11.14664 1.856353,11.97181 0.370034,0.0992 0.838176,0.2451 1.040317,0.32427 0.483805,0.18946 2.360856,0.18502 2.714643,-0.006 0.152806,-0.0827 0.469779,-0.19054 0.704387,-0.23968 0.257786,-0.054 0.479355,-0.2403 0.56,-0.47091 0.191485,-0.54755 2.870782,-2.93638 3.709602,-3.30743 1.005579,-0.44482 1.642711,0.12468 0.775323,0.69301 -0.202685,0.1328 -1.059551,0.87909 -1.904146,1.6584 -3.43418,3.16875 -3.844174,3.34989 -6.767337,2.98989 z M 83.824345,74.895187 c 1.503252,-0.464307 4.12633,-3.033712 4.12633,-4.041896 0,-0.119229 0.07291,-0.289694 0.162035,-0.378814 0.08912,-0.08912 0.238354,-0.979426 0.331632,-1.97846 l 0.169598,-1.816424 -0.273148,-0.73354 c -0.150232,-0.403448 -0.610063,-1.129541 -1.021845,-1.613541 -0.795807,-0.935373 -1.833054,-2.567917 -2.002528,-3.151817 -0.375038,-1.292142 3.681413,-1.795334 6.194251,-0.768379 0.49432,0.202018 -0.0708,1.821853 -1.2281,3.520196 l -0.436121,0.64 0.101035,0.96 c 0.221606,2.105611 -0.0648,5.038669 -0.591249,6.054902 -0.08402,0.162197 -0.11109,0.460973 -0.06015,0.663949 l 0.09263,0.369047 1.240975,0.422841 c 4.21162,1.435031 7.51467,1.543727 10.9652,0.36084 0.37168,-0.127417 1.06299,-0.35919 1.53624,-0.515049 1.44586,-0.476175 3.04011,-1.433496 5.73811,-3.445639 0.91984,-0.686005 0.84501,-0.725722 -1.59259,-0.845237 -1.16929,-0.05733 -2.41398,-0.176353 -2.76598,-0.264494 -0.352,-0.08814 -1.18,-0.274898 -1.84,-0.415013 -1.3308,-0.282526 -1.6,-0.434686 -1.6,-0.90439 v -0.319061 l 0.36,0.07783 c 0.198,0.04281 0.9,0.225731 1.56,0.406499 2.23603,0.612431 7.10348,1.069191 7.6159,0.714672 0.0967,-0.06693 0.7143,-0.769694 1.37237,-1.561694 0.65806,-0.792 1.31691,-1.538816 1.4641,-1.659591 0.66349,-0.544395 0.35993,-0.580409 -4.89228,-0.580409 h -5.16009 v -0.24 -0.24 l 5.2,-0.09442 c 6.10707,-0.110888 6.4,-0.187372 6.4,-1.671009 0,-0.284716 0.14369,-0.284415 -2.08664,-0.0044 -5.51019,0.691832 -9.36868,0.730067 -11.10781,0.110072 -0.52495,-0.187143 -1.14614,-0.34026 -1.38041,-0.34026 -0.4335,0 -0.86837,-0.343435 -0.67708,-0.534721 0.20988,-0.209883 1.32211,-0.09773 2.39509,0.241512 l 1.09685,0.34679 2.4,8e-4 c 3.08239,9.6e-4 9.23671,-0.605832 9.93503,-0.979557 0.40582,-0.21719 2.05709,-3.567131 2.57448,-5.222881 0.22203,-0.710541 0.75057,-2.335893 1.17453,-3.611893 1.02359,-3.080751 1.00676,-2.958567 1.1899,-8.640001 0.21641,-6.713671 0.22465,-7.821128 0.0655,-8.8 -0.093,-0.572001 -0.22851,-1.400001 -0.30114,-1.840001 -0.0726,-0.44 -0.18369,-1.124 -0.24679,-1.52 -0.0631,-0.396 -0.17797,-0.800537 -0.25527,-0.898973 -0.0773,-0.09843 -0.27495,-0.674435 -0.43924,-1.28 -0.32676,-1.204409 -0.58422,-1.807193 -1.29035,-3.021027 -0.52683,-0.905606 -0.58494,-1.239253 -0.26245,-1.50689 0.12331,-0.102339 0.4285,-0.597155 0.67821,-1.09959 0.56459,-1.136015 2.1251,-2.739648 3.19213,-3.280356 1.0905,-0.552598 1.55419,-1.233164 0.84019,-1.233164 -0.0915,0 -0.39326,-0.09822 -0.67056,-0.218274 -2.42099,-1.04811 -7.91701,0.127722 -8.4989,1.818274 -0.0454,0.132 -0.33751,0.442902 -0.64905,0.690894 l -0.56644,0.450895 -0.57089,-0.570895 c -0.314,-0.314041 -0.62941,-0.570944 -0.70093,-0.570944 -0.0715,0 -0.51268,-0.252 -0.98035,-0.56 -0.46768,-0.308 -0.96915,-0.56 -1.11438,-0.56 -0.14523,0 -0.35369,-0.108 -0.46324,-0.24 -0.10955,-0.132 -0.28756,-0.24 -0.39558,-0.24 -0.10802,0 -0.49458,-0.216 -0.85903,-0.48 -0.36444,-0.264 -0.76242,-0.48 -0.88441,-0.48 -0.12199,0 -0.30384,-0.09886 -0.40411,-0.219682 -0.1898,-0.228691 -2.87802,-1.293426 -5.39695,-2.137591 l -1.46008,-0.489315 -0.55494,0.663887 c -0.30522,0.365139 -0.82491,1.167621 -1.15487,1.783295 -0.32995,0.615673 -0.66519,1.187806 -0.74497,1.271406 -0.0798,0.0836 -0.14506,0.249078 -0.14506,0.36773 0,0.118649 -0.13721,0.499723 -0.30491,0.846827 -0.1677,0.347104 -0.39174,1.009626 -0.49787,1.47227 -0.10613,0.462645 -0.28608,1.129173 -0.3999,1.481173 -0.50272,1.554754 -0.55322,3.045639 -0.15822,4.670828 l 0.2787,1.146688 -0.34979,0.491241 c -0.63623,0.893508 -0.95594,0.638218 -1.51251,-1.20774 -0.45905,-1.522545 -0.82715,-2.512197 -1.21294,-3.261017 -0.15868,-0.308 -0.52467,-1.136 -0.81331,-1.84 -0.28864,-0.704 -0.6923,-1.548569 -0.89703,-1.876821 -0.20472,-0.328251 -0.374804,-0.652251 -0.377969,-0.72 -0.0032,-0.06775 -0.175507,-0.330757 -0.382981,-0.584462 l -0.377227,-0.461282 -0.168382,0.314626 c -0.09261,0.173045 -0.318855,1.100621 -0.502765,2.061283 -0.427662,2.233916 -0.769379,3.817799 -0.998184,4.626656 -0.09957,0.352 -0.164658,0.761167 -0.144635,0.909258 0.03842,0.2842 -0.733139,2.680963 -0.932767,2.897523 -0.470463,0.510372 -1.082273,-3.169926 -1.2047,-7.246781 -0.07638,-2.54359 -0.827786,-4.668118 -2.755637,-7.791343 -0.553832,-0.897238 -1.006968,-1.701238 -1.006968,-1.786666 0,-0.279345 -0.340723,-0.278727 -1.41863,0.0026 -0.583754,0.152342 -1.227842,0.281137 -1.431306,0.28621 -0.4106,0.01024 -1.875185,0.429561 -2.307892,0.66077 -0.152807,0.08165 -0.399739,0.148453 -0.548743,0.148453 -0.789233,0 -6.318532,2.873474 -6.587076,3.423181 -0.328731,0.672913 -0.623397,0.683561 -1.27764,0.04617 -0.944547,-0.920227 -1.936441,-1.272761 -3.788712,-1.346566 l -1.6,-0.06375 -0.530907,0.334768 c -0.75694,0.477296 -0.611552,0.795906 0.530907,1.16344 0.528,0.169861 1.14,0.473335 1.36,0.674386 0.22,0.201051 0.52584,0.431958 0.679645,0.513125 0.153805,0.08117 0.683328,0.504804 1.176718,0.941416 2.738762,2.423589 2.705491,2.377341 2.214565,3.078237 -0.389003,0.555381 -0.660445,0.43942 -1.886955,-0.806111 -1.702942,-1.72935 -3.55292,-3.158288 -4.088883,-3.158288 -0.245259,0 -0.683928,-0.118731 -0.974819,-0.263846 -1.08579,-0.541664 -1.345205,0.206174 -1.22931,3.543846 0.120009,3.456194 0.59803,5.30958 1.14727,4.448216 1.502784,-2.356788 3.357502,-3.629625 4.143542,-2.843585 0.33227,0.33227 0.166858,0.67487 -0.384281,0.79592 -0.460583,0.101161 -1.472202,1.076008 -2.006175,1.933248 -0.159717,0.256411 -0.420897,0.614624 -0.580401,0.79603 -0.555389,0.631652 -3.296435,5.987324 -3.51617,6.870172 -0.178987,0.719131 -0.461352,2.354488 -0.856404,4.96 -0.484749,3.19708 -0.643327,10.623585 -0.269901,12.640001 0.09778,0.528 0.245811,1.392 0.328957,1.92 0.08314,0.528 0.297942,1.464 0.477329,2.08 0.179386,0.616 0.476144,1.64717 0.659461,2.29149 0.183317,0.64432 0.59784,1.676475 0.921163,2.293678 l 0.587859,1.122191 0.488395,-0.104896 c 2.600296,-0.558482 6.889752,-0.979152 7.066587,-0.693026 0.13601,0.220067 -0.984571,0.610563 -1.752094,0.610563 -0.387299,0 -1.307613,0.102884 -2.045139,0.228629 -0.737527,0.125746 -1.755911,0.278162 -2.263074,0.338701 -1.254793,0.149781 -1.194804,0.498624 0.386045,2.244925 0.232886,0.257261 0.638784,0.717413 0.901994,1.022562 l 0.478564,0.554817 0.937757,-0.284364 c 0.515765,-0.1564 1.657755,-0.502212 2.537755,-0.768471 0.88,-0.266259 1.836443,-0.585963 2.125429,-0.710453 0.288985,-0.124489 0.612985,-0.226789 0.72,-0.227331 0.107014,-4.8e-4 0.374571,-0.09459 0.594571,-0.208995 0.759888,-0.395157 2.556059,-0.967293 2.672181,-0.851171 0.434614,0.434614 -2.003986,1.523683 -6.192181,2.765401 -2.936795,0.870704 -2.938057,0.87154 -2.293305,1.516292 l 0.495619,0.495619 1.098843,-0.260943 c 4.558717,-1.082558 8.266878,-2.429776 10.345305,-3.758568 0.689565,-0.440856 1.077809,-0.302557 0.769237,0.274016 -0.460875,0.861154 -5.83373,2.910436 -10.135699,3.865895 -1.698678,0.377273 -1.774694,0.460797 -1.113497,1.223466 0.421444,0.486121 2.513414,2.139974 2.706868,2.139974 0.05303,0 0.319219,0.169096 0.591527,0.37577 3.545023,2.690574 10.906711,4.486808 14.208771,3.466905 z M 101.47067,51.180184 c -0.95141,-0.313739 -1.80876,-0.800212 -2.29573,-1.302641 l -0.49624,-0.511984 -0.25154,-1.216304 -0.25153,-1.216304 0.16291,-1.29925 c 0.79418,-6.333727 8.16086,-4.342727 8.1704,2.208224 l 0.002,1.189415 -0.81368,0.784284 c -1.38388,1.333884 -2.86711,1.812775 -4.22632,1.36456 z m 2.52769,-1.781187 c 1.7106,-1.096496 1.70972,-2.801478 -0.003,-4.843736 -0.37685,-0.449488 -0.68518,-0.898117 -0.68518,-0.996952 0,-0.255679 -0.70884,-0.400159 -1.46539,-0.298685 -0.72289,0.09696 -1.20977,0.48916 -1.899,1.529717 l -0.46642,0.704157 0.0907,0.979507 c 0.17137,1.850831 0.55162,2.455467 2.06011,3.275763 0.62488,0.3398 1.49168,0.211749 2.36769,-0.349771 z M 73.070676,48.656628 c -2.101915,-0.272116 -3.84,-2.19281 -3.84,-4.243445 0,-1.014279 1.400237,-2.662263 2.517321,-2.962717 0.419474,-0.112823 0.831079,-0.266517 0.914679,-0.341544 0.328241,-0.29458 0.908915,-0.10204 2.081648,0.690232 1.359907,0.918721 1.457302,1.049686 1.883974,2.533356 0.72195,2.510442 0.70068,2.872447 -0.231134,3.933724 l -0.479637,0.546277 -0.983426,-0.02098 c -0.540885,-0.01154 -1.379425,-0.07225 -1.863425,-0.134903 z m 2.470928,-1.479719 c 0.308073,-0.439838 0.319505,-1.122422 0.02834,-1.692344 -0.121402,-0.23763 -0.273674,-0.677667 -0.338381,-0.977862 -0.110901,-0.51449 -0.686059,-1.187879 -1.467656,-1.718317 l -0.346766,-0.235336 -0.693234,0.183265 c -0.821134,0.217079 -1.658724,0.965627 -1.900617,1.698568 l -0.173411,0.525444 0.269384,0.567684 c 0.537088,1.131829 2.031523,1.972727 3.542339,1.993226 l 0.830926,0.01128 0.249074,-0.355602 z"
           id="path10466" />
        <path
           style="opacity:1;fill:#000000;fill-opacity:0.796209;stroke:#101820;stroke-width:1.22686;stroke-opacity:1"
           d="m 73.010448,44.810015 c -0.313677,0.02503 -0.473563,0.360474 -0.456558,0.653461 0.01427,0.245848 0.214028,0.453428 0.477078,0.472521 0.237664,0.01725 0.373901,-0.220009 0.429719,-0.414025 0.05222,-0.181498 0.163127,-0.484897 -0.03694,-0.590243 -0.127978,-0.06739 -0.27306,-0.09249 -0.413295,-0.121714 z"
           id="path12474"
           inkscape:path-effect="#path-effect12476"
           inkscape:original-d="m 73.010448,44.810015 c -0.682953,0.08234 -0.584863,1.291157 0.150982,1.107196 0.250557,-0.06265 0.481781,-0.776402 0.301962,-0.956214 -0.08159,-0.0816 -0.373993,-0.135193 -0.452944,-0.150982 z" />
        <path
           style="opacity:1;fill:#000000;fill-opacity:0.796209;stroke:#101820;stroke-width:1.22686;stroke-opacity:1"
           d="m 101.99892,46.319827 c -0.18324,0.0895 -0.53073,0.05723 -0.53289,0.329189 -0.002,0.264239 -0.0748,0.539479 5.1e-4,0.794553 0.0656,0.221912 0.35554,0.240508 0.54894,0.262983 0.27797,0.0323 0.66227,0.04004 0.80432,-0.240312 0.12658,-0.249829 0.0722,-0.554134 -0.0413,-0.787999 -0.0908,-0.187093 -0.33336,-0.21642 -0.51389,-0.272286 -0.0888,-0.02749 -0.1804,-0.04869 -0.26569,-0.08613 z"
           id="path12478"
           inkscape:path-effect="#path-effect12480"
           inkscape:original-d="m 101.99892,46.319827 c -0.62205,0.207353 -0.51387,0.02123 -0.5536,0.855567 -0.006,0.118488 0.002,0.24389 0.0503,0.352289 0.0673,0.151507 1.58768,0.526519 1.35884,-0.50327 -0.005,-0.02097 -0.058,-0.345824 -0.10066,-0.402623 -0.10395,-0.138608 -0.63143,-0.240223 -0.7549,-0.301963 z" />
      </g>
    </g>
  </g>
</svg>
